<svg width="50" height="50" viewBox="0 0 50 50" fill="none" xmlns="http://www.w3.org/2000/svg">
<g clip-path="url(#clip0_2068_68)">
<path d="M25.3906 -4.30532e-05C25.628 0.182589 25.7462 0.320405 25.8789 0.585894C25.8872 0.791489 25.8894 0.997351 25.8884 1.20311C25.8881 1.32585 25.8878 1.44859 25.8875 1.57505C25.8867 1.70383 25.8859 1.83261 25.885 1.96529C25.8845 2.09613 25.8841 2.22698 25.8837 2.35782C25.8825 2.67864 25.8809 2.99945 25.8789 3.32027C25.939 3.31822 25.9991 3.31618 26.061 3.31407C26.3339 3.30594 26.6069 3.30087 26.8799 3.29586C27.0217 3.29095 27.0217 3.29095 27.1664 3.28594C27.8671 3.27627 27.8671 3.27627 28.1849 3.49956C28.3636 3.77839 28.4113 3.96489 28.418 4.29683C28.305 4.62322 28.2311 4.82206 27.9263 4.99645C27.5232 5.1101 27.1437 5.09883 26.7273 5.09029C26.6457 5.08941 26.564 5.08853 26.4799 5.08762C26.2796 5.08533 26.0792 5.08183 25.8789 5.07808C25.7259 6.81983 25.7259 6.81983 26.2131 8.4106C26.4904 8.6839 26.8174 8.87895 27.1484 9.08199C27.3076 9.23197 27.4626 9.38647 27.6123 9.54586C27.8686 9.80583 28.1282 10.0534 28.4058 10.2905C28.7349 10.5724 29.0415 10.8732 29.3457 11.1816C29.6459 11.4859 29.948 11.783 30.2734 12.0605C30.6495 12.3811 30.9944 12.7298 31.3412 13.0813C31.5956 13.3379 31.854 13.5839 32.1289 13.8183C32.505 14.1389 32.8499 14.4877 33.1966 14.8391C33.4511 15.0957 33.7094 15.3417 33.9844 15.5761C34.3605 15.8967 34.7054 16.2455 35.0521 16.5969C35.3065 16.8535 35.5649 17.0996 35.8398 17.3339C36.2159 17.6545 36.5608 18.0033 36.9076 18.3548C37.162 18.6113 37.4204 18.8574 37.6953 19.0918C38.0714 19.4124 38.4163 19.7611 38.763 20.1126C39.0752 20.4273 39.3986 20.72 39.7358 21.0071C40.0931 21.3273 40.4252 21.6735 40.7604 22.0165C41.0093 22.2679 41.0093 22.2679 41.28 22.475C41.6114 22.7432 41.6931 22.9019 41.748 23.3276C41.7387 23.6885 41.7002 23.7294 41.4429 24.0234C41.0776 24.2398 40.9416 24.2675 40.5273 24.2187C40.2695 24.0608 40.2695 24.0608 40.0146 23.8403C39.9316 23.77 39.8485 23.6998 39.7629 23.6274C39.4807 23.3725 39.2139 23.1028 38.9455 22.8335C38.8576 22.7455 38.7698 22.6575 38.6793 22.5667C38.6124 22.4996 38.5455 22.4324 38.4766 22.3632C38.0663 23.9217 37.7704 25.849 38.5754 27.3304C39.2213 28.371 40.1086 29.2495 40.9725 30.1082C41.0663 30.2014 41.0663 30.2014 41.162 30.2965C41.9456 31.0715 42.749 31.8245 43.5599 32.5709C44.2592 33.2154 44.9447 33.8739 45.6294 34.5337C46.4647 35.3384 47.3017 36.141 48.1492 36.9327C48.2086 36.9882 48.268 37.0437 48.3292 37.1008C48.6073 37.3604 48.8859 37.6195 49.1651 37.8779C49.2146 37.924 49.2642 37.97 49.3152 38.0175C49.4472 38.1402 49.5796 38.2626 49.7119 38.3851C49.985 38.6562 49.9977 38.7459 50.0366 39.1418C50.0311 39.4766 49.9998 39.5511 49.7986 39.8437C49.5117 40.039 49.5117 40.039 49.1882 40.1123C48.2153 39.9144 47.3826 38.6912 46.7773 38.0859C46.7451 41.4375 46.7129 44.789 46.6797 48.2421C47.5176 48.2421 48.3555 48.2421 49.2188 48.2421C49.8169 48.4814 49.8169 48.4814 50 48.7304C50.0423 48.9376 50.0423 48.9376 50.0427 49.1638C50.0446 49.2382 50.0465 49.3126 50.0484 49.3892C49.9789 49.7053 49.8673 49.8042 49.6094 50C49.3251 50.0382 49.0779 50.0525 48.7937 50.0491C48.7103 50.0497 48.6269 50.0503 48.5409 50.0508C48.2594 50.0523 47.978 50.0509 47.6965 50.0496C47.4934 50.05 47.2903 50.0506 47.0873 50.0514C46.5277 50.053 45.9682 50.0522 45.4087 50.051C44.8058 50.0501 44.203 50.0515 43.6001 50.0526C42.4869 50.0542 41.3737 50.0541 40.2604 50.053C39.2321 50.052 38.2038 50.0518 37.1754 50.0522C37.1073 50.0523 37.0391 50.0523 36.9689 50.0523C36.6923 50.0524 36.4157 50.0526 36.139 50.0527C33.5428 50.0539 30.9466 50.0528 28.3504 50.0507C26.0426 50.0489 23.7349 50.049 21.4272 50.0509C18.8358 50.053 16.2444 50.0538 13.653 50.0526C13.3768 50.0525 13.1007 50.0524 12.8246 50.0522C12.7566 50.0522 12.6886 50.0522 12.6185 50.0521C11.5907 50.0517 10.5629 50.0522 9.5351 50.0532C8.3667 50.0543 7.19832 50.054 6.02992 50.0519C5.43336 50.0509 4.83681 50.0505 4.24025 50.0518C3.69475 50.0529 3.14927 50.0523 2.60377 50.0502C2.40584 50.0498 2.2079 50.05 2.00997 50.051C1.74203 50.0521 1.4742 50.0509 1.20627 50.0491C1.08953 50.0505 1.08953 50.0505 0.970431 50.0519C0.622491 50.0471 0.428491 50.0288 0.147578 49.8151C-0.0686124 49.5137 -0.054734 49.2981 -0.038147 48.9379C0 48.7304 0 48.7304 0.170898 48.4863C1.03477 47.9104 2.53366 48.2421 3.32031 48.2421C3.28809 44.8906 3.25586 41.539 3.22266 38.0859C2.61035 38.6982 1.99805 39.3105 1.36719 39.9414C1.06067 40.0946 0.826313 40.0734 0.488281 40.039C0.109637 39.7812 0.0153793 39.6289 -0.0732422 39.1784C-0.0134404 38.3352 1.02893 37.6498 1.60382 37.1208C1.87468 36.8714 2.14419 36.6205 2.41375 36.3698C2.49962 36.2899 2.49962 36.2899 2.58722 36.2085C3.39279 35.4581 4.18614 34.6949 4.97976 33.932C5.62365 33.3137 6.27132 32.7006 6.92971 32.0977C7.69202 31.3986 8.44249 30.6886 9.17625 29.9594C9.26457 29.8717 9.26457 29.8717 9.35467 29.7822C10.7679 28.3663 11.8473 27.1521 11.8895 25.0496C11.8637 24.1356 11.7402 23.2506 11.5234 22.3632C11.4444 22.443 11.3653 22.5228 11.2838 22.605C11.1783 22.7111 11.0728 22.8172 10.9673 22.9232C10.9154 22.9757 10.8634 23.0281 10.81 23.0821C9.74044 24.1557 9.74044 24.1557 9.16138 24.292C8.76435 24.1861 8.57129 24.0396 8.30078 23.7304C8.21553 23.2421 8.22545 23.0645 8.49609 22.6501C8.76082 22.3736 9.05392 22.1278 9.34525 21.8799C9.60998 21.6443 9.85888 21.3949 10.1074 21.1425C10.4656 20.7794 10.8332 20.4358 11.2213 20.1049C11.4785 19.8746 11.7205 19.6304 11.9629 19.3847C12.3211 19.0216 12.6886 18.678 13.0768 18.3471C13.334 18.1168 13.576 17.8726 13.8184 17.6269C14.1766 17.2638 14.5441 16.9202 14.9323 16.5893C15.1894 16.359 15.4315 16.1148 15.6738 15.8691C16.0321 15.506 16.3996 15.1624 16.7877 14.8315C17.0449 14.6012 17.2869 14.3569 17.5293 14.1113C17.8875 13.7482 18.255 13.4046 18.6432 13.0737C18.9004 12.8434 19.1424 12.5991 19.3848 12.3535C19.743 11.9903 20.1105 11.6468 20.4987 11.3159C20.7558 11.0856 20.9979 10.8413 21.2402 10.5957C21.598 10.233 21.9647 9.88974 22.3526 9.55959C22.7134 9.23622 23.0486 8.88661 23.3871 8.5403C23.6328 8.30074 23.6328 8.30074 23.8398 8.18112C24.0533 8.01412 24.0533 8.01412 24.0767 7.70557C24.0788 7.58437 24.0808 7.46317 24.0829 7.33829C24.0846 7.27368 24.0862 7.20906 24.0878 7.14249C24.0926 6.93652 24.0947 6.73063 24.0967 6.52462C24.0994 6.3848 24.1024 6.24499 24.1055 6.10519C24.1127 5.76284 24.1175 5.4205 24.1211 5.07808C23.941 5.08318 23.941 5.08318 23.7572 5.08838C23.5977 5.09113 23.4383 5.0938 23.2788 5.09639C23.1999 5.09885 23.1209 5.1013 23.0396 5.10383C22.5466 5.10984 22.1991 5.07087 21.7773 4.78511C21.6188 4.42836 21.5538 4.21442 21.6492 3.83296C21.7768 3.61422 21.8732 3.47784 22.0703 3.32027C22.2918 3.28701 22.2918 3.28701 22.5475 3.29166C22.6849 3.29308 22.6849 3.29308 22.8251 3.29452C22.9204 3.29698 23.0158 3.29943 23.114 3.30196C23.2105 3.30328 23.307 3.3046 23.4064 3.30596C23.6447 3.30942 23.8829 3.31424 24.1211 3.32027C24.1188 3.19986 24.1188 3.19986 24.1164 3.07701C24.1103 2.71255 24.1065 2.34809 24.1028 1.9836C24.1003 1.85727 24.0979 1.73095 24.0953 1.60079C24.0939 1.4181 24.0939 1.4181 24.0925 1.23172C24.0902 1.06373 24.0902 1.06373 24.0878 0.892334C24.1248 0.551483 24.2101 0.370421 24.4141 0.0976132C24.7258 -0.0582625 25.0522 -0.0503029 25.3906 -4.30532e-05ZM24.7402 9.71182C24.6766 9.77702 24.6131 9.84222 24.5476 9.9094C24.4768 9.98121 24.4061 10.053 24.3332 10.127C24.2222 10.2412 24.2222 10.2412 24.1089 10.3576C23.6323 10.8455 23.1525 11.3175 22.6349 11.762C22.4029 11.9648 22.1876 12.1816 21.9727 12.4023C21.6899 12.6885 21.406 12.9652 21.0999 13.2263C20.7725 13.506 20.4682 13.805 20.166 14.1113C19.8078 14.4744 19.4403 14.818 19.0521 15.1489C18.7949 15.3792 18.5529 15.6234 18.3105 15.8691C17.9523 16.2322 17.5848 16.5758 17.1967 16.9067C16.9395 17.137 16.6974 17.3813 16.4551 17.6269C16.097 17.9899 15.7297 18.3334 15.3416 18.6641C14.9911 18.9781 14.6654 19.3172 14.3368 19.6537C14.0625 19.9218 14.0625 19.9218 13.8891 20.0367C13.5976 20.2381 13.4093 20.3936 13.3161 20.7434C13.2926 21.0413 13.2911 21.3324 13.2967 21.6311C13.2961 21.7449 13.2955 21.8586 13.2949 21.9758C13.294 22.2908 13.2961 22.6056 13.2996 22.9205C13.3025 23.2604 13.3015 23.6003 13.301 23.9402C13.3006 24.5288 13.3028 25.1174 13.3066 25.706C13.3122 26.557 13.314 27.408 13.3148 28.2591C13.3163 29.6399 13.3209 31.0206 13.3273 32.4014C13.3336 33.7426 13.3385 35.0837 13.3414 36.4249C13.3415 36.5076 13.3417 36.5903 13.3419 36.6755C13.3428 37.0903 13.3437 37.5052 13.3445 37.92C13.3516 41.3607 13.3638 44.8014 13.3789 48.2421C14.9902 48.2421 16.6016 48.2421 18.2617 48.2421C18.2654 47.6258 18.269 47.0095 18.2728 46.3745C18.2757 45.981 18.2788 45.5876 18.2821 45.1942C18.2874 44.5715 18.2924 43.9488 18.2956 43.326C18.2981 42.8233 18.3021 42.3205 18.307 41.8178C18.3086 41.6272 18.3097 41.4366 18.3103 41.246C18.3207 38.3245 18.3207 38.3245 19.0186 37.0666C19.0527 37.002 19.0868 36.9375 19.1219 36.8709C19.4025 36.3535 19.7223 35.8869 20.1172 35.4492C20.1667 35.3908 20.2161 35.3324 20.2671 35.2722C21.3239 34.1089 22.9618 33.4681 24.5079 33.3751C26.3233 33.3292 28.0473 33.7338 29.4312 34.9853C30.9238 36.4071 31.6117 38.1437 31.6777 40.1809C31.6868 40.63 31.6891 41.0791 31.6906 41.5283C31.6922 41.7231 31.694 41.9179 31.6959 42.1127C31.7005 42.62 31.7034 43.1273 31.706 43.6346C31.7095 44.2463 31.715 44.8579 31.7202 45.4695C31.7278 46.3937 31.7328 47.3179 31.7383 48.2421C33.3496 48.2421 34.9609 48.2421 36.6211 48.2421C36.6565 44.7339 36.6844 41.2257 36.7009 37.7174C36.7028 37.3026 36.7049 36.8879 36.7069 36.4732C36.7075 36.3494 36.7075 36.3494 36.7082 36.223C36.715 34.8883 36.7273 33.5538 36.7416 32.2192C36.7563 30.8485 36.7649 29.4778 36.7681 28.1071C36.7702 27.262 36.777 26.4172 36.7897 25.5722C36.798 24.9918 36.8005 24.4115 36.7984 23.831C36.7974 23.4966 36.7989 23.1627 36.8074 22.8283C36.8815 21.3366 36.8815 21.3366 36.2768 20.0306C35.9567 19.7063 35.6113 19.4323 35.2378 19.1721C35.0063 19.0052 34.8134 18.8119 34.6191 18.6035C34.3895 18.3698 34.1539 18.1512 33.905 17.9382C33.574 17.654 33.2652 17.3514 32.959 17.041C32.6588 16.7367 32.3567 16.4395 32.0312 16.1621C31.6552 15.8415 31.3103 15.4927 30.9635 15.1413C30.7091 14.8847 30.4507 14.6386 30.1758 14.4043C29.7998 14.0837 29.4549 13.7351 29.1083 13.3837C28.7936 13.0664 28.4674 12.771 28.1277 12.4813C27.8009 12.1898 27.4984 11.8741 27.1908 11.5627C26.9311 11.3063 26.6598 11.07 26.3821 10.8337C26.0591 10.543 25.7576 10.231 25.457 9.91743C25.3408 9.79817 25.2196 9.68376 25.0977 9.57027C24.891 9.54886 24.891 9.54886 24.7402 9.71182ZM8.29468 32.1533C8.21826 32.2195 8.14184 32.2857 8.06311 32.3538C6.05038 34.127 4.86184 35.9278 4.6807 38.6365C4.60585 39.9556 4.62207 41.2708 4.67529 42.5903C4.67802 42.6599 4.68075 42.7295 4.68357 42.8012C4.75621 44.6218 4.90821 46.4258 5.07812 48.2421C7.2373 48.2421 9.39648 48.2421 11.6211 48.2421C11.6211 42.1191 11.6211 35.9961 11.6211 29.6875C10.6751 29.6875 8.97125 31.5662 8.29468 32.1533ZM38.3789 29.6875C38.3789 35.8105 38.3789 41.9336 38.3789 48.2421C40.5381 48.2421 42.6973 48.2421 44.9219 48.2421C45.0984 46.3549 45.2505 44.4817 45.3247 42.5903C45.3275 42.5211 45.3303 42.4518 45.3332 42.3805C45.4586 39.184 45.5186 36.1831 43.2783 33.6543C42.7836 33.1197 42.2556 32.6299 41.7053 32.1533C41.6284 32.0866 41.5516 32.0199 41.4724 31.9511C40.048 30.5477 40.048 30.5477 38.3789 29.6875ZM21.1914 36.8164C20.0187 38.2765 19.9903 39.8425 20.0005 41.6332C20.0007 41.8027 20.0009 41.9723 20.0011 42.1418C20.0021 42.7654 20.0048 43.3889 20.0073 44.0124C20.0114 45.4082 20.0154 46.804 20.0195 48.2421C23.3066 48.2421 26.5938 48.2421 29.9805 48.2421C29.9865 46.8524 29.9926 45.4626 29.9988 44.0307C30.0014 43.5945 30.0041 43.1583 30.0069 42.7089C30.0078 42.3123 30.0078 42.3123 30.0084 41.9158C30.0089 41.7414 30.0099 41.5669 30.0114 41.3925C30.0271 39.4715 29.8306 37.9059 28.4531 36.4475C28.1115 36.1257 27.7508 35.8761 27.3438 35.6445C27.2457 35.5875 27.2457 35.5875 27.1458 35.5293C25.0907 34.4142 22.7135 35.2034 21.1914 36.8164Z" fill="#797979"/>
<path d="M27.8217 19.0857C27.8896 19.1361 27.9574 19.1864 28.0273 19.2383C28.0902 19.2846 28.153 19.331 28.2177 19.3787C29.4137 20.3334 29.9124 21.6823 30.106 23.1621C30.159 24.2365 29.7789 25.2873 29.1992 26.1719C29.1479 26.2503 29.0965 26.3288 29.0436 26.4096C28.3046 27.4431 27.1349 28.1088 25.8972 28.357C24.2186 28.5831 22.9132 28.0766 21.5637 27.1241C21.1797 26.7486 20.8922 26.3315 20.6055 25.8789C20.5659 25.8166 20.5264 25.7543 20.4857 25.6901C19.8235 24.5149 19.822 23.2054 20.1134 21.9338C20.5027 20.5844 21.3006 19.6267 22.4876 18.9087C24.1592 17.9999 26.2253 18.0161 27.8217 19.0857ZM22.7539 20.8985C22.0608 21.628 21.6814 22.4241 21.6797 23.4375C21.7565 24.3228 22.1324 25.1425 22.7539 25.7813C23.72 26.5216 24.593 26.6573 25.7812 26.5625C26.1135 26.4798 26.3732 26.3565 26.6601 26.1719C26.728 26.1305 26.7959 26.0891 26.8658 26.0464C27.618 25.5397 28.085 24.8109 28.2619 23.9243C28.4114 22.9638 28.1585 22.0904 27.6062 21.3013C26.9687 20.4975 26.1908 20.1945 25.1953 20.0196C24.2823 20.0196 23.4414 20.2915 22.7539 20.8985Z" fill="#797979"/>
</g>
<defs>
<clipPath id="clip0_2068_68">
<rect width="50" height="50" fill="white"/>
</clipPath>
</defs>
</svg>
