<svg width="50" height="50" viewBox="0 0 50 50" fill="none" xmlns="http://www.w3.org/2000/svg">
<g clip-path="url(#clip0_2068_101)">
<mask id="path-1-inside-1_2068_101" fill="white">
<path d="M10.0151 3.8802C10.1494 3.87983 10.2837 3.87938 10.418 3.87886C10.7857 3.87767 11.1534 3.87769 11.521 3.87792C11.9181 3.87796 12.3152 3.87688 12.7123 3.87595C13.4898 3.87433 14.2673 3.87379 15.0448 3.87369C15.6771 3.87359 16.3093 3.87319 16.9416 3.87257C18.7355 3.87085 20.5294 3.86995 22.3233 3.8701C22.4199 3.87011 22.5166 3.87011 22.6162 3.87012C22.7129 3.87013 22.8097 3.87014 22.9094 3.87015C24.4771 3.87023 26.0449 3.86836 27.6126 3.8656C29.2237 3.86279 30.8347 3.86145 32.4458 3.86162C33.3498 3.86168 34.2537 3.86115 35.1577 3.85904C35.9274 3.85726 36.6972 3.85684 37.4669 3.85817C37.8593 3.8588 38.2516 3.85882 38.644 3.85712C39.004 3.85558 39.3639 3.85587 39.7238 3.85757C39.9141 3.858 40.1044 3.85654 40.2947 3.85498C41.8842 3.86732 43.2563 4.43982 44.4061 5.53328C45.6636 6.82302 46.1242 8.24651 46.1199 10.0152C46.1202 10.1495 46.1207 10.2838 46.1212 10.4181C46.1224 10.7857 46.1224 11.1534 46.1221 11.5211C46.1221 11.9182 46.1232 12.3153 46.1241 12.7124C46.1257 13.4899 46.1263 14.2674 46.1264 15.0449C46.1265 15.6771 46.1269 16.3094 46.1275 16.9416C46.1292 18.7355 46.1301 20.5294 46.13 22.3233C46.13 22.42 46.1299 22.5167 46.1299 22.6162C46.1299 22.713 46.1299 22.8098 46.1299 22.9095C46.1298 24.4772 46.1317 26.0449 46.1345 27.6127C46.1373 29.2237 46.1386 30.8348 46.1384 32.4459C46.1384 33.3498 46.1389 34.2538 46.141 35.1577C46.1428 35.9275 46.1432 36.6972 46.1419 37.467C46.1413 37.8594 46.1412 38.2517 46.1429 38.6441C46.1445 39.004 46.1442 39.3639 46.1425 39.7239C46.1421 39.9142 46.1435 40.1045 46.1451 40.2947C46.1327 41.8843 45.5602 43.2563 44.4668 44.4062C43.177 45.6636 41.7535 46.1242 39.9849 46.1199C39.8506 46.1203 39.7163 46.1207 39.582 46.1213C39.2143 46.1225 38.8466 46.1224 38.479 46.1222C38.0819 46.1222 37.6848 46.1232 37.2877 46.1242C36.5102 46.1258 35.7327 46.1263 34.9552 46.1264C34.3229 46.1265 33.6907 46.1269 33.0584 46.1276C31.2645 46.1293 29.4706 46.1302 27.6767 46.13C27.5801 46.13 27.4834 46.13 27.3838 46.13C27.2871 46.13 27.1903 46.13 27.0906 46.13C25.5228 46.1299 23.9551 46.1318 22.3874 46.1345C20.7763 46.1373 19.1653 46.1387 17.5542 46.1385C16.6502 46.1384 15.7463 46.139 14.8423 46.1411C14.0726 46.1429 13.3028 46.1433 12.5331 46.142C12.1407 46.1413 11.7484 46.1413 11.356 46.143C10.996 46.1445 10.6361 46.1443 10.2762 46.1426C10.0859 46.1421 9.89561 46.1436 9.70533 46.1451C8.1158 46.1328 6.74373 45.5603 5.59387 44.4668C4.33643 43.1771 3.87581 41.7536 3.88014 39.985C3.87977 39.8507 3.87932 39.7164 3.8788 39.582C3.8776 39.2144 3.87763 38.8467 3.87786 38.479C3.8779 38.0819 3.87682 37.6848 3.87589 37.2877C3.87427 36.5102 3.87373 35.7327 3.87362 34.9552C3.87353 34.323 3.87313 33.6907 3.87251 33.0585C3.87079 31.2646 3.86989 29.4707 3.87004 27.6768C3.87004 27.5801 3.87005 27.4835 3.87006 27.3839C3.87007 27.2871 3.87008 27.1903 3.87008 27.0906C3.87016 25.5229 3.8683 23.9552 3.86554 22.3875C3.86273 20.7764 3.86139 19.1653 3.86156 17.5542C3.86162 16.6503 3.86109 15.7463 3.85898 14.8424C3.8572 14.0726 3.85678 13.3029 3.8581 12.5331C3.85874 12.1408 3.85876 11.7484 3.85706 11.3561C3.85552 10.9961 3.85581 10.6362 3.85751 10.2762C3.85794 10.086 3.85648 9.89567 3.85492 9.70539C3.86726 8.11586 4.43976 6.7438 5.53322 5.59394C6.82296 4.33649 8.24645 3.87588 10.0151 3.8802ZM6.81153 7.19535C5.93034 8.36371 5.82917 9.63618 5.83458 11.0554C5.83427 11.18 5.83397 11.3046 5.83365 11.433C5.83284 11.7755 5.83324 12.118 5.83385 12.4604C5.83429 12.8311 5.8336 13.2018 5.83307 13.5724C5.8322 14.2972 5.83239 15.022 5.83295 15.7468C5.8334 16.3362 5.83345 16.9255 5.83324 17.5149C5.83321 17.599 5.83318 17.683 5.83315 17.7697C5.83309 17.9405 5.83302 18.1113 5.83296 18.2821C5.8324 19.8816 5.83304 21.4811 5.83409 23.0806C5.83497 24.4513 5.83481 25.822 5.83391 27.1927C5.83287 28.7867 5.83246 30.3807 5.83306 31.9747C5.83312 32.1449 5.83318 32.3151 5.83324 32.4852C5.83327 32.5689 5.8333 32.6526 5.83333 32.7389C5.8335 33.3271 5.83322 33.9154 5.83276 34.5037C5.83221 35.2211 5.83236 35.9386 5.8334 36.656C5.83391 37.0217 5.83412 37.3873 5.83347 37.753C5.83277 38.1502 5.8336 38.5474 5.83458 38.9447C5.83414 39.059 5.8337 39.1734 5.83326 39.2912C5.84022 40.7655 6.07273 41.9616 7.10526 43.0623C8.23592 44.0925 9.55468 44.1556 11.0084 44.1537C11.1327 44.154 11.2569 44.1542 11.385 44.1544C11.7283 44.155 12.0717 44.155 12.415 44.1549C12.786 44.1549 13.1569 44.1554 13.5278 44.1559C14.254 44.1567 14.9802 44.1569 15.7063 44.157C16.2968 44.157 16.8873 44.1572 17.4778 44.1576C19.1533 44.1584 20.8288 44.1589 22.5043 44.1588C22.6397 44.1588 22.6397 44.1588 22.7778 44.1588C22.9134 44.1588 22.9134 44.1588 23.0517 44.1588C24.5159 44.1587 25.9802 44.1597 27.4444 44.161C28.9492 44.1624 30.454 44.1631 31.9588 44.163C32.8031 44.163 33.6474 44.1633 34.4917 44.1643C35.2106 44.1652 35.9294 44.1654 36.6483 44.1648C37.0148 44.1644 37.3812 44.1644 37.7477 44.1653C38.1458 44.1662 38.5439 44.1656 38.942 44.1648C39.0566 44.1653 39.1712 44.1658 39.2893 44.1664C40.7644 44.1602 41.9609 43.9278 43.0622 42.8948C44.0924 41.7641 44.1556 40.4454 44.1537 38.9917C44.1539 38.8674 44.1541 38.7431 44.1544 38.6151C44.1549 38.2717 44.1549 37.9284 44.1548 37.585C44.1548 37.2141 44.1553 36.8432 44.1558 36.4722C44.1566 35.7461 44.1569 35.0199 44.1569 34.2937C44.157 33.7033 44.1572 33.1128 44.1575 32.5223C44.1584 30.8468 44.1588 29.1712 44.1587 27.4957C44.1587 27.4055 44.1587 27.3152 44.1587 27.2222C44.1587 27.1318 44.1587 27.0415 44.1587 26.9484C44.1587 25.4841 44.1596 24.0199 44.161 22.5557C44.1624 21.0509 44.1631 19.5461 44.163 18.0413C44.1629 17.197 44.1632 16.3527 44.1643 15.5084C44.1651 14.7895 44.1654 14.0706 44.1647 13.3517C44.1644 12.9853 44.1644 12.6188 44.1652 12.2524C44.1661 11.8543 44.1655 11.4562 44.1648 11.0581C44.1655 10.8862 44.1655 10.8862 44.1663 10.7108C44.1602 9.23568 43.9278 8.03912 42.8947 6.93785C41.7641 5.90765 40.4453 5.84448 38.9916 5.84638C38.8673 5.84616 38.7431 5.84594 38.615 5.84571C38.2717 5.84511 37.9283 5.84513 37.585 5.84524C37.214 5.84526 36.8431 5.84472 36.4722 5.84426C35.746 5.84345 35.0198 5.84318 34.2937 5.84312C33.7032 5.84308 33.1127 5.84288 32.5222 5.84257C30.8467 5.84171 29.1712 5.84126 27.4957 5.84133C27.3603 5.84134 27.3603 5.84134 27.2222 5.84134C27.0866 5.84135 27.0866 5.84135 26.9483 5.84135C25.4841 5.84139 24.0198 5.84046 22.5556 5.83908C21.0508 5.83768 19.546 5.83701 18.0412 5.83709C17.1969 5.83712 16.3526 5.83686 15.5083 5.8358C14.7894 5.83491 14.0705 5.8347 13.3517 5.83536C12.9852 5.83568 12.6188 5.83569 12.2523 5.83484C11.8542 5.83393 11.4561 5.83454 11.058 5.83529C10.9434 5.83479 10.8288 5.83429 10.7107 5.83377C9.24479 5.83987 7.84598 6.06176 6.81153 7.19535Z"/>
</mask>
<path d="M10.0151 3.8802C10.1494 3.87983 10.2837 3.87938 10.418 3.87886C10.7857 3.87767 11.1534 3.87769 11.521 3.87792C11.9181 3.87796 12.3152 3.87688 12.7123 3.87595C13.4898 3.87433 14.2673 3.87379 15.0448 3.87369C15.6771 3.87359 16.3093 3.87319 16.9416 3.87257C18.7355 3.87085 20.5294 3.86995 22.3233 3.8701C22.4199 3.87011 22.5166 3.87011 22.6162 3.87012C22.7129 3.87013 22.8097 3.87014 22.9094 3.87015C24.4771 3.87023 26.0449 3.86836 27.6126 3.8656C29.2237 3.86279 30.8347 3.86145 32.4458 3.86162C33.3498 3.86168 34.2537 3.86115 35.1577 3.85904C35.9274 3.85726 36.6972 3.85684 37.4669 3.85817C37.8593 3.8588 38.2516 3.85882 38.644 3.85712C39.004 3.85558 39.3639 3.85587 39.7238 3.85757C39.9141 3.858 40.1044 3.85654 40.2947 3.85498C41.8842 3.86732 43.2563 4.43982 44.4061 5.53328C45.6636 6.82302 46.1242 8.24651 46.1199 10.0152C46.1202 10.1495 46.1207 10.2838 46.1212 10.4181C46.1224 10.7857 46.1224 11.1534 46.1221 11.5211C46.1221 11.9182 46.1232 12.3153 46.1241 12.7124C46.1257 13.4899 46.1263 14.2674 46.1264 15.0449C46.1265 15.6771 46.1269 16.3094 46.1275 16.9416C46.1292 18.7355 46.1301 20.5294 46.13 22.3233C46.13 22.42 46.1299 22.5167 46.1299 22.6162C46.1299 22.713 46.1299 22.8098 46.1299 22.9095C46.1298 24.4772 46.1317 26.0449 46.1345 27.6127C46.1373 29.2237 46.1386 30.8348 46.1384 32.4459C46.1384 33.3498 46.1389 34.2538 46.141 35.1577C46.1428 35.9275 46.1432 36.6972 46.1419 37.467C46.1413 37.8594 46.1412 38.2517 46.1429 38.6441C46.1445 39.004 46.1442 39.3639 46.1425 39.7239C46.1421 39.9142 46.1435 40.1045 46.1451 40.2947C46.1327 41.8843 45.5602 43.2563 44.4668 44.4062C43.177 45.6636 41.7535 46.1242 39.9849 46.1199C39.8506 46.1203 39.7163 46.1207 39.582 46.1213C39.2143 46.1225 38.8466 46.1224 38.479 46.1222C38.0819 46.1222 37.6848 46.1232 37.2877 46.1242C36.5102 46.1258 35.7327 46.1263 34.9552 46.1264C34.3229 46.1265 33.6907 46.1269 33.0584 46.1276C31.2645 46.1293 29.4706 46.1302 27.6767 46.13C27.5801 46.13 27.4834 46.13 27.3838 46.13C27.2871 46.13 27.1903 46.13 27.0906 46.13C25.5228 46.1299 23.9551 46.1318 22.3874 46.1345C20.7763 46.1373 19.1653 46.1387 17.5542 46.1385C16.6502 46.1384 15.7463 46.139 14.8423 46.1411C14.0726 46.1429 13.3028 46.1433 12.5331 46.142C12.1407 46.1413 11.7484 46.1413 11.356 46.143C10.996 46.1445 10.6361 46.1443 10.2762 46.1426C10.0859 46.1421 9.89561 46.1436 9.70533 46.1451C8.1158 46.1328 6.74373 45.5603 5.59387 44.4668C4.33643 43.1771 3.87581 41.7536 3.88014 39.985C3.87977 39.8507 3.87932 39.7164 3.8788 39.582C3.8776 39.2144 3.87763 38.8467 3.87786 38.479C3.8779 38.0819 3.87682 37.6848 3.87589 37.2877C3.87427 36.5102 3.87373 35.7327 3.87362 34.9552C3.87353 34.323 3.87313 33.6907 3.87251 33.0585C3.87079 31.2646 3.86989 29.4707 3.87004 27.6768C3.87004 27.5801 3.87005 27.4835 3.87006 27.3839C3.87007 27.2871 3.87008 27.1903 3.87008 27.0906C3.87016 25.5229 3.8683 23.9552 3.86554 22.3875C3.86273 20.7764 3.86139 19.1653 3.86156 17.5542C3.86162 16.6503 3.86109 15.7463 3.85898 14.8424C3.8572 14.0726 3.85678 13.3029 3.8581 12.5331C3.85874 12.1408 3.85876 11.7484 3.85706 11.3561C3.85552 10.9961 3.85581 10.6362 3.85751 10.2762C3.85794 10.086 3.85648 9.89567 3.85492 9.70539C3.86726 8.11586 4.43976 6.7438 5.53322 5.59394C6.82296 4.33649 8.24645 3.87588 10.0151 3.8802ZM6.81153 7.19535C5.93034 8.36371 5.82917 9.63618 5.83458 11.0554C5.83427 11.18 5.83397 11.3046 5.83365 11.433C5.83284 11.7755 5.83324 12.118 5.83385 12.4604C5.83429 12.8311 5.8336 13.2018 5.83307 13.5724C5.8322 14.2972 5.83239 15.022 5.83295 15.7468C5.8334 16.3362 5.83345 16.9255 5.83324 17.5149C5.83321 17.599 5.83318 17.683 5.83315 17.7697C5.83309 17.9405 5.83302 18.1113 5.83296 18.2821C5.8324 19.8816 5.83304 21.4811 5.83409 23.0806C5.83497 24.4513 5.83481 25.822 5.83391 27.1927C5.83287 28.7867 5.83246 30.3807 5.83306 31.9747C5.83312 32.1449 5.83318 32.3151 5.83324 32.4852C5.83327 32.5689 5.8333 32.6526 5.83333 32.7389C5.8335 33.3271 5.83322 33.9154 5.83276 34.5037C5.83221 35.2211 5.83236 35.9386 5.8334 36.656C5.83391 37.0217 5.83412 37.3873 5.83347 37.753C5.83277 38.1502 5.8336 38.5474 5.83458 38.9447C5.83414 39.059 5.8337 39.1734 5.83326 39.2912C5.84022 40.7655 6.07273 41.9616 7.10526 43.0623C8.23592 44.0925 9.55468 44.1556 11.0084 44.1537C11.1327 44.154 11.2569 44.1542 11.385 44.1544C11.7283 44.155 12.0717 44.155 12.415 44.1549C12.786 44.1549 13.1569 44.1554 13.5278 44.1559C14.254 44.1567 14.9802 44.1569 15.7063 44.157C16.2968 44.157 16.8873 44.1572 17.4778 44.1576C19.1533 44.1584 20.8288 44.1589 22.5043 44.1588C22.6397 44.1588 22.6397 44.1588 22.7778 44.1588C22.9134 44.1588 22.9134 44.1588 23.0517 44.1588C24.5159 44.1587 25.9802 44.1597 27.4444 44.161C28.9492 44.1624 30.454 44.1631 31.9588 44.163C32.8031 44.163 33.6474 44.1633 34.4917 44.1643C35.2106 44.1652 35.9294 44.1654 36.6483 44.1648C37.0148 44.1644 37.3812 44.1644 37.7477 44.1653C38.1458 44.1662 38.5439 44.1656 38.942 44.1648C39.0566 44.1653 39.1712 44.1658 39.2893 44.1664C40.7644 44.1602 41.9609 43.9278 43.0622 42.8948C44.0924 41.7641 44.1556 40.4454 44.1537 38.9917C44.1539 38.8674 44.1541 38.7431 44.1544 38.6151C44.1549 38.2717 44.1549 37.9284 44.1548 37.585C44.1548 37.2141 44.1553 36.8432 44.1558 36.4722C44.1566 35.7461 44.1569 35.0199 44.1569 34.2937C44.157 33.7033 44.1572 33.1128 44.1575 32.5223C44.1584 30.8468 44.1588 29.1712 44.1587 27.4957C44.1587 27.4055 44.1587 27.3152 44.1587 27.2222C44.1587 27.1318 44.1587 27.0415 44.1587 26.9484C44.1587 25.4841 44.1596 24.0199 44.161 22.5557C44.1624 21.0509 44.1631 19.5461 44.163 18.0413C44.1629 17.197 44.1632 16.3527 44.1643 15.5084C44.1651 14.7895 44.1654 14.0706 44.1647 13.3517C44.1644 12.9853 44.1644 12.6188 44.1652 12.2524C44.1661 11.8543 44.1655 11.4562 44.1648 11.0581C44.1655 10.8862 44.1655 10.8862 44.1663 10.7108C44.1602 9.23568 43.9278 8.03912 42.8947 6.93785C41.7641 5.90765 40.4453 5.84448 38.9916 5.84638C38.8673 5.84616 38.7431 5.84594 38.615 5.84571C38.2717 5.84511 37.9283 5.84513 37.585 5.84524C37.214 5.84526 36.8431 5.84472 36.4722 5.84426C35.746 5.84345 35.0198 5.84318 34.2937 5.84312C33.7032 5.84308 33.1127 5.84288 32.5222 5.84257C30.8467 5.84171 29.1712 5.84126 27.4957 5.84133C27.3603 5.84134 27.3603 5.84134 27.2222 5.84134C27.0866 5.84135 27.0866 5.84135 26.9483 5.84135C25.4841 5.84139 24.0198 5.84046 22.5556 5.83908C21.0508 5.83768 19.546 5.83701 18.0412 5.83709C17.1969 5.83712 16.3526 5.83686 15.5083 5.8358C14.7894 5.83491 14.0705 5.8347 13.3517 5.83536C12.9852 5.83568 12.6188 5.83569 12.2523 5.83484C11.8542 5.83393 11.4561 5.83454 11.058 5.83529C10.9434 5.83479 10.8288 5.83429 10.7107 5.83377C9.24479 5.83987 7.84598 6.06176 6.81153 7.19535Z" stroke="#5F7D97" stroke-width="1.4" mask="url(#path-1-inside-1_2068_101)"/>
<path d="M26.5747 21.8505C26.6653 21.9109 26.6653 21.9109 26.7578 21.9726C26.8243 22.0129 26.8907 22.0531 26.9592 22.0946C27.7214 22.6027 28.2171 23.328 28.418 24.2187C28.5262 25.4532 28.362 26.3713 27.6035 27.3643C27.4047 27.5785 27.1846 27.7518 26.9531 27.9296C27.1267 28.7036 27.3094 29.4735 27.5219 30.2379C27.5529 30.3496 27.5838 30.4614 27.6157 30.5765C27.6776 30.7983 27.7404 31.0199 27.804 31.2413C27.9637 31.8147 28.0842 32.3143 28.0273 32.9101C27.842 33.2287 27.7058 33.4362 27.3498 33.5639C26.9992 33.6263 26.8052 33.6153 26.477 33.4655C26.2695 33.3007 26.2695 33.3007 26.0742 33.1054C26.0738 33.1975 26.0734 33.2896 26.073 33.3845C26.0704 33.7276 26.0656 34.0706 26.0593 34.4137C26.0571 34.5619 26.0556 34.7102 26.0551 34.8584C26.0542 35.0721 26.0502 35.2855 26.0456 35.4991C26.0433 35.6917 26.0433 35.6917 26.041 35.8881C25.9616 36.3102 25.8204 36.455 25.4883 36.7187C25.1535 36.8076 24.8501 36.7881 24.5117 36.7187C24.2142 36.5062 24.0619 36.3698 23.964 36.0151C23.9168 35.6781 23.9085 35.345 23.9057 35.0054C23.9043 34.8967 23.9043 34.8967 23.9028 34.7858C23.8997 34.5475 23.8973 34.3092 23.8949 34.0709C23.8929 33.9052 23.8908 33.7395 23.8887 33.5738C23.8833 33.1385 23.8785 32.7033 23.8738 32.2681C23.8689 31.8236 23.8635 31.3791 23.8581 30.9346C23.8476 30.0632 23.8377 29.1917 23.8281 28.3202C23.7744 28.2939 23.7207 28.2675 23.6653 28.2404C23.5949 28.2056 23.5244 28.1708 23.4519 28.1349C23.382 28.1005 23.3122 28.0661 23.2402 28.0307C22.4857 27.6362 21.9875 26.9755 21.669 26.2015C21.441 25.3555 21.4134 24.2024 21.8506 23.4252C21.8909 23.3648 21.9311 23.3044 21.9727 23.2421C22.0129 23.1756 22.0532 23.1092 22.0947 23.0407C23.0108 21.6665 25.0753 21.0071 26.5747 21.8505ZM23.3398 23.9806C23.0553 24.4926 23.0512 25.0172 23.1445 25.5859C23.3355 26.1176 23.6907 26.4989 24.1825 26.7722C24.717 26.9642 25.283 26.9642 25.8175 26.7722C26.3093 26.4989 26.6645 26.1176 26.8555 25.5859C26.9488 25.0172 26.9447 24.4926 26.6602 23.9806C26.2983 23.4978 25.905 23.1968 25.3025 23.0979C24.4385 23.0565 23.8615 23.2846 23.3398 23.9806Z" fill="#5F7D97"/>
<path d="M33.3985 37.5977C33.6584 37.8202 33.8141 38.0847 33.9844 38.3789C34.0392 38.4669 34.0939 38.5549 34.1503 38.6456C34.4466 39.1462 34.6779 39.5393 34.5703 40.1367C34.4478 40.4124 34.3473 40.5725 34.1065 40.7532C33.7077 40.875 33.3521 40.8845 32.9666 40.7185C32.6228 40.4574 32.4524 40.1562 32.2449 39.7827C32.2052 39.7169 32.1655 39.651 32.1245 39.5832C31.8464 39.0905 31.7429 38.6508 31.836 38.0859C32.2126 37.4625 32.7317 37.3788 33.3985 37.5977Z" fill="#5F7D97"/>
<path d="M17.7734 37.5977C18.0384 37.8045 18.1431 37.9429 18.1922 38.2781C18.2097 38.8816 18.0641 39.2707 17.7551 39.7828C17.7173 39.8509 17.6795 39.919 17.6405 39.9891C17.4137 40.3798 17.2252 40.6349 16.7969 40.8204C16.3115 40.8724 16.0099 40.8353 15.625 40.5274C15.3722 40.1903 15.3967 39.8626 15.4297 39.4532C15.5426 39.1674 15.6927 38.9103 15.8508 38.6475C15.8903 38.5785 15.9298 38.5095 15.9704 38.4385C16.4305 37.6484 16.8388 37.3581 17.7734 37.5977Z" fill="#5F7D97"/>
<path d="M40.1367 15.4298C40.4124 15.5523 40.5726 15.6528 40.7532 15.8937C40.8751 16.2925 40.8845 16.648 40.7185 17.0335C40.4575 17.3773 40.1563 17.5478 39.7827 17.7552C39.684 17.8148 39.684 17.8148 39.5832 17.8756C39.0863 18.1561 38.6548 18.2473 38.086 18.1642C37.793 18.0238 37.793 18.0238 37.5977 17.7735C37.4765 17.3675 37.4358 17.0422 37.6072 16.6482C37.8418 16.3428 38.0902 16.1919 38.4217 15.9974C38.5323 15.9316 38.643 15.8657 38.757 15.7979C39.2623 15.5121 39.5401 15.3775 40.1367 15.4298Z" fill="#5F7D97"/>
<path d="M11.9141 31.8359C12.207 31.9763 12.207 31.9763 12.4024 32.2266C12.5453 32.6722 12.5669 32.9737 12.352 33.3969C12.0548 33.7576 11.7529 33.9468 11.3464 34.1675C11.2794 34.2068 11.2124 34.246 11.1433 34.2865C10.702 34.532 10.3798 34.6251 9.86329 34.5703C9.58763 34.4478 9.42746 34.3473 9.24684 34.1064C9.12498 33.7076 9.11555 33.3521 9.28155 32.9666C9.54258 32.6228 9.84378 32.4523 10.2173 32.2449C10.2831 32.2052 10.349 32.1654 10.4168 32.1245C10.9137 31.844 11.3453 31.7528 11.9141 31.8359Z" fill="#5F7D97"/>
<path d="M10.9451 15.6115C11.0818 15.6898 11.2176 15.7695 11.3525 15.8507C11.4215 15.8902 11.4905 15.9297 11.5616 15.9703C12.3517 16.4305 12.3517 16.4305 12.4626 16.8052C12.5047 17.179 12.5278 17.415 12.3779 17.7672C12.1852 17.9944 12.0223 18.1451 11.7219 18.1974C11.12 18.2095 10.7283 18.0633 10.2173 17.755C10.1492 17.7172 10.0811 17.6794 10.0109 17.6404C9.62019 17.4135 9.3651 17.225 9.17967 16.7968C9.12767 16.3114 9.16474 16.0098 9.47264 15.6249C9.92285 15.2872 10.4699 15.3656 10.9451 15.6115Z" fill="#5F7D97"/>
<path d="M33.8867 9.1797C34.1624 9.30222 34.3226 9.40273 34.5032 9.64357C34.6458 10.1103 34.613 10.5084 34.3987 10.9417C34.3231 11.0775 34.246 11.2124 34.1675 11.3464C34.1305 11.4146 34.0935 11.4828 34.0554 11.553C33.8049 11.9917 33.5678 12.2652 33.1055 12.5C32.793 12.545 32.5265 12.4985 32.2266 12.4024C31.9616 12.1956 31.8569 12.0572 31.8079 11.722C31.7903 11.1185 31.936 10.7294 32.2449 10.2173C32.2827 10.1492 32.3206 10.0811 32.3595 10.0109C32.7363 9.36205 33.1076 9.09622 33.8867 9.1797Z" fill="#5F7D97"/>
<path d="M17.0334 9.28152C17.3773 9.54255 17.5477 9.84375 17.7551 10.2173C17.7949 10.2831 17.8346 10.3489 17.8755 10.4168C18.156 10.9137 18.2472 11.3452 18.1641 11.914C18.0237 12.207 18.0237 12.207 17.7735 12.4023C17.3278 12.5452 17.0263 12.5669 16.6031 12.352C16.2424 12.0548 16.0532 11.7528 15.8325 11.3464C15.7736 11.2459 15.7736 11.2459 15.7135 11.1433C15.468 10.702 15.3749 10.3798 15.4297 9.86326C15.5522 9.5876 15.6527 9.42743 15.8936 9.24681C16.2924 9.12495 16.6479 9.11552 17.0334 9.28152Z" fill="#5F7D97"/>
<path d="M38.9649 31.8358C39.2592 31.9395 39.5161 32.0839 39.7827 32.2448C39.8508 32.2826 39.9189 32.3204 39.9891 32.3594C40.3798 32.5862 40.6349 32.7747 40.8203 33.203C40.8723 33.6884 40.8353 33.99 40.5274 34.3749C40.1903 34.6276 39.8625 34.602 39.4531 34.5702C39.1692 34.464 38.9147 34.3203 38.6536 34.1674C38.5854 34.1303 38.5172 34.0933 38.447 34.0552C38.0084 33.8048 37.7348 33.5677 37.5 33.1053C37.455 32.7929 37.5015 32.5263 37.5977 32.2264C37.9654 31.7553 38.4095 31.7649 38.9649 31.8358Z" fill="#5F7D97"/>
<path d="M25 38.6107C25.0806 38.6095 25.1611 38.6082 25.2441 38.6069C25.6271 38.7086 25.7506 38.8311 25.9765 39.1601C26.0489 39.5682 26.0447 39.9673 26.0376 40.3808C26.0404 40.546 26.0404 40.546 26.0433 40.7146C26.0386 41.5111 26.0386 41.5111 25.7591 41.9181C25.4753 42.0979 25.3325 42.156 25 42.1508C24.9194 42.152 24.8389 42.1533 24.7558 42.1546C24.3729 42.0529 24.2494 41.9305 24.0234 41.6015C23.9511 41.1934 23.9553 40.7942 23.9624 40.3808C23.9605 40.2706 23.9586 40.1605 23.9567 40.047C23.9614 39.2504 23.9614 39.2504 24.2409 38.8434C24.5246 38.6636 24.6675 38.6056 25 38.6107Z" fill="#5F7D97"/>
<path d="M41.3575 23.9623C41.4676 23.9604 41.5778 23.9585 41.6912 23.9566C42.4878 23.9613 42.4878 23.9613 42.8948 24.2408C43.0746 24.5246 43.1327 24.6674 43.1275 24.9999C43.1287 25.0805 43.13 25.1611 43.1313 25.2441C43.0296 25.627 42.9072 25.7505 42.5782 25.9765C42.17 26.0488 41.7709 26.0446 41.3575 26.0375C41.1922 26.0403 41.1922 26.0403 41.0237 26.0432C40.2271 26.0385 40.2271 26.0385 39.8201 25.759C39.6403 25.4753 39.5822 25.3324 39.5874 24.9999C39.5862 24.9194 39.5849 24.8388 39.5836 24.7558C39.8208 23.8629 40.5944 23.9492 41.3575 23.9623Z" fill="#5F7D97"/>
<path d="M8.64258 23.9623C8.75273 23.9604 8.86288 23.9585 8.97636 23.9566C9.77294 23.9613 9.77294 23.9613 10.1799 24.2408C10.3598 24.5246 10.4178 24.6674 10.4126 24.9999C10.4139 25.0805 10.4151 25.1611 10.4164 25.2441C10.3147 25.627 10.1923 25.7505 9.86328 25.9765C9.45518 26.0488 9.05603 26.0446 8.64258 26.0375C8.47735 26.0403 8.47735 26.0403 8.30879 26.0432C7.51222 26.0385 7.51222 26.0385 7.10526 25.759C6.9254 25.4753 6.86736 25.3324 6.87256 24.9999C6.8713 24.9194 6.87004 24.8388 6.86874 24.7558C7.10592 23.8629 7.87951 23.9492 8.64258 23.9623Z" fill="#5F7D97"/>
<path d="M25 7.84903C25.0806 7.84777 25.1611 7.84651 25.2441 7.84521C25.6271 7.94693 25.7506 8.06934 25.9765 8.39835C26.0489 8.80645 26.0447 9.2056 26.0376 9.61905C26.0404 9.78427 26.0404 9.78427 26.0433 9.95284C26.0386 10.7494 26.0386 10.7494 25.7591 11.1564C25.4753 11.3362 25.3325 11.3943 25 11.3891C24.9194 11.3903 24.8389 11.3916 24.7558 11.3929C24.3729 11.2912 24.2494 11.1688 24.0234 10.8398C23.9511 10.4316 23.9553 10.0325 23.9624 9.61905C23.9605 9.5089 23.9586 9.39875 23.9567 9.28526C23.9614 8.48869 23.9614 8.48869 24.2409 8.08173C24.5246 7.90187 24.6675 7.84383 25 7.84903Z" fill="#5F7D97"/>
</g>
<defs>
<clipPath id="clip0_2068_101">
<rect width="50" height="50" fill="white"/>
</clipPath>
</defs>
</svg>
