<svg width="51" height="51" viewBox="0 0 51 51" fill="none" xmlns="http://www.w3.org/2000/svg">
<g clip-path="url(#clip0_60_52)">
<path d="M19.8886 2.38126C20.1643 2.6312 20.2258 2.79562 20.2632 3.1648C20.2495 3.634 20.0747 3.95248 19.8359 4.34774C19.793 4.42196 19.75 4.49619 19.7057 4.57266C19.5557 4.83046 19.403 5.08655 19.25 5.34261C19.1307 5.54412 19.0114 5.74566 18.8922 5.94724C18.6971 6.27672 18.5017 6.60603 18.3057 6.93496C17.7429 7.87983 17.1955 8.83302 16.6527 9.78955C16.5921 9.89625 16.5315 10.003 16.4691 10.1129C16.4166 10.2055 16.3642 10.2982 16.3102 10.3937C16.0583 10.829 15.7988 11.2596 15.5391 11.6903C15.642 11.6892 15.7449 11.6881 15.8509 11.687C16.8208 11.6771 17.7907 11.6698 18.7606 11.665C19.2593 11.6624 19.7579 11.659 20.2565 11.6534C20.7378 11.6481 21.219 11.6452 21.7002 11.6439C21.8838 11.643 22.0674 11.6413 22.251 11.6386C22.5082 11.6351 22.7652 11.6346 23.0224 11.6348C23.0983 11.6331 23.1742 11.6313 23.2523 11.6295C23.6455 11.6333 23.8189 11.6734 24.1294 11.923C24.3413 12.1954 24.4174 12.3242 24.4258 12.6668C24.3272 13.106 24.1967 13.3675 23.8399 13.6434C23.5788 13.6828 23.3573 13.6985 23.0963 13.6967C23.0219 13.6977 22.9476 13.6987 22.871 13.6998C22.6258 13.7026 22.3807 13.7028 22.1354 13.7029C21.9652 13.7044 21.795 13.706 21.6248 13.7078C21.1772 13.7121 20.7296 13.714 20.282 13.7155C19.8251 13.7174 19.3682 13.7215 18.9113 13.7254C18.0151 13.7328 17.1189 13.7377 16.2227 13.741C16.7362 14.3326 16.7362 14.3326 17.266 14.9095C17.3263 14.9735 17.3867 15.0375 17.4489 15.1035C17.5095 15.1675 17.5701 15.2315 17.6326 15.2974C17.7546 15.4264 17.8766 15.5555 17.9984 15.6846C18.0867 15.7756 18.0867 15.7756 18.1769 15.8683C18.3711 16.0848 18.3711 16.0848 18.5197 16.3117C18.7998 16.7112 19.0154 16.9303 19.4978 17.048C19.938 17.0952 20.3786 17.0916 20.8209 17.0898C20.9907 17.0923 21.1605 17.0951 21.3303 17.0983C21.7902 17.1056 22.25 17.1073 22.7099 17.1075C23.095 17.108 23.4801 17.111 23.8651 17.1139C24.7747 17.1206 25.6843 17.1223 26.5939 17.1212C27.5291 17.1202 28.4639 17.1286 29.399 17.1415C30.2043 17.1522 31.0094 17.1564 31.8148 17.1557C32.2947 17.1553 32.7743 17.1574 33.2542 17.1661C35.4971 17.3063 35.4971 17.3063 37.4289 16.3885C37.6683 16.1097 37.8726 15.8234 38.0631 15.5094C38.2718 15.1845 38.5363 14.919 38.8057 14.6444C39.1043 14.3198 39.386 13.9887 39.6602 13.6434C39.5536 13.6445 39.447 13.6456 39.3372 13.6467C38.3328 13.6566 37.3284 13.6639 36.324 13.6687C35.8076 13.6712 35.2913 13.6747 34.7749 13.6802C34.2766 13.6855 33.7783 13.6885 33.2799 13.6897C33.0898 13.6906 32.8997 13.6924 32.7096 13.695C32.4432 13.6986 32.1771 13.6991 31.9107 13.6988C31.7928 13.7015 31.7928 13.7015 31.6725 13.7041C31.2732 13.7005 31.0905 13.6625 30.7736 13.411C30.5614 13.1332 30.5117 13.0115 30.5171 12.6668C30.5158 12.5863 30.5146 12.5057 30.5133 12.4227C30.6113 12.0536 30.7631 11.9222 31.0664 11.6903C31.4011 11.624 31.7284 11.6378 32.0683 11.6491C32.1691 11.6504 32.2698 11.6518 32.3736 11.6531C32.5923 11.6562 32.8109 11.6603 33.0295 11.6653C33.3766 11.6728 33.7235 11.6764 34.0706 11.6788C35.0575 11.6859 36.0442 11.6968 37.0309 11.718C37.6349 11.7308 38.2387 11.7362 38.8429 11.7372C39.0721 11.739 39.3013 11.7434 39.5304 11.7507C40.8724 11.8262 40.8724 11.8262 42.0463 11.2793C42.3462 10.9815 42.5999 10.6598 42.8431 10.3149C43.0639 10.0141 43.3211 9.7499 43.5786 9.48079C43.675 9.37671 43.7711 9.27246 43.867 9.16799C43.9142 9.11682 43.9613 9.06564 44.0099 9.01292C44.0569 8.96187 44.1039 8.91083 44.1524 8.85824C44.3435 8.65067 44.5348 8.44314 44.7261 8.23568C44.7737 8.18401 44.8214 8.13234 44.8704 8.07911C45.3116 7.60126 45.7559 7.12644 46.2005 6.65181C46.61 6.21375 47.0114 5.76962 47.4071 5.31896C47.6566 5.05656 47.8351 5.03035 48.1868 5.01912C48.5308 5.02189 48.6342 5.04315 48.9375 5.23275C49.2168 5.5295 49.2937 5.76833 49.2892 6.18146C49.104 6.92352 48.3175 7.55004 47.7771 8.06287C47.5941 8.24822 47.4239 8.43803 47.2533 8.63469C46.8841 9.06005 46.4996 9.46932 46.1116 9.87752C45.5774 10.4397 45.0551 11.0103 44.543 11.5926C44.7255 11.594 44.7255 11.594 44.9117 11.5954C45.364 11.5993 45.8163 11.6057 46.2685 11.6129C46.4641 11.6156 46.6597 11.6177 46.8553 11.6191C47.1368 11.6212 47.4182 11.6257 47.6996 11.6308C47.7868 11.6309 47.874 11.631 47.9639 11.6311C48.371 11.6407 48.5899 11.6559 48.9416 11.8771C49.2183 12.172 49.294 12.4127 49.2888 12.8225C49.0971 13.5945 48.259 14.2462 47.7008 14.7798C47.4449 15.0387 47.2087 15.3107 46.9703 15.5856C46.6817 15.914 46.3814 16.231 46.0811 16.5487C45.5578 17.1044 45.039 17.6638 44.5243 18.2275C44.2075 18.5735 43.8869 18.916 43.5664 19.2586C43.1573 19.6961 42.7498 20.1349 42.3457 20.577C41.8835 21.0827 41.4164 21.5838 40.9484 22.0842C40.5983 22.4588 40.2503 22.8352 39.9043 23.2137C39.5002 23.6558 39.0928 24.0946 38.6836 24.5321C38.1824 25.068 37.6846 25.6069 37.1894 26.1484C36.4853 26.9177 35.7764 27.6826 35.0642 28.4444C34.3251 29.2322 34.3251 29.2322 33.6039 30.0361C33.4129 30.2468 33.2425 30.3945 33.0097 30.5668C32.5349 30.9345 32.206 31.3164 32.0739 31.9142C31.9734 32.7736 31.9888 33.638 32.0021 34.5016C32.0067 34.8814 32.0046 35.2612 32.0033 35.641C32.0018 36.3583 32.0062 37.0755 32.0127 37.7928C32.02 38.6102 32.0205 39.4276 32.0205 40.245C32.0206 41.9247 32.029 43.6043 32.043 45.284C32.1167 45.2973 32.1904 45.3105 32.2664 45.3242C32.6164 45.4002 32.9238 45.5475 33.2458 45.6994C33.3158 45.7319 33.3858 45.7644 33.458 45.7979C33.6884 45.9049 33.9185 46.0126 34.1487 46.1202C34.4746 46.2718 34.8006 46.4228 35.1268 46.5738C35.2103 46.6124 35.2938 46.6511 35.3799 46.691C35.9635 46.9604 36.5496 47.2234 37.1379 47.4824C37.2175 47.5175 37.2971 47.5526 37.3792 47.5888C37.7606 47.7567 38.1424 47.9237 38.5246 48.0899C40.4042 48.912 40.4042 48.912 40.6367 49.4832C40.6883 49.8785 40.6525 50.0413 40.4536 50.3927C40.2461 50.6551 40.2461 50.6551 40.0508 50.7528C39.8133 50.7631 39.5786 50.7676 39.341 50.7678C39.23 50.7684 39.23 50.7684 39.1168 50.7691C38.8675 50.7704 38.6182 50.771 38.369 50.7716C38.1908 50.7724 38.0126 50.7732 37.8344 50.774C37.2481 50.7766 36.6618 50.7781 36.0755 50.7795C35.8739 50.78 35.6722 50.7805 35.4706 50.781C34.6321 50.7832 33.7936 50.785 32.9552 50.7861C31.7524 50.7877 30.5496 50.7909 29.3468 50.7965C28.5017 50.8003 27.6566 50.8022 26.8115 50.8027C26.3064 50.803 25.8014 50.8042 25.2963 50.8074C24.8212 50.8103 24.3462 50.8109 23.8711 50.8098C23.6966 50.8098 23.5222 50.8106 23.3478 50.8123C23.1097 50.8145 22.8718 50.8137 22.6337 50.8121C22.5646 50.8135 22.4955 50.8149 22.4243 50.8163C22.0464 50.8102 21.8973 50.7615 21.602 50.5171C21.3059 50.1497 21.2554 49.9557 21.3008 49.4832C21.5711 48.9715 21.8789 48.7545 22.3964 48.5318C22.4665 48.5 22.5367 48.4683 22.6089 48.4355C22.8395 48.3314 23.0711 48.2299 23.3027 48.1283C23.4641 48.056 23.6254 47.9836 23.7866 47.9111C24.2072 47.7224 24.6287 47.5357 25.0504 47.3496C25.4635 47.1669 25.8758 46.9826 26.2881 46.7985C26.9431 46.5062 27.5985 46.215 28.2549 45.9258C28.6316 45.7595 29.0068 45.5902 29.3816 45.4197C29.5259 45.3541 29.5259 45.3541 29.6732 45.2871C29.7462 45.2539 29.8193 45.2206 29.8945 45.1864C29.9128 43.4427 29.9266 41.6992 29.935 39.9555C29.939 39.1458 29.9445 38.3362 29.9535 37.5265C29.9613 36.8207 29.9663 36.1149 29.9681 35.4089C29.9691 35.0353 29.9714 34.6618 29.9771 34.2882C29.9825 33.9361 29.9841 33.5842 29.9829 33.2321C29.9832 33.0421 29.9874 32.8522 29.9917 32.6622C29.9861 32.0596 29.9561 31.6982 29.5198 31.2606C29.385 31.1491 29.2495 31.0384 29.1133 30.9285C28.9963 30.8012 28.8814 30.6717 28.77 30.5394C28.4161 30.1286 28.0461 29.7349 27.6729 29.3416C27.127 28.7641 26.5855 28.1833 26.0497 27.5964C25.2909 26.7654 24.5245 25.9416 23.756 25.1196C23.3201 24.6529 22.8883 24.1826 22.4574 23.7111C22.1393 23.3641 21.8177 23.0204 21.4961 22.6766C20.9994 22.1455 20.5066 21.6112 20.016 21.0744C19.6979 20.7274 19.3763 20.3837 19.0547 20.0399C18.5535 19.5039 18.0557 18.9651 17.5605 18.4236C17.284 18.1215 17.0069 17.8201 16.7293 17.5191C16.6813 17.4671 16.6334 17.4152 16.584 17.3616C16.2558 17.0064 15.9258 16.6528 15.5953 16.2997C15.0474 15.7144 14.5038 15.1265 13.9766 14.5223C13.5813 14.9721 13.3121 15.4781 13.0244 15.9993C12.4844 16.9668 11.926 17.9219 11.3572 18.8727C11.0061 19.4614 10.662 20.0529 10.3278 20.6514C10.2753 20.7451 10.2753 20.7451 10.2217 20.8407C10.0527 21.1419 9.88489 21.4437 9.71906 21.7466C9.04053 22.9591 9.04053 22.9591 8.3972 23.1912C7.18232 23.2174 6.02838 21.9465 5.18751 21.1629C3.51387 19.5357 2.47034 17.365 1.96485 15.1082C1.94094 15.0071 1.91702 14.9061 1.89238 14.8019C1.31163 11.8226 2.01481 8.59301 3.65553 6.06016C5.28887 3.64164 7.58517 2.00929 10.3633 1.14339C10.4338 1.12119 10.5043 1.09899 10.5769 1.07611C13.5018 0.201748 17.3678 0.585876 19.8886 2.38126ZM12.2188 2.9012C12.5217 4.2372 12.8634 5.56253 13.2123 6.88721C13.3063 7.24504 13.3994 7.60312 13.4925 7.96121C13.5523 8.1889 13.6122 8.41657 13.6722 8.64423C13.6998 8.75123 13.7275 8.85823 13.756 8.96847C13.7821 9.06672 13.8082 9.16497 13.8351 9.26619C13.8578 9.3527 13.8804 9.43921 13.9038 9.52833C13.9657 9.75455 13.9657 9.75455 14.1719 9.93245C14.2121 9.8619 14.2522 9.79134 14.2936 9.71864C15.1683 8.18314 16.049 6.65156 16.9422 5.1267C17.2237 4.64561 17.5044 4.16401 17.7852 3.68245C17.5289 3.42618 17.2432 3.35208 16.9063 3.243C16.8066 3.21057 16.8066 3.21057 16.7048 3.17748C15.4551 2.77925 13.4431 2.28904 12.2188 2.9012ZM9.24025 3.82894C9.17038 3.86412 9.10051 3.89929 9.02853 3.93554C8.41855 4.25045 7.87055 4.61829 7.33595 5.04964C7.23115 5.13216 7.23115 5.13216 7.12423 5.21634C6.60143 5.64814 6.15768 6.15082 5.77345 6.7098C5.77345 6.77425 5.77345 6.8387 5.77345 6.90511C5.84401 6.94528 5.91457 6.98546 5.98726 7.02685C7.25753 7.75045 8.52684 8.47552 9.78956 9.21224C9.8824 9.26639 9.97524 9.32053 10.0709 9.37632C10.5954 9.68297 11.1161 9.99468 11.6328 10.3144C11.8197 10.4363 11.8197 10.4363 12.0234 10.4207C11.8887 9.58554 11.688 8.77607 11.4673 7.95987C11.4325 7.83005 11.3977 7.70022 11.363 7.57037C11.2725 7.23234 11.1815 6.89444 11.0904 6.55657C10.9971 6.2103 10.9043 5.8639 10.8115 5.51751C10.63 4.84059 10.448 4.16382 10.2656 3.48714C9.87071 3.48714 9.58523 3.65489 9.24025 3.82894ZM4.60157 8.66292C3.99544 10.3784 3.44091 12.3035 3.91798 14.1317C4.68139 14.0668 5.40573 13.8603 6.14271 13.6613C6.28171 13.6242 6.42072 13.5871 6.55974 13.5501C6.92333 13.4531 7.28675 13.3555 7.65014 13.2577C8.02189 13.1578 8.3938 13.0586 8.7657 12.9592C9.4937 12.7647 10.2215 12.5695 10.9492 12.3739C10.6681 12.0848 10.4098 11.8781 10.0577 11.6796C9.95787 11.6227 9.858 11.5658 9.75511 11.5073C9.59391 11.4166 9.59391 11.4166 9.42945 11.3241C9.201 11.194 8.97262 11.0638 8.74433 10.9334C8.68543 10.8999 8.62652 10.8663 8.56582 10.8317C7.8971 10.45 7.23488 10.0574 6.57301 9.6639C6.46021 9.59692 6.34742 9.52994 6.23462 9.46296C5.40022 8.96705 5.40022 8.96705 5.12354 8.78948C4.89541 8.63931 4.89541 8.63931 4.60157 8.66292ZM41.719 14.3439C41.6132 14.4974 41.5153 14.6562 41.418 14.8153C41.3089 14.9439 41.1973 15.0704 41.0823 15.1937C41.0319 15.253 40.9816 15.3123 40.9297 15.3734C40.5904 15.761 40.235 16.1341 39.8814 16.5088C39.5983 16.7507 39.5983 16.7507 39.4649 17.0614C41.4645 17.3313 41.4645 17.3313 43.2906 16.7581C43.609 16.4419 43.8627 16.0862 44.106 15.7102C44.3363 15.3723 44.6188 15.0893 44.9031 14.797C45.4877 14.272 45.4877 14.272 45.8125 13.6434C43.557 13.3626 43.557 13.3626 41.719 14.3439ZM10.7007 14.4726C10.6351 14.4893 10.5695 14.5059 10.5019 14.5231C10.2845 14.5786 10.0673 14.6351 9.85022 14.6917C9.69966 14.7305 9.5491 14.7694 9.39853 14.8082C9.08275 14.8898 8.76713 14.972 8.45158 15.0545C8.04645 15.1604 7.64088 15.2645 7.23516 15.3681C6.92405 15.4478 6.61324 15.5287 6.30251 15.6099C6.15305 15.6488 6.00349 15.6872 5.85383 15.7253C5.64493 15.7786 5.4365 15.8334 5.22811 15.8886C5.10921 15.9195 4.99032 15.9504 4.86781 15.9822C4.73602 16.033 4.73602 16.033 4.60157 16.0848C4.48191 16.4438 4.56792 16.5709 4.72846 16.8996C4.78046 17.0008 4.78046 17.0008 4.83351 17.1041C4.8688 17.1736 4.9041 17.2432 4.94046 17.3148C5.2831 17.9699 5.69552 18.5397 6.16407 19.1121C6.21292 19.1758 6.26176 19.2395 6.31208 19.3052C6.74005 19.8438 7.28557 20.252 7.82423 20.6746C8.22422 20.2201 8.49711 19.7061 8.78859 19.1793C9.2529 18.3486 9.724 17.5226 10.2046 16.7013C10.2591 16.6081 10.3136 16.515 10.3697 16.419C10.4756 16.2382 10.5815 16.0575 10.6874 15.8768C10.9707 15.3931 11.2529 14.9089 11.5352 14.4246C11.2342 14.2741 11.0226 14.3899 10.7007 14.4726ZM21.1055 19.1121C21.559 19.6443 21.559 19.6443 22.0279 20.1597C22.1151 20.2523 22.1151 20.2523 22.2042 20.3468C22.2646 20.4107 22.325 20.4746 22.3872 20.5404C22.5173 20.6785 22.6474 20.8168 22.7775 20.955C22.8415 21.0231 22.9056 21.0912 22.9716 21.1614C23.3794 21.5961 23.7827 22.0351 24.1864 22.4738C24.4287 22.737 24.6714 22.9997 24.9141 23.2625C25.2049 23.5775 25.4957 23.8925 25.7861 24.2078C26.3093 24.7755 26.8343 25.3414 27.3616 25.9054C27.8554 26.4335 28.3454 26.9648 28.8329 27.4988C29.0438 27.7288 29.2565 27.957 29.47 28.1846C29.5313 28.25 29.5926 28.3154 29.6557 28.3828C29.7752 28.5101 29.8949 28.6373 30.0147 28.7643C30.3154 29.0847 30.6022 29.4085 30.8711 29.7567C31.1962 29.6483 31.2667 29.5661 31.4803 29.3092C31.825 28.9031 32.1838 28.5141 32.5496 28.127C32.6788 27.9897 32.808 27.8524 32.9371 27.715C33.0006 27.6476 33.064 27.5801 33.1294 27.5106C33.3933 27.2291 33.6553 26.9459 33.9168 26.6622C33.9641 26.6109 34.0114 26.5595 34.0601 26.5066C34.2016 26.353 34.343 26.1994 34.4844 26.0457C35.1607 25.3113 35.8395 24.5793 36.5214 23.85C36.9573 23.3833 37.3891 22.913 37.82 22.4416C38.1381 22.0946 38.4597 21.7509 38.7813 21.4071C39.2118 20.9464 39.6419 20.4853 40.0691 20.0216C40.195 19.885 40.195 19.885 40.3235 19.7458C40.5055 19.5406 40.6694 19.3324 40.832 19.1121C40.3771 19.0878 39.9225 19.0702 39.4671 19.0585C39.3127 19.0536 39.1583 19.047 39.004 19.0385C38.0642 18.9764 38.0642 18.9764 37.2103 19.3064C36.9601 19.5539 36.7471 19.8081 36.5352 20.0887C36.4176 20.2233 36.2991 20.3571 36.1796 20.49C36.1258 20.5528 36.072 20.6155 36.0166 20.6802C35.7197 21.0216 35.4062 21.3475 35.0947 21.6756C34.4112 22.3988 33.735 23.1279 33.0668 23.8654C32.7293 24.2378 32.3886 24.6066 32.043 24.9715C31.9775 25.0409 31.9121 25.1102 31.8446 25.1817C31.5654 25.4514 31.3409 25.5935 30.9566 25.6185C30.5263 25.5491 30.3551 25.515 30.0899 25.1668C29.9892 24.8176 29.9951 24.5409 30.0899 24.1903C30.3377 23.8188 30.6501 23.5245 30.9688 23.2137C31.1387 23.0295 31.3075 22.8443 31.4754 22.6583C31.8894 22.2058 32.3077 21.7574 32.7266 21.3094C33.159 20.8466 33.5912 20.3835 34.0205 19.9178C34.1482 19.7796 34.1482 19.7796 34.2784 19.6386C34.4944 19.4043 34.4944 19.4043 34.6797 19.1121C30.2002 19.1121 25.7207 19.1121 21.1055 19.1121ZM30.3974 47.1942C30.3251 47.2275 30.2528 47.2607 30.1783 47.2949C30.1013 47.3313 30.0243 47.3676 29.9449 47.405C29.8652 47.4418 29.7856 47.4787 29.7035 47.5167C29.4495 47.6344 29.1959 47.7531 28.9424 47.8719C28.7701 47.952 28.5978 48.0319 28.4255 48.1119C28.0034 48.3078 27.5817 48.5046 27.1602 48.702C27.1602 48.7342 27.1602 48.7664 27.1602 48.7996C29.6738 48.7996 32.1875 48.7996 34.7774 48.7996C34.4157 48.5284 34.0648 48.3426 33.6574 48.1576C33.5873 48.1255 33.5173 48.0934 33.4451 48.0604C33.2975 47.9929 33.1497 47.9257 33.0019 47.8587C32.7758 47.7561 32.5503 47.6522 32.3249 47.5482C32.1811 47.4827 32.0373 47.4173 31.8934 47.352C31.8262 47.3208 31.7589 47.2897 31.6897 47.2577C31.2113 47.043 30.8795 46.9697 30.3974 47.1942Z" fill="#797979"/>
<path d="M27.9414 11.6902C28.2504 11.9109 28.3858 12.0642 28.5212 12.4165C28.5315 12.8354 28.407 13.134 28.1856 13.4846C27.7958 13.738 27.4148 13.724 26.9649 13.6433C26.6597 13.4602 26.6597 13.4602 26.4766 13.155C26.38 12.6642 26.4007 12.3049 26.6597 11.8733C27.0891 11.6156 27.4527 11.5899 27.9414 11.6902Z" fill="#797979"/>
</g>
<defs>
<clipPath id="clip0_60_52">
<rect width="50" height="50" fill="white" transform="translate(0.5 0.752686)"/>
</clipPath>
</defs>
</svg>
