<svg width="50" height="50" viewBox="0 0 50 50" fill="none" xmlns="http://www.w3.org/2000/svg">
<g clip-path="url(#clip0_2068_72)">
<mask id="path-1-inside-1_2068_72" fill="white">
<path d="M25 -0.0611267C25.0806 -0.0623856 25.1611 -0.0636444 25.2441 -0.0649414C25.617 0.034109 25.7441 0.178861 25.9765 0.48819C26.0446 0.853405 26.0334 1.21224 26.0242 1.58263C26.0232 1.74091 26.0232 1.74091 26.0221 1.90239C26.0194 2.23875 26.0133 2.57496 26.0071 2.91129C26.0046 3.13959 26.0024 3.3679 26.0004 3.59621C25.995 4.15531 25.9868 4.71432 25.9765 5.27335C26.0932 5.27222 26.0932 5.27222 26.2121 5.27107C27.2431 5.26523 27.2431 5.26523 27.7393 5.3382C27.8386 5.35277 27.9378 5.36734 28.04 5.38235C28.1426 5.39875 28.2452 5.41514 28.3508 5.43204C28.4605 5.44944 28.5702 5.46684 28.6831 5.48478C30.5884 5.80148 33.0012 6.21779 34.5703 7.42178C34.8323 7.81485 34.8434 8.13188 34.7656 8.59366C34.5374 8.92566 34.3798 9.04979 33.9966 9.17006C33.4154 9.23956 32.861 8.95111 32.3303 8.74625C32.2169 8.70389 32.1036 8.66153 31.9868 8.61788C31.7081 8.51351 31.43 8.40775 31.1523 8.30069C31.1201 8.33292 31.0879 8.36514 31.0547 8.39835C31.1057 8.4555 31.1566 8.51265 31.2092 8.57153C32.7186 10.3322 34.8633 13.536 34.8633 15.9179C37.0547 15.8857 39.2461 15.8534 41.5039 15.8202C40.6557 14.7274 40.6557 14.7274 39.74 13.7084C38.9968 12.9419 38.9968 12.9419 38.9221 12.3656C38.9777 11.9053 39.1094 11.7328 39.4531 11.4257C39.8392 11.3064 40.0416 11.2892 40.4167 11.4425C40.7508 11.6374 41.0106 11.8646 41.2781 12.1398C41.3284 12.191 41.3787 12.2422 41.4306 12.2949C41.993 12.8783 42.4854 13.5108 42.9687 14.1601C43.0108 14.2157 43.0528 14.2713 43.0961 14.3287C43.7567 15.2054 44.3103 16.1205 44.8242 17.0898C44.8577 17.1519 44.8911 17.214 44.9256 17.2781C46.4248 20.0762 47.3655 23.317 47.3831 26.5029C47.3838 26.5868 47.3845 26.6706 47.3852 26.7571C47.3869 27.0258 47.3875 27.2946 47.3877 27.5634C47.3877 27.6553 47.3878 27.7472 47.3879 27.8418C47.3863 29.1936 47.3489 30.5085 47.0703 31.8358C47.0535 31.919 47.0368 32.0021 47.0195 32.0878C46.1416 36.3527 44.1199 40.125 41.1133 43.2616C41.0642 43.3134 41.0151 43.3651 40.9645 43.4184C40.2423 44.1765 39.4863 44.8543 38.646 45.4793C38.5356 45.5614 38.4257 45.6442 38.3162 45.7276C35.9258 47.5505 33.1515 48.7632 30.2429 49.4811C30.1691 49.4997 30.0952 49.5183 30.0192 49.5375C28.371 49.9242 26.7189 50.0541 25.0305 50.0426C24.9372 50.0423 24.844 50.042 24.7479 50.0417C23.2381 50.0347 21.7898 49.9431 20.3125 49.6093C20.2172 49.5884 20.1219 49.5674 20.0237 49.5459C18.0669 49.1054 16.2178 48.4114 14.4531 47.4608C14.3883 47.4265 14.3235 47.3921 14.2568 47.3568C11.4417 45.8579 8.92709 43.676 7.03124 41.1132C6.98947 41.0578 6.94771 41.0025 6.90468 40.9454C6.24376 40.0684 5.68991 39.1531 5.17577 38.1835C5.1423 38.1214 5.10883 38.0592 5.07434 37.9952C3.57515 35.197 2.63443 31.9562 2.61687 28.7704C2.61618 28.6865 2.6155 28.6026 2.61479 28.5162C2.61309 28.2474 2.61246 27.9787 2.61229 27.7099C2.61222 27.618 2.61216 27.5261 2.61209 27.4314C2.61363 26.0796 2.6511 24.7648 2.92967 23.4374C2.94643 23.3543 2.96319 23.2711 2.98046 23.1854C4.03599 18.0578 6.85388 13.2632 11.0351 10.0585C11.1513 9.96659 11.2673 9.87466 11.3834 9.7827C13.4945 8.13216 15.9114 6.9646 18.457 6.15225C18.5716 6.11436 18.6861 6.07647 18.8042 6.03743C20.4777 5.5177 22.2735 5.25998 24.0234 5.27335C24.0223 5.21448 24.0213 5.15562 24.0201 5.09497C24.0093 4.4819 24.002 3.86887 23.9966 3.25573C23.9941 3.02696 23.9908 2.7982 23.9866 2.56946C23.9807 2.2405 23.9779 1.91164 23.9757 1.58263C23.9732 1.48048 23.9707 1.37833 23.9681 1.27308C23.9678 0.562157 23.9678 0.562157 24.2553 0.1797C24.5323 -0.0145511 24.6652 -0.066357 25 -0.0611267ZM25.9765 7.42178C25.9765 10.2255 25.9765 13.0292 25.9765 15.9179C28.2002 15.9179 30.4238 15.9179 32.7148 15.9179C32.0537 13.714 31.0464 11.6537 29.5898 9.86319C29.5376 9.79496 29.4853 9.72673 29.4315 9.65643C28.5801 8.59906 27.3235 7.64628 25.9765 7.42178ZM21.0487 9.11742C19.2515 10.9838 18.0239 13.4555 17.2851 15.9179C19.5088 15.9179 21.7324 15.9179 24.0234 15.9179C24.0234 13.1142 24.0234 10.3105 24.0234 7.42178C22.9566 7.42178 21.7812 8.4326 21.0487 9.11742ZM17.9993 8.496C17.9167 8.52652 17.8341 8.55704 17.749 8.58848C17.0051 8.87016 16.2989 9.20603 15.5971 9.57919C15.4487 9.65782 15.2989 9.73399 15.1489 9.80978C12.5078 11.1775 10.0876 13.3802 8.39842 15.8202C8.39842 15.8524 8.39842 15.8847 8.39842 15.9179C10.6221 15.9179 12.8457 15.9179 15.1367 15.9179C15.4267 15.1122 15.7168 14.3065 16.0156 13.4765C16.2177 13.0076 16.4182 12.5528 16.6443 12.0971C16.6979 11.9874 16.7516 11.8777 16.8068 11.7647C17.3654 10.6439 18.0252 9.64013 18.811 8.66537C18.9286 8.51706 19.0356 8.36051 19.1406 8.20303C18.7245 8.20303 18.3867 8.35265 17.9993 8.496ZM7.03124 17.9687C5.7214 20.7339 4.68749 23.5687 4.68749 26.6601C7.58788 26.6601 10.4883 26.6601 13.4765 26.6601C13.541 25.6288 13.6055 24.5976 13.6719 23.5351C13.8884 21.6389 14.1885 19.8524 14.5508 17.9687C12.0693 17.9687 9.58788 17.9687 7.03124 17.9687ZM16.6015 17.9687C16.0843 20.3523 16.0843 20.3523 15.7226 22.7538C15.7126 22.8385 15.7025 22.9231 15.6922 23.0103C15.662 23.2705 15.6339 23.5309 15.6067 23.7914C15.5985 23.8658 15.5902 23.9402 15.5818 24.0168C15.4969 24.9034 15.5273 25.7577 15.5273 26.6601C18.331 26.6601 21.1348 26.6601 24.0234 26.6601C24.0234 23.7919 24.0234 20.9237 24.0234 17.9687C21.5742 17.9687 19.125 17.9687 16.6015 17.9687ZM25.9765 17.9687C25.9765 20.8368 25.9765 23.705 25.9765 26.6601C32.3574 26.6601 38.7383 26.6601 45.3125 26.6601C45.3125 23.5875 44.3293 20.6897 42.9687 17.9687C37.3613 17.9687 31.7539 17.9687 25.9765 17.9687ZM4.68749 28.6132C4.68749 31.6853 5.67015 34.5824 7.03124 37.3046C9.51268 37.3046 11.9941 37.3046 14.5508 37.3046C14.3574 36.2733 14.164 35.2421 13.9648 34.1796C13.7038 32.3148 13.5948 30.5044 13.4765 28.6132C10.5762 28.6132 7.67577 28.6132 4.68749 28.6132ZM15.5273 28.6132C15.5273 29.8324 15.5502 30.9881 15.6921 32.1898C15.7007 32.2648 15.7092 32.3398 15.718 32.417C15.8726 33.7697 16.1051 35.0977 16.4062 36.4257C16.4707 36.7157 16.5351 37.0058 16.6015 37.3046C19.0508 37.3046 21.5 37.3046 24.0234 37.3046C24.0234 34.4364 24.0234 31.5683 24.0234 28.6132C21.2197 28.6132 18.416 28.6132 15.5273 28.6132ZM25.9765 28.6132C25.9765 31.4814 25.9765 34.3495 25.9765 37.3046C28.4258 37.3046 30.875 37.3046 33.3984 37.3046C33.9157 34.9209 33.9157 34.9209 34.2773 32.5194C34.2874 32.4348 34.2974 32.3502 34.3078 32.2629C34.338 32.0027 34.3661 31.7424 34.3933 31.4818C34.4015 31.4075 34.4097 31.3331 34.4182 31.2564C34.5031 30.3699 34.4726 29.5156 34.4726 28.6132C31.6689 28.6132 28.8652 28.6132 25.9765 28.6132ZM36.5234 28.6132C36.459 29.6444 36.3945 30.6757 36.3281 31.7382C36.1116 33.6344 35.8115 35.4209 35.4492 37.3046C37.9306 37.3046 40.4121 37.3046 42.9687 37.3046C44.2786 34.5394 45.3125 31.7045 45.3125 28.6132C42.4121 28.6132 39.5117 28.6132 36.5234 28.6132ZM8.39842 39.3554C10.685 42.7852 14.6828 46.0914 18.8049 47.0153C18.9711 47.0425 18.9711 47.0425 19.1406 47.0702C19.0258 46.9192 19.0258 46.9192 18.9087 46.765C18.8548 46.6924 18.8009 46.6198 18.7454 46.5449C18.6119 46.3658 18.4765 46.1881 18.3395 46.0116C16.8399 44.0401 15.9142 41.6879 15.1367 39.3554C12.9131 39.3554 10.6894 39.3554 8.39842 39.3554ZM17.2851 39.3554C18.1587 42.2673 19.7593 45.6232 22.4609 47.2655C22.8119 47.4488 23.1659 47.611 23.5351 47.7538C23.67 47.8073 23.67 47.8073 23.8075 47.8618C24.9375 48.1766 26.119 47.9854 27.1484 47.4608C27.231 47.4207 27.3136 47.3805 27.3987 47.3392C30.1124 45.8736 31.6775 42.5054 32.6603 39.7361C32.724 39.5517 32.724 39.5517 32.7148 39.3554C30.4912 39.3554 28.2676 39.3554 25.9765 39.3554C25.9443 40.1933 25.9121 41.0312 25.8789 41.8944C25.4613 42.312 25.3672 42.363 24.8047 42.3827C24.4256 42.2816 24.3435 42.2281 24.1211 41.8944C24.0727 40.6376 24.0727 40.6376 24.0234 39.3554C21.7998 39.3554 19.5762 39.3554 17.2851 39.3554ZM34.8633 39.3554C34.5732 40.161 34.2832 40.9667 33.9844 41.7968C33.7822 42.2657 33.5818 42.7205 33.3557 43.1762C33.3021 43.2859 33.2484 43.3956 33.1931 43.5086C32.6346 44.6294 31.9748 45.6331 31.189 46.6079C31.0714 46.7562 30.9643 46.9127 30.8594 47.0702C35.0921 46.222 39.1848 42.9439 41.6015 39.453C41.6015 39.4208 41.6015 39.3886 41.6015 39.3554C39.3779 39.3554 37.1543 39.3554 34.8633 39.3554Z"/>
</mask>
<path d="M25 -0.0611267C25.0806 -0.0623856 25.1611 -0.0636444 25.2441 -0.0649414C25.617 0.034109 25.7441 0.178861 25.9765 0.48819C26.0446 0.853405 26.0334 1.21224 26.0242 1.58263C26.0232 1.74091 26.0232 1.74091 26.0221 1.90239C26.0194 2.23875 26.0133 2.57496 26.0071 2.91129C26.0046 3.13959 26.0024 3.3679 26.0004 3.59621C25.995 4.15531 25.9868 4.71432 25.9765 5.27335C26.0932 5.27222 26.0932 5.27222 26.2121 5.27107C27.2431 5.26523 27.2431 5.26523 27.7393 5.3382C27.8386 5.35277 27.9378 5.36734 28.04 5.38235C28.1426 5.39875 28.2452 5.41514 28.3508 5.43204C28.4605 5.44944 28.5702 5.46684 28.6831 5.48478C30.5884 5.80148 33.0012 6.21779 34.5703 7.42178C34.8323 7.81485 34.8434 8.13188 34.7656 8.59366C34.5374 8.92566 34.3798 9.04979 33.9966 9.17006C33.4154 9.23956 32.861 8.95111 32.3303 8.74625C32.2169 8.70389 32.1036 8.66153 31.9868 8.61788C31.7081 8.51351 31.43 8.40775 31.1523 8.30069C31.1201 8.33292 31.0879 8.36514 31.0547 8.39835C31.1057 8.4555 31.1566 8.51265 31.2092 8.57153C32.7186 10.3322 34.8633 13.536 34.8633 15.9179C37.0547 15.8857 39.2461 15.8534 41.5039 15.8202C40.6557 14.7274 40.6557 14.7274 39.74 13.7084C38.9968 12.9419 38.9968 12.9419 38.9221 12.3656C38.9777 11.9053 39.1094 11.7328 39.4531 11.4257C39.8392 11.3064 40.0416 11.2892 40.4167 11.4425C40.7508 11.6374 41.0106 11.8646 41.2781 12.1398C41.3284 12.191 41.3787 12.2422 41.4306 12.2949C41.993 12.8783 42.4854 13.5108 42.9687 14.1601C43.0108 14.2157 43.0528 14.2713 43.0961 14.3287C43.7567 15.2054 44.3103 16.1205 44.8242 17.0898C44.8577 17.1519 44.8911 17.214 44.9256 17.2781C46.4248 20.0762 47.3655 23.317 47.3831 26.5029C47.3838 26.5868 47.3845 26.6706 47.3852 26.7571C47.3869 27.0258 47.3875 27.2946 47.3877 27.5634C47.3877 27.6553 47.3878 27.7472 47.3879 27.8418C47.3863 29.1936 47.3489 30.5085 47.0703 31.8358C47.0535 31.919 47.0368 32.0021 47.0195 32.0878C46.1416 36.3527 44.1199 40.125 41.1133 43.2616C41.0642 43.3134 41.0151 43.3651 40.9645 43.4184C40.2423 44.1765 39.4863 44.8543 38.646 45.4793C38.5356 45.5614 38.4257 45.6442 38.3162 45.7276C35.9258 47.5505 33.1515 48.7632 30.2429 49.4811C30.1691 49.4997 30.0952 49.5183 30.0192 49.5375C28.371 49.9242 26.7189 50.0541 25.0305 50.0426C24.9372 50.0423 24.844 50.042 24.7479 50.0417C23.2381 50.0347 21.7898 49.9431 20.3125 49.6093C20.2172 49.5884 20.1219 49.5674 20.0237 49.5459C18.0669 49.1054 16.2178 48.4114 14.4531 47.4608C14.3883 47.4265 14.3235 47.3921 14.2568 47.3568C11.4417 45.8579 8.92709 43.676 7.03124 41.1132C6.98947 41.0578 6.94771 41.0025 6.90468 40.9454C6.24376 40.0684 5.68991 39.1531 5.17577 38.1835C5.1423 38.1214 5.10883 38.0592 5.07434 37.9952C3.57515 35.197 2.63443 31.9562 2.61687 28.7704C2.61618 28.6865 2.6155 28.6026 2.61479 28.5162C2.61309 28.2474 2.61246 27.9787 2.61229 27.7099C2.61222 27.618 2.61216 27.5261 2.61209 27.4314C2.61363 26.0796 2.6511 24.7648 2.92967 23.4374C2.94643 23.3543 2.96319 23.2711 2.98046 23.1854C4.03599 18.0578 6.85388 13.2632 11.0351 10.0585C11.1513 9.96659 11.2673 9.87466 11.3834 9.7827C13.4945 8.13216 15.9114 6.9646 18.457 6.15225C18.5716 6.11436 18.6861 6.07647 18.8042 6.03743C20.4777 5.5177 22.2735 5.25998 24.0234 5.27335C24.0223 5.21448 24.0213 5.15562 24.0201 5.09497C24.0093 4.4819 24.002 3.86887 23.9966 3.25573C23.9941 3.02696 23.9908 2.7982 23.9866 2.56946C23.9807 2.2405 23.9779 1.91164 23.9757 1.58263C23.9732 1.48048 23.9707 1.37833 23.9681 1.27308C23.9678 0.562157 23.9678 0.562157 24.2553 0.1797C24.5323 -0.0145511 24.6652 -0.066357 25 -0.0611267ZM25.9765 7.42178C25.9765 10.2255 25.9765 13.0292 25.9765 15.9179C28.2002 15.9179 30.4238 15.9179 32.7148 15.9179C32.0537 13.714 31.0464 11.6537 29.5898 9.86319C29.5376 9.79496 29.4853 9.72673 29.4315 9.65643C28.5801 8.59906 27.3235 7.64628 25.9765 7.42178ZM21.0487 9.11742C19.2515 10.9838 18.0239 13.4555 17.2851 15.9179C19.5088 15.9179 21.7324 15.9179 24.0234 15.9179C24.0234 13.1142 24.0234 10.3105 24.0234 7.42178C22.9566 7.42178 21.7812 8.4326 21.0487 9.11742ZM17.9993 8.496C17.9167 8.52652 17.8341 8.55704 17.749 8.58848C17.0051 8.87016 16.2989 9.20603 15.5971 9.57919C15.4487 9.65782 15.2989 9.73399 15.1489 9.80978C12.5078 11.1775 10.0876 13.3802 8.39842 15.8202C8.39842 15.8524 8.39842 15.8847 8.39842 15.9179C10.6221 15.9179 12.8457 15.9179 15.1367 15.9179C15.4267 15.1122 15.7168 14.3065 16.0156 13.4765C16.2177 13.0076 16.4182 12.5528 16.6443 12.0971C16.6979 11.9874 16.7516 11.8777 16.8068 11.7647C17.3654 10.6439 18.0252 9.64013 18.811 8.66537C18.9286 8.51706 19.0356 8.36051 19.1406 8.20303C18.7245 8.20303 18.3867 8.35265 17.9993 8.496ZM7.03124 17.9687C5.7214 20.7339 4.68749 23.5687 4.68749 26.6601C7.58788 26.6601 10.4883 26.6601 13.4765 26.6601C13.541 25.6288 13.6055 24.5976 13.6719 23.5351C13.8884 21.6389 14.1885 19.8524 14.5508 17.9687C12.0693 17.9687 9.58788 17.9687 7.03124 17.9687ZM16.6015 17.9687C16.0843 20.3523 16.0843 20.3523 15.7226 22.7538C15.7126 22.8385 15.7025 22.9231 15.6922 23.0103C15.662 23.2705 15.6339 23.5309 15.6067 23.7914C15.5985 23.8658 15.5902 23.9402 15.5818 24.0168C15.4969 24.9034 15.5273 25.7577 15.5273 26.6601C18.331 26.6601 21.1348 26.6601 24.0234 26.6601C24.0234 23.7919 24.0234 20.9237 24.0234 17.9687C21.5742 17.9687 19.125 17.9687 16.6015 17.9687ZM25.9765 17.9687C25.9765 20.8368 25.9765 23.705 25.9765 26.6601C32.3574 26.6601 38.7383 26.6601 45.3125 26.6601C45.3125 23.5875 44.3293 20.6897 42.9687 17.9687C37.3613 17.9687 31.7539 17.9687 25.9765 17.9687ZM4.68749 28.6132C4.68749 31.6853 5.67015 34.5824 7.03124 37.3046C9.51268 37.3046 11.9941 37.3046 14.5508 37.3046C14.3574 36.2733 14.164 35.2421 13.9648 34.1796C13.7038 32.3148 13.5948 30.5044 13.4765 28.6132C10.5762 28.6132 7.67577 28.6132 4.68749 28.6132ZM15.5273 28.6132C15.5273 29.8324 15.5502 30.9881 15.6921 32.1898C15.7007 32.2648 15.7092 32.3398 15.718 32.417C15.8726 33.7697 16.1051 35.0977 16.4062 36.4257C16.4707 36.7157 16.5351 37.0058 16.6015 37.3046C19.0508 37.3046 21.5 37.3046 24.0234 37.3046C24.0234 34.4364 24.0234 31.5683 24.0234 28.6132C21.2197 28.6132 18.416 28.6132 15.5273 28.6132ZM25.9765 28.6132C25.9765 31.4814 25.9765 34.3495 25.9765 37.3046C28.4258 37.3046 30.875 37.3046 33.3984 37.3046C33.9157 34.9209 33.9157 34.9209 34.2773 32.5194C34.2874 32.4348 34.2974 32.3502 34.3078 32.2629C34.338 32.0027 34.3661 31.7424 34.3933 31.4818C34.4015 31.4075 34.4097 31.3331 34.4182 31.2564C34.5031 30.3699 34.4726 29.5156 34.4726 28.6132C31.6689 28.6132 28.8652 28.6132 25.9765 28.6132ZM36.5234 28.6132C36.459 29.6444 36.3945 30.6757 36.3281 31.7382C36.1116 33.6344 35.8115 35.4209 35.4492 37.3046C37.9306 37.3046 40.4121 37.3046 42.9687 37.3046C44.2786 34.5394 45.3125 31.7045 45.3125 28.6132C42.4121 28.6132 39.5117 28.6132 36.5234 28.6132ZM8.39842 39.3554C10.685 42.7852 14.6828 46.0914 18.8049 47.0153C18.9711 47.0425 18.9711 47.0425 19.1406 47.0702C19.0258 46.9192 19.0258 46.9192 18.9087 46.765C18.8548 46.6924 18.8009 46.6198 18.7454 46.5449C18.6119 46.3658 18.4765 46.1881 18.3395 46.0116C16.8399 44.0401 15.9142 41.6879 15.1367 39.3554C12.9131 39.3554 10.6894 39.3554 8.39842 39.3554ZM17.2851 39.3554C18.1587 42.2673 19.7593 45.6232 22.4609 47.2655C22.8119 47.4488 23.1659 47.611 23.5351 47.7538C23.67 47.8073 23.67 47.8073 23.8075 47.8618C24.9375 48.1766 26.119 47.9854 27.1484 47.4608C27.231 47.4207 27.3136 47.3805 27.3987 47.3392C30.1124 45.8736 31.6775 42.5054 32.6603 39.7361C32.724 39.5517 32.724 39.5517 32.7148 39.3554C30.4912 39.3554 28.2676 39.3554 25.9765 39.3554C25.9443 40.1933 25.9121 41.0312 25.8789 41.8944C25.4613 42.312 25.3672 42.363 24.8047 42.3827C24.4256 42.2816 24.3435 42.2281 24.1211 41.8944C24.0727 40.6376 24.0727 40.6376 24.0234 39.3554C21.7998 39.3554 19.5762 39.3554 17.2851 39.3554ZM34.8633 39.3554C34.5732 40.161 34.2832 40.9667 33.9844 41.7968C33.7822 42.2657 33.5818 42.7205 33.3557 43.1762C33.3021 43.2859 33.2484 43.3956 33.1931 43.5086C32.6346 44.6294 31.9748 45.6331 31.189 46.6079C31.0714 46.7562 30.9643 46.9127 30.8594 47.0702C35.0921 46.222 39.1848 42.9439 41.6015 39.453C41.6015 39.4208 41.6015 39.3886 41.6015 39.3554C39.3779 39.3554 37.1543 39.3554 34.8633 39.3554Z" stroke="#5F7D97" stroke-width="1.6" mask="url(#path-1-inside-1_2068_72)"/>
<path d="M45.4102 41.6993C45.7576 41.9599 45.9257 42.1545 45.9961 42.5782C46.0028 42.8141 46.0044 43.0502 46.0022 43.2862C46.0013 43.4096 46.0004 43.5329 45.9995 43.66C45.9984 43.7542 45.9973 43.8483 45.9961 43.9454C46.1103 43.9397 46.2244 43.934 46.3421 43.9282C46.4933 43.9236 46.6445 43.9192 46.7957 43.9148C46.8707 43.9108 46.9458 43.9067 47.0232 43.9024C47.4418 43.8935 47.6051 43.9059 47.9481 44.1704C48.1952 44.5015 48.2422 44.7051 48.2422 45.1172C48.1194 45.4929 48.026 45.6552 47.6894 45.8653C47.3156 46.0153 47.0441 46.0258 46.6431 46.0145C46.5215 46.0118 46.3999 46.0092 46.2746 46.0064C46.1827 46.003 46.0908 45.9996 45.9961 45.9961C46.0012 46.134 46.0012 46.134 46.0064 46.2746C46.009 46.3962 46.0117 46.5178 46.0144 46.6431C46.0195 46.8233 46.0195 46.8233 46.0247 47.007C45.9936 47.3945 45.9078 47.6213 45.7031 47.9493C45.3699 48.1841 45.1775 48.2422 44.7693 48.2422C44.3537 48.1213 44.2093 47.9986 43.9453 47.6563C43.8875 47.3665 43.8988 47.0897 43.9148 46.7957C43.917 46.7187 43.9192 46.6417 43.9215 46.5624C43.9272 46.3736 43.9359 46.1848 43.9453 45.9961C43.8545 45.9995 43.7638 46.0029 43.6703 46.0064C42.4329 46.0335 42.4329 46.0335 41.8945 45.7032C41.6329 45.3107 41.6312 44.9926 41.6992 44.5313C41.8744 44.251 41.9905 44.0927 42.2852 43.9454C42.5668 43.9383 42.8459 43.9363 43.1274 43.9393C43.2057 43.9397 43.284 43.9401 43.3647 43.9406C43.5582 43.9417 43.7518 43.9435 43.9453 43.9454C43.9385 43.7741 43.9385 43.7741 43.9316 43.5994C43.9279 43.4482 43.9244 43.297 43.9209 43.1458C43.9176 43.0707 43.9143 42.9956 43.911 42.9183C43.9042 42.5252 43.9143 42.3342 44.1299 41.9934C44.5105 41.6305 44.903 41.6204 45.4102 41.6993Z" fill="#5F7D97"/>
<path d="M35.8398 19.4337C36.194 19.6108 36.3819 19.7218 36.5395 20.0898C36.6272 20.4342 36.6405 20.7269 36.6333 21.0816C36.6315 21.1942 36.6298 21.3067 36.628 21.4227C36.6257 21.5075 36.6234 21.5924 36.6211 21.6798C36.7695 21.673 36.7695 21.673 36.9209 21.666C37.0529 21.6624 37.1849 21.6588 37.3169 21.6554C37.3818 21.6521 37.4468 21.6488 37.5137 21.6454C38.0151 21.6356 38.2876 21.7549 38.6719 22.0704C38.8454 22.3571 38.8689 22.517 38.855 22.8516C38.7557 23.1919 38.6249 23.3797 38.3789 23.6329C38.0255 23.7507 37.7026 23.7411 37.3352 23.7367C37.2324 23.736 37.2324 23.736 37.1275 23.7353C36.9587 23.7342 36.7899 23.7324 36.6211 23.7306C36.6262 23.8561 36.6262 23.8561 36.6314 23.9842C36.6625 25.2997 36.6625 25.2997 36.1633 25.8729C35.8289 26.0265 35.5131 26.0425 35.1562 25.9766C34.8818 25.8015 34.7159 25.6818 34.5703 25.3907C34.5633 25.1091 34.5612 24.8299 34.5642 24.5484C34.5646 24.4701 34.5651 24.3918 34.5655 24.3112C34.5667 24.1176 34.5684 23.9241 34.5703 23.7306C34.4632 23.734 34.3561 23.7374 34.2457 23.7409C34.1036 23.7436 33.9616 23.7463 33.8196 23.7489C33.7491 23.7513 33.6787 23.7538 33.6061 23.7563C33.1575 23.7624 32.872 23.7213 32.5195 23.4376C32.2856 23.0452 32.2133 22.8425 32.2815 22.3878C32.4254 22.0625 32.5055 21.9449 32.8125 21.7774C33.1659 21.6596 33.4888 21.6692 33.8562 21.6737C33.9247 21.6741 33.9933 21.6746 34.0639 21.675C34.2327 21.6762 34.4015 21.6779 34.5703 21.6798C34.5646 21.5656 34.559 21.4514 34.5531 21.3338C34.5486 21.1826 34.5441 21.0314 34.5398 20.8802C34.5357 20.8051 34.5316 20.73 34.5274 20.6527C34.5183 20.2281 34.5287 20.0716 34.8041 19.7278C35.1749 19.4415 35.37 19.3885 35.8398 19.4337Z" fill="#5F7D97"/>
<path d="M3.98559 43.7805C4.33144 44.2054 4.30837 44.5533 4.30298 45.0927C4.3021 45.207 4.30121 45.3213 4.30031 45.4391C4.29917 45.5262 4.29804 45.6133 4.29687 45.7031C4.42244 45.698 4.42244 45.698 4.55055 45.6928C5.74174 45.6646 5.74174 45.6646 6.25 45.996C6.492 46.3288 6.54297 46.5186 6.54297 46.9299C6.42207 47.3455 6.29935 47.4898 5.95703 47.7538C5.66722 47.8116 5.39046 47.8004 5.09643 47.7844C5.01945 47.7822 4.94248 47.78 4.86316 47.7777C4.67432 47.772 4.48557 47.7632 4.29687 47.7538C4.30197 47.89 4.30197 47.89 4.30717 48.0289C4.33427 49.2663 4.33427 49.2663 4.0039 49.8046C3.61146 50.0663 3.29332 50.0679 2.83203 49.9999C2.55173 49.8248 2.39342 49.7087 2.24609 49.414C2.23907 49.1324 2.23702 48.8532 2.23999 48.5717C2.24043 48.4934 2.24087 48.4151 2.24132 48.3344C2.24248 48.1409 2.24423 47.9474 2.24609 47.7538C2.13191 47.7584 2.01774 47.7629 1.9001 47.7676C1.74891 47.7712 1.59772 47.7748 1.44653 47.7783C1.37144 47.7815 1.29635 47.7848 1.21898 47.7882C0.825923 47.7949 0.634951 47.7849 0.294111 47.5692C-0.0308076 47.2285 -0.0387418 46.9661 -0.0343341 46.5099C-1.79559e-06 46.289 -1.78814e-06 46.289 0.219725 45.996C0.668495 45.6697 1.03776 45.6919 1.58691 45.697C1.77196 45.6983 1.77196 45.6983 1.96075 45.6996C2.05491 45.7008 2.14908 45.7019 2.24609 45.7031C2.24043 45.5889 2.23476 45.4747 2.22893 45.3571C2.22434 45.2059 2.2199 45.0547 2.21557 44.9035C2.21148 44.8284 2.20739 44.7533 2.20318 44.676C2.19406 44.251 2.20467 44.0947 2.48031 43.7503C2.99068 43.3572 3.47595 43.3614 3.98559 43.7805Z" fill="#5F7D97"/>
<path d="M47.168 0.000118926C47.4483 0.175308 47.6066 0.291392 47.7539 0.586056C47.7609 0.867668 47.763 1.14684 47.76 1.42834C47.7596 1.50664 47.7591 1.58494 47.7587 1.66562C47.7575 1.85915 47.7558 2.05268 47.7539 2.24621C47.9252 2.23941 47.9252 2.23941 48.0999 2.23248C48.2511 2.22881 48.4023 2.22526 48.5535 2.2218C48.6286 2.21853 48.7036 2.21525 48.781 2.21188C49.1741 2.20513 49.365 2.2152 49.7059 2.43084C50.0308 2.77154 50.0387 3.03399 50.0343 3.49019C50 3.71106 50 3.71106 49.7803 4.00403C49.3315 4.3304 48.9622 4.30818 48.4131 4.3031C48.2897 4.30222 48.1664 4.30134 48.0392 4.30043C47.9451 4.29929 47.8509 4.29816 47.7539 4.29699C47.7596 4.41117 47.7652 4.52535 47.7711 4.64299C47.7757 4.79417 47.7801 4.94536 47.7844 5.09655C47.7885 5.17165 47.7926 5.24674 47.7968 5.3241C47.8058 5.7427 47.7933 5.90602 47.5288 6.24897C47.1978 6.49609 46.9941 6.54309 46.582 6.54309C46.1881 6.42188 46.0385 6.31507 45.813 5.96936C45.6174 5.43967 45.6806 4.85186 45.7031 4.29699C45.5776 4.30209 45.5776 4.30209 45.4494 4.30729C44.2583 4.3355 44.2583 4.3355 43.75 4.00403C43.508 3.67127 43.457 3.48151 43.457 3.07019C43.5779 2.6546 43.7007 2.51022 44.043 2.24621C44.3328 2.18844 44.6095 2.19968 44.9036 2.2157C44.9805 2.2179 45.0575 2.2201 45.1368 2.22237C45.3257 2.22809 45.5144 2.23685 45.7031 2.24621C45.6997 2.15545 45.6963 2.06469 45.6928 1.97117C45.6657 0.733803 45.6657 0.733803 45.9961 0.195431C46.3885 -0.0661953 46.7067 -0.0678603 47.168 0.000118926Z" fill="#5F7D97"/>
<path d="M6.73829 3.22266C7.00437 3.41963 7.19866 3.57065 7.26548 3.90654C7.27459 4.13013 7.26926 4.34811 7.25709 4.57154C7.25488 4.64852 7.25268 4.7255 7.25041 4.80481C7.24469 4.99365 7.23593 5.1824 7.22657 5.3711C7.32552 5.3677 7.42446 5.3643 7.5264 5.3608C7.65839 5.35805 7.79038 5.35539 7.92237 5.35279C7.98733 5.35034 8.05228 5.34788 8.11921 5.34535C8.58092 5.33856 8.88893 5.41453 9.27735 5.66407C9.51541 6.05091 9.58277 6.25581 9.52149 6.70777C9.35109 7.08407 9.23779 7.20716 8.88673 7.42188C8.59782 7.46768 8.31769 7.459 8.02613 7.4463C7.94915 7.44453 7.87217 7.44277 7.79286 7.44096C7.60405 7.43638 7.41529 7.42937 7.22657 7.42188C7.2311 7.53606 7.23563 7.65024 7.2403 7.76788C7.24397 7.91906 7.24752 8.07025 7.25098 8.22144C7.25426 8.29653 7.25753 8.37162 7.2609 8.44899C7.26765 8.84205 7.25758 9.03302 7.04194 9.37386C6.724 9.67708 6.49799 9.70058 6.05851 9.69659C5.7489 9.6521 5.58407 9.49677 5.3711 9.27735C5.20948 8.95411 5.2636 8.59461 5.26734 8.23975C5.26778 8.16145 5.26822 8.08315 5.26868 8.00248C5.26983 7.80894 5.27158 7.61541 5.27344 7.42188C5.1604 7.42755 5.04736 7.43321 4.93088 7.43905C4.78059 7.44363 4.63029 7.44807 4.47999 7.4524C4.40572 7.45649 4.33144 7.46058 4.25492 7.4648C3.85151 7.47349 3.59402 7.45049 3.27264 7.19338C2.98646 6.89029 2.9214 6.76229 2.92969 6.34766C3.04589 5.9444 3.12247 5.72868 3.47939 5.49851C3.85667 5.3525 4.1803 5.33777 4.57764 5.35279C4.64487 5.35411 4.71209 5.35543 4.78135 5.3568C4.94541 5.36021 5.10944 5.36547 5.27344 5.3711C5.26778 5.25692 5.26212 5.14275 5.25628 5.02511C5.2517 4.87392 5.24725 4.72273 5.24293 4.57154C5.23884 4.49645 5.23474 4.42136 5.23053 4.34399C5.22151 3.92358 5.23334 3.76233 5.50118 3.41912C5.93581 3.0914 6.21764 3.09699 6.73829 3.22266Z" fill="#5F7D97"/>
<path d="M37.5977 9.08193C37.878 9.25712 38.0363 9.3732 38.1836 9.66787C38.2268 10.5598 38.2268 10.5598 37.9883 10.8397C37.6011 11.0721 37.344 11.1729 36.8958 11.09C36.5862 10.992 36.5104 10.923 36.2793 10.6688C36.1181 10.3195 36.0698 10.144 36.1328 9.76552C36.5175 9.08602 36.8443 8.98433 37.5977 9.08193Z" fill="#5F7D97"/>
<path d="M25.4883 44.2383C25.7834 44.4392 25.9463 44.58 26.02 44.9371C26.0401 45.338 26.0095 45.5528 25.7935 45.8984C25.4738 46.1993 25.2479 46.224 24.8085 46.22C24.4989 46.1755 24.3341 46.0202 24.1211 45.8008C23.9514 45.4614 23.9652 45.0968 24.0234 44.7266C24.455 44.1667 24.8099 44.0745 25.4883 44.2383Z" fill="#5F7D97"/>
</g>
<defs>
<clipPath id="clip0_2068_72">
<rect width="50" height="50" fill="white"/>
</clipPath>
</defs>
</svg>
