<svg width="50" height="50" viewBox="0 0 50 50" fill="none" xmlns="http://www.w3.org/2000/svg">
<g clip-path="url(#clip0_2068_60)">
<path d="M23.5461 9.17603C26.9925 8.68077 30.5794 9.3203 33.6037 11.0237L33.8947 11.1917L33.8957 11.1926H33.8966V11.1936H33.8976L33.8986 11.1946H33.8996L33.9005 11.1956H33.9015L33.9025 11.1965H33.9035V11.1975H33.9044L33.9054 11.1985H33.9064L33.9074 11.1995H33.9084V11.2004H33.9093L33.9103 11.2014H33.9113V11.2024H33.9132V11.2034H33.9152V11.2043H33.9162L33.9171 11.2053H33.9181V11.2063H33.9191L33.9201 11.2073H33.9211L33.922 11.2083H33.923L33.924 11.2092H33.925V11.2102H33.9259L33.9269 11.2112H33.9279L33.9289 11.2122H33.9298V11.2131H33.9308L33.9318 11.2141H33.9328V11.2151H33.9347L33.9357 11.2161H33.9367V11.217H33.9377L33.9386 11.218H33.9396V11.219H33.9406L33.9416 11.22H33.9425L33.9435 11.2209H33.9445V11.2219H33.9464V11.2229H33.9474L33.9484 11.2239H33.9494L33.9503 11.2249H33.9513V11.2258H33.9523L33.9533 11.2268H33.9543V11.2278H33.9562L33.9572 11.2288H33.9582V11.2297H33.9591L33.9601 11.2307H33.9611V11.2317H33.9621L33.963 11.2327H33.964L33.965 11.2336H33.966V11.2346H33.9679V11.2356H33.9689L33.9699 11.2366H33.9709L33.9718 11.2375H33.9728V11.2385H33.9738L33.9748 11.2395H33.9757V11.2405H33.9777V11.2415H33.9796V11.2424H33.9806L33.9816 11.2434H33.9826V11.2444H33.9845V11.2454H33.9855L33.9865 11.2463H33.9875V11.2473H33.9884L33.9894 11.2483H33.9914V11.2493H33.9923L33.9933 11.2502H33.9943V11.2512H33.9953L33.9962 11.2522H33.9972L33.9982 11.2532H33.9992V11.2542H34.0002L34.0011 11.2551H34.0021L34.0031 11.2561H34.0041L34.005 11.2571H34.006V11.2581H34.007L34.008 11.259H34.0089V11.26H34.0109V11.261H34.0119L34.0128 11.262H34.0138V11.2629H34.0158V11.2639H34.0177V11.2649H34.0187L34.0197 11.2659H34.0207V11.2668H34.0216L34.0226 11.2678H34.0236L34.0246 11.2688H34.0255V11.2698H34.0275V11.2708H34.0285L34.0294 11.2717H34.0304L34.0314 11.2727H34.0324V11.2737H34.0334L34.0343 11.2747H34.0353V11.2756H34.0373V11.2766H34.0382L34.0392 11.2776H34.0402L34.0412 11.2786H34.0421L34.0431 11.2795H34.0441V11.2805H34.0451L34.0461 11.2815H34.047V11.2825H34.048L34.049 11.2834H34.05L34.0509 11.2844H34.0519V11.2854H34.0539V11.2864H34.0558V11.2874H34.0568L34.0578 11.2883H34.0587V11.2893H34.0597L34.0607 11.2903H34.0617L34.0627 11.2913H34.0636V11.2922H34.0646L34.0656 11.2932H34.0666V11.2942H34.0685L34.0695 11.2952H34.0705V11.2961H34.0714L34.0724 11.2971H34.0734L34.0744 11.2981H34.0753V11.2991H34.0763L34.0773 11.3H34.0783V11.301H34.0802V11.302H34.0812L34.0822 11.303H34.0832L34.0841 11.304H34.0851L34.0861 11.3049H34.0871V11.3059H34.088L34.089 11.3069H34.09V11.3079H34.0919V11.3088H34.0929L34.0939 11.3098H34.0949V11.3108H34.0959L34.0968 11.3118H34.0988V11.3127H34.0998L34.1007 11.3137H34.1017V11.3147H34.1037V11.3157H34.1046L34.1056 11.3167H34.1066V11.3176H34.1076L34.1086 11.3186H34.1095L34.1105 11.3196H34.1115V11.3206H34.1125L34.1134 11.3215H34.1144L34.1154 11.3225H34.1164L34.1173 11.3235H34.1183V11.3245H34.1203V11.3254H34.1212L34.1222 11.3264H34.1232V11.3274H34.1242L34.1252 11.3284H34.1261L34.1271 11.3293H34.1281V11.3303H34.1291L34.13 11.3313H34.131L34.132 11.3323H34.133V11.3333H34.1339L34.1349 11.3342H34.1369V11.3352H34.1378L34.1388 11.3362H34.1398V11.3372H34.1408L34.1418 11.3381H34.1427L34.1437 11.3391H34.1447V11.3401H34.1457L34.1466 11.3411H34.1476L34.1486 11.342H34.1496V11.343H34.1505L34.1515 11.344H34.1525L34.1535 11.345H34.1544V11.3459H34.1554L34.1564 11.3469H34.1574L34.1584 11.3479H34.1593L34.1603 11.3489H34.1613V11.3499H34.1632V11.3508H34.1642L34.1662 11.3518V11.3528H34.1671C35.5426 12.1987 36.8666 13.2596 37.883 14.4758L38.0822 14.7219L38.0871 14.7278C38.1278 14.7785 38.1691 14.8289 38.2111 14.8811V14.8821C40.3767 17.5941 41.6179 20.8387 41.7492 24.2756L41.7609 24.9661V25.1868C41.7569 26.1598 41.7148 27.0662 41.5412 27.9592L41.4582 28.3411L41.4572 28.345C41.4408 28.4152 41.4243 28.4856 41.4074 28.5579C40.4235 32.6579 37.9632 36.1336 34.464 38.4583L34.1222 38.679C30.6262 40.8135 26.231 41.517 22.2326 40.6067C21.178 40.3401 20.1704 40.0061 19.2033 39.5637L18.7902 39.3674L18.7853 39.3645L18.6017 39.2756H18.6027C14.7952 37.4044 12.0262 34.0111 10.6046 30.0032C9.34658 26.0403 9.65209 21.7554 11.4113 17.9983L11.5861 17.636C12.2282 16.4075 13.0603 15.3029 14.0041 14.2444L14.4162 13.7922L14.422 13.7854L14.424 13.7834H14.425V13.7825L14.4308 13.7766V13.7756H14.4318V13.7747H14.4328V13.7737L14.4406 13.7659V13.7649H14.4416V13.7639H14.4425V13.7629H14.4435V13.762H14.4445V13.761L14.4474 13.7581V13.7571H14.4484V13.7561H14.4494V13.7551H14.4503V13.7542H14.4513V13.7532H14.4523V13.7522L14.4562 13.7483V13.7473H14.4572L14.4591 13.7454V13.7444H14.4601V13.7434H14.4611V13.7424H14.4621V13.7415L14.463 13.7405H14.464V13.7395L14.466 13.7375V13.7366H14.4669L14.4679 13.7356V13.7346H14.4689V13.7336H14.4699V13.7327H14.4709V13.7317H14.4718V13.7307H14.4728V13.7297L14.4757 13.7268V13.7258H14.4767L14.4777 13.7249V13.7239H14.4787V13.7229H14.4796V13.7219H14.4806V13.7209H14.4816V13.72H14.4826V13.719H14.4836V13.718L14.4865 13.7151V13.7141H14.4875V13.7131H14.4884V13.7122H14.4894V13.7112H14.4904V13.7102H14.4914V13.7092H14.4923V13.7083H14.4933V13.7073L14.4953 13.7053V13.7043H14.4962V13.7034H14.4972V13.7024H14.4982V13.7014H14.4992V13.7004H14.5002V13.6995H14.5011V13.6985H14.5021V13.6975L14.505 13.6946V13.6936H14.506V13.6926H14.507V13.6917H14.508V13.6907H14.5089V13.6897H14.5099V13.6887H14.5109V13.6877H14.5119V13.6868L14.5138 13.6848V13.6838H14.5148L14.5158 13.6829V13.6819H14.5168V13.6809H14.5177V13.6799H14.5187V13.679H14.5197V13.678H14.5207V13.677L14.5216 13.676H14.5226V13.675L14.5246 13.6731V13.6721H14.5255V13.6711H14.5265V13.6702H14.5275V13.6692H14.5285V13.6682H14.5294V13.6672L14.5304 13.6663H14.5314V13.6653H14.5324V13.6643L14.5363 13.6604V13.6594H14.5373V13.6584H14.5382V13.6575H14.5392V13.6565H14.5402V13.6555H14.5412V13.6545L14.5431 13.6526V13.6516H14.5441V13.6506H14.5451V13.6497H14.5461V13.6487H14.547V13.6477H14.548V13.6467H14.549V13.6458H14.55V13.6448L14.5519 13.6428V13.6418H14.5529L14.5548 13.6399V13.6389H14.5558V13.6379H14.5568V13.637H14.5578V13.636H14.5587V13.635H14.5597V13.634L14.5607 13.6331H14.5617V13.6321L14.5627 13.6311V13.6301H14.5636L14.5646 13.6292V13.6282H14.5656V13.6272H14.5666V13.6262H14.5675V13.6252H14.5685V13.6243L14.5695 13.6233H14.5705V13.6223L14.5724 13.6204V13.6194H14.5734V13.6184H14.5744L14.5753 13.6174V13.6165H14.5763V13.6155H14.5773V13.6145H14.5783V13.6135L14.5832 13.6086V13.6077H14.5841V13.6067H14.5851V13.6057H14.5861V13.6047H14.5871V13.6038H14.588V13.6028H14.589V13.6018H14.59V13.6008H14.591V13.5999L14.5919 13.5989V13.5979H14.5929V13.5969H14.5939V13.5959H14.5949V13.595L14.5959 13.594H14.5968V13.593H14.5978V13.592H14.5988V13.5911H14.5998V13.5901L14.6027 13.5872V13.5862H14.6037V13.5852H14.6046C16.647 11.4287 19.6147 9.91524 22.5695 9.34009L23.1593 9.23755L23.1632 9.23657H23.1691L23.1701 9.2356H23.174L23.175 9.23462H23.1808L23.1818 9.23364H23.1867L23.1877 9.23267H23.1935L23.1945 9.23169H23.1994L23.2003 9.23071H23.2052L23.2062 9.22974H23.2121L23.213 9.22876H23.2179L23.2189 9.22778H23.2248L23.2257 9.22681H23.2306L23.2316 9.22583H23.2375L23.2384 9.22485H23.2433L23.2443 9.22388H23.2492L23.2502 9.2229H23.256V9.22192H23.2619L23.2628 9.22095H23.2687V9.21997H23.2736L23.2746 9.21899H23.2804V9.21802H23.2873V9.21704H23.2931V9.21606H23.299L23.3 9.21509H23.3058V9.21411H23.3117L23.3127 9.21313H23.3175L23.3185 9.21216H23.3244V9.21118H23.3302L23.3312 9.21021H23.3371V9.20923H23.3429L23.3439 9.20825H23.3488L23.3498 9.20728H23.3556V9.2063H23.3615L23.3625 9.20532H23.3673L23.3683 9.20435H23.3742V9.20337H23.38V9.20239H23.3859L23.3869 9.20142H23.3918L23.3927 9.20044H23.3986L23.3996 9.19946H23.4044L23.4054 9.19849H23.4113V9.19751H23.4171L23.4181 9.19653H23.424V9.19556H23.4298L23.4308 9.19458H23.4357L23.4367 9.1936H23.4416L23.4425 9.19263H23.4484V9.19165H23.4543L23.4552 9.19067H23.4601L23.4611 9.1897H23.4669L23.4679 9.18872H23.4728L23.4738 9.18774H23.4787L23.4796 9.18677H23.4855L23.4865 9.18579H23.4914L23.4923 9.18481H23.4982L23.4992 9.18384H23.5041L23.505 9.18286H23.5109L23.5119 9.18188H23.5168L23.5177 9.18091H23.5226L23.5236 9.17993H23.5294L23.5304 9.17896H23.5343L23.5353 9.17798H23.5412V9.177H23.547L23.5461 9.17603ZM26.7003 12.4153C22.6087 12.2598 19.0208 13.7359 16.216 16.7815L16.2023 16.7971C15.7129 17.3597 15.3273 17.9686 14.9796 18.5627V18.5637H14.9787V18.5657H14.9777V18.5676H14.9767V18.5686H14.9757V18.5706H14.9748V18.5725H14.9738V18.5735L14.9728 18.5745V18.5754H14.9718V18.5764L14.9709 18.5774V18.5784L14.9699 18.5793V18.5803H14.9689V18.5813L14.9679 18.5823V18.5833L14.9669 18.5842V18.5852H14.966V18.5872H14.965V18.5881L14.964 18.5891V18.5901L14.963 18.5911V18.592H14.9621V18.593L14.9611 18.594V18.595L14.9601 18.5959V18.5969H14.9591V18.5989H14.9582V18.5999L14.9572 18.6008V18.6018H14.9562V18.6038H14.9552V18.6047H14.9543V18.6067H14.9533V18.6086H14.9523V18.6096L14.9513 18.6106V18.6116H14.9503V18.6135H14.9494V18.6145L14.9484 18.6155V18.6165H14.9474V18.6184H14.9464V18.6194L14.9455 18.6204V18.6213L14.9445 18.6223V18.6233H14.9435V18.6243L14.9425 18.6252V18.6262L14.9416 18.6272V18.6282H14.9406V18.6301H14.9396V18.6311L14.9386 18.6321V18.6331H14.9377V18.635H14.9367V18.636L14.9357 18.637V18.6379H14.9347V18.6399H14.9337V18.6409L14.9328 18.6418V18.6428H14.9318V18.6448H14.9308V18.6458L14.9298 18.6467V18.6477H14.9289V18.6497H14.9279V18.6506L14.9269 18.6516V18.6526L14.9259 18.6536V18.6545H14.925V18.6565H14.924V18.6575L14.923 18.6584V18.6594H14.922V18.6614H14.9211V18.6624H14.9201V18.6643H14.9191V18.6663H14.9181V18.6672L14.9171 18.6682V18.6692H14.9162V18.6711H14.9152V18.6721L14.9142 18.6731V18.6741L14.9132 18.675V18.676H14.9123V18.677L14.9113 18.678V18.679H14.9103V18.6809H14.9093V18.6829H14.9084V18.6838H14.9074V18.6858H14.9064V18.6868L14.9054 18.6877V18.6887L14.9044 18.6897V18.6907H14.9035V18.6926H14.9025V18.6936L14.9015 18.6946V18.6956H14.9005V18.6975H14.8996V18.6985L14.8986 18.6995V18.7004H14.8976V18.7024H14.8966V18.7034L14.8957 18.7043V18.7053L14.8947 18.7063V18.7073H14.8937V18.7092H14.8927V18.7102H14.8918V18.7122H14.8908V18.7131L14.8898 18.7141V18.7151L14.8888 18.7161V18.717H14.8878V18.719H14.8869V18.72L14.8859 18.7209V18.7219H14.8849V18.7239H14.8839V18.7249L14.883 18.7258V18.7268H14.882V18.7288H14.881V18.7297L14.88 18.7307V18.7317H14.8791V18.7336H14.8781V18.7356H14.8771V18.7366H14.8761V18.7385H14.8752V18.7395L14.8742 18.7405V18.7415L14.8732 18.7424V18.7434H14.8722V18.7454H14.8712L14.8693 18.7493C13.1595 21.6674 12.8072 25.1114 13.632 28.3303L13.6339 28.3372L13.6359 28.345C14.0437 29.8099 14.7536 31.151 15.5919 32.3586H15.5929V32.3596H15.5939L15.5949 32.3616L15.5959 32.3625V32.3635H15.5968V32.3645H15.5978V32.3665H15.5988V32.3674H15.5998V32.3694H15.6007V32.3704H15.6017V32.3723H15.6027V32.3733H15.6037V32.3752H15.6046V32.3762H15.6056V32.3772L15.6066 32.3782V32.3792H15.6076V32.3801H15.6086V32.3821H15.6095V32.3831H15.6105V32.385H15.6115V32.386H15.6125V32.3879H15.6134V32.3889H15.6144V32.3899L15.6154 32.3909V32.3918H15.6164V32.3928L15.6173 32.3938V32.3948H15.6183V32.3958H15.6193V32.3977H15.6203V32.3987H15.6212V32.4006H15.6222V32.4016H15.6232V32.4026L15.6242 32.4036V32.4045H15.6252V32.4055L15.6261 32.4065V32.4075H15.6271V32.4084L15.6281 32.4094V32.4104H15.6291V32.4114L15.63 32.4124V32.4133H15.631V32.4143H15.632V32.4153L15.633 32.4163V32.4172H15.6339V32.4182L15.6349 32.4192V32.4202H15.6359V32.4211L15.6369 32.4221V32.4231H15.6378V32.4241L15.6388 32.425V32.426H15.6398V32.427L15.6418 32.429V32.4299L15.6437 32.4319V32.4329L15.6457 32.4348V32.4358H15.6466V32.4368L15.6476 32.4377V32.4387H15.6486V32.4397L15.6496 32.4407V32.4417H15.6505V32.4426L15.6515 32.4436V32.4446H15.6525V32.4456L15.6544 32.4475V32.4485H15.6554V32.4495L15.6564 32.4504V32.4514H15.6574V32.4524L15.6584 32.4534V32.4543H15.6593V32.4553L15.6603 32.4563V32.4573H15.6613V32.4583H15.6623V32.4602H15.6632V32.4612H15.6642V32.4631H15.6652V32.4641H15.6662V32.4661H15.6671V32.467H15.6681V32.468L15.6691 32.469V32.47H15.6701V32.4709L15.6711 32.4719V32.4729H15.672V32.4739H15.673V32.4749L15.674 32.4758V32.4768H15.675V32.4778L15.6759 32.4788V32.4797H15.6769V32.4807L15.6779 32.4817V32.4827H15.6789V32.4836L15.6798 32.4846V32.4856H15.6808V32.4866L15.6818 32.4875V32.4885H15.6828V32.4895L15.6837 32.4905V32.4915H15.6847V32.4924H15.6857V32.4944H15.6867V32.4954H15.6877V32.4963L15.6886 32.4973V32.4983H15.6896V32.4993H15.6906V32.5012H15.6916V32.5022H15.6925V32.5042H15.6935V32.5051H15.6945V32.5061L15.6955 32.5071V32.5081H15.6964V32.509L15.6974 32.51V32.511H15.6984V32.512L15.6994 32.5129V32.5139H15.7003V32.5149L15.7013 32.5159V32.5168H15.7023V32.5178L15.7033 32.5188V32.5198H15.7043V32.5208H15.7052V32.5227H15.7062V32.5237H15.7072V32.5256H15.7082V32.5266H15.7091V32.5276L15.7101 32.5286V32.5295H15.7111V32.5305L15.713 32.5325V32.5334L15.715 32.5354V32.5364L15.716 32.5374V32.5383H15.7169V32.5393H15.7179V32.5413H15.7189V32.5422H15.7199V32.5432L15.7209 32.5442V32.5452H15.7218V32.5461L15.7228 32.5471V32.5481H15.7238V32.5491L15.7257 32.551V32.552L15.7277 32.554V32.5549H15.7287V32.5559L15.7296 32.5569V32.5579H15.7306V32.5588L15.7316 32.5598V32.5608H15.7326V32.5618L15.7336 32.5627V32.5637H15.7345V32.5647L15.7365 32.5667V32.5676L15.7384 32.5696V32.5706H15.7394V32.5715L15.7462 32.5803L15.7521 32.5901C16.6023 33.7506 17.6745 34.7753 18.9005 35.551L19.1476 35.7034L19.3361 35.8157L19.3419 35.8186C22.0499 37.4 25.2851 38.0603 28.423 37.3499L28.4357 37.3469L28.4494 37.343H28.4503L28.4513 37.342H28.4543L28.4552 37.3411H28.4582V37.3401H28.4621V37.3391H28.465L28.466 37.3381H28.4689L28.4699 37.3372H28.4728L28.4738 37.3362H28.4767V37.3352H28.4796L28.4806 37.3342H28.4836L28.4845 37.3333H28.4875L28.4884 37.3323H28.4904L28.4914 37.3313H28.4953V37.3303H28.4982L28.4992 37.3293H28.5021V37.3284H28.506L28.507 37.3274H28.5089L28.5099 37.3264H28.5128L28.5138 37.3254H28.5168L28.5177 37.3245H28.5207V37.3235H28.5236L28.5246 37.3225H28.5285V37.3215H28.5314L28.5324 37.3206H28.5353V37.3196H28.5392L28.5402 37.3186H28.5421L28.5431 37.3176H28.5461L28.547 37.3167H28.55L28.5509 37.3157H28.5539V37.3147H28.5568L28.5578 37.3137H28.5607L28.5617 37.3127H28.5646L28.5656 37.3118H28.5685V37.3108H28.5724L28.5734 37.3098H28.5753L28.5763 37.3088H28.5793L28.5802 37.3079H28.5832L28.5841 37.3069H28.5871V37.3059H28.59L28.591 37.3049H28.5939V37.304H28.5978L28.5988 37.303H28.6017V37.302H28.6046L28.6056 37.301H28.6086L28.6095 37.3H28.6125L28.6134 37.2991H28.6154L28.6164 37.2981H28.6203V37.2971H28.6232L28.6242 37.2961H28.6271L28.6281 37.2952H28.63L28.631 37.2942H28.6349V37.2932H28.6378L28.6388 37.2922H28.6418V37.2913H28.6457L28.6466 37.2903H28.6496V37.2893H28.6525L28.6535 37.2883H28.6564L28.6574 37.2874H28.6603L28.6613 37.2864H28.6642V37.2854H28.6671L28.6681 37.2844H28.6711L28.672 37.2834H28.675L28.6759 37.2825H28.6789V37.2815H28.6818L28.6828 37.2805H28.6857L28.6867 37.2795H28.6896L28.6906 37.2786H28.6935V37.2776H28.6974L28.6984 37.2766H28.7003L28.7013 37.2756H28.7043L28.7052 37.2747H28.7082V37.2737H28.7121L28.713 37.2727H28.716V37.2717H28.7189L28.7199 37.2708H28.7228V37.2698H28.7267L28.7277 37.2688H28.7306V37.2678H28.7336L28.7345 37.2668H28.7375L28.7384 37.2659H28.7404L28.7414 37.2649H28.7453V37.2639H28.7482L28.7492 37.2629H28.7521L28.7531 37.262H28.756V37.261H28.7599L28.7609 37.26H28.7628L28.7638 37.259H28.7668L28.7677 37.2581H28.7707V37.2571H28.7736L28.7746 37.2561H28.7785V37.2551H28.7814L28.7824 37.2542H28.7853L28.7863 37.2532H28.7892V37.2522H28.7921L28.7931 37.2512H28.7961L28.797 37.2502H28.8L28.8009 37.2493H28.8039V37.2483H28.8058L28.8048 37.2473L28.9914 37.2004L28.9953 37.1995C32.1913 36.3588 34.9587 34.2627 36.6613 31.4436L36.6652 31.4368L36.6691 31.4309C38.3152 28.5824 38.8267 25.2927 38.0763 22.093L38.0002 21.7834L37.9972 21.7727L37.9005 21.4397C37.4004 19.7877 36.6027 18.2267 35.4367 16.8987H35.4357V16.8977H35.4347V16.8967L35.4328 16.8948V16.8938H35.4318V16.8928H35.4308V16.8918L35.4298 16.8909H35.4289V16.8899L35.4259 16.887V16.886H35.425V16.885H35.424V16.884L35.422 16.8821V16.8811H35.4211V16.8801H35.4201V16.8792H35.4191V16.8782H35.4181V16.8772L35.4162 16.8752V16.8743H35.4152V16.8733H35.4142V16.8723L35.4123 16.8704V16.8694H35.4113L35.4103 16.8684V16.8674H35.4093V16.8665H35.4084V16.8655L35.4064 16.8635V16.8625H35.4054V16.8616H35.4044V16.8606L35.4025 16.8586V16.8577H35.4015L35.4005 16.8567V16.8557H35.3996V16.8547H35.3986V16.8538L35.3966 16.8518V16.8508H35.3957V16.8499H35.3947V16.8489L35.3927 16.8469V16.8459H35.3918L35.3908 16.845V16.844H35.3898V16.843H35.3888V16.842H35.3878V16.8411L35.3859 16.8391V16.8381H35.3849V16.8372H35.3839V16.8362L35.383 16.8352H35.382V16.8342L35.38 16.8323V16.8313H35.3791V16.8303H35.3781V16.8293L35.3761 16.8274V16.8264H35.3752V16.8254H35.3742V16.8245L35.3703 16.8206V16.8196H35.3693V16.8186H35.3683V16.8176L35.3664 16.8157V16.8147H35.3654V16.8137H35.3644V16.8127L35.3625 16.8108H35.3615V16.8098L35.3595 16.8079V16.8069H35.3586V16.8059H35.3576V16.8049L35.3556 16.803V16.802H35.3546V16.801H35.3537V16.8L35.3498 16.7961V16.7952H35.3488V16.7942H35.3478V16.7932L35.3459 16.7913V16.7903H35.3449V16.7893H35.3439V16.7883L35.339 16.7834V16.7825H35.338V16.7815H35.3371V16.7805L35.3351 16.7786V16.7776H35.3341V16.7766H35.3332V16.7756L35.3312 16.7737V16.7727H35.3302V16.7717H35.3293V16.7708H35.3283V16.7698H35.3273V16.7688H35.3263V16.7678L35.3244 16.7659V16.7649H35.3234V16.7639H35.3224V16.7629L35.3205 16.761V16.76H35.3195V16.759H35.3185V16.7581L35.3175 16.7571H35.3166V16.7561L35.3146 16.7542V16.7532H35.3136V16.7522H35.3127V16.7512H35.3117V16.7502L35.3097 16.7483V16.7473H35.3087V16.7463H35.3078V16.7454L35.3058 16.7434V16.7424H35.3048L35.3039 16.7415V16.7405H35.3029V16.7395H35.3019V16.7385H35.3009V16.7375L35.299 16.7356V16.7346H35.298V16.7336H35.297V16.7327L35.2951 16.7307V16.7297H35.2941V16.7288H35.2931V16.7278L35.2912 16.7258H35.2902V16.7249L35.2882 16.7229V16.7219H35.2873V16.7209H35.2863V16.72L35.2843 16.718V16.717H35.2834V16.7161H35.2824V16.7151H35.2814V16.7141L35.2794 16.7122V16.7112H35.2785V16.7102H35.2775V16.7092L35.2755 16.7073V16.7063H35.2746L35.2726 16.7043V16.7034H35.2716V16.7024H35.2707V16.7014L35.2687 16.6995V16.6985H35.2677V16.6975H35.2668V16.6965H35.2658V16.6956L35.2638 16.6936V16.6926H35.2628V16.6917H35.2619V16.6907L35.2599 16.6887V16.6877H35.2589V16.6868H35.258V16.6858H35.257V16.6848L35.256 16.6838H35.255V16.6829L35.2531 16.6809V16.6799H35.2521V16.679H35.2511V16.678H35.2502V16.677L35.2482 16.675V16.6741H35.2472V16.6731H35.2462V16.6721L35.2433 16.6692V16.6682H35.2423V16.6672H35.2414V16.6663L35.2384 16.6633V16.6624H35.2375V16.6614H35.2365V16.6604L35.2345 16.6584L35.2287 16.6516L34.839 16.2219C32.8371 14.1167 30.0238 12.7103 27.1212 12.4368L27.0978 12.4348L26.7003 12.4153Z" stroke="#5F7D97" stroke-width="1.5"/>
<mask id="path-2-inside-1_2068_60" fill="white">
<path d="M0.756847 8.8562C0.976574 8.98438 0.976574 8.98438 1.07423 9.17969C1.08454 9.39751 1.0885 9.61563 1.08963 9.83369C1.09038 9.93447 1.09038 9.93447 1.09114 10.0373C1.09218 10.1833 1.09302 10.3294 1.09369 10.4755C1.09484 10.7065 1.09674 10.9376 1.09887 11.1686C1.1049 11.8256 1.11017 12.4826 1.11343 13.1396C1.11547 13.5412 1.11891 13.9429 1.12327 14.3446C1.12465 14.4978 1.1255 14.651 1.12581 14.8042C1.12629 15.0184 1.12855 15.2325 1.13121 15.4466C1.132 15.5686 1.13279 15.6905 1.13361 15.8161C1.14775 16.1113 1.14775 16.1113 1.30794 16.303C1.46285 16.4291 1.46285 16.4291 1.67237 16.3818C1.85361 16.3233 1.85361 16.3233 1.95314 16.2109C1.96371 15.9938 1.96742 15.7764 1.96854 15.5591C1.96903 15.4909 1.96953 15.4228 1.97004 15.3526C1.97109 15.2042 1.97193 15.0558 1.97259 14.9074C1.97374 14.6727 1.97564 14.4379 1.97778 14.2032C1.98381 13.5356 1.98908 12.8681 1.99233 12.2005C1.99437 11.7926 1.99782 11.3847 2.00217 10.9768C2.00356 10.8212 2.00441 10.6655 2.00472 10.5098C2.00519 10.2921 2.00745 10.0745 2.01012 9.85684C2.01091 9.73288 2.0117 9.60892 2.01251 9.48119C2.05079 9.17969 2.05079 9.17969 2.18799 8.99584C2.37712 8.86335 2.5036 8.81004 2.73439 8.78906C2.99474 8.88577 3.09707 8.9285 3.22267 9.17969C3.23298 9.39751 3.23693 9.61563 3.23807 9.83369C3.23857 9.90088 3.23906 9.96806 3.23957 10.0373C3.24062 10.1833 3.24146 10.3294 3.24212 10.4755C3.24327 10.7065 3.24517 10.9376 3.24731 11.1686C3.25333 11.8256 3.25861 12.4826 3.26186 13.1396C3.26391 13.5412 3.26735 13.9429 3.2717 14.3446C3.27309 14.4978 3.27394 14.651 3.27425 14.8042C3.27473 15.0184 3.27698 15.2325 3.27965 15.4466C3.28044 15.5686 3.28123 15.6905 3.28204 15.8161C3.29619 16.1113 3.29619 16.1113 3.45638 16.303C3.61129 16.4291 3.61129 16.4291 3.82081 16.3818C4.00205 16.3233 4.00205 16.3233 4.10157 16.2109C4.11215 15.9938 4.11586 15.7764 4.11698 15.5591C4.11747 15.4909 4.11797 15.4228 4.11848 15.3526C4.11953 15.2042 4.12037 15.0558 4.12103 14.9074C4.12218 14.6727 4.12408 14.4379 4.12622 14.2032C4.13225 13.5356 4.13751 12.8681 4.14077 12.2005C4.14281 11.7926 4.14626 11.3847 4.15061 10.9768C4.15199 10.8212 4.15284 10.6655 4.15315 10.5098C4.15363 10.2921 4.15589 10.0745 4.15856 9.85684C4.15935 9.73288 4.16014 9.60892 4.16095 9.48119C4.19923 9.17969 4.19923 9.17969 4.33643 8.99584C4.52556 8.86335 4.65204 8.81004 4.88282 8.78906C5.14318 8.88577 5.24551 8.9285 5.3711 9.17969C5.38142 9.39751 5.38537 9.61563 5.38651 9.83369C5.387 9.90088 5.3875 9.96806 5.38801 10.0373C5.38906 10.1833 5.3899 10.3294 5.39056 10.4755C5.39171 10.7065 5.39361 10.9376 5.39575 11.1686C5.40177 11.8256 5.40705 12.4826 5.4103 13.1396C5.41234 13.5412 5.41579 13.9429 5.42014 14.3446C5.42153 14.4978 5.42238 14.651 5.42268 14.8042C5.42316 15.0184 5.42542 15.2325 5.42809 15.4466C5.42888 15.5686 5.42967 15.6905 5.43048 15.8161C5.44463 16.1113 5.44463 16.1113 5.60482 16.303C5.75972 16.4291 5.75972 16.4291 5.96925 16.3818C6.15049 16.3233 6.15049 16.3233 6.25001 16.2109C6.26059 15.9938 6.2643 15.7764 6.26541 15.5591C6.26591 15.4909 6.26641 15.4228 6.26692 15.3526C6.26796 15.2042 6.26881 15.0558 6.26947 14.9074C6.27062 14.6727 6.27251 14.4379 6.27465 14.2032C6.28068 13.5356 6.28595 12.8681 6.28921 12.2005C6.29125 11.7926 6.2947 11.3847 6.29905 10.9768C6.30043 10.8212 6.30128 10.6655 6.30159 10.5098C6.30207 10.2921 6.30433 10.0745 6.30699 9.85684C6.30778 9.73288 6.30857 9.60892 6.30939 9.48119C6.34767 9.17969 6.34767 9.17969 6.48487 8.99584C6.67399 8.86335 6.80048 8.81004 7.03126 8.78906C7.29162 8.88577 7.39395 8.9285 7.51954 9.17969C7.53015 9.42872 7.5349 9.67512 7.53528 9.92422C7.53601 10.0396 7.53601 10.0396 7.53675 10.1572C7.53818 10.4127 7.53884 10.6682 7.53938 10.9238C7.53994 11.1019 7.5405 11.2801 7.54107 11.4583C7.54209 11.833 7.54266 12.2077 7.543 12.5823C7.54353 13.0591 7.54587 13.5358 7.54866 14.0125C7.5505 14.3813 7.55099 14.7502 7.55114 15.119C7.55143 15.2945 7.55221 15.47 7.5535 15.6455C7.56328 17.075 7.56876 18.7286 6.53878 19.8452C6.19622 20.1618 5.84943 20.4238 5.44435 20.6543C4.98188 20.9266 4.69312 21.3418 4.53638 21.8546C4.34696 22.7793 4.5314 23.7987 4.62667 24.7267C4.64115 24.872 4.65558 25.0173 4.66996 25.1626C4.70081 25.4732 4.73201 25.7838 4.76348 26.0944C4.81335 26.5866 4.86232 27.0789 4.91116 27.5713C5.03257 28.7937 5.15528 30.0161 5.278 31.2385C5.37346 32.1896 5.46862 33.1408 5.56295 34.0921C5.6114 34.5803 5.66044 35.0685 5.70996 35.5566C5.74076 35.8616 5.77104 36.1666 5.80118 36.4716C5.81513 36.6118 5.8293 36.7519 5.8437 36.8919C6.11713 39.5552 6.11713 39.5552 5.46876 40.4297C4.95538 40.9884 4.35948 41.1735 3.61329 41.2109C2.903 41.205 2.45917 40.8651 1.9642 40.377C1.46976 39.8013 1.44395 39.2868 1.48944 38.5462C1.49386 38.4713 1.49829 38.3964 1.50285 38.3192C1.57935 37.1356 1.70687 35.9556 1.82603 34.7757C1.87207 34.3198 1.91742 33.8639 1.96266 33.4079C2.09127 32.1128 2.22076 30.8178 2.35094 29.5229C2.42314 28.8045 2.49479 28.0861 2.56585 27.3677C2.61055 26.9161 2.65592 26.4646 2.70183 26.0131C2.73039 25.7307 2.75828 25.4481 2.78601 25.1656C2.80483 24.9758 2.82441 24.786 2.84402 24.5963C3.08554 22.7711 3.08554 22.7711 2.53907 21.0938C2.2738 20.8285 2.0096 20.6427 1.69717 20.4369C0.790936 19.8196 0.345661 19.1803 0.0640861 18.1256C-0.0766123 17.3524 -0.0461094 16.5611 -0.0457653 15.7776C-0.0464596 15.585 -0.0472116 15.3923 -0.0480183 15.1997C-0.0493251 14.7982 -0.049487 14.3967 -0.0489124 13.9951C-0.0483331 13.4801 -0.0513409 12.9651 -0.0552715 12.4501C-0.0577904 12.0533 -0.0580803 11.6566 -0.0577235 11.2598C-0.057889 11.0698 -0.058834 10.8798 -0.0605696 10.6898C-0.0627236 10.4252 -0.0617962 10.1607 -0.0600704 9.89609C-0.0613656 9.81756 -0.0626609 9.73903 -0.0639954 9.65812C-0.0606784 9.43999 -0.0606784 9.43999 1.10865e-05 9.08203C0.284191 8.83419 0.386968 8.76373 0.756847 8.8562Z"/>
</mask>
<path d="M0.756847 8.8562C0.976574 8.98438 0.976574 8.98438 1.07423 9.17969C1.08454 9.39751 1.0885 9.61563 1.08963 9.83369C1.09038 9.93447 1.09038 9.93447 1.09114 10.0373C1.09218 10.1833 1.09302 10.3294 1.09369 10.4755C1.09484 10.7065 1.09674 10.9376 1.09887 11.1686C1.1049 11.8256 1.11017 12.4826 1.11343 13.1396C1.11547 13.5412 1.11891 13.9429 1.12327 14.3446C1.12465 14.4978 1.1255 14.651 1.12581 14.8042C1.12629 15.0184 1.12855 15.2325 1.13121 15.4466C1.132 15.5686 1.13279 15.6905 1.13361 15.8161C1.14775 16.1113 1.14775 16.1113 1.30794 16.303C1.46285 16.4291 1.46285 16.4291 1.67237 16.3818C1.85361 16.3233 1.85361 16.3233 1.95314 16.2109C1.96371 15.9938 1.96742 15.7764 1.96854 15.5591C1.96903 15.4909 1.96953 15.4228 1.97004 15.3526C1.97109 15.2042 1.97193 15.0558 1.97259 14.9074C1.97374 14.6727 1.97564 14.4379 1.97778 14.2032C1.98381 13.5356 1.98908 12.8681 1.99233 12.2005C1.99437 11.7926 1.99782 11.3847 2.00217 10.9768C2.00356 10.8212 2.00441 10.6655 2.00472 10.5098C2.00519 10.2921 2.00745 10.0745 2.01012 9.85684C2.01091 9.73288 2.0117 9.60892 2.01251 9.48119C2.05079 9.17969 2.05079 9.17969 2.18799 8.99584C2.37712 8.86335 2.5036 8.81004 2.73439 8.78906C2.99474 8.88577 3.09707 8.9285 3.22267 9.17969C3.23298 9.39751 3.23693 9.61563 3.23807 9.83369C3.23857 9.90088 3.23906 9.96806 3.23957 10.0373C3.24062 10.1833 3.24146 10.3294 3.24212 10.4755C3.24327 10.7065 3.24517 10.9376 3.24731 11.1686C3.25333 11.8256 3.25861 12.4826 3.26186 13.1396C3.26391 13.5412 3.26735 13.9429 3.2717 14.3446C3.27309 14.4978 3.27394 14.651 3.27425 14.8042C3.27473 15.0184 3.27698 15.2325 3.27965 15.4466C3.28044 15.5686 3.28123 15.6905 3.28204 15.8161C3.29619 16.1113 3.29619 16.1113 3.45638 16.303C3.61129 16.4291 3.61129 16.4291 3.82081 16.3818C4.00205 16.3233 4.00205 16.3233 4.10157 16.2109C4.11215 15.9938 4.11586 15.7764 4.11698 15.5591C4.11747 15.4909 4.11797 15.4228 4.11848 15.3526C4.11953 15.2042 4.12037 15.0558 4.12103 14.9074C4.12218 14.6727 4.12408 14.4379 4.12622 14.2032C4.13225 13.5356 4.13751 12.8681 4.14077 12.2005C4.14281 11.7926 4.14626 11.3847 4.15061 10.9768C4.15199 10.8212 4.15284 10.6655 4.15315 10.5098C4.15363 10.2921 4.15589 10.0745 4.15856 9.85684C4.15935 9.73288 4.16014 9.60892 4.16095 9.48119C4.19923 9.17969 4.19923 9.17969 4.33643 8.99584C4.52556 8.86335 4.65204 8.81004 4.88282 8.78906C5.14318 8.88577 5.24551 8.9285 5.3711 9.17969C5.38142 9.39751 5.38537 9.61563 5.38651 9.83369C5.387 9.90088 5.3875 9.96806 5.38801 10.0373C5.38906 10.1833 5.3899 10.3294 5.39056 10.4755C5.39171 10.7065 5.39361 10.9376 5.39575 11.1686C5.40177 11.8256 5.40705 12.4826 5.4103 13.1396C5.41234 13.5412 5.41579 13.9429 5.42014 14.3446C5.42153 14.4978 5.42238 14.651 5.42268 14.8042C5.42316 15.0184 5.42542 15.2325 5.42809 15.4466C5.42888 15.5686 5.42967 15.6905 5.43048 15.8161C5.44463 16.1113 5.44463 16.1113 5.60482 16.303C5.75972 16.4291 5.75972 16.4291 5.96925 16.3818C6.15049 16.3233 6.15049 16.3233 6.25001 16.2109C6.26059 15.9938 6.2643 15.7764 6.26541 15.5591C6.26591 15.4909 6.26641 15.4228 6.26692 15.3526C6.26796 15.2042 6.26881 15.0558 6.26947 14.9074C6.27062 14.6727 6.27251 14.4379 6.27465 14.2032C6.28068 13.5356 6.28595 12.8681 6.28921 12.2005C6.29125 11.7926 6.2947 11.3847 6.29905 10.9768C6.30043 10.8212 6.30128 10.6655 6.30159 10.5098C6.30207 10.2921 6.30433 10.0745 6.30699 9.85684C6.30778 9.73288 6.30857 9.60892 6.30939 9.48119C6.34767 9.17969 6.34767 9.17969 6.48487 8.99584C6.67399 8.86335 6.80048 8.81004 7.03126 8.78906C7.29162 8.88577 7.39395 8.9285 7.51954 9.17969C7.53015 9.42872 7.5349 9.67512 7.53528 9.92422C7.53601 10.0396 7.53601 10.0396 7.53675 10.1572C7.53818 10.4127 7.53884 10.6682 7.53938 10.9238C7.53994 11.1019 7.5405 11.2801 7.54107 11.4583C7.54209 11.833 7.54266 12.2077 7.543 12.5823C7.54353 13.0591 7.54587 13.5358 7.54866 14.0125C7.5505 14.3813 7.55099 14.7502 7.55114 15.119C7.55143 15.2945 7.55221 15.47 7.5535 15.6455C7.56328 17.075 7.56876 18.7286 6.53878 19.8452C6.19622 20.1618 5.84943 20.4238 5.44435 20.6543C4.98188 20.9266 4.69312 21.3418 4.53638 21.8546C4.34696 22.7793 4.5314 23.7987 4.62667 24.7267C4.64115 24.872 4.65558 25.0173 4.66996 25.1626C4.70081 25.4732 4.73201 25.7838 4.76348 26.0944C4.81335 26.5866 4.86232 27.0789 4.91116 27.5713C5.03257 28.7937 5.15528 30.0161 5.278 31.2385C5.37346 32.1896 5.46862 33.1408 5.56295 34.0921C5.6114 34.5803 5.66044 35.0685 5.70996 35.5566C5.74076 35.8616 5.77104 36.1666 5.80118 36.4716C5.81513 36.6118 5.8293 36.7519 5.8437 36.8919C6.11713 39.5552 6.11713 39.5552 5.46876 40.4297C4.95538 40.9884 4.35948 41.1735 3.61329 41.2109C2.903 41.205 2.45917 40.8651 1.9642 40.377C1.46976 39.8013 1.44395 39.2868 1.48944 38.5462C1.49386 38.4713 1.49829 38.3964 1.50285 38.3192C1.57935 37.1356 1.70687 35.9556 1.82603 34.7757C1.87207 34.3198 1.91742 33.8639 1.96266 33.4079C2.09127 32.1128 2.22076 30.8178 2.35094 29.5229C2.42314 28.8045 2.49479 28.0861 2.56585 27.3677C2.61055 26.9161 2.65592 26.4646 2.70183 26.0131C2.73039 25.7307 2.75828 25.4481 2.78601 25.1656C2.80483 24.9758 2.82441 24.786 2.84402 24.5963C3.08554 22.7711 3.08554 22.7711 2.53907 21.0938C2.2738 20.8285 2.0096 20.6427 1.69717 20.4369C0.790936 19.8196 0.345661 19.1803 0.0640861 18.1256C-0.0766123 17.3524 -0.0461094 16.5611 -0.0457653 15.7776C-0.0464596 15.585 -0.0472116 15.3923 -0.0480183 15.1997C-0.0493251 14.7982 -0.049487 14.3967 -0.0489124 13.9951C-0.0483331 13.4801 -0.0513409 12.9651 -0.0552715 12.4501C-0.0577904 12.0533 -0.0580803 11.6566 -0.0577235 11.2598C-0.057889 11.0698 -0.058834 10.8798 -0.0605696 10.6898C-0.0627236 10.4252 -0.0617962 10.1607 -0.0600704 9.89609C-0.0613656 9.81756 -0.0626609 9.73903 -0.0639954 9.65812C-0.0606784 9.43999 -0.0606784 9.43999 1.10865e-05 9.08203C0.284191 8.83419 0.386968 8.76373 0.756847 8.8562Z" stroke="#5F7D97" stroke-width="2" mask="url(#path-2-inside-1_2068_60)"/>
<path d="M48.312 9.32751C48.3428 9.33265 48.3754 9.3422 48.4272 9.36169C48.4292 9.37564 48.4339 9.38986 48.4351 9.40564L48.438 9.76599V10.1449L48.437 10.5629V11.0033L48.436 12.1957C48.4354 12.6114 48.4352 13.0275 48.4351 13.4427L48.4331 15.8041L48.4312 18.4926C48.4302 20.2158 48.4282 21.9392 48.4263 23.6625L48.0923 23.7738L48.1353 24.1742V24.1752H48.1362V24.184L48.1372 24.1849V24.1927L48.1382 24.1937V24.2025H48.1392V24.2113H48.1401V24.2201L48.1411 24.2211V24.2299H48.1421V24.2386H48.1431V24.2474L48.144 24.2484V24.2572H48.145V24.266H48.146V24.2748L48.147 24.2758V24.2845H48.1479V24.2933H48.1489V24.3021L48.1499 24.3031V24.3109L48.1509 24.3119V24.3207H48.1519V24.3295L48.1528 24.3304V24.3383L48.1538 24.3392V24.348H48.1548V24.3568H48.1558V24.3666H48.1567V24.3754H48.1577V24.3842L48.1587 24.3851V24.3929L48.1597 24.3939V24.4027H48.1606V24.4115H48.1616V24.4203L48.1626 24.4213V24.4301H48.1636V24.4388H48.1646V24.4476L48.1655 24.4486V24.4574H48.1665V24.4623L48.6235 28.8597L48.6499 29.1127L49.0024 32.6195L49.1548 34.1381L49.3003 35.5941L49.355 36.1371C49.4226 36.7979 49.4811 37.4515 49.5132 38.1039L49.5356 38.7562V38.765C49.5381 38.8318 49.5399 38.8986 49.5425 38.9672C49.5433 39.4266 49.396 39.7981 49.0864 40.1683C48.5847 40.562 48.1673 40.7469 47.6069 40.6898C47.2798 40.6252 47.0428 40.5243 46.8433 40.3842C46.6384 40.2403 46.4494 40.0404 46.2358 39.7504C45.9672 39.312 45.9207 38.5808 46.0063 37.6771C46.0479 37.2387 46.1167 36.7918 46.1851 36.3627C46.2186 36.1522 46.2527 35.9429 46.2827 35.7426L46.356 35.1752L46.4624 34.1029L46.6401 32.309L46.8901 29.7826L47.2446 26.2064L47.2798 25.8549C47.3359 25.2948 47.3959 24.7392 47.4683 24.1859L47.5347 23.6781L47.0259 23.6244L47.0249 23.6234H47.0171L47.0161 23.6224H47.0073V23.6215H46.9985L46.9976 23.6205H46.9888V23.6195H46.98V23.6185H46.9712L46.9702 23.6176H46.9614V23.6166H46.9526V23.6156H46.9438L46.9429 23.6146H46.937C46.8137 23.5566 46.6817 23.4287 46.5396 23.1908C46.3803 22.9243 46.2739 22.6507 46.1265 22.3422C45.3227 20.5548 45.4189 18.6832 45.9224 16.7562L46.0288 16.3695L46.0298 16.3676L46.1284 16.017L46.4399 14.9203L46.4409 14.9183L46.644 14.1986L47.1538 12.4135H47.1548L47.4175 11.4838L47.6753 10.5785L47.6763 10.5746C47.7225 10.4075 47.7229 10.4071 47.77 10.2367L47.769 10.2357L47.8589 9.93005L47.8599 9.92712C47.8817 9.84994 47.903 9.77262 47.9253 9.69373C47.9906 9.54694 48.0575 9.45956 48.1909 9.34021C48.2603 9.32359 48.2911 9.32404 48.312 9.32751Z" stroke="#5F7D97"/>
</g>
<defs>
<clipPath id="clip0_2068_60">
<rect width="50" height="50" fill="white"/>
</clipPath>
</defs>
</svg>
