<svg width="94" height="51" viewBox="0 0 94 51" fill="none" xmlns="http://www.w3.org/2000/svg">
<g clip-path="url(#clip0_60_150)">
<path d="M49.9741 40.961L43.6441 12.7834C43.2188 10.8898 41.9516 9.29536 40.2029 8.45278L33.1284 5.04614L25.0004 25.8895L16.8715 5.04614L9.79708 8.45278C8.04845 9.29536 6.78126 10.8898 6.35587 12.7834L0.0258929 40.961C-0.101939 41.5315 0.255971 42.097 0.8256 42.2265L6.01447 43.398C6.57755 43.525 7.1382 43.1771 7.27589 42.6165L11.9307 23.5556L13.3306 32.8916L10.8267 44.5779C10.75 44.9365 10.8242 45.31 11.0344 45.6109C11.243 45.911 11.567 46.1122 11.9298 46.1641L23.3663 47.8278L25.0003 43.2893L26.6335 47.8278L38.07 46.1641C38.432 46.1122 38.7568 45.911 38.9654 45.6109C39.1756 45.31 39.2498 44.9365 39.1732 44.5779L36.6694 32.8916L38.0693 23.5556L42.724 42.6165C42.8609 43.1771 43.4224 43.525 43.9855 43.398L49.1744 42.2265C49.7442 42.097 50.102 41.5315 49.9741 40.961ZM25.0004 39.2701C24.4537 39.2701 24.011 38.8265 24.011 38.2807C24.011 37.7341 24.4537 37.2914 25.0004 37.2914C25.5462 37.2914 25.9889 37.7341 25.9889 38.2807C25.9889 38.8265 25.5462 39.2701 25.0004 39.2701ZM25.0004 32.5798C24.4537 32.5798 24.011 32.1371 24.011 31.5905C24.011 31.0447 24.4537 30.602 25.0004 30.602C25.5462 30.602 25.9889 31.0447 25.9889 31.5905C25.9889 32.1372 25.5462 32.5798 25.0004 32.5798Z" fill="#797979"/>
<path d="M26.4012 7.15264L26.7119 5.93584L26.1596 3.67773H23.7457L23.1925 5.93584L23.5041 7.15264H26.4012Z" fill="#797979"/>
<path d="M26.9396 17.876L26.5569 8.89795H23.4431L23.0605 17.876L25.0004 22.9314L26.9396 17.876Z" fill="#797979"/>
</g>
<g clip-path="url(#clip1_60_150)">
<path d="M76.1591 19.8442C76.1591 16.207 80.4773 13.2525 80.4773 10.4116C80.4773 8.65181 79.1928 7.11997 77.2959 6.32817V0.752686H75.7051V5.8689C75.2652 5.79321 74.8094 5.75278 74.3414 5.75278C72.0502 5.75278 70.0548 6.70649 69.0008 8.11782C67.9467 6.70659 65.9495 5.75278 63.6584 5.75278C63.1903 5.75278 62.7346 5.79321 62.2947 5.8689V0.752686H60.7041V6.32808C58.8089 7.11987 57.5225 8.65171 57.5225 10.4115C57.5225 13.2524 61.8408 16.2069 61.8408 19.8441C61.8408 31.2072 53.2043 30.0713 53.2043 45.7525C53.2043 45.7525 54.7951 47.5711 60.477 47.5711C64.1212 47.5711 65.1366 50.7526 69.0008 50.7526C72.8633 50.7526 73.8786 47.5711 77.5228 47.5711C83.2048 47.5711 84.7956 45.7525 84.7956 45.7525C84.7956 30.0714 76.1591 31.2072 76.1591 19.8442Z" fill="#797979"/>
</g>
<defs>
<clipPath id="clip0_60_150">
<rect width="50" height="50" fill="white" transform="translate(0 0.752686)"/>
</clipPath>
<clipPath id="clip1_60_150">
<rect width="50" height="50" fill="white" transform="translate(44 0.752686)"/>
</clipPath>
</defs>
</svg>
