<svg width="363" height="33" viewBox="0 0 363 33" fill="none" xmlns="http://www.w3.org/2000/svg">
<path d="M16.7302 30.5881C15.6293 30.2974 14.8438 29.7192 14.3737 28.8533C13.8666 27.8884 13.5697 27.0535 13.4831 26.3484C13.4584 26.1938 13.4398 26.0546 13.4274 25.9309C13.1491 26.0422 12.8306 26.2123 12.4719 26.4412C12.107 26.6329 11.841 26.7721 11.674 26.8586C11.5503 26.8958 11.4297 26.9545 11.3122 27.0349C11.2009 27.0844 10.9999 27.1803 10.7092 27.3225C10.4185 27.4709 10.1958 27.5823 10.0412 27.6565C9.92987 27.706 9.75979 27.7864 9.53094 27.8977C9.3021 28.0152 9.13202 28.1018 9.02069 28.1575C8.94647 28.1946 8.77639 28.2657 8.51044 28.3708C8.25067 28.4822 8.05894 28.575 7.93524 28.6492C7.74351 28.7481 6.92092 29.0821 5.46747 29.6511C4.50262 30.016 3.62746 30.2634 2.84198 30.3933C2.63788 30.4304 2.16783 30.4613 1.43182 30.4861C1.16587 30.4861 0.983419 30.4181 0.88446 30.282C0.93394 30.1954 1.01125 30.1521 1.11639 30.1521C1.14113 30.1521 1.17515 30.1552 1.21844 30.1614C1.26174 30.1676 1.28957 30.1707 1.30194 30.1707C1.74725 30.1707 2.38739 30.0933 3.22235 29.9387C3.75425 29.8521 4.51499 29.6295 5.50458 29.2708C5.89423 29.1161 7.10337 28.6121 9.13202 27.7585C9.3856 27.672 9.74432 27.5142 10.2082 27.2854C10.6782 27.0566 11.0091 26.8958 11.2009 26.803C11.2751 26.7782 11.3771 26.7226 11.507 26.636C11.6431 26.5556 11.7173 26.5092 11.7297 26.4968C11.9214 26.3979 12.1781 26.2587 12.4997 26.0793C12.8275 25.9062 13.0409 25.7917 13.1398 25.7361C13.1522 25.7237 13.2357 25.6742 13.3903 25.5876C13.3903 25.5629 13.381 25.5103 13.3625 25.4299C13.3501 25.3557 13.3532 25.3062 13.3718 25.2815V24.7156C13.3347 23.726 13.4986 22.6251 13.8635 21.4128C14.0676 20.7139 14.485 19.7182 15.1159 18.4255C15.6849 17.2751 16.2539 16.267 16.8229 15.4011C17.293 14.6775 17.8063 13.9941 18.363 13.3508C18.5176 13.1591 18.7464 12.9024 19.0495 12.5808C19.3526 12.2592 19.569 12.0211 19.6989 11.8665C19.9278 11.5881 20.1782 11.3067 20.4504 11.0222C20.7287 10.7377 21.0472 10.4192 21.4059 10.0667C21.7709 9.71411 22.043 9.44816 22.2224 9.2688C22.2842 9.20695 22.5687 8.95337 23.0759 8.50806C24.1891 7.55558 25.2653 6.75155 26.3044 6.09595C26.6569 5.86711 27.3867 5.45581 28.4938 4.86206C28.8711 4.64559 29.6752 4.32088 30.9059 3.88794C31.0049 3.8632 31.1502 3.81372 31.342 3.7395C31.5337 3.66528 31.6791 3.6158 31.778 3.59106C32.4336 3.43644 32.9346 3.35295 33.2809 3.34058H33.3366C33.4912 3.31584 33.6242 3.30347 33.7355 3.30347C34.1808 3.30347 34.5921 3.3715 34.9694 3.50757C35.4766 3.86011 35.8322 4.22192 36.0363 4.59302C36.2404 4.95793 36.3425 5.4589 36.3425 6.09595C36.3301 6.7701 36.126 7.45972 35.7302 8.16479C35.6559 8.27612 35.5292 8.48641 35.3498 8.79565C35.1704 9.09871 35.0127 9.35539 34.8766 9.56567C34.7468 9.76978 34.6138 9.96769 34.4777 10.1594C34.4035 10.2708 34.2705 10.4408 34.0788 10.6697C33.8871 10.8985 33.7541 11.0717 33.6799 11.1892C33.315 11.6964 32.6192 12.4633 31.5925 13.49L29.9133 15.0208C29.8885 15.0455 29.7123 15.1847 29.3845 15.4382C28.3083 16.3103 27.7331 16.7742 27.6589 16.8298C26.4157 17.7699 25.2993 18.5616 24.3098 19.2048C24.0438 19.3842 23.6572 19.6501 23.1501 20.0027C22.6429 20.3552 22.3584 20.55 22.2966 20.5872C22.1976 20.649 21.9409 20.816 21.5266 21.0881C21.1183 21.3541 20.7998 21.5551 20.571 21.6912C20.0143 22.0437 19.1763 22.5632 18.0568 23.2498C17.9579 23.324 17.8836 23.3765 17.8342 23.4075C17.6053 23.5064 17.2992 23.6765 16.9157 23.9177C16.5384 24.1589 16.3003 24.3043 16.2014 24.3538C16.09 24.4156 15.4252 24.8022 14.2067 25.5134C14.1944 25.5258 14.1572 25.5505 14.0954 25.5876C14.0397 25.6248 14.0057 25.6495 13.9933 25.6619C13.9933 26.2432 14.0583 26.7319 14.1882 27.1277C14.4418 27.8637 14.6551 28.408 14.8283 28.7605C15.1932 29.3914 15.7313 29.849 16.4426 30.1335C16.7333 30.2201 16.9188 30.3191 16.9992 30.4304C16.9621 30.5603 16.8724 30.6129 16.7302 30.5881ZM13.9748 25.3186C14.0985 25.2196 14.3242 25.0805 14.652 24.9011C14.986 24.7279 15.218 24.595 15.3478 24.5022C15.5767 24.3476 15.9261 24.1404 16.3962 23.8806C16.8724 23.6147 17.2188 23.4044 17.4352 23.2498C17.5589 23.1632 17.8342 22.9993 18.2609 22.7581C18.6877 22.5168 19.0062 22.3127 19.2165 22.1458C19.2412 22.1334 19.2752 22.1086 19.3185 22.0715C20.3081 21.4654 21.3843 20.7944 22.5471 20.0583C22.7759 19.9037 23.1099 19.6718 23.549 19.3625C23.9943 19.0533 24.3314 18.8245 24.5602 18.676C24.6468 18.6142 24.8355 18.4874 25.1262 18.2957C25.4168 18.1039 25.6333 17.9524 25.7756 17.8411C25.9549 17.6988 26.2394 17.4885 26.6291 17.2102C27.0249 16.9319 27.3156 16.7092 27.5012 16.5422C27.6682 16.3876 27.9248 16.1804 28.2712 15.9207C28.6237 15.6547 28.8804 15.4506 29.0412 15.3083C29.1278 15.2341 29.3412 15.0517 29.6813 14.761C30.0277 14.4703 30.2905 14.2415 30.4699 14.0745C30.9523 13.6292 31.478 13.1096 32.0471 12.5159C32.6779 11.8293 33.0892 11.3469 33.2809 11.0686C33.3181 11.0068 33.3706 10.9325 33.4387 10.8459C33.5129 10.7594 33.5624 10.7006 33.5871 10.6697C33.6489 10.6078 33.7417 10.4687 33.8654 10.2522C34.1808 9.89966 34.4344 9.56567 34.6262 9.25024C35.1086 8.46476 35.4395 7.837 35.6188 7.36694C35.7858 6.90926 35.8662 6.49797 35.86 6.13306C35.86 5.80526 35.7982 5.47437 35.6745 5.14038C35.5075 4.75073 35.2601 4.44149 34.9323 4.21265L34.3664 3.9436H33.7912C33.6922 3.95597 33.5098 3.98999 33.2438 4.04565C32.6377 4.13224 31.9605 4.3147 31.2121 4.59302C30.4885 4.88371 29.7834 5.20841 29.0969 5.56714C28.1877 6.06193 27.2383 6.65568 26.2487 7.34839C26.057 7.47209 25.423 7.94832 24.3469 8.7771C24.285 8.81421 24.2293 8.86369 24.1799 8.92554L22.4728 10.5212C22.3491 10.6326 22.176 10.7996 21.9533 11.0222C21.7368 11.2449 21.5853 11.3933 21.4987 11.4675C21.4245 11.5417 21.2822 11.7026 21.072 11.95C20.8617 12.1912 20.6885 12.3612 20.5524 12.4602C20.5401 12.4602 20.5277 12.4695 20.5153 12.488C20.503 12.5066 20.4875 12.5251 20.4689 12.5437C20.4566 12.5623 20.4442 12.5777 20.4318 12.5901C20.203 12.8684 20.0824 13.0076 20.07 13.0076C19.5505 13.49 18.8114 14.4023 17.8527 15.7444C17.6734 15.9732 17.3548 16.4495 16.8972 17.1731C16.557 17.6926 16.0962 18.4967 15.5148 19.5852C15.4406 19.7398 15.3293 19.9779 15.1808 20.2996C15.0386 20.6212 14.9273 20.8655 14.8469 21.0325C14.6551 21.5025 14.4665 22.1148 14.2809 22.8694C14.2562 22.9683 14.1542 23.6982 13.9748 25.0588V25.3186ZM35.2912 29.5212C35.2417 29.5212 35.1644 29.5089 35.0592 29.4841C34.249 29.4718 33.6243 29.3821 33.1852 29.2151C32.8945 29.1285 32.7028 29.0295 32.61 28.9182C32.5605 28.844 32.5358 28.7852 32.5358 28.7419C32.5358 28.6925 32.5729 28.6306 32.6471 28.5564C32.7894 28.5564 32.9749 28.6059 33.2038 28.7048C33.346 28.7296 33.5006 28.7636 33.6676 28.8069C33.8408 28.8502 33.9954 28.8935 34.1315 28.9368C34.348 28.9862 34.6696 29.011 35.0963 29.011C36.123 28.8997 36.8343 28.7667 37.2301 28.6121C37.861 28.4327 38.6155 28.1327 39.4938 27.7122C39.7969 27.5699 40.1772 27.3751 40.6349 27.1277C41.0988 26.8865 41.4575 26.7102 41.7111 26.5989C42.0636 26.4443 42.679 26.101 43.5573 25.5691C44.6211 24.963 46.025 24.0012 47.7692 22.6838C47.9238 22.5725 48.5701 22.0468 49.7082 21.1067L49.9401 20.9304C49.9896 20.9057 50.4782 20.5191 51.4059 19.7708C51.9873 19.3007 52.5439 18.8399 53.0758 18.3884C53.1872 18.3018 53.3387 18.1627 53.5304 17.9709C53.7222 17.7792 53.8613 17.6462 53.9479 17.572L55.2746 16.4309C55.4663 16.2639 55.8157 15.967 56.3229 15.5403L57.5753 14.4734C57.7176 14.3621 57.9155 14.192 58.1691 13.9631C58.4227 13.7343 58.6113 13.5673 58.735 13.4622C59.2298 13.0168 59.5854 12.7076 59.8019 12.5344C59.9256 12.4478 60.1019 12.3025 60.3307 12.0984C60.6461 11.8201 61.1347 11.4026 61.7965 10.8459C62.415 10.3017 62.783 9.97697 62.9005 9.87183C63.0799 9.72957 63.4077 9.43579 63.8839 8.99048C64.3664 8.53898 64.7529 8.21427 65.0436 8.01636C65.1178 7.96688 65.2199 7.8772 65.3498 7.74731C65.6404 7.45662 66.293 6.90617 67.3073 6.09595C67.3444 6.05884 67.598 5.86092 68.068 5.5022C68.167 5.40324 68.2165 5.30428 68.2165 5.20532C68.1051 5.20532 67.9412 5.19295 67.7248 5.16821C67.5083 5.13729 67.3506 5.12183 67.2516 5.12183C66.7321 5.09709 66.2744 5.06616 65.8786 5.02905C65.625 5.01668 65.2261 4.99194 64.6818 4.95483C64.1375 4.91772 63.7015 4.90535 63.3737 4.91772L62.1955 4.8064C61.0945 4.78166 59.4401 4.76929 57.2321 4.76929C56.9785 4.76929 56.5858 4.79403 56.0539 4.84351C55.4106 4.90535 54.6592 5.02596 53.7995 5.20532C52.8346 5.39705 51.9409 5.663 51.1183 6.00317C49.8751 6.51034 48.7402 7.0979 47.7135 7.76587C47.5713 7.85246 47.1723 8.19572 46.5167 8.79565C46.4425 8.8575 46.0003 9.29354 45.1901 10.1038C44.9984 10.2831 44.6891 10.6759 44.2624 11.282C43.9469 11.752 43.7181 12.2716 43.5758 12.8406C43.514 13.1065 43.449 13.2704 43.381 13.3323C43.3439 13.3323 43.3192 13.323 43.3068 13.3044C43.2944 13.2859 43.2913 13.2642 43.2975 13.2395C43.3037 13.2148 43.3006 13.19 43.2882 13.1653C43.2388 12.8004 43.3346 12.3829 43.5758 11.9128C43.8913 11.1892 44.3458 10.5305 44.9396 9.93677L46.4425 8.45239C46.4673 8.42765 46.6652 8.26994 47.0363 7.97925C48.1619 7.09481 49.5721 6.31551 51.2667 5.64136C52.1388 5.30119 53.0758 5.04761 54.0778 4.88062C54.9004 4.67651 55.5745 4.56209 56.1002 4.53735C56.6445 4.48787 57.3032 4.46313 58.0763 4.46313C58.4289 4.46313 58.6422 4.46932 58.7165 4.48169C58.8154 4.48169 59.1525 4.46932 59.7277 4.44458C59.7895 4.43221 59.8823 4.42603 60.006 4.42603C60.4761 4.46313 61.1038 4.48169 61.8893 4.48169C62.3594 4.48169 62.7768 4.51261 63.1417 4.57446C63.1912 4.58683 63.3366 4.59302 63.5778 4.59302C63.8808 4.61776 64.1097 4.6425 64.2643 4.66724C64.4931 4.69198 64.8364 4.70435 65.2941 4.70435L65.8043 4.76929C65.8167 4.76929 65.8415 4.76619 65.8786 4.76001C65.9157 4.74764 65.9466 4.74146 65.9713 4.74146C66.1136 4.76619 66.3362 4.78166 66.6393 4.78784C67.2702 4.81258 67.7464 4.85588 68.068 4.91772C68.1175 4.93009 68.1917 4.93628 68.2907 4.93628C68.569 4.93628 68.937 4.82804 69.3947 4.61157C69.4936 4.54972 69.7039 4.46004 70.0255 4.34253C70.1802 4.29305 70.2946 4.26831 70.3688 4.26831C70.4554 4.26831 70.542 4.28687 70.6286 4.32397C70.8698 4.44767 70.9656 4.63322 70.9162 4.88062C70.8667 4.97957 70.7523 5.10636 70.5729 5.26099L70.0812 5.64136C69.3576 6.31551 68.6092 6.98657 67.8361 7.65454C67.6072 7.85864 67.2825 8.13078 66.862 8.47095C66.4476 8.81112 66.1785 9.03377 66.0548 9.13892L65.8786 9.28735C65.6745 9.51619 65.3559 9.81925 64.923 10.1965C64.4962 10.5676 64.2581 10.7779 64.2086 10.8274C64.1839 10.8521 63.5902 11.3531 62.4274 12.3303C62.3284 12.4045 62.2511 12.4664 62.1955 12.5159C61.0822 13.5302 60.1761 14.2971 59.4772 14.8167C59.3535 14.9156 59.1803 15.064 58.9577 15.262C58.735 15.4599 58.5742 15.5959 58.4752 15.6702C58.2959 15.8124 57.9897 16.0691 57.5568 16.4402C57.13 16.8113 56.796 17.0865 56.5548 17.2659C56.3878 17.3896 55.6828 17.974 54.4396 19.0193C53.2212 20.0212 52.3305 20.7418 51.7677 21.1809C50.6544 22.0406 49.5752 22.8508 48.5299 23.6116L46.7116 24.864C46.625 24.9135 46.4116 25.0527 46.0714 25.2815C45.7374 25.5103 45.4746 25.6835 45.2829 25.801C44.015 26.5247 43.0718 27.0102 42.4533 27.2576C42.311 27.307 42.1162 27.3875 41.8688 27.4988C41.6276 27.6163 41.4544 27.6967 41.3493 27.74C40.539 28.0925 40.0133 28.3121 39.7721 28.3987C38.5661 28.8193 37.7125 29.0914 37.2116 29.2151C37.0198 29.2646 36.723 29.314 36.3209 29.3635C35.9251 29.4192 35.6592 29.4594 35.5231 29.4841C35.4427 29.5089 35.3654 29.5212 35.2912 29.5212ZM78.8082 30.5881C77.7073 30.2974 76.9218 29.7192 76.4518 28.8533C75.9446 27.8884 75.6477 27.0535 75.5611 26.3484C75.5364 26.1938 75.5178 26.0546 75.5055 25.9309C75.2272 26.0422 74.9086 26.2123 74.5499 26.4412C74.185 26.6329 73.9191 26.7721 73.7521 26.8586C73.6284 26.8958 73.5078 26.9545 73.3902 27.0349C73.2789 27.0844 73.0779 27.1803 72.7872 27.3225C72.4965 27.4709 72.2739 27.5823 72.1192 27.6565C72.0079 27.706 71.8378 27.7864 71.609 27.8977C71.3802 28.0152 71.2101 28.1018 71.0987 28.1575C71.0245 28.1946 70.8544 28.2657 70.5885 28.3708C70.3287 28.4822 70.137 28.575 70.0133 28.6492C69.8216 28.7481 68.999 29.0821 67.5455 29.6511C66.5807 30.016 65.7055 30.2634 64.92 30.3933C64.7159 30.4304 64.2459 30.4613 63.5099 30.4861C63.2439 30.4861 63.0615 30.4181 62.9625 30.282C63.012 30.1954 63.0893 30.1521 63.1944 30.1521C63.2192 30.1521 63.2532 30.1552 63.2965 30.1614C63.3398 30.1676 63.3676 30.1707 63.38 30.1707C63.8253 30.1707 64.4654 30.0933 65.3004 29.9387C65.8323 29.8521 66.593 29.6295 67.5826 29.2708C67.9723 29.1161 69.1814 28.6121 71.2101 27.7585C71.4636 27.672 71.8224 27.5142 72.2862 27.2854C72.7563 27.0566 73.0872 26.8958 73.2789 26.803C73.3531 26.7782 73.4552 26.7226 73.5851 26.636C73.7211 26.5556 73.7954 26.5092 73.8077 26.4968C73.9995 26.3979 74.2561 26.2587 74.5777 26.0793C74.9055 25.9062 75.1189 25.7917 75.2179 25.7361C75.2303 25.7237 75.3137 25.6742 75.4684 25.5876C75.4684 25.5629 75.4591 25.5103 75.4405 25.4299C75.4282 25.3557 75.4313 25.3062 75.4498 25.2815V24.7156C75.4127 23.726 75.5766 22.6251 75.9415 21.4128C76.1456 20.7139 76.5631 19.7182 77.194 18.4255C77.763 17.2751 78.332 16.267 78.901 15.4011C79.371 14.6775 79.8844 13.9941 80.441 13.3508C80.5956 13.1591 80.8245 12.9024 81.1275 12.5808C81.4306 12.2592 81.6471 12.0211 81.777 11.8665C82.0058 11.5881 82.2563 11.3067 82.5284 11.0222C82.8067 10.7377 83.1253 10.4192 83.484 10.0667C83.8489 9.71411 84.121 9.44816 84.3004 9.2688C84.3622 9.20695 84.6468 8.95337 85.1539 8.50806C86.2672 7.55558 87.3434 6.75155 88.3824 6.09595C88.735 5.86711 89.4648 5.45581 90.5719 4.86206C90.9492 4.64559 91.7532 4.32088 92.984 3.88794C93.083 3.8632 93.2283 3.81372 93.42 3.7395C93.6118 3.66528 93.7571 3.6158 93.8561 3.59106C94.5117 3.43644 95.0126 3.35295 95.359 3.34058H95.4147C95.5693 3.31584 95.7023 3.30347 95.8136 3.30347C96.2589 3.30347 96.6702 3.3715 97.0475 3.50757C97.5546 3.86011 97.9103 4.22192 98.1144 4.59302C98.3185 4.95793 98.4205 5.4589 98.4205 6.09595C98.4081 6.7701 98.204 7.45972 97.8082 8.16479C97.734 8.27612 97.6072 8.48641 97.4278 8.79565C97.2485 9.09871 97.0908 9.35539 96.9547 9.56567C96.8248 9.76978 96.6918 9.96769 96.5558 10.1594C96.4816 10.2708 96.3486 10.4408 96.1568 10.6697C95.9651 10.8985 95.8321 11.0717 95.7579 11.1892C95.393 11.6964 94.6972 12.4633 93.6705 13.49L91.9913 15.0208C91.9666 15.0455 91.7903 15.1847 91.4625 15.4382C90.3863 16.3103 89.8111 16.7742 89.7369 16.8298C88.4938 17.7699 87.3774 18.5616 86.3878 19.2048C86.1219 19.3842 85.7353 19.6501 85.2281 20.0027C84.721 20.3552 84.4365 20.55 84.3746 20.5872C84.2757 20.649 84.019 20.816 83.6046 21.0881C83.1964 21.3541 82.8779 21.5551 82.649 21.6912C82.0924 22.0437 81.2543 22.5632 80.1349 23.2498C80.0359 23.324 79.9617 23.3765 79.9122 23.4075C79.6834 23.5064 79.3772 23.6765 78.9938 23.9177C78.6165 24.1589 78.3784 24.3043 78.2794 24.3538C78.1681 24.4156 77.5032 24.8022 76.2848 25.5134C76.2724 25.5258 76.2353 25.5505 76.1734 25.5876C76.1178 25.6248 76.0838 25.6495 76.0714 25.6619C76.0714 26.2432 76.1363 26.7319 76.2662 27.1277C76.5198 27.8637 76.7332 28.408 76.9064 28.7605C77.2713 29.3914 77.8094 29.849 78.5206 30.1335C78.8113 30.2201 78.9969 30.3191 79.0773 30.4304C79.0401 30.5603 78.9505 30.6129 78.8082 30.5881ZM76.0528 25.3186C76.1765 25.2196 76.4023 25.0805 76.7301 24.9011C77.0641 24.7279 77.296 24.595 77.4259 24.5022C77.6547 24.3476 78.0042 24.1404 78.4742 23.8806C78.9505 23.6147 79.2968 23.4044 79.5133 23.2498C79.637 23.1632 79.9122 22.9993 80.339 22.7581C80.7657 22.5168 81.0843 22.3127 81.2945 22.1458C81.3193 22.1334 81.3533 22.1086 81.3966 22.0715C82.3862 21.4654 83.4623 20.7944 84.6251 20.0583C84.8539 19.9037 85.1879 19.6718 85.6271 19.3625C86.0724 19.0533 86.4094 18.8245 86.6383 18.676C86.7249 18.6142 86.9135 18.4874 87.2042 18.2957C87.4949 18.1039 87.7114 17.9524 87.8536 17.8411C88.033 17.6988 88.3175 17.4885 88.7071 17.2102C89.103 16.9319 89.3937 16.7092 89.5792 16.5422C89.7462 16.3876 90.0029 16.1804 90.3492 15.9207C90.7018 15.6547 90.9584 15.4506 91.1192 15.3083C91.2058 15.2341 91.4192 15.0517 91.7594 14.761C92.1057 14.4703 92.3686 14.2415 92.548 14.0745C93.0304 13.6292 93.5561 13.1096 94.1251 12.5159C94.756 11.8293 95.1673 11.3469 95.359 11.0686C95.3961 11.0068 95.4487 10.9325 95.5167 10.8459C95.5909 10.7594 95.6404 10.7006 95.6651 10.6697C95.727 10.6078 95.8198 10.4687 95.9435 10.2522C96.2589 9.89966 96.5125 9.56567 96.7042 9.25024C97.1866 8.46476 97.5175 7.837 97.6969 7.36694C97.8639 6.90926 97.9443 6.49797 97.9381 6.13306C97.9381 5.80526 97.8762 5.47437 97.7525 5.14038C97.5856 4.75073 97.3382 4.44149 97.0104 4.21265L96.4444 3.9436H95.8692C95.7703 3.95597 95.5878 3.98999 95.3219 4.04565C94.7158 4.13224 94.0385 4.3147 93.2901 4.59302C92.5665 4.88371 91.8614 5.20841 91.1749 5.56714C90.2657 6.06193 89.3164 6.65568 88.3268 7.34839C88.135 7.47209 87.5011 7.94832 86.4249 8.7771C86.3631 8.81421 86.3074 8.86369 86.2579 8.92554L84.5509 10.5212C84.4272 10.6326 84.254 10.7996 84.0314 11.0222C83.8149 11.2449 83.6634 11.3933 83.5768 11.4675C83.5025 11.5417 83.3603 11.7026 83.15 11.95C82.9397 12.1912 82.7665 12.3612 82.6305 12.4602C82.6181 12.4602 82.6057 12.4695 82.5934 12.488C82.581 12.5066 82.5655 12.5251 82.547 12.5437C82.5346 12.5623 82.5222 12.5777 82.5099 12.5901C82.281 12.8684 82.1604 13.0076 82.1481 13.0076C81.6285 13.49 80.8894 14.4023 79.9308 15.7444C79.7514 15.9732 79.4329 16.4495 78.9752 17.1731C78.635 17.6926 78.1743 18.4967 77.5929 19.5852C77.5187 19.7398 77.4073 19.9779 77.2589 20.2996C77.1166 20.6212 77.0053 20.8655 76.9249 21.0325C76.7332 21.5025 76.5445 22.1148 76.359 22.8694C76.3343 22.9683 76.2322 23.6982 76.0528 25.0588V25.3186ZM96.0054 30.6809C95.8261 30.6809 95.6776 30.6747 95.5601 30.6624C95.1705 30.6376 94.8736 30.5294 94.6695 30.3376C94.62 30.2882 94.6138 30.2325 94.6509 30.1707C94.6633 30.1583 94.6757 30.1521 94.6881 30.1521C94.7128 30.1521 94.7406 30.1614 94.7716 30.1799C94.8087 30.1985 94.8427 30.2201 94.8736 30.2449C94.9045 30.2696 94.9262 30.282 94.9385 30.282C95.2169 30.449 95.5137 30.5325 95.8292 30.5325C96.0085 30.5325 96.2126 30.5108 96.4415 30.4675C97.6599 30.1892 98.9 29.8119 100.162 29.3357C100.898 28.9955 101.309 28.8038 101.396 28.7605C101.637 28.6492 101.986 28.4543 102.444 28.176C102.902 27.8977 103.749 27.3442 104.986 26.5154C105.406 26.2371 106.01 25.8072 106.795 25.2258C107.451 24.731 108.103 24.1991 108.753 23.6301C108.944 23.4631 109.272 23.1724 109.736 22.7581C110.206 22.3375 110.574 22.0159 110.84 21.7932C111.019 21.6386 111.697 21.0232 112.872 19.947C113.15 19.6811 113.58 19.2791 114.161 18.741C114.749 18.2029 115.182 17.8009 115.46 17.5349C115.942 17.102 116.7 16.3907 117.733 15.4011C118.432 14.7826 119.047 14.2507 119.579 13.8054C119.666 13.7312 120.355 13.1746 121.648 12.1355C122.13 11.7582 122.6 11.4026 123.058 11.0686C123.986 10.3697 124.518 9.97697 124.654 9.89038C125.755 9.17912 126.497 8.71834 126.88 8.50806C127.06 8.4091 127.354 8.2452 127.762 8.01636C128.17 7.78752 128.482 7.60197 128.699 7.45972C128.853 7.37313 129.246 7.1783 129.877 6.87524L130.981 6.42065C131.185 6.33407 131.318 6.26294 131.38 6.20728C131.683 5.95369 131.943 5.8269 132.159 5.8269C132.487 5.8269 132.651 5.95369 132.651 6.20728C132.651 6.49797 132.45 6.89071 132.048 7.3855C131.949 7.5092 131.627 7.92977 131.083 8.64722C130.545 9.36466 130.131 9.90584 129.84 10.2708C129.673 10.4625 129.429 10.747 129.107 11.1243C128.785 11.4954 128.547 11.7768 128.393 11.9685C128.306 12.0798 128.173 12.2468 127.994 12.4695C127.821 12.6921 127.681 12.8591 127.576 12.9705L126.611 14.093C126.457 14.2847 126.287 14.4858 126.101 14.696C125.922 14.9001 125.718 15.129 125.489 15.3826C125.26 15.6361 125.084 15.8341 124.96 15.9763C124.719 16.2546 124.379 16.669 123.94 17.2195C123.5 17.7699 123.231 18.1008 123.132 18.2122C122.965 18.4163 122.495 18.9698 121.722 19.8728C120.757 20.9985 119.929 22.0561 119.236 23.0457L118.021 24.7527C117.854 24.9815 117.631 25.3372 117.353 25.8196C117.266 25.9866 117.145 26.2247 116.991 26.5339C116.842 26.8432 116.737 27.0535 116.675 27.1648C116.651 27.2019 116.638 27.2328 116.638 27.2576C116.638 27.2823 116.651 27.2947 116.675 27.2947C116.688 27.2947 116.719 27.2823 116.768 27.2576C116.818 27.2328 116.855 27.2143 116.879 27.2019C117.523 26.9483 118.314 26.5308 119.254 25.9495C119.329 25.9124 119.431 25.8412 119.561 25.7361C119.69 25.6371 119.774 25.5753 119.811 25.5505C119.935 25.4639 120.355 25.1423 121.073 24.5857C121.79 24.0229 122.344 23.5961 122.733 23.3054L122.808 23.2312C122.975 23.0642 123.148 22.9003 123.327 22.7395C123.513 22.5725 123.729 22.3901 123.977 22.1921C124.224 21.988 124.406 21.8334 124.524 21.7283C125.718 20.6768 126.401 20.0583 126.574 19.8728C127.205 19.2419 128.155 18.2895 129.422 17.0154C130.69 15.7413 131.64 14.7857 132.271 14.1487C132.438 13.9693 132.685 13.7219 133.013 13.4065C133.341 13.0911 133.557 12.8839 133.662 12.7849C134.571 11.8757 135.267 11.2109 135.75 10.7903C135.836 10.7161 136.065 10.4903 136.436 10.113C136.813 9.72957 137.123 9.45435 137.364 9.28735L137.577 9.07397C137.917 8.72144 138.74 8.05656 140.045 7.07935C140.663 6.59692 141.208 6.19181 141.678 5.86401C142.055 5.59806 142.435 5.35067 142.819 5.12183C143.654 4.6394 144.288 4.29305 144.721 4.08276C145.42 3.74259 145.905 3.53231 146.177 3.4519C146.431 3.37769 146.944 3.20142 147.717 2.9231C148.107 2.78084 148.772 2.62313 149.712 2.44995C150.207 2.36336 150.835 2.31698 151.595 2.31079C152.226 2.33553 152.758 2.57674 153.191 3.03442C153.278 3.14575 153.321 3.2478 153.321 3.34058C153.247 3.43953 153.172 3.43953 153.098 3.34058C152.845 2.97567 152.344 2.74064 151.595 2.6355C151.583 2.6355 151.267 2.65405 150.649 2.69116C150.42 2.7159 149.894 2.80558 149.072 2.96021C148.416 3.0839 147.869 3.24162 147.43 3.43335C147.306 3.48283 147.111 3.55396 146.845 3.64673C146.579 3.73332 146.381 3.80135 146.252 3.85083C145.781 4.04256 144.965 4.44149 143.802 5.04761C143.369 5.27645 142.649 5.72176 141.641 6.38354L140.138 7.51538C138.944 8.44312 138.214 9.0214 137.948 9.25024C137.849 9.33683 137.59 9.57804 137.169 9.97388C136.755 10.3635 136.427 10.6604 136.186 10.8645C136.074 10.9635 135.447 11.5634 134.302 12.6643C134.179 12.788 133.987 12.9828 133.727 13.2488C133.467 13.5085 133.266 13.7003 133.124 13.824C133.099 13.8487 133.053 13.8889 132.985 13.9446C132.917 13.9941 132.877 14.025 132.864 14.0374C132.827 14.0745 132.756 14.1363 132.651 14.2229C132.552 14.3033 132.484 14.3682 132.447 14.4177C132.181 14.7579 131.807 15.163 131.324 15.6331C131.182 15.7568 130.962 15.9794 130.666 16.301C130.369 16.6165 130.131 16.8484 129.951 16.9968C129.797 17.1205 129.589 17.3215 129.33 17.5999C129.076 17.872 128.884 18.0637 128.754 18.175C128.377 18.5152 127.842 19.0255 127.149 19.7058C126.463 20.3861 126.055 20.7882 125.925 20.9119C125.875 20.9613 125.82 21.0108 125.758 21.0603C125.702 21.1036 125.64 21.15 125.572 21.1995C125.504 21.2489 125.446 21.2922 125.396 21.3293C124.308 22.2385 123.602 22.8416 123.281 23.1384C123.04 23.3673 122.672 23.6734 122.177 24.0569C121.688 24.4342 121.354 24.697 121.175 24.8455C121.088 24.9197 120.841 25.099 120.433 25.3835C120.29 25.4701 120.093 25.6062 119.839 25.7917C119.592 25.9835 119.421 26.1134 119.329 26.1814C118.698 26.602 117.906 27.0071 116.954 27.3967C116.638 27.5081 116.378 27.6781 116.174 27.907C115.859 27.7957 115.735 27.607 115.803 27.3411C115.927 26.7102 116.066 26.234 116.221 25.9124C116.815 24.7187 117.371 23.7507 117.891 23.0085C118.256 22.4519 118.59 21.9262 118.893 21.4314C119.449 20.5841 120.216 19.5203 121.193 18.24C122.208 16.9226 122.975 15.9392 123.494 15.2898C123.606 15.1352 123.782 14.928 124.023 14.6682C124.264 14.4023 124.41 14.2353 124.459 14.1672C125.195 13.3323 125.742 12.6983 126.101 12.2654C126.559 11.7335 126.899 11.3284 127.122 11.05L128.263 9.72339C128.362 9.61206 128.507 9.44507 128.699 9.22241C128.891 8.99976 129.03 8.82967 129.116 8.71216C129.178 8.63794 129.339 8.44621 129.599 8.13696C129.858 7.82772 130.066 7.5896 130.22 7.42261C130.27 7.36076 130.325 7.29891 130.387 7.23706C130.455 7.17521 130.523 7.10409 130.591 7.02368C130.659 6.93709 130.712 6.87524 130.749 6.83813C130.749 6.78866 130.731 6.76392 130.693 6.76392C130.669 6.76392 130.607 6.78866 130.508 6.83813C129.314 7.35767 127.858 8.1617 126.138 9.25024C125.254 9.78215 124.156 10.5553 122.845 11.5696C122.437 11.8603 121.639 12.4726 120.451 13.4065C120.247 13.5859 119.944 13.8518 119.542 14.2043C119.146 14.5507 118.849 14.8043 118.651 14.9651C118.54 15.064 118.302 15.2712 117.937 15.5867C117.578 15.8959 117.303 16.1402 117.111 16.3196C116.988 16.4185 116.858 16.533 116.722 16.6628C116.586 16.7865 116.437 16.9288 116.276 17.0896C116.122 17.2442 116.001 17.3679 115.915 17.4607C114.647 18.6544 113.957 19.2976 113.846 19.3904C113.679 19.5326 113.459 19.7367 113.187 20.0027C112.915 20.2686 112.72 20.4573 112.603 20.5686C111.947 21.1252 111.461 21.5458 111.146 21.8303C111.035 21.9293 110.88 22.0746 110.682 22.2664C110.484 22.4519 110.327 22.5911 110.209 22.6838C109.776 23.092 109.51 23.3333 109.411 23.4075C109.3 23.4941 109.068 23.6889 108.715 23.9919C108.369 24.295 108.091 24.5177 107.88 24.6599C107.713 24.7712 107.488 24.9444 107.203 25.1794C106.919 25.4145 106.711 25.5753 106.582 25.6619C106.149 25.9897 105.744 26.2742 105.366 26.5154L104.003 27.4338C102.939 28.1204 102.197 28.575 101.776 28.7976C101.652 28.8718 101.343 29.0234 100.848 29.2522C99.5927 29.7965 98.1918 30.248 96.6456 30.6067C96.4106 30.6562 96.1972 30.6809 96.0054 30.6809ZM149.338 27.675C148.998 27.675 148.673 27.6627 148.364 27.6379C148.135 27.6379 147.693 27.5823 147.037 27.4709C146.264 27.3287 145.503 26.9421 144.755 26.3113C144.439 26.0206 144.229 25.8103 144.124 25.6804C143.629 25.0867 143.277 24.4342 143.066 23.7229C143.017 23.4693 142.989 23.1044 142.983 22.6282C142.983 22.2633 142.998 22.0159 143.029 21.886C143.116 20.9892 143.267 20.3367 143.484 19.9285C143.787 19.1801 144.084 18.5833 144.375 18.1379C144.783 17.5194 145.157 16.9875 145.497 16.5422C145.788 16.1773 146.44 15.4753 147.455 14.4363C147.912 13.9786 148.559 13.4281 149.394 12.7849C149.938 12.3643 150.494 12.0025 151.064 11.6995C151.775 11.3098 152.288 11.05 152.604 10.9202C153.451 10.5924 154.286 10.3512 155.108 10.1965C155.436 10.1347 155.829 10.1038 156.287 10.1038C156.676 10.1038 157.18 10.1749 157.799 10.3171C158.424 10.4532 158.909 10.6047 159.255 10.7717C159.447 10.9264 159.611 11.0686 159.747 11.1985C159.883 11.3284 160.016 11.4644 160.146 11.6067C160.282 11.7428 160.397 11.8572 160.489 11.95C160.669 12.2283 160.814 12.5808 160.925 13.0076C161.117 11.5232 161.281 10.512 161.417 9.97388C160.632 9.91203 160.029 9.85327 159.608 9.79761C159.28 9.77287 158.85 9.72339 158.318 9.64917C158.139 9.62443 157.861 9.57186 157.483 9.49146C157.106 9.40487 156.822 9.3492 156.63 9.32446C155.529 9.12036 154.96 9.01213 154.923 8.99976C154.57 8.95028 154.038 8.86369 153.327 8.73999C152.962 8.66577 152.461 8.58228 151.824 8.4895C151.67 8.46476 151.438 8.43075 151.128 8.38745C150.819 8.33797 150.593 8.30086 150.451 8.27612C150.365 8.26375 150.229 8.24829 150.043 8.22974C149.864 8.21118 149.728 8.19572 149.635 8.18335C149.128 8.10913 148.723 8.04728 148.419 7.9978L147.334 7.8772C146.839 7.84009 146.094 7.82153 145.098 7.82153H143.976C143.623 7.82153 143.091 7.8741 142.38 7.97925C142.163 8.00399 141.662 8.09676 140.877 8.25757C140.067 8.46167 139.454 8.6967 139.04 8.96265C138.762 9.14201 138.369 9.40796 137.862 9.7605C137.429 10.0636 136.749 10.6913 135.821 11.6438C135.679 11.8108 135.484 12.0706 135.236 12.4231C135.113 12.5901 135.023 12.6798 134.967 12.6921C134.905 12.6798 134.875 12.6086 134.875 12.4788C134.961 12.3365 135.094 12.1541 135.273 11.9314C135.453 11.7026 135.567 11.5479 135.617 11.4675C135.883 11.1645 136.325 10.7161 136.943 10.1223C137.618 9.5533 138.397 9.0214 139.281 8.52661C139.424 8.44002 139.906 8.27612 140.729 8.03491C141.081 7.93595 141.783 7.80916 142.835 7.65454C143.416 7.58032 144.075 7.54321 144.811 7.54321C145.367 7.54321 145.797 7.5494 146.1 7.56177L147.891 7.6731C148.144 7.6731 149.125 7.80607 150.832 8.07202C151.363 8.14624 151.914 8.23283 152.483 8.33179C153.058 8.42456 153.383 8.47713 153.457 8.4895C155.449 8.84204 156.506 9.03068 156.63 9.05542C156.754 9.08016 157.335 9.18221 158.374 9.36157L159.348 9.4729C160.511 9.61515 161.231 9.68009 161.51 9.66772C161.918 8.56681 162.243 7.78752 162.484 7.32983C162.676 7.02677 162.929 6.67114 163.245 6.26294C163.622 5.73104 164.114 5.15584 164.72 4.53735C165.289 3.95597 166.062 3.34058 167.039 2.69116C167.967 2.07267 168.969 1.6119 170.045 1.30884C170.261 1.24699 170.629 1.15731 171.149 1.03979C171.718 0.965576 172.244 0.934652 172.726 0.947021C173.171 0.947021 173.635 1.06453 174.118 1.29956C174.606 1.53459 174.984 1.82218 175.25 2.16235C175.614 2.64478 175.803 3.16431 175.815 3.72095C175.815 4.63013 175.571 5.41561 175.083 6.07739C174.514 6.82576 173.573 7.55249 172.262 8.25757C171.792 8.52352 170.895 8.87915 169.572 9.32446C169.052 9.49146 168.233 9.66154 167.113 9.83472C166.328 9.98934 165.317 10.0667 164.08 10.0667H163.245C162.954 10.0667 162.682 10.0605 162.428 10.0481C162.366 10.1903 162.295 10.3728 162.215 10.5955C161.974 11.2387 161.695 12.1757 161.38 13.4065L161.306 13.6199C161.269 13.657 161.197 13.7188 161.092 13.8054C160.993 13.8858 160.907 13.9569 160.833 14.0188C160.746 13.9075 160.675 13.7219 160.619 13.4622C160.427 12.8189 160.124 12.2963 159.71 11.8943C159.623 11.7953 159.478 11.6871 159.274 11.5696C158.631 11.2665 157.997 11.115 157.372 11.115C156.791 11.1026 156.126 11.1892 155.377 11.3748C154.604 11.5541 153.609 11.9716 152.39 12.6272C151.932 12.8808 151.441 13.2117 150.915 13.6199C150.736 13.7436 150.235 14.1549 149.412 14.8538C148.781 15.4104 148.324 15.8464 148.039 16.1619C146.901 17.3927 146.06 18.54 145.516 19.6038C145.237 20.2099 145.08 20.5903 145.043 20.7449C144.851 21.3015 144.73 21.7314 144.681 22.0344C144.606 22.5911 144.576 22.9529 144.588 23.1199C144.613 23.7136 144.712 24.196 144.885 24.5671C145.163 25.1361 145.488 25.5722 145.859 25.8752C146.137 26.1536 146.552 26.4195 147.102 26.6731C147.653 26.9267 148.277 27.0844 148.976 27.1462C149.409 27.1833 149.864 27.2019 150.34 27.2019C151.731 27.1153 152.65 26.9823 153.095 26.803C153.868 26.5741 154.332 26.4288 154.487 26.3669C154.852 26.2247 155.566 25.8907 156.63 25.365C156.896 25.2227 157.233 25.0186 157.641 24.7527C158.056 24.4867 158.346 24.3043 158.513 24.2053C158.853 23.9394 159.24 23.6487 159.673 23.3333C160.112 23.0116 160.446 22.7642 160.675 22.5911C160.904 22.4241 161.374 22.0561 162.085 21.4871C162.802 20.9181 163.276 20.55 163.504 20.3831C163.925 20.08 164.166 19.9347 164.228 19.947C164.327 19.947 164.327 20.0089 164.228 20.1326C164.166 20.182 164.033 20.2779 163.829 20.4202C163.625 20.5624 163.486 20.6645 163.412 20.7263C163.158 20.9181 162.549 21.3912 161.584 22.1458C161.207 22.4612 160.403 23.1013 159.172 24.0662C157.879 25.0063 156.822 25.6711 155.999 26.0608C155.442 26.3267 154.79 26.6267 154.042 26.9607C153.726 27.1153 152.968 27.304 151.769 27.5266C151.057 27.6256 150.247 27.675 149.338 27.675ZM163.263 9.81616H164.061C164.593 9.82853 164.865 9.82853 164.877 9.81616C165.521 9.79142 166.198 9.72339 166.909 9.61206C167.849 9.46981 168.616 9.32446 169.21 9.17603C169.6 9.07707 170.187 8.87915 170.973 8.58228C171.591 8.32869 172.309 7.95451 173.125 7.45972C173.453 7.21851 173.719 6.99894 173.923 6.80103C174.3 6.38045 174.585 5.9939 174.776 5.64136C174.968 5.28263 175.113 4.83732 175.212 4.30542C175.225 4.2312 175.231 4.12606 175.231 3.98999C175.231 3.54468 175.101 3.13647 174.841 2.76538C174.582 2.3881 174.241 2.13761 173.821 2.01392C173.543 1.9397 173.246 1.8995 172.93 1.89331C172.819 1.89331 172.51 1.92424 172.002 1.98608C171.279 2.08504 170.456 2.33244 169.535 2.72827C169.015 2.98185 168.31 3.42716 167.419 4.06421C166.745 4.54663 166.285 4.92082 166.037 5.18677C165.883 5.35376 165.375 5.86401 164.516 6.71753C164.188 7.07007 163.959 7.35148 163.829 7.56177C163.452 8.03182 163.016 8.77091 162.521 9.77905C162.874 9.80379 163.121 9.81616 163.263 9.81616ZM199.284 32.2395C199.123 32.2766 198.808 32.2952 198.338 32.2952C197.868 32.2952 197.543 32.289 197.364 32.2766C196.492 32.2519 195.784 32.1498 195.239 31.9705C194.911 31.8468 194.537 31.6643 194.117 31.4231C193.115 30.817 192.388 30.1707 191.937 29.4841C191.813 29.3048 191.64 29.0697 191.417 28.7791C191.194 28.4884 191.046 28.2812 190.972 28.1575C190.904 28.04 190.802 27.8235 190.666 27.5081C190.536 27.1926 190.387 26.7875 190.22 26.2927C189.855 25.0496 189.667 24.4094 189.654 24.3723C189.5 23.4755 189.379 22.7024 189.292 22.053C189.194 21.1562 189.091 19.7058 188.986 17.7019L187.771 18.7874C187.592 18.942 187.338 19.1615 187.01 19.446C186.682 19.7306 186.451 19.9347 186.314 20.0583C186.172 20.1697 185.98 20.3305 185.739 20.5408C185.498 20.7511 185.34 20.8871 185.266 20.949C184.555 21.5551 184.023 22.0066 183.67 22.3035C183.404 22.5199 182.897 22.9189 182.149 23.5002C181.957 23.6549 181.673 23.8806 181.295 24.1775C180.924 24.4744 180.652 24.697 180.479 24.8455C179.694 25.4887 179.016 26.0144 178.447 26.4226C177.482 27.1091 176.753 27.6225 176.258 27.9626C176.066 28.0863 175.788 28.2688 175.423 28.51C175.058 28.7512 174.829 28.9058 174.736 28.9739C173.747 29.6728 172.754 30.1923 171.758 30.5325C171.14 30.7489 170.391 30.919 169.513 31.0427L168.66 31.1355C168.115 31.1726 167.819 31.1912 167.769 31.1912C167.732 31.1912 167.67 31.1881 167.583 31.1819C167.503 31.1757 167.432 31.1695 167.37 31.1633C167.314 31.1571 167.274 31.1479 167.249 31.1355C167.151 31.086 167.101 31.0242 167.101 30.95C167.101 30.851 167.172 30.7799 167.314 30.7366C167.772 30.7613 168.239 30.7304 168.715 30.6438C169.093 30.6191 169.612 30.5046 170.274 30.3005C171.047 30.0593 172.086 29.5089 173.391 28.6492C174.065 28.1915 174.965 27.5204 176.091 26.636C177.216 25.7577 177.863 25.2568 178.03 25.1331C178.234 24.9661 178.447 24.7898 178.67 24.6042C178.899 24.4125 179.152 24.1991 179.431 23.9641C179.709 23.7291 179.925 23.5497 180.08 23.426L182.585 21.3665C182.684 21.2799 182.863 21.1191 183.123 20.884C183.383 20.649 183.59 20.4758 183.745 20.3645C183.912 20.2408 184.168 20.0089 184.515 19.6687C184.861 19.3223 185.142 19.078 185.359 18.9358C185.396 18.9111 185.439 18.8739 185.489 18.8245L186.992 17.4421C187.091 17.3556 187.239 17.2288 187.437 17.0618C187.635 16.8948 187.777 16.7742 187.864 16.7L189.181 15.6145C189.323 15.4908 189.93 15.0084 190.999 14.1672C191.952 13.4312 192.543 12.9828 192.771 12.822C192.963 12.6798 193.235 12.4911 193.588 12.2561C193.94 12.0149 194.182 11.8479 194.312 11.7551C194.361 11.718 195.088 11.2758 196.492 10.4285C197.772 9.68009 199.108 9.08944 200.499 8.65649C201.007 8.51424 201.356 8.44621 201.548 8.45239C201.634 8.44002 201.811 8.4091 202.077 8.35962C202.176 8.38436 202.349 8.41219 202.596 8.44312C202.85 8.47404 203.048 8.50806 203.19 8.54517C203.338 8.58228 203.431 8.63175 203.468 8.6936C203.419 8.74308 203.345 8.78019 203.246 8.80493C203.153 8.82349 203.045 8.83586 202.921 8.84204C202.803 8.84823 202.726 8.8575 202.689 8.86987C201.928 9.0245 201.028 9.34611 199.989 9.83472C199.105 10.2429 198.174 10.7625 197.197 11.3933C195.589 12.4571 194.676 13.0787 194.46 13.2581C194.318 13.3694 194.104 13.5271 193.82 13.7312C193.535 13.9353 193.325 14.093 193.189 14.2043L191.705 15.4197C191.235 15.797 190.95 16.0505 190.851 16.1804C190.814 16.2052 190.771 16.2577 190.721 16.3381C190.721 16.4247 190.777 16.4928 190.888 16.5422C191.816 16.9319 192.951 17.2319 194.293 17.4421C194.936 17.5535 195.385 17.6215 195.638 17.6462C195.7 17.6462 195.787 17.6524 195.898 17.6648C196.015 17.6772 196.099 17.6833 196.148 17.6833C196.767 17.7081 197.237 17.739 197.559 17.7761C197.738 17.7885 198.004 17.7947 198.356 17.7947H199.841C199.915 17.7823 200.06 17.773 200.277 17.7668C200.493 17.7607 200.632 17.7576 200.694 17.7576C200.806 17.7328 200.988 17.7205 201.242 17.7205C201.761 17.7328 202.553 17.6308 203.617 17.4143C204.223 17.3153 205.268 16.9752 206.752 16.3938C207.575 16.066 208.305 15.698 208.942 15.2898C209.777 14.7455 210.448 14.2507 210.955 13.8054C211.363 13.4653 211.642 13.1313 211.79 12.8035C211.815 12.7292 211.87 12.6148 211.957 12.4602C212.05 12.3056 212.115 12.185 212.152 12.0984C212.356 11.5912 212.443 11.1923 212.412 10.9016C212.412 10.8645 212.446 10.6882 212.514 10.3728C212.514 10.3481 212.473 10.0759 212.393 9.5564C212.344 8.96265 212.167 8.30396 211.864 7.58032C211.487 6.74536 210.81 5.91349 209.833 5.08472C209.263 4.61466 208.429 4.13534 207.328 3.64673C206.072 3.10246 204.755 2.69735 203.375 2.4314C203.023 2.38192 202.757 2.33553 202.578 2.29224C202.411 2.25513 202.228 2.2242 202.03 2.19946C201.839 2.17472 201.625 2.14998 201.39 2.12524C201.155 2.1005 200.973 2.08195 200.843 2.06958C200.261 1.99536 199.541 1.95516 198.681 1.94897C198.465 1.94897 198.14 1.95207 197.707 1.95825C197.28 1.96444 196.959 1.96753 196.742 1.96753C196.451 1.96753 196 2.0201 195.388 2.12524C194.856 2.19946 194.318 2.29533 193.773 2.41284C192.66 2.66642 191.844 2.91073 191.324 3.14575C191.299 3.15812 191.256 3.17668 191.194 3.20142C191.132 3.21997 191.089 3.23543 191.064 3.2478C190.001 3.62508 188.943 4.13224 187.892 4.76929L187.678 4.86206C187.462 4.97339 187.248 5.09709 187.038 5.23315C186.834 5.36304 186.596 5.52694 186.324 5.72485C186.052 5.92277 185.86 6.06193 185.749 6.14233C185.643 6.22274 185.415 6.39901 185.062 6.67114C184.716 6.94328 184.524 7.09172 184.487 7.11646C183.738 7.69784 183.049 8.50496 182.418 9.53784C181.849 10.3975 181.438 11.282 181.184 12.1912C181.042 12.6736 180.958 13.3323 180.934 14.1672C180.909 14.4456 180.965 14.9094 181.101 15.5588C181.187 16.0536 181.447 16.4835 181.88 16.8484C181.929 16.9102 182.013 16.9937 182.13 17.0989C182.254 17.1978 182.338 17.2659 182.381 17.303C182.467 17.3525 182.505 17.4112 182.492 17.4792C182.455 17.5411 182.402 17.5597 182.334 17.5349C181.753 17.2442 181.329 16.8515 181.063 16.3567C180.723 15.6702 180.553 15.03 180.553 14.4363C180.553 14.2445 180.559 14.1054 180.572 14.0188C180.584 13.9446 180.59 13.8302 180.59 13.6755C180.553 12.9148 180.674 12.2437 180.952 11.6624C180.94 11.65 180.946 11.6191 180.971 11.5696C181.057 11.217 181.19 10.849 181.37 10.4656C181.549 10.0821 181.71 9.78215 181.852 9.56567C182 9.34302 182.22 9.01522 182.511 8.58228C183.104 7.80916 183.661 7.20923 184.181 6.78247C184.508 6.49178 184.821 6.24438 185.118 6.04028C185.217 5.96606 185.733 5.61662 186.667 4.99194C186.908 4.83732 187.258 4.63322 187.715 4.37964C188.173 4.11987 188.464 3.94979 188.587 3.86938C188.89 3.69002 189.487 3.40552 190.378 3.01587C190.452 2.99113 190.502 2.96639 190.526 2.94165C191.108 2.65096 191.838 2.37882 192.716 2.12524C192.84 2.08813 193 2.04175 193.198 1.98608C193.396 1.92424 193.554 1.87476 193.671 1.83765C193.795 1.80054 193.944 1.76652 194.117 1.7356C194.296 1.70467 194.475 1.68921 194.655 1.68921C194.754 1.67684 194.918 1.64282 195.146 1.58716C195.499 1.50057 195.855 1.46346 196.213 1.47583C196.325 1.47583 196.399 1.46965 196.436 1.45728C196.918 1.33358 197.627 1.27173 198.561 1.27173H199.34H200.898C201.239 1.27173 201.557 1.29647 201.854 1.34595C202.095 1.38306 202.426 1.42944 202.847 1.48511C203.273 1.54077 203.561 1.58407 203.709 1.61499C204.217 1.67684 204.643 1.75724 204.99 1.8562C205.064 1.88094 205.308 1.95207 205.723 2.06958C206.143 2.18091 206.462 2.27368 206.678 2.3479C206.833 2.40975 207.083 2.50562 207.43 2.6355C207.776 2.76538 208.039 2.86743 208.218 2.94165C209.183 3.36222 209.969 3.78589 210.575 4.21265C211.057 4.55282 211.413 4.86206 211.642 5.14038C211.691 5.2146 211.778 5.31665 211.901 5.44653C212.724 6.28149 213.302 7.31437 213.636 8.54517C213.791 9.23169 213.877 9.65535 213.896 9.81616C213.933 10.0574 213.952 10.311 213.952 10.5769C213.952 10.8429 213.927 11.0964 213.877 11.3376C213.754 11.919 213.633 12.3551 213.516 12.6458C213.213 13.4065 212.733 14.0868 212.078 14.6868C211.713 15.0146 211.382 15.2651 211.085 15.4382C210.071 16.1248 209.31 16.5824 208.803 16.8113C207.85 17.2566 207.059 17.5782 206.428 17.7761C205.519 18.0792 204.582 18.308 203.617 18.4626C203.592 18.475 203.555 18.4812 203.505 18.4812C203.301 18.4812 202.874 18.5121 202.225 18.574C201.582 18.6296 201.084 18.642 200.731 18.6111H200.564C200.397 18.6111 200.224 18.6327 200.045 18.676C199.878 18.6884 199.491 18.6946 198.885 18.6946C198.762 18.6822 198.579 18.6698 198.338 18.6575C198.097 18.6451 197.92 18.6296 197.809 18.6111C197.265 18.5863 196.928 18.5554 196.798 18.5183C196.761 18.5059 196.705 18.4998 196.631 18.4998C196.476 18.4998 195.873 18.4317 194.822 18.2957C194.166 18.1967 193.405 18.0359 192.54 17.8132C191.463 17.4978 190.628 17.2071 190.035 16.9412C190.035 17.0278 190.044 17.303 190.062 17.7668C190.081 18.2307 190.097 18.6822 190.109 19.1213C190.121 19.5543 190.134 19.8975 190.146 20.1511C190.195 21.3819 190.291 22.554 190.434 23.6672C190.638 24.83 190.814 25.634 190.962 26.0793C191.117 26.5247 191.358 27.0627 191.686 27.6936C192.014 28.3306 192.28 28.7883 192.484 29.0667C192.688 29.345 192.96 29.6666 193.3 30.0315C193.653 30.4211 194.148 30.7644 194.785 31.0613C195.125 31.2654 195.548 31.4231 196.056 31.5344C196.625 31.6334 196.98 31.686 197.123 31.6921C197.531 31.754 197.936 31.7849 198.338 31.7849C198.845 31.7849 199.414 31.7385 200.045 31.6458C201.486 31.3674 202.822 30.9623 204.053 30.4304C204.319 30.3191 204.851 30.0717 205.648 29.6882C205.927 29.5645 206.391 29.2986 207.04 28.8904C207.646 28.5502 208.438 27.9998 209.415 27.239C209.427 27.2266 209.573 27.0999 209.851 26.8586C209.876 26.8463 209.907 26.803 209.944 26.7288C209.981 26.6545 210.04 26.6236 210.12 26.636L210.176 26.7659C210.176 26.8277 210.129 26.9174 210.037 27.0349C209.913 27.1772 209.786 27.3009 209.656 27.406C209.533 27.5111 209.39 27.6194 209.229 27.7307C209.075 27.8482 208.948 27.9379 208.849 27.9998C208.756 28.0616 208.605 28.1544 208.395 28.2781C208.19 28.408 208.036 28.5069 207.931 28.575C207.096 29.1069 206.462 29.4872 206.029 29.7161C205.917 29.7779 205.744 29.8676 205.509 29.9851C205.274 30.1088 205.064 30.217 204.878 30.3098C204.699 30.4026 204.52 30.483 204.34 30.551C204.229 30.5881 204.068 30.6562 203.858 30.7551C203.648 30.8603 203.499 30.9314 203.413 30.9685C201.953 31.5623 200.577 31.9859 199.284 32.2395ZM266.338 11.718C266.338 11.7304 266.344 11.7428 266.356 11.7551V11.7922C266.307 11.8912 266.217 11.9994 266.087 12.1169C265.16 12.8901 264.263 13.4281 263.397 13.7312C263.032 13.8549 262.478 13.9941 261.736 14.1487C261.674 14.1611 261.517 14.192 261.263 14.2415C260.768 14.3404 260.236 14.393 259.667 14.3992C259.024 14.3992 258.523 14.393 258.165 14.3806C257.96 14.393 257.549 14.3682 256.931 14.3064L256.457 14.2415C256.29 14.2291 256.012 14.1982 255.623 14.1487C255.524 14.1239 255.36 14.0992 255.131 14.0745C254.661 14.0126 254.293 13.9508 254.027 13.8889C253.903 13.8642 253.721 13.8333 253.479 13.7961C253.238 13.7528 253.053 13.7188 252.923 13.6941L251.596 13.425C251.485 13.5487 251.312 13.7374 251.077 13.991C250.842 14.2384 250.659 14.4177 250.529 14.5291L249.564 15.5032C249.187 15.8681 248.813 16.2392 248.442 16.6165L247.533 17.6462C247.421 17.7699 247.264 17.9462 247.06 18.175C246.855 18.4039 246.67 18.6142 246.503 18.8059C246.336 18.9976 246.184 19.1801 246.048 19.3533C245.071 20.5593 244.298 21.6819 243.729 22.7209C243.271 23.5435 242.922 24.2393 242.681 24.8083C242.489 25.3031 242.39 25.7083 242.384 26.0237C242.359 27.304 242.752 28.1977 243.562 28.7048C243.661 28.7791 243.692 28.8564 243.655 28.9368C243.389 28.912 243.172 28.8285 243.005 28.6863C242.616 28.3708 242.331 27.9967 242.152 27.5637C241.972 27.0813 241.883 26.6947 241.883 26.4041C241.883 26.3298 241.87 26.2247 241.846 26.0886C241.821 25.9587 241.809 25.8752 241.809 25.8381C241.858 25.4176 241.901 25.1176 241.938 24.9382C241.988 24.6723 242.155 24.193 242.439 23.5002C242.996 22.121 243.692 20.8593 244.527 19.7151C245.238 18.7255 245.758 18.0483 246.085 17.6833C246.184 17.572 246.327 17.3896 246.512 17.136C246.698 16.8824 246.846 16.6907 246.957 16.5608C247.1 16.3938 247.313 16.1433 247.598 15.8093C247.882 15.4753 248.099 15.2279 248.247 15.0671C249.144 14.1023 249.645 13.5673 249.75 13.4622L250.149 13.0261C248.442 12.5684 246.998 12.2468 245.816 12.0613C245.717 12.1231 245.421 12.3241 244.926 12.6643C244.369 13.0972 243.522 13.7312 242.384 14.5662C241.697 15.0486 241.184 15.4042 240.844 15.6331C240.553 15.8372 240.102 16.1278 239.489 16.5051C239.149 16.7216 238.664 17.071 238.033 17.5535C237.643 17.8442 237.349 18.0266 237.151 18.1008C237.009 18.1627 236.824 18.2771 236.595 18.4441C236.372 18.6111 236.242 18.7069 236.205 18.7317C235.457 19.2265 234.581 19.7522 233.58 20.3088C232.695 20.8036 231.891 21.2644 231.167 21.6912C230.054 22.3468 229.213 22.823 228.644 23.1199C227.531 23.6765 226.693 24.0878 226.13 24.3538C225.697 24.5579 225.038 24.8486 224.154 25.2258C223.269 25.5907 222.784 25.801 222.697 25.8567C222.277 26.0608 221.491 26.3515 220.341 26.7288C220.174 26.7782 219.929 26.8525 219.608 26.9514C219.286 27.0566 219.061 27.1277 218.931 27.1648C217.409 27.6472 216.333 27.9503 215.702 28.074C215.69 28.074 215.411 28.0956 214.867 28.1389C214.855 28.1389 214.839 28.1265 214.821 28.1018C214.802 28.0833 214.787 28.074 214.774 28.074C214.75 28.0245 214.768 27.9998 214.83 27.9998C215.096 27.9998 215.393 27.9565 215.721 27.8699C216.772 27.6287 217.647 27.3813 218.346 27.1277C218.445 27.0906 218.59 27.0442 218.782 26.9885C218.974 26.939 219.082 26.9081 219.107 26.8958C220.338 26.5308 221.445 26.1381 222.428 25.7175C222.62 25.6433 222.935 25.5011 223.374 25.2908C223.82 25.0867 224.163 24.932 224.404 24.8269C225.518 24.3816 226.986 23.6796 228.811 22.7209C228.978 22.6467 229.822 22.1643 231.344 21.2737C231.9 20.9459 232.324 20.7047 232.615 20.55C233.184 20.2222 233.777 19.8883 234.396 19.5481L236.057 18.574C236.18 18.4998 236.363 18.3853 236.604 18.2307C236.845 18.0699 237.028 17.9462 237.151 17.8596C237.56 17.5937 238.206 17.1545 239.09 16.5422C239.981 15.9237 240.664 15.463 241.141 15.1599C241.697 14.7826 242.511 14.1858 243.581 13.3694C243.772 13.2271 244.264 12.8808 245.056 12.3303C245.08 12.3056 245.108 12.2808 245.139 12.2561C245.176 12.2252 245.229 12.185 245.297 12.1355C245.365 12.086 245.43 12.0365 245.492 11.9871C245.114 11.9128 244.654 11.8355 244.109 11.7551C243.942 11.7304 243.679 11.6871 243.321 11.6252C242.962 11.5634 242.609 11.5046 242.263 11.449H242.152C241.923 11.3748 241.577 11.3036 241.113 11.2356C240.655 11.1676 240.318 11.0995 240.102 11.0315C240.052 11.0191 239.975 11.0129 239.87 11.0129C239.653 10.9882 239.35 10.9511 238.96 10.9016C238.577 10.8521 238.299 10.8212 238.125 10.8088C238.039 10.7965 237.906 10.7903 237.727 10.7903C237.584 10.7903 237.396 10.7779 237.161 10.7532C236.926 10.7284 236.759 10.7068 236.66 10.6882C236.598 10.6759 236.502 10.6697 236.372 10.6697C235.852 10.6697 235.079 10.6604 234.053 10.6418C233.032 10.6233 232.268 10.614 231.761 10.614H231.492C231.251 10.614 231.075 10.6326 230.963 10.6697C230.889 10.682 230.772 10.6944 230.611 10.7068C230.45 10.713 230.345 10.7161 230.295 10.7161C230.234 10.7037 230.144 10.6944 230.026 10.6882C229.822 10.6882 229.59 10.7346 229.331 10.8274C229.293 10.8398 229.235 10.8459 229.154 10.8459C228.876 10.8459 227.908 10.9789 226.25 11.2449C225.403 11.3871 224.497 11.5881 223.532 11.8479C222.419 12.1386 221.64 12.3736 221.194 12.553C221.17 12.5653 221.098 12.5901 220.981 12.6272C220.084 12.9179 219.286 13.2302 218.587 13.5642C217.969 13.8425 217.344 14.2105 216.713 14.6682C216.627 14.7177 216.454 14.8352 216.194 15.0208C215.748 15.2743 215.362 15.5805 215.034 15.9392C214.502 16.5082 214.181 16.8824 214.069 17.0618C213.97 17.2411 213.862 17.3339 213.745 17.3401C213.683 17.303 213.664 17.2411 213.689 17.1545C213.738 17.0556 213.776 16.9845 213.8 16.9412C213.813 16.9288 213.918 16.8051 214.116 16.5701C214.314 16.335 214.468 16.1619 214.58 16.0505C215.074 15.5434 215.708 15.03 216.481 14.5105C217.063 14.1332 217.514 13.8611 217.836 13.6941C218.609 13.2859 219.391 12.9426 220.183 12.6643C221.136 12.3365 221.909 12.086 222.502 11.9128C223.517 11.5974 224.454 11.3624 225.313 11.2078C226.365 11.016 226.993 10.8954 227.197 10.8459C227.271 10.8212 227.549 10.7779 228.032 10.7161C228.687 10.6418 229.182 10.5893 229.516 10.5583C229.77 10.5336 229.98 10.5212 230.147 10.5212C230.271 10.4965 230.363 10.4841 230.425 10.4841C230.58 10.4841 231.013 10.4656 231.724 10.4285C232.442 10.3914 232.967 10.379 233.301 10.3914H234.192H235.917C236.604 10.4532 236.972 10.4903 237.021 10.5027C237.566 10.5151 238.048 10.5522 238.469 10.614C238.568 10.6264 239.072 10.6851 239.981 10.7903C240.197 10.8398 240.528 10.8985 240.974 10.9666C241.419 11.0346 241.728 11.0903 241.901 11.1335C242.118 11.183 242.427 11.2325 242.829 11.282C243.237 11.3315 243.55 11.3809 243.766 11.4304C244.286 11.5294 244.672 11.6067 244.926 11.6624C245.241 11.6995 245.501 11.7551 245.705 11.8293C246.262 11.4211 246.8 11.0346 247.319 10.6697C247.406 10.6078 247.536 10.5212 247.709 10.4099C247.882 10.2924 248 10.2151 248.061 10.178C248.315 9.99862 248.674 9.75741 249.138 9.45435C249.608 9.15129 249.945 8.93172 250.149 8.79565C250.365 8.6534 250.678 8.46476 251.086 8.22974C251.5 7.99471 251.757 7.84627 251.856 7.78442C252.023 7.69784 252.258 7.56486 252.561 7.3855C252.864 7.20614 253.139 7.04842 253.387 6.91235C253.634 6.7701 253.866 6.64331 254.082 6.53198C254.132 6.50724 254.271 6.43612 254.5 6.3186C254.729 6.19491 254.914 6.10832 255.057 6.05884C255.094 6.04647 255.326 5.93205 255.752 5.71558C256.878 5.12183 258.183 4.55282 259.667 4.00854C260.391 3.76733 261.127 3.59416 261.875 3.48901C262.104 3.46427 262.401 3.40243 262.766 3.30347C262.995 3.25399 263.165 3.24162 263.276 3.26636C263.4 3.2911 263.484 3.35913 263.527 3.47046V3.54468C263.527 3.63127 263.484 3.75187 263.397 3.90649C262.939 4.28377 262.271 4.79093 261.393 5.42798C260.521 6.06502 259.964 6.47632 259.723 6.66187C258.492 7.5896 257.67 8.22974 257.255 8.58228C257.088 8.72453 256.832 8.93172 256.485 9.20386C256.139 9.47599 255.882 9.68009 255.715 9.81616C255.573 9.92749 255.378 10.0914 255.131 10.3079C254.89 10.5243 254.723 10.6728 254.63 10.7532C254.58 10.8027 254.5 10.8707 254.389 10.9573C254.283 11.0439 254.206 11.115 254.157 11.1707C254.144 11.183 253.52 11.7335 252.283 12.822C252.116 12.9457 251.961 13.0787 251.819 13.2209C251.844 13.2333 251.878 13.2395 251.921 13.2395C251.97 13.2395 252.001 13.2457 252.014 13.2581C252.038 13.2581 252.069 13.2611 252.106 13.2673C252.144 13.2735 252.174 13.2828 252.199 13.2952L252.505 13.3508C252.592 13.3632 252.725 13.3848 252.904 13.4158C253.084 13.4467 253.223 13.4776 253.322 13.5085C253.538 13.558 254.021 13.6384 254.769 13.7498C254.985 13.7869 255.264 13.8333 255.604 13.8889C255.703 13.9013 255.848 13.9229 256.04 13.9539C256.232 13.9848 256.365 14.0064 256.439 14.0188C256.55 14.0435 256.804 14.0683 257.2 14.093C257.806 14.1301 258.134 14.1487 258.183 14.1487H258.703H259.064C259.244 14.1487 259.383 14.1425 259.482 14.1301C259.797 14.1301 260.017 14.1239 260.141 14.1116C260.178 14.0992 260.243 14.093 260.335 14.093C260.601 14.093 261.229 13.991 262.219 13.7869C263.381 13.5333 264.312 13.1405 265.011 12.6086L265.215 12.4602C265.568 12.2066 265.821 11.9902 265.976 11.8108C266.087 11.6995 266.168 11.6438 266.217 11.6438C266.273 11.6438 266.313 11.6685 266.338 11.718ZM248.516 12.4045C249.215 12.5715 249.812 12.7292 250.307 12.8777C250.331 12.8529 250.443 12.7447 250.641 12.553C250.845 12.3612 250.999 12.2221 251.104 12.1355C252.032 11.3005 252.703 10.6851 253.118 10.2893C253.588 9.84399 254.327 9.20386 255.335 8.3689C256.349 7.53394 257.129 6.92782 257.673 6.55054C259.132 5.52384 259.97 4.94246 260.187 4.8064C260.465 4.61466 260.836 4.34871 261.3 4.00854C261.201 3.99618 261.062 4.01473 260.883 4.06421C260.71 4.11369 260.611 4.13843 260.586 4.13843C259.838 4.30542 258.638 4.72909 256.986 5.40942C256.201 5.73722 254.859 6.38973 252.96 7.36694C252.768 7.4659 252.066 7.8772 250.854 8.60083C249.994 9.15747 249.348 9.58114 248.915 9.87183C248.383 10.2244 247.598 10.7563 246.559 11.4675C246.46 11.5417 246.392 11.6005 246.354 11.6438C246.163 11.7861 246.054 11.8695 246.03 11.8943C246.079 11.9067 246.265 11.9345 246.586 11.9778C246.908 12.0211 247.121 12.0551 247.227 12.0798L248.516 12.4045ZM285.632 32.2395C285.471 32.2766 285.156 32.2952 284.685 32.2952C284.215 32.2952 283.891 32.289 283.711 32.2766C282.839 32.2519 282.131 32.1498 281.587 31.9705C281.259 31.8468 280.885 31.6643 280.464 31.4231C279.462 30.817 278.736 30.1707 278.284 29.4841C278.16 29.3048 277.987 29.0697 277.765 28.7791C277.542 28.4884 277.393 28.2812 277.319 28.1575C277.251 28.04 277.149 27.8235 277.013 27.5081C276.883 27.1926 276.735 26.7875 276.568 26.2927C276.203 25.0496 276.014 24.4094 276.002 24.3723C275.847 23.4755 275.727 22.7024 275.64 22.053C275.541 21.1562 275.439 19.7058 275.334 17.7019L274.119 18.7874C273.939 18.942 273.686 19.1615 273.358 19.446C273.03 19.7306 272.798 19.9347 272.662 20.0583C272.52 20.1697 272.328 20.3305 272.087 20.5408C271.846 20.7511 271.688 20.8871 271.614 20.949C270.902 21.5551 270.371 22.0066 270.018 22.3035C269.752 22.5199 269.245 22.9189 268.496 23.5002C268.305 23.6549 268.02 23.8806 267.643 24.1775C267.272 24.4744 267 24.697 266.827 24.8455C266.041 25.4887 265.364 26.0144 264.795 26.4226C263.83 27.1091 263.1 27.6225 262.605 27.9626C262.414 28.0863 262.135 28.2688 261.77 28.51C261.406 28.7512 261.177 28.9058 261.084 28.9739C260.094 29.6728 259.102 30.1923 258.106 30.5325C257.487 30.7489 256.739 30.919 255.861 31.0427L255.007 31.1355C254.463 31.1726 254.166 31.1912 254.117 31.1912C254.079 31.1912 254.018 31.1881 253.931 31.1819C253.851 31.1757 253.78 31.1695 253.718 31.1633C253.662 31.1571 253.622 31.1479 253.597 31.1355C253.498 31.086 253.449 31.0242 253.449 30.95C253.449 30.851 253.52 30.7799 253.662 30.7366C254.12 30.7613 254.587 30.7304 255.063 30.6438C255.44 30.6191 255.96 30.5046 256.621 30.3005C257.395 30.0593 258.434 29.5089 259.739 28.6492C260.413 28.1915 261.313 27.5204 262.438 26.636C263.564 25.7577 264.21 25.2568 264.377 25.1331C264.581 24.9661 264.795 24.7898 265.017 24.6042C265.246 24.4125 265.5 24.1991 265.778 23.9641C266.057 23.7291 266.273 23.5497 266.428 23.426L268.933 21.3665C269.031 21.2799 269.211 21.1191 269.471 20.884C269.73 20.649 269.938 20.4758 270.092 20.3645C270.259 20.2408 270.516 20.0089 270.862 19.6687C271.209 19.3223 271.49 19.078 271.706 18.9358C271.744 18.9111 271.787 18.8739 271.836 18.8245L273.339 17.4421C273.438 17.3556 273.587 17.2288 273.785 17.0618C273.982 16.8948 274.125 16.7742 274.211 16.7L275.529 15.6145C275.671 15.4908 276.277 15.0084 277.347 14.1672C278.3 13.4312 278.89 12.9828 279.119 12.822C279.311 12.6798 279.583 12.4911 279.935 12.2561C280.288 12.0149 280.529 11.8479 280.659 11.7551C280.709 11.718 281.435 11.2758 282.839 10.4285C284.12 9.68009 285.455 9.08944 286.847 8.65649C287.354 8.51424 287.704 8.44621 287.895 8.45239C287.982 8.44002 288.158 8.4091 288.424 8.35962C288.523 8.38436 288.696 8.41219 288.944 8.44312C289.197 8.47404 289.395 8.50806 289.538 8.54517C289.686 8.58228 289.779 8.63175 289.816 8.6936C289.766 8.74308 289.692 8.78019 289.593 8.80493C289.5 8.82349 289.392 8.83586 289.268 8.84204C289.151 8.84823 289.074 8.8575 289.037 8.86987C288.276 9.0245 287.376 9.34611 286.337 9.83472C285.452 10.2429 284.522 10.7625 283.544 11.3933C281.936 12.4571 281.024 13.0787 280.808 13.2581C280.665 13.3694 280.452 13.5271 280.167 13.7312C279.883 13.9353 279.673 14.093 279.537 14.2043L278.052 15.4197C277.582 15.797 277.298 16.0505 277.199 16.1804C277.162 16.2052 277.118 16.2577 277.069 16.3381C277.069 16.4247 277.124 16.4928 277.236 16.5422C278.163 16.9319 279.298 17.2319 280.641 17.4421C281.284 17.5535 281.732 17.6215 281.986 17.6462C282.048 17.6462 282.134 17.6524 282.246 17.6648C282.363 17.6772 282.447 17.6833 282.496 17.6833C283.114 17.7081 283.585 17.739 283.906 17.7761C284.086 17.7885 284.351 17.7947 284.704 17.7947H286.188C286.263 17.7823 286.408 17.773 286.624 17.7668C286.841 17.7607 286.98 17.7576 287.042 17.7576C287.153 17.7328 287.336 17.7205 287.589 17.7205C288.109 17.7328 288.9 17.6308 289.964 17.4143C290.57 17.3153 291.616 16.9752 293.1 16.3938C293.923 16.066 294.652 15.698 295.289 15.2898C296.124 14.7455 296.795 14.2507 297.303 13.8054C297.711 13.4653 297.989 13.1313 298.138 12.8035C298.162 12.7292 298.218 12.6148 298.305 12.4602C298.397 12.3056 298.462 12.185 298.499 12.0984C298.704 11.5912 298.79 11.1923 298.759 10.9016C298.759 10.8645 298.793 10.6882 298.861 10.3728C298.861 10.3481 298.821 10.0759 298.741 9.5564C298.691 8.96265 298.515 8.30396 298.212 7.58032C297.835 6.74536 297.157 5.91349 296.18 5.08472C295.611 4.61466 294.776 4.13534 293.675 3.64673C292.42 3.10246 291.102 2.69735 289.723 2.4314C289.371 2.38192 289.105 2.33553 288.925 2.29224C288.758 2.25513 288.576 2.2242 288.378 2.19946C288.186 2.17472 287.973 2.14998 287.738 2.12524C287.503 2.1005 287.32 2.08195 287.19 2.06958C286.609 1.99536 285.888 1.95516 285.029 1.94897C284.812 1.94897 284.488 1.95207 284.055 1.95825C283.628 1.96444 283.306 1.96753 283.09 1.96753C282.799 1.96753 282.348 2.0201 281.735 2.12524C281.203 2.19946 280.665 2.29533 280.121 2.41284C279.008 2.66642 278.191 2.91073 277.672 3.14575C277.647 3.15812 277.604 3.17668 277.542 3.20142C277.48 3.21997 277.437 3.23543 277.412 3.2478C276.348 3.62508 275.291 4.13224 274.239 4.76929L274.026 4.86206C273.809 4.97339 273.596 5.09709 273.386 5.23315C273.182 5.36304 272.943 5.52694 272.671 5.72485C272.399 5.92277 272.207 6.06193 272.096 6.14233C271.991 6.22274 271.762 6.39901 271.41 6.67114C271.063 6.94328 270.871 7.09172 270.834 7.11646C270.086 7.69784 269.396 8.50496 268.766 9.53784C268.197 10.3975 267.785 11.282 267.532 12.1912C267.389 12.6736 267.306 13.3323 267.281 14.1672C267.256 14.4456 267.312 14.9094 267.448 15.5588C267.535 16.0536 267.795 16.4835 268.227 16.8484C268.277 16.9102 268.36 16.9937 268.478 17.0989C268.602 17.1978 268.685 17.2659 268.728 17.303C268.815 17.3525 268.852 17.4112 268.84 17.4792C268.803 17.5411 268.75 17.5597 268.682 17.5349C268.101 17.2442 267.677 16.8515 267.411 16.3567C267.071 15.6702 266.901 15.03 266.901 14.4363C266.901 14.2445 266.907 14.1054 266.919 14.0188C266.932 13.9446 266.938 13.8302 266.938 13.6755C266.901 12.9148 267.021 12.2437 267.3 11.6624C267.287 11.65 267.294 11.6191 267.318 11.5696C267.405 11.217 267.538 10.849 267.717 10.4656C267.897 10.0821 268.057 9.78215 268.2 9.56567C268.348 9.34302 268.568 9.01522 268.858 8.58228C269.452 7.80916 270.009 7.20923 270.528 6.78247C270.856 6.49178 271.168 6.24438 271.465 6.04028C271.564 5.96606 272.081 5.61662 273.015 4.99194C273.256 4.83732 273.605 4.63322 274.063 4.37964C274.521 4.11987 274.811 3.94979 274.935 3.86938C275.238 3.69002 275.835 3.40552 276.725 3.01587C276.8 2.99113 276.849 2.96639 276.874 2.94165C277.455 2.65096 278.185 2.37882 279.063 2.12524C279.187 2.08813 279.348 2.04175 279.546 1.98608C279.744 1.92424 279.901 1.87476 280.019 1.83765C280.143 1.80054 280.291 1.76652 280.464 1.7356C280.644 1.70467 280.823 1.68921 281.002 1.68921C281.101 1.67684 281.265 1.64282 281.494 1.58716C281.847 1.50057 282.202 1.46346 282.561 1.47583C282.672 1.47583 282.746 1.46965 282.784 1.45728C283.266 1.33358 283.974 1.27173 284.908 1.27173H285.687H287.246C287.586 1.27173 287.905 1.29647 288.202 1.34595C288.443 1.38306 288.774 1.42944 289.194 1.48511C289.621 1.54077 289.909 1.58407 290.057 1.61499C290.564 1.67684 290.991 1.75724 291.337 1.8562C291.412 1.88094 291.656 1.95207 292.07 2.06958C292.491 2.18091 292.809 2.27368 293.026 2.3479C293.18 2.40975 293.431 2.50562 293.777 2.6355C294.124 2.76538 294.386 2.86743 294.566 2.94165C295.531 3.36222 296.316 3.78589 296.922 4.21265C297.405 4.55282 297.76 4.86206 297.989 5.14038C298.039 5.2146 298.125 5.31665 298.249 5.44653C299.072 6.28149 299.65 7.31437 299.984 8.54517C300.138 9.23169 300.225 9.65535 300.244 9.81616C300.281 10.0574 300.299 10.311 300.299 10.5769C300.299 10.8429 300.274 11.0964 300.225 11.3376C300.101 11.919 299.981 12.3551 299.863 12.6458C299.56 13.4065 299.081 14.0868 298.425 14.6868C298.06 15.0146 297.729 15.2651 297.433 15.4382C296.418 16.1248 295.657 16.5824 295.15 16.8113C294.198 17.2566 293.406 17.5782 292.775 17.7761C291.866 18.0792 290.929 18.308 289.964 18.4626C289.94 18.475 289.902 18.4812 289.853 18.4812C289.649 18.4812 289.222 18.5121 288.573 18.574C287.929 18.6296 287.432 18.642 287.079 18.6111H286.912C286.745 18.6111 286.572 18.6327 286.392 18.676C286.225 18.6884 285.839 18.6946 285.233 18.6946C285.109 18.6822 284.927 18.6698 284.685 18.6575C284.444 18.6451 284.268 18.6296 284.157 18.6111C283.612 18.5863 283.275 18.5554 283.145 18.5183C283.108 18.5059 283.053 18.4998 282.978 18.4998C282.824 18.4998 282.221 18.4317 281.169 18.2957C280.514 18.1967 279.753 18.0359 278.887 17.8132C277.811 17.4978 276.976 17.2071 276.382 16.9412C276.382 17.0278 276.392 17.303 276.41 17.7668C276.429 18.2307 276.444 18.6822 276.456 19.1213C276.469 19.5543 276.481 19.8975 276.494 20.1511C276.543 21.3819 276.639 22.554 276.781 23.6672C276.985 24.83 277.162 25.634 277.31 26.0793C277.465 26.5247 277.706 27.0627 278.034 27.6936C278.361 28.3306 278.627 28.7883 278.831 29.0667C279.036 29.345 279.308 29.6666 279.648 30.0315C280 30.4211 280.495 30.7644 281.132 31.0613C281.472 31.2654 281.896 31.4231 282.403 31.5344C282.972 31.6334 283.328 31.686 283.47 31.6921C283.878 31.754 284.283 31.7849 284.685 31.7849C285.193 31.7849 285.762 31.7385 286.392 31.6458C287.834 31.3674 289.17 30.9623 290.4 30.4304C290.666 30.3191 291.198 30.0717 291.996 29.6882C292.274 29.5645 292.738 29.2986 293.388 28.8904C293.994 28.5502 294.785 27.9998 295.763 27.239C295.775 27.2266 295.92 27.0999 296.199 26.8586C296.223 26.8463 296.254 26.803 296.291 26.7288C296.329 26.6545 296.387 26.6236 296.468 26.636L296.523 26.7659C296.523 26.8277 296.477 26.9174 296.384 27.0349C296.26 27.1772 296.134 27.3009 296.004 27.406C295.88 27.5111 295.738 27.6194 295.577 27.7307C295.422 27.8482 295.296 27.9379 295.197 27.9998C295.104 28.0616 294.952 28.1544 294.742 28.2781C294.538 28.408 294.383 28.5069 294.278 28.575C293.443 29.1069 292.809 29.4872 292.376 29.7161C292.265 29.7779 292.092 29.8676 291.857 29.9851C291.622 30.1088 291.412 30.217 291.226 30.3098C291.047 30.4026 290.867 30.483 290.688 30.551C290.577 30.5881 290.416 30.6562 290.205 30.7551C289.995 30.8603 289.847 30.9314 289.76 30.9685C288.301 31.5623 286.924 31.9859 285.632 32.2395ZM315.864 30.5881C314.763 30.2974 313.977 29.7192 313.507 28.8533C313 27.8884 312.703 27.0535 312.617 26.3484C312.592 26.1938 312.573 26.0546 312.561 25.9309C312.283 26.0422 311.964 26.2123 311.605 26.4412C311.24 26.6329 310.974 26.7721 310.807 26.8586C310.684 26.8958 310.563 26.9545 310.446 27.0349C310.334 27.0844 310.133 27.1803 309.843 27.3225C309.552 27.4709 309.329 27.5823 309.175 27.6565C309.063 27.706 308.893 27.7864 308.664 27.8977C308.436 28.0152 308.266 28.1018 308.154 28.1575C308.08 28.1946 307.91 28.2657 307.644 28.3708C307.384 28.4822 307.192 28.575 307.069 28.6492C306.877 28.7481 306.054 29.0821 304.601 29.6511C303.636 30.016 302.761 30.2634 301.975 30.3933C301.771 30.4304 301.301 30.4613 300.565 30.4861C300.299 30.4861 300.117 30.4181 300.018 30.282C300.067 30.1954 300.145 30.1521 300.25 30.1521C300.275 30.1521 300.309 30.1552 300.352 30.1614C300.395 30.1676 300.423 30.1707 300.435 30.1707C300.881 30.1707 301.521 30.0933 302.356 29.9387C302.888 29.8521 303.648 29.6295 304.638 29.2708C305.028 29.1161 306.237 28.6121 308.266 27.7585C308.519 27.672 308.878 27.5142 309.342 27.2854C309.812 27.0566 310.143 26.8958 310.334 26.803C310.409 26.7782 310.511 26.7226 310.641 26.636C310.777 26.5556 310.851 26.5092 310.863 26.4968C311.055 26.3979 311.312 26.2587 311.633 26.0793C311.961 25.9062 312.174 25.7917 312.273 25.7361C312.286 25.7237 312.369 25.6742 312.524 25.5876C312.524 25.5629 312.515 25.5103 312.496 25.4299C312.484 25.3557 312.487 25.3062 312.505 25.2815V24.7156C312.468 23.726 312.632 22.6251 312.997 21.4128C313.201 20.7139 313.619 19.7182 314.249 18.4255C314.818 17.2751 315.387 16.267 315.956 15.4011C316.426 14.6775 316.94 13.9941 317.496 13.3508C317.651 13.1591 317.88 12.9024 318.183 12.5808C318.486 12.2592 318.703 12.0211 318.832 11.8665C319.061 11.5881 319.312 11.3067 319.584 11.0222C319.862 10.7377 320.181 10.4192 320.539 10.0667C320.904 9.71411 321.176 9.44816 321.356 9.2688C321.418 9.20695 321.702 8.95337 322.209 8.50806C323.323 7.55558 324.399 6.75155 325.438 6.09595C325.79 5.86711 326.52 5.45581 327.627 4.86206C328.005 4.64559 328.809 4.32088 330.039 3.88794C330.138 3.8632 330.284 3.81372 330.475 3.7395C330.667 3.66528 330.813 3.6158 330.911 3.59106C331.567 3.43644 332.068 3.35295 332.414 3.34058H332.47C332.625 3.31584 332.758 3.30347 332.869 3.30347C333.314 3.30347 333.726 3.3715 334.103 3.50757C334.61 3.86011 334.966 4.22192 335.17 4.59302C335.374 4.95793 335.476 5.4589 335.476 6.09595C335.464 6.7701 335.259 7.45972 334.864 8.16479C334.789 8.27612 334.663 8.48641 334.483 8.79565C334.304 9.09871 334.146 9.35539 334.01 9.56567C333.88 9.76978 333.747 9.96769 333.611 10.1594C333.537 10.2708 333.404 10.4408 333.212 10.6697C333.021 10.8985 332.888 11.0717 332.813 11.1892C332.448 11.6964 331.753 12.4633 330.726 13.49L329.047 15.0208C329.022 15.0455 328.846 15.1847 328.518 15.4382C327.442 16.3103 326.867 16.7742 326.792 16.8298C325.549 17.7699 324.433 18.5616 323.443 19.2048C323.177 19.3842 322.791 19.6501 322.284 20.0027C321.776 20.3552 321.492 20.55 321.43 20.5872C321.331 20.649 321.074 20.816 320.66 21.0881C320.252 21.3541 319.933 21.5551 319.704 21.6912C319.148 22.0437 318.31 22.5632 317.19 23.2498C317.091 23.324 317.017 23.3765 316.968 23.4075C316.739 23.5064 316.433 23.6765 316.049 23.9177C315.672 24.1589 315.434 24.3043 315.335 24.3538C315.224 24.4156 314.559 24.8022 313.34 25.5134C313.328 25.5258 313.291 25.5505 313.229 25.5876C313.173 25.6248 313.139 25.6495 313.127 25.6619C313.127 26.2432 313.192 26.7319 313.322 27.1277C313.575 27.8637 313.789 28.408 313.962 28.7605C314.327 29.3914 314.865 29.849 315.576 30.1335C315.867 30.2201 316.052 30.3191 316.133 30.4304C316.096 30.5603 316.006 30.6129 315.864 30.5881ZM313.108 25.3186C313.232 25.2196 313.458 25.0805 313.786 24.9011C314.12 24.7279 314.351 24.595 314.481 24.5022C314.71 24.3476 315.06 24.1404 315.53 23.8806C316.006 23.6147 316.352 23.4044 316.569 23.2498C316.692 23.1632 316.968 22.9993 317.394 22.7581C317.821 22.5168 318.14 22.3127 318.35 22.1458C318.375 22.1334 318.409 22.1086 318.452 22.0715C319.442 21.4654 320.518 20.7944 321.681 20.0583C321.909 19.9037 322.243 19.6718 322.682 19.3625C323.128 19.0533 323.465 18.8245 323.694 18.676C323.78 18.6142 323.969 18.4874 324.26 18.2957C324.55 18.1039 324.767 17.9524 324.909 17.8411C325.088 17.6988 325.373 17.4885 325.763 17.2102C326.158 16.9319 326.449 16.7092 326.635 16.5422C326.802 16.3876 327.058 16.1804 327.405 15.9207C327.757 15.6547 328.014 15.4506 328.175 15.3083C328.261 15.2341 328.475 15.0517 328.815 14.761C329.161 14.4703 329.424 14.2415 329.603 14.0745C330.086 13.6292 330.612 13.1096 331.181 12.5159C331.811 11.8293 332.223 11.3469 332.414 11.0686C332.452 11.0068 332.504 10.9325 332.572 10.8459C332.646 10.7594 332.696 10.7006 332.721 10.6697C332.782 10.6078 332.875 10.4687 332.999 10.2522C333.314 9.89966 333.568 9.56567 333.76 9.25024C334.242 8.46476 334.573 7.837 334.752 7.36694C334.919 6.90926 335 6.49797 334.994 6.13306C334.994 5.80526 334.932 5.47437 334.808 5.14038C334.641 4.75073 334.394 4.44149 334.066 4.21265L333.5 3.9436H332.925C332.826 3.95597 332.643 3.98999 332.377 4.04565C331.771 4.13224 331.094 4.3147 330.346 4.59302C329.622 4.88371 328.917 5.20841 328.23 5.56714C327.321 6.06193 326.372 6.65568 325.382 7.34839C325.19 7.47209 324.557 7.94832 323.48 8.7771C323.418 8.81421 323.363 8.86369 323.313 8.92554L321.606 10.5212C321.483 10.6326 321.309 10.7996 321.087 11.0222C320.87 11.2449 320.719 11.3933 320.632 11.4675C320.558 11.5417 320.416 11.7026 320.205 11.95C319.995 12.1912 319.822 12.3612 319.686 12.4602C319.674 12.4602 319.661 12.4695 319.649 12.488C319.636 12.5066 319.621 12.5251 319.602 12.5437C319.59 12.5623 319.578 12.5777 319.565 12.5901C319.336 12.8684 319.216 13.0076 319.203 13.0076C318.684 13.49 317.945 14.4023 316.986 15.7444C316.807 15.9732 316.488 16.4495 316.031 17.1731C315.69 17.6926 315.23 18.4967 314.648 19.5852C314.574 19.7398 314.463 19.9779 314.314 20.2996C314.172 20.6212 314.061 20.8655 313.98 21.0325C313.789 21.5025 313.6 22.1148 313.414 22.8694C313.39 22.9683 313.288 23.6982 313.108 25.0588V25.3186ZM336.605 28.4729C336.228 28.4729 335.894 28.442 335.603 28.3801C335.541 28.3554 335.442 28.3368 335.306 28.3245C335.176 28.3121 335.093 28.2997 335.055 28.2874C334.462 28.1637 333.89 27.873 333.339 27.4153C332.807 26.9329 332.408 26.3608 332.142 25.699C331.827 24.8145 331.669 23.9425 331.669 23.0828C331.669 22.9158 331.682 22.6684 331.706 22.3406C331.756 21.7221 331.839 21.2582 331.957 20.949C332.019 20.7572 332.087 20.4604 332.161 20.0583C332.198 19.8542 332.377 19.3162 332.699 18.4441C333.002 17.5844 333.336 16.8422 333.701 16.2175C333.75 16.1557 333.815 16.0629 333.896 15.9392C333.97 15.7475 334.063 15.565 334.174 15.3918C334.292 15.2125 334.437 15.0022 334.61 14.761C334.79 14.5198 334.91 14.3559 334.972 14.2693C335.046 14.158 335.479 13.5859 336.271 12.553C336.425 12.3736 336.546 12.2468 336.633 12.1726C336.67 12.1355 336.735 12.0582 336.827 11.9407C336.92 11.817 337.001 11.7242 337.069 11.6624C337.211 11.5077 337.647 11.0655 338.377 10.3357L338.739 10.0481C339.116 9.65845 339.648 9.20076 340.334 8.67505C340.916 8.22974 341.664 7.74422 342.579 7.21851C342.746 7.13192 343.068 6.98657 343.544 6.78247C344.837 6.28768 345.647 6.00627 345.975 5.93823C346.569 5.8269 347.07 5.76506 347.478 5.75269C347.577 5.75269 347.691 5.74032 347.821 5.71558H348.73C348.829 5.74032 348.993 5.75269 349.222 5.75269C349.946 5.86401 350.512 6.02173 350.92 6.22583C351.668 6.59074 352.293 7.19377 352.794 8.03491C353.264 8.80802 353.499 9.56877 353.499 10.3171C353.499 10.4285 353.486 10.6109 353.462 10.8645C353.437 11.0068 353.36 11.0624 353.23 11.0315C353.168 10.9573 353.137 10.8521 353.137 10.7161C353.137 10.679 353.14 10.6295 353.146 10.5676C353.152 10.4996 353.156 10.4532 353.156 10.4285C353.18 9.66772 352.973 8.99048 352.534 8.39673C352.194 7.92668 351.881 7.58341 351.597 7.36694C351.331 7.18758 351.105 7.05461 350.92 6.96802C350.542 6.76392 350.035 6.66187 349.398 6.66187C348.205 6.66187 347.063 6.85978 345.975 7.25562C344.961 7.63289 344.138 8.02563 343.507 8.43384C342.697 8.941 342.233 9.23169 342.116 9.30591C341.887 9.4729 341.559 9.73267 341.132 10.0852C340.285 10.7408 339.608 11.3438 339.1 11.8943C338.426 12.5684 337.87 13.1807 337.43 13.7312C337.344 13.8425 337.208 14.0002 337.022 14.2043C336.837 14.4084 336.698 14.5693 336.605 14.6868C336.364 14.9775 336.156 15.2496 335.983 15.5032C335.921 15.5898 335.773 15.8093 335.538 16.1619C335.303 16.5082 335.127 16.7742 335.009 16.9597C334.366 18.0854 333.905 19.044 333.627 19.8357C333.324 20.6459 333.12 21.2582 333.014 21.6726C332.872 22.1921 332.804 22.6993 332.81 23.1941C332.823 23.3054 332.829 23.4817 332.829 23.7229C332.829 24.8362 333.058 25.7299 333.515 26.4041C334.19 27.3318 334.916 27.8575 335.696 27.9812C336.116 28.0554 336.534 28.0925 336.948 28.0925H337.597C337.635 28.0802 337.706 28.0709 337.811 28.0647C337.922 28.0585 337.99 28.0554 338.015 28.0554C338.194 28.0554 338.411 28.0307 338.664 27.9812C338.918 27.9317 339.138 27.8792 339.323 27.8235C339.515 27.7678 339.771 27.6905 340.093 27.5916C340.421 27.4988 340.659 27.4338 340.807 27.3967C340.882 27.372 341.033 27.3287 341.262 27.2668C341.491 27.2112 341.67 27.1648 341.8 27.1277C341.899 27.0906 342.304 26.939 343.015 26.6731C343.139 26.6731 343.266 26.6298 343.396 26.5432C343.711 26.4566 344.305 26.2092 345.177 25.801C345.288 25.7515 345.505 25.6526 345.826 25.5042C346.154 25.3557 346.408 25.2382 346.587 25.1516C346.779 25.0527 347.128 24.8547 347.636 24.5579C348.149 24.2548 348.545 24.0352 348.823 23.8992C349.077 23.7569 349.429 23.5404 349.881 23.2498C350.332 22.9591 350.645 22.7642 350.818 22.6653C351.071 22.5107 351.68 22.1117 352.645 21.4685C352.899 21.2891 353.285 21.0077 353.805 20.6243C354.325 20.2346 354.717 19.9439 354.983 19.7522C355.095 19.678 355.252 19.5512 355.456 19.3718C355.66 19.1863 355.793 19.0688 355.855 19.0193C356.022 18.908 356.359 18.6204 356.867 18.1565C357.009 18.0452 357.148 17.9246 357.284 17.7947C357.42 17.6586 357.575 17.4916 357.748 17.2937C357.921 17.0958 358.045 16.9597 358.119 16.8855C358.156 16.8484 358.202 16.7958 358.258 16.7278C358.314 16.6536 358.366 16.5886 358.416 16.533C358.471 16.4773 358.524 16.4247 358.574 16.3752C359.093 15.8805 359.563 15.3114 359.984 14.6682C360.033 14.594 360.12 14.4858 360.243 14.3435C360.373 14.2013 360.463 14.0868 360.513 14.0002C361.131 12.9859 361.579 12.1417 361.858 11.4675C362.148 10.5151 362.306 9.93986 362.331 9.74194C362.356 9.56258 362.377 9.38322 362.396 9.20386C362.421 9.01831 362.439 8.88224 362.451 8.79565C362.464 8.70288 362.476 8.63794 362.489 8.60083C362.526 8.4895 362.544 8.38127 362.544 8.27612C362.544 8.21427 362.532 8.13387 362.507 8.03491C362.458 7.84318 362.433 7.56486 362.433 7.19995C362.433 7.07625 362.408 6.88452 362.359 6.62476C362.167 5.83927 361.938 5.14347 361.672 4.53735C361.48 4.07967 361.245 3.68693 360.967 3.35913C360.41 2.68498 359.854 2.17782 359.297 1.83765C358.778 1.49748 358.125 1.16968 357.34 0.854248C356.455 0.4646 355.555 0.297607 354.64 0.353271C353.687 0.41512 352.812 0.554281 352.014 0.770752C351.872 0.807861 351.708 0.866618 351.523 0.947021C350.836 1.26245 350.134 1.66138 349.417 2.1438C349.052 2.39738 348.774 2.62622 348.582 2.83032C348.427 2.98494 348.319 3.05916 348.257 3.05298C348.232 3.01587 348.22 2.96021 348.22 2.88599C348.22 2.80558 348.263 2.70972 348.35 2.59839C348.474 2.44377 348.91 2.11597 349.658 1.61499C350.394 1.13257 351.124 0.758382 351.847 0.492432C352.002 0.442952 352.451 0.340902 353.193 0.186279C353.725 0.0996908 354.256 0.0563965 354.788 0.0563965C354.992 0.0563965 355.323 0.0687663 355.781 0.0935059C356.492 0.192464 357.043 0.337809 357.432 0.529541C358.676 1.08618 359.517 1.54077 359.956 1.89331C360.259 2.13452 360.608 2.47778 361.004 2.9231C361.196 3.15194 361.505 3.63127 361.932 4.36108C362.284 4.97957 362.507 5.63826 362.6 6.33716C362.649 6.71444 362.693 6.99585 362.73 7.1814C362.792 7.42261 362.826 7.70711 362.832 8.03491C362.832 8.30086 362.813 8.56681 362.776 8.83276C362.652 9.74194 362.504 10.4625 362.331 10.9944C362.257 11.2109 362.213 11.3376 362.201 11.3748C361.57 12.7664 361.116 13.6539 360.837 14.0374C360.126 15.0393 359.746 15.565 359.696 15.6145L358.824 16.6628L358.425 17.136C358.221 17.3648 358.073 17.5102 357.98 17.572C357.788 17.7143 357.346 18.1318 356.653 18.8245C356.424 19.0657 356.165 19.2883 355.874 19.4924C355.8 19.5543 355.518 19.7769 355.03 20.1604C354.541 20.5377 354.158 20.8129 353.879 20.9861C353.725 21.085 353.517 21.2335 353.258 21.4314C353.004 21.6293 352.812 21.7747 352.682 21.8674C351.693 22.523 350.944 23.0024 350.437 23.3054C348.996 24.1899 347.895 24.8238 347.135 25.2073C346.034 25.7639 344.97 26.2525 343.943 26.6731C343.739 26.7597 342.808 27.0875 341.151 27.6565C341.064 27.6936 340.696 27.7957 340.047 27.9626C338.618 28.241 337.839 28.3863 337.709 28.3987C337.393 28.4482 337.025 28.4729 336.605 28.4729Z" fill="black"/>
</svg>
