<svg width="300" height="300" viewBox="0 0 300 300" fill="none" xmlns="http://www.w3.org/2000/svg">
<path d="M190.941 217.213C188.07 217.213 185.434 216.988 183.031 216.539C182.719 216.5 182.221 216.432 181.537 216.334C180.854 216.236 180.346 216.148 180.014 216.07C177.768 215.543 175.072 214.723 171.928 213.609C169.135 212.613 166.391 211.051 163.695 208.922C162.582 208.082 161.01 206.422 158.979 203.941C158.9 203.746 158.725 203.512 158.451 203.238C158.197 202.945 158.051 202.76 158.012 202.682C156.684 200.553 155.561 198.229 154.643 195.709C154.604 195.514 154.486 195.035 154.291 194.273C154.096 193.512 153.93 192.975 153.793 192.662C153.402 193.111 153.051 193.59 152.738 194.098C150.98 196.5 149.799 198.062 149.193 198.785C148.842 199.234 148.402 199.918 147.875 200.836C147.348 201.754 146.986 202.35 146.791 202.623C145.99 203.912 145.189 205.631 144.389 207.779C144.232 208.541 143.891 209.02 143.363 209.215C143.246 208.941 143.188 208.658 143.188 208.365C143.188 208.092 143.266 207.721 143.422 207.252C144.457 204.459 146.098 201.471 148.344 198.287C149.105 197.213 150.326 195.602 152.006 193.453C152.357 193.062 152.797 192.438 153.324 191.578C153.168 190.973 153.041 190.279 152.943 189.498C152.846 188.717 152.748 187.857 152.65 186.92C152.572 185.982 152.494 185.26 152.416 184.752C152.299 184.264 152.24 182.955 152.24 180.826C152.24 180.221 152.299 179.625 152.416 179.039C152.494 178.512 152.582 177.77 152.68 176.812C152.797 175.855 152.875 175.24 152.914 174.967C152.914 174.889 152.924 174.781 152.943 174.645C152.963 174.488 152.982 174.352 153.002 174.234C153.021 174.117 153.051 174 153.09 173.883C153.93 171.09 154.447 169.43 154.643 168.902C155.033 167.906 155.756 166.402 156.811 164.391C157.084 163.863 157.846 162.643 159.096 160.729C161.381 157.33 164.115 154.195 167.299 151.324C167.982 150.719 169.145 149.762 170.785 148.453C172.016 147.496 173.9 146.334 176.439 144.967C178.686 143.678 181.137 142.594 183.793 141.715C186.625 140.758 188.949 140.143 190.766 139.869C192.797 139.42 193.9 139.176 194.076 139.137C194.721 139.02 195.658 138.883 196.889 138.727C198.119 138.57 198.842 138.473 199.057 138.434C200.502 138.199 202.758 137.994 205.824 137.818C205.941 137.779 206.127 137.76 206.381 137.76C206.576 137.76 206.869 137.799 207.26 137.877H209.896C210.971 137.877 212.055 137.994 213.148 138.229C214.906 138.307 217.123 138.688 219.799 139.371C220.033 139.41 220.355 139.518 220.766 139.693C221.176 139.85 221.479 139.928 221.674 139.928C222.396 140.084 223.373 140.484 224.604 141.129C225.854 141.754 226.615 142.135 226.889 142.271C228.295 142.994 229.652 143.932 230.961 145.084C233.09 146.881 234.672 149.576 235.707 153.17C236.43 155.377 236.908 157.438 237.143 159.352C237.377 159.312 237.816 159.254 238.461 159.176C241.625 158.902 243.764 158.668 244.877 158.473C245.795 158.434 247.338 158.307 249.506 158.092C249.623 158.053 249.828 158.023 250.121 158.004C250.434 157.984 250.629 157.975 250.707 157.975C250.785 157.975 250.922 157.945 251.117 157.887C251.332 157.828 251.479 157.799 251.557 157.799C251.908 157.799 252.162 157.779 252.318 157.74C253.998 157.584 254.965 157.486 255.219 157.447C256.098 157.447 256.732 157.389 257.123 157.271L258.031 157.066C258.793 157.027 259.848 156.93 261.195 156.773C262.562 156.617 263.402 156.52 263.715 156.48C266.996 156.129 268.725 155.953 268.9 155.953C269.896 155.875 271.557 155.592 273.881 155.104C274.643 154.947 275.717 154.693 277.104 154.342C278.51 153.971 279.447 153.727 279.916 153.609C280.268 153.531 281.068 153.111 282.318 152.35C284.955 150.592 288.139 149.068 291.869 147.779C292.592 147.584 293.49 147.486 294.564 147.486C295.365 147.486 296.01 147.545 296.498 147.662C296.85 147.936 297.006 148.297 296.967 148.746C296.928 148.785 296.869 148.863 296.791 148.98C296.713 149.098 296.635 149.176 296.557 149.215L293.246 150.65C290.922 151.568 288.5 152.887 285.98 154.605C284.652 155.562 282.855 156.949 280.59 158.766C278.871 160.172 276.449 162.467 273.324 165.65C271.723 167.252 270.541 168.453 269.779 169.254C269.213 169.82 268.305 170.816 267.055 172.242C265.805 173.648 264.818 174.732 264.096 175.494C262.416 177.291 260.717 179.049 258.998 180.768C258.197 181.568 256.537 183.219 254.018 185.719C251.498 188.219 249.535 190.152 248.129 191.52C247.641 192.008 246.098 193.346 243.5 195.533L242.738 196.266L242.064 196.91C241.713 197.145 240.219 198.326 237.582 200.455C235.629 202.018 233.988 203.219 232.66 204.059C232.211 204.332 231.537 204.791 230.639 205.436C229.74 206.08 229.018 206.578 228.471 206.93C227.943 207.301 227.27 207.721 226.449 208.189C225.629 208.678 224.857 209.078 224.135 209.391C223.451 209.664 222.426 210.172 221.059 210.914C218.852 212.066 216.752 212.945 214.76 213.551C214.564 213.629 214.271 213.746 213.881 213.902C213.51 214.059 213.246 214.156 213.09 214.195C212.523 214.391 210.238 214.908 206.234 215.748C204.75 216.1 202.455 216.48 199.35 216.891C197.357 217.086 196.176 217.193 195.805 217.213C195.316 217.213 194.867 217.213 194.457 217.213C194.047 217.213 193.51 217.213 192.846 217.213C192.182 217.213 191.547 217.213 190.941 217.213ZM154.291 190.377L156.254 188.268C158.051 186.471 159.076 185.475 159.33 185.279C161.166 183.678 163.109 182.154 165.16 180.709C166.449 179.791 167.66 179.039 168.793 178.453C169.066 178.297 169.945 177.799 171.43 176.959C172.914 176.1 174.076 175.494 174.916 175.143C175.404 174.947 176.098 174.635 176.996 174.205C177.895 173.756 178.51 173.443 178.842 173.268C181.244 172.193 183.383 171.256 185.258 170.455C186.898 169.693 188.275 169.137 189.389 168.785C189.779 168.668 190.551 168.443 191.703 168.111C192.875 167.76 193.764 167.467 194.369 167.232C195.053 166.998 196.049 166.705 197.357 166.354C198.686 166.002 199.633 165.729 200.199 165.533C200.688 165.377 201.664 165.123 203.129 164.771C203.441 164.693 204.662 164.4 206.791 163.893C208.939 163.385 210.58 163.014 211.713 162.779C212.24 162.662 212.992 162.555 213.969 162.457C214.945 162.359 215.609 162.271 215.961 162.193C216.527 162.115 217.387 161.959 218.539 161.725C219.711 161.471 220.609 161.285 221.234 161.168C224.105 160.68 226.791 160.338 229.291 160.143C229.643 160.104 230.17 160.045 230.873 159.967C231.576 159.889 232.104 159.83 232.455 159.791C232.611 159.752 232.836 159.713 233.129 159.674C233.441 159.615 233.686 159.566 233.861 159.527C233.295 156.246 232.807 153.971 232.396 152.701C231.518 149.498 230.102 147.115 228.148 145.553C225.395 143.385 223.09 142.008 221.234 141.422C220.707 141.266 220.023 141.031 219.184 140.719C218.363 140.387 217.611 140.123 216.928 139.928C216.244 139.713 215.561 139.547 214.877 139.43C214.643 139.391 214.115 139.273 213.295 139.078C212.475 138.883 211.869 138.805 211.479 138.844C211.283 138.883 211.02 138.883 210.688 138.844C210.375 138.805 210.15 138.785 210.014 138.785C209.447 138.668 208.393 138.609 206.85 138.609C205.697 138.609 204.477 138.707 203.188 138.902C202.309 138.941 200.17 139.225 196.771 139.752C196.01 139.83 194.955 139.986 193.607 140.221C192.279 140.455 191.371 140.611 190.883 140.689C190.16 140.807 189.398 140.992 188.598 141.246C187.797 141.48 186.869 141.793 185.814 142.184C184.76 142.555 184.008 142.818 183.559 142.975C183.168 143.092 182.611 143.316 181.889 143.648C181.771 143.688 181.537 143.775 181.186 143.912C180.854 144.049 180.59 144.156 180.395 144.234C179.828 144.391 179.281 144.605 178.754 144.879C178.246 145.133 177.611 145.484 176.85 145.934C176.088 146.363 175.59 146.637 175.355 146.754C174.398 147.281 173.539 147.779 172.777 148.248C170.219 149.967 168.1 151.773 166.42 153.668C166.342 153.785 166.195 153.902 165.98 154.02C165.785 154.137 165.648 154.234 165.57 154.312C165.336 154.547 164.857 155.152 164.135 156.129C163.979 156.363 163.725 156.666 163.373 157.037C163.041 157.389 162.816 157.643 162.699 157.799C160.746 160.357 159.604 161.939 159.271 162.545C157.514 165.631 156.352 168.014 155.785 169.693C154.906 172.564 154.369 174.322 154.174 174.967C153.783 176.568 153.578 178.082 153.559 179.508C153.48 181.109 153.441 181.998 153.441 182.174C153.441 182.818 153.5 183.756 153.617 184.986C153.715 186.939 153.939 188.736 154.291 190.377ZM188.305 215.338H192.26C192.377 215.338 192.67 215.328 193.139 215.309C193.607 215.289 194.145 215.26 194.75 215.221C195.375 215.182 195.99 215.123 196.596 215.045C197.436 214.967 198.441 214.82 199.613 214.605C200.805 214.41 201.576 214.293 201.928 214.254C202.494 214.215 203.305 214.029 204.359 213.697C205.414 213.385 206.088 213.209 206.381 213.17C208.627 212.604 211.166 211.764 213.998 210.65C214.232 210.533 214.73 210.289 215.492 209.918C216.254 209.566 216.83 209.312 217.221 209.156C219.018 208.473 220.678 207.633 222.201 206.637C222.475 206.48 222.875 206.227 223.402 205.875C223.93 205.543 224.398 205.24 224.809 204.967C225.238 204.713 225.629 204.488 225.98 204.293C226.508 204.02 227.016 203.707 227.504 203.355C228.012 202.984 228.568 202.574 229.174 202.125C229.779 201.656 230.238 201.305 230.551 201.07C231.039 200.719 231.752 200.172 232.689 199.43C233.627 198.668 234.33 198.111 234.799 197.76C237.807 195.279 240.365 193.023 242.475 190.992C243.666 189.801 244.555 189 245.141 188.59C245.297 188.473 245.609 188.131 246.078 187.564C246.156 187.486 246.303 187.311 246.518 187.037C246.752 186.744 246.928 186.559 247.045 186.48C247.357 186.246 248.197 185.387 249.564 183.902L253.344 180.123C255.258 178.209 256.479 176.949 257.006 176.344C259.721 173.219 261.381 171.354 261.986 170.748L262.66 170.104C262.895 169.83 263.451 169.244 264.33 168.346C265.209 167.428 265.844 166.695 266.234 166.148C268.949 163.355 271.371 161.031 273.5 159.176C275.297 157.574 276.537 156.539 277.221 156.07C277.533 155.875 277.973 155.494 278.539 154.928C278.383 154.967 277.943 155.084 277.221 155.279C276.498 155.475 276 155.592 275.727 155.631C275.277 155.709 274.457 155.875 273.266 156.129C272.543 156.285 271.42 156.48 269.896 156.715C269.447 156.793 268.148 156.939 266 157.154C263.871 157.467 262.338 157.662 261.4 157.74C261.088 157.779 260.434 157.867 259.438 158.004C258.461 158.141 257.689 158.209 257.123 158.209C256.732 158.209 256.43 158.189 256.215 158.15C255.492 158.268 254.633 158.355 253.637 158.414C252.641 158.453 251.947 158.492 251.557 158.531C251.518 158.531 251.43 158.541 251.293 158.561C251.176 158.58 251.098 158.609 251.059 158.648C250.57 158.805 249.857 158.883 248.92 158.883C248.354 158.883 247.934 158.902 247.66 158.941C247.309 158.98 246.527 159.059 245.316 159.176C244.105 159.293 243.158 159.41 242.475 159.527C241.986 159.605 241.4 159.684 240.717 159.762C240.053 159.82 239.486 159.869 239.018 159.908C238.666 159.908 238.1 159.986 237.318 160.143C237.475 162.057 237.562 163.111 237.582 163.307C237.582 165.787 237.182 168.375 236.381 171.07C236.107 172.105 235.404 173.883 234.271 176.402C233.197 179 231.371 181.715 228.793 184.547C226.879 186.539 225.668 187.76 225.16 188.209C225.121 188.248 224.564 188.678 223.49 189.498C222.436 190.318 221.371 191.129 220.297 191.93C219.242 192.73 218.461 193.297 217.953 193.629C216 194.859 213.9 195.973 211.654 196.969C209.701 197.848 208.48 198.375 207.992 198.551C205.746 199.312 203.686 199.83 201.811 200.104C201.01 200.182 200.287 200.221 199.643 200.221C198.607 200.221 197.484 200.143 196.273 199.986C194.555 199.674 192.621 199.01 190.473 197.994C190.238 197.877 190.033 197.74 189.857 197.584C188.822 196.939 188.285 196.52 188.246 196.324C188.207 196.207 188.227 196.07 188.305 195.914C188.383 195.68 188.461 195.553 188.539 195.533L189.682 196.324C190.6 197.008 192.006 197.623 193.9 198.17C195.092 198.619 196.586 198.883 198.383 198.961C200.902 199.117 203.705 198.58 206.791 197.35C210.072 196.119 212.787 194.82 214.936 193.453C217.006 192.086 219.486 190.104 222.377 187.506C222.689 187.232 223.197 186.656 223.9 185.777C224.604 184.879 225.102 184.293 225.395 184.02C226.84 182.027 228.021 180.27 228.939 178.746C230.619 176.031 231.791 173.609 232.455 171.48C232.611 171.031 232.797 170.377 233.012 169.518C233.246 168.658 233.402 168.092 233.48 167.818C233.793 166.744 233.939 165.748 233.92 164.83C233.92 164.518 233.93 164.039 233.949 163.395C233.969 162.75 233.979 162.262 233.979 161.93C233.939 161.812 233.92 161.578 233.92 161.227C233.92 160.855 233.92 160.553 233.92 160.318C233.568 160.318 233.188 160.357 232.777 160.436C232.621 160.436 232.377 160.475 232.045 160.553C231.732 160.631 231.498 160.67 231.342 160.67C230.854 160.748 230.16 160.846 229.262 160.963C228.363 161.061 227.689 161.129 227.24 161.168C223.725 161.734 221.088 162.174 219.33 162.486C218.979 162.564 218.422 162.643 217.66 162.721C216.898 162.799 216.332 162.877 215.961 162.955C215.082 163.15 213.744 163.424 211.947 163.775C210.15 164.107 208.793 164.371 207.875 164.566C205.707 165.055 202.221 165.963 197.416 167.291C195.775 167.682 194.057 168.199 192.26 168.844C191.732 169.039 190.941 169.312 189.887 169.664C188.832 169.996 188.041 170.26 187.514 170.455C186.83 170.729 185.805 171.158 184.438 171.744C183.09 172.33 182.084 172.76 181.42 173.033C181.342 173.072 181.117 173.17 180.746 173.326C180.395 173.463 180.131 173.59 179.955 173.707C179.604 173.98 179.193 174.234 178.725 174.469C178.275 174.684 177.777 174.898 177.23 175.113C176.703 175.328 176.273 175.514 175.941 175.67C174.984 176.197 173.549 176.939 171.635 177.896C171.068 178.209 168.861 179.547 165.014 181.91C164.818 182.027 164.574 182.223 164.281 182.496C163.988 182.75 163.773 182.916 163.637 182.994C162.914 183.482 161.635 184.527 159.799 186.129C157.963 187.77 156.244 189.566 154.643 191.52C155.131 193.551 155.59 195.113 156.02 196.207C156.664 197.77 157.445 199.43 158.363 201.188C158.969 202.34 160.453 204.137 162.816 206.578C164.223 207.984 165.844 209.146 167.68 210.064C170.766 211.666 173.344 212.721 175.414 213.229C175.531 213.268 175.941 213.375 176.645 213.551C177.348 213.746 177.875 213.883 178.227 213.961C179.379 214.273 181.117 214.576 183.441 214.869C185.961 215.143 187.582 215.299 188.305 215.338Z" fill="white"/>
<path d="M162.12 135.288C161.592 135.288 161.076 135.222 160.572 135.09C160.068 134.97 159.612 134.772 159.204 134.496C158.808 134.208 158.49 133.842 158.25 133.398C158.01 132.942 157.89 132.396 157.89 131.76C157.89 130.98 158.142 130.29 158.646 129.69C159.162 129.09 159.852 128.604 160.716 128.232C160.404 127.824 160.146 127.446 159.942 127.098C159.738 126.738 159.588 126.384 159.492 126.036C159.396 125.676 159.348 125.31 159.348 124.938C159.36 124.074 159.678 123.39 160.302 122.886C160.926 122.37 161.718 122.112 162.678 122.112C163.29 122.112 163.818 122.226 164.262 122.454C164.718 122.67 165.066 122.97 165.306 123.354C165.558 123.726 165.684 124.152 165.684 124.632C165.684 125.076 165.588 125.502 165.396 125.91C165.204 126.318 164.892 126.714 164.46 127.098C164.028 127.47 163.452 127.842 162.732 128.214C163.056 128.55 163.41 128.922 163.794 129.33C164.19 129.738 164.586 130.14 164.982 130.536C165.378 130.92 165.738 131.268 166.062 131.58C166.122 131.364 166.164 131.16 166.188 130.968C166.224 130.764 166.242 130.584 166.242 130.428C166.242 130.152 166.2 129.882 166.116 129.618C166.044 129.342 165.906 129.114 165.702 128.934C165.51 128.742 165.234 128.64 164.874 128.628V128.034H168.024V128.772L166.53 128.7C166.722 128.856 166.86 129.06 166.944 129.312C167.028 129.564 167.076 129.858 167.088 130.194C167.1 130.422 167.076 130.716 167.016 131.076C166.968 131.424 166.872 131.79 166.728 132.174C166.86 132.294 166.998 132.426 167.142 132.57C167.298 132.702 167.46 132.84 167.628 132.984C168.168 133.464 168.63 133.824 169.014 134.064C169.41 134.292 169.704 134.406 169.896 134.406V135H168.222C168.114 135 167.868 134.892 167.484 134.676C167.112 134.448 166.614 134.058 165.99 133.506C165.606 133.998 165.096 134.418 164.46 134.766C163.836 135.114 163.056 135.288 162.12 135.288ZM162.336 134.388C163.092 134.412 163.716 134.292 164.208 134.028C164.712 133.752 165.114 133.41 165.414 133.002C165.33 132.918 165.246 132.84 165.162 132.768C165.078 132.684 164.988 132.6 164.892 132.516C164.088 131.724 163.374 131.022 162.75 130.41C162.138 129.798 161.616 129.246 161.184 128.754C160.8 128.982 160.5 129.264 160.284 129.6C160.068 129.936 159.912 130.272 159.816 130.608C159.732 130.944 159.69 131.238 159.69 131.49C159.69 132.15 159.816 132.69 160.068 133.11C160.332 133.53 160.662 133.842 161.058 134.046C161.466 134.25 161.892 134.364 162.336 134.388ZM162.336 127.782C163.008 127.338 163.506 126.846 163.83 126.306C164.154 125.754 164.316 125.214 164.316 124.686C164.316 124.11 164.166 123.636 163.866 123.264C163.566 122.88 163.14 122.688 162.588 122.688C162.096 122.688 161.682 122.874 161.346 123.246C161.022 123.606 160.86 124.122 160.86 124.794C160.86 125.31 160.998 125.82 161.274 126.324C161.562 126.828 161.916 127.314 162.336 127.782Z" fill="white"/>
<path d="M204.902 67.3887C204.98 68.0332 204.834 68.834 204.463 69.791C201.943 76.3145 198.965 81.4512 195.527 85.2012C194.082 86.8027 191.758 88.9219 188.555 91.5586C187.988 91.9492 187.295 92.5254 186.475 93.2871C183.994 95.2012 180.957 97.1055 177.363 99C175.234 100.074 173.311 101.012 171.592 101.812C171.064 102.125 168.984 103.023 165.352 104.508C165.156 104.586 164.873 104.693 164.502 104.83C164.15 104.947 163.838 105.045 163.564 105.123C163.311 105.201 163.066 105.279 162.832 105.357C161.797 105.846 160.332 106.383 158.438 106.969C157.676 107.164 156.797 107.447 155.801 107.818C153.477 108.58 151.523 109.156 149.941 109.547C149.258 109.703 148.252 109.996 146.924 110.426C145.615 110.855 144.639 111.168 143.994 111.363C139.756 112.555 136.494 113.414 134.209 113.941C133.975 113.98 133.604 114.068 133.096 114.205C132.607 114.342 132.217 114.43 131.924 114.469C130.283 114.918 127.959 115.484 124.951 116.168C121.963 116.852 119.287 117.506 116.924 118.131C115.322 118.619 114.004 118.961 112.969 119.156C109.609 119.957 106.631 120.719 104.033 121.441C103.311 121.52 102.373 121.676 101.221 121.91C100.068 122.184 98.8477 122.486 97.5586 122.818C97.4023 122.936 97.1875 123.102 96.9141 123.316C96.6602 123.512 96.4746 123.668 96.3574 123.785C96.123 123.98 95.7812 124.264 95.332 124.635C94.8828 124.986 94.4727 125.318 94.1016 125.631C93.75 125.924 93.418 126.207 93.1055 126.48L89.1504 129.85C86.8262 132.096 85.1074 133.814 83.9941 135.006C82.1973 136.842 80.459 138.824 78.7793 140.953C77.373 142.789 75.9668 144.82 74.5605 147.047C73.1152 149.371 72.0215 151.578 71.2793 153.668C71.2793 153.707 71.2695 153.727 71.25 153.727C71.2305 153.727 71.2207 153.746 71.2207 153.785C70.3809 157.105 69.9414 159.02 69.9023 159.527C69.9023 159.605 69.8828 159.732 69.8438 159.908C69.8242 160.104 69.8145 160.24 69.8145 160.318C69.8145 162.115 70.5371 163.678 71.9824 165.006C73.1738 166.041 74.3164 166.656 75.4102 166.852C75.9375 166.969 76.416 167.008 76.8457 166.969H76.9629C77.0801 166.969 77.2266 167.057 77.4023 167.232V167.291C77.4023 167.447 77.2559 167.564 76.9629 167.643C76.4746 167.799 75.9961 167.877 75.5273 167.877C74.8438 167.877 74.2285 167.74 73.6816 167.467C71.5527 166.471 69.8438 164.664 68.5547 162.047C68.3203 161.48 68.2031 160.689 68.2031 159.674C68.2031 158.951 68.2227 158.404 68.2617 158.033C68.3789 155.865 69.1211 153.023 70.4883 149.508C71.0547 148.18 72.1582 146.119 73.7988 143.326C74.0332 142.838 74.8926 141.578 76.377 139.547C78.3301 136.793 80.4688 134.176 82.793 131.695C84.668 129.742 85.9473 128.463 86.6309 127.857C87.3926 127.174 88.5156 126.09 90 124.605C89.7656 124.684 89.4043 124.771 88.916 124.869C88.4277 124.986 87.9102 125.084 87.3633 125.162C87.1289 125.201 85.4395 125.543 82.2949 126.188C82.1387 126.227 81.6504 126.334 80.8301 126.51C80.0098 126.686 79.3848 126.812 78.9551 126.891C78.1934 127.047 77.4023 127.252 76.582 127.506C75.7617 127.74 74.8828 128.004 73.9453 128.297C73.0078 128.57 72.2754 128.785 71.748 128.941C70.7129 129.332 69.5898 129.693 68.3789 130.025L64.4238 131.285C62.666 131.891 61.2695 132.311 60.2344 132.545C59.7461 132.662 59.1406 132.838 58.418 133.072L57.1582 133.629C55.4004 134.156 53.2422 134.996 50.6836 136.148C49.2383 136.871 48.3203 137.311 47.9297 137.467C47.4023 137.701 46.8262 137.896 46.2012 138.053C45.4004 138.365 44.6777 138.707 44.0332 139.078C43.3496 139.352 42.8125 139.693 42.4219 140.104C42.6172 140.143 42.5488 140.221 42.2168 140.338C41.1426 140.65 40.1465 141.031 39.2285 141.48C37.998 142.164 36.9629 142.809 36.123 143.414C35.0879 144.215 34.0039 144.869 32.8711 145.377C31.875 145.943 30.6152 146.861 29.0918 148.131C28.8574 148.287 28.4961 148.541 28.0078 148.893C27.5195 149.264 27.1582 149.537 26.9238 149.713C23.7207 152.193 20.4199 155.367 17.0215 159.234C14.7754 161.793 12.9199 165.172 11.4551 169.371C11.6113 169.645 11.748 170.006 11.8652 170.455C12.0215 170.689 12.1191 170.895 12.1582 171.07C12.041 171.559 11.8066 171.891 11.4551 172.066C10.9668 172.262 10.3418 172.369 9.58008 172.389L9.4043 172.066C9.24805 171.715 9.28711 171.236 9.52148 170.631C9.87305 168.756 11.1523 166.021 13.3594 162.428C14.6875 160.221 17.168 157.379 20.8008 153.902C23.5938 151.188 27.1191 148.307 31.377 145.26C35.5371 142.291 38.8379 140.27 41.2793 139.195C42.002 138.883 43.5938 138.102 46.0547 136.852L47.6953 136.031C49.6484 135.035 51.084 134.469 52.002 134.332C52.5293 134.176 52.8125 134.059 52.8516 133.98C53.8086 133.414 55.2051 132.838 57.041 132.252C58.8379 131.568 59.8242 131.188 60 131.109C60.1172 131.148 60.3906 131.061 60.8203 130.846C61.543 130.729 62.2852 130.562 63.0469 130.348C63.8086 130.133 64.6973 129.85 65.7129 129.498C66.7285 129.127 67.4805 128.863 67.9688 128.707C71.2109 127.711 73.1934 127.125 73.916 126.949C74.4043 126.832 75.0781 126.656 75.9375 126.422C76.8164 126.188 77.3438 126.051 77.5195 126.012C79.2383 125.445 81.0938 125.006 83.0859 124.693C84.1992 124.498 85.625 124.195 87.3633 123.785C87.5977 123.746 87.9492 123.668 88.418 123.551C88.9062 123.414 89.248 123.326 89.4434 123.287C89.6387 123.248 90.0781 123.15 90.7617 122.994C91.4453 122.838 91.9629 122.721 92.3145 122.643L95.332 120.006C96.3672 119.049 97.2656 118.326 98.0273 117.838C98.4766 117.604 99.6582 116.549 101.572 114.674L106.787 110.572C106.982 110.416 107.969 109.635 109.746 108.229C111.543 106.803 112.959 105.768 113.994 105.123C114.072 105.045 114.268 104.889 114.58 104.654C116.377 103.131 118.779 101.305 121.787 99.1758C123.115 98.2188 124.238 97.3594 125.156 96.5977C125.352 96.4805 125.703 96.2266 126.211 95.8359C126.738 95.4258 127.168 95.123 127.5 94.9277C127.734 94.7715 130.586 92.7695 136.055 88.9219C136.816 88.3945 137.969 87.623 139.512 86.6074C141.055 85.5918 142.207 84.8203 142.969 84.293C143.652 83.8438 145.117 82.8281 147.363 81.2461C148.242 80.6797 148.896 80.2793 149.326 80.0449C150.127 79.5176 151.025 78.8535 152.021 78.0527C150.732 78.3652 149.111 78.707 147.158 79.0781C146.885 79.1172 146.104 79.293 144.814 79.6055C143.545 79.8984 142.549 80.0645 141.826 80.1035C141.338 80.1426 140.654 80.2109 139.775 80.3086C138.896 80.4062 138.34 80.4746 138.105 80.5137C137.832 80.5527 136.943 80.6699 135.439 80.8652C133.936 81.041 132.744 81.1094 131.865 81.0703H129.463C128.975 81.0312 128.398 81.0312 127.734 81.0703C127.09 81.1094 126.709 81.1289 126.592 81.1289C126.357 81.168 126.094 81.1973 125.801 81.2168C125.527 81.2363 125.225 81.2559 124.893 81.2754C124.58 81.2949 124.346 81.3047 124.189 81.3047C123.838 81.3047 123.35 81.334 122.725 81.3926C122.1 81.4512 121.631 81.4805 121.318 81.4805C121.123 81.5195 120.859 81.5488 120.527 81.5684C120.215 81.5879 120 81.5977 119.883 81.5977C119.121 81.5977 118.516 81.6172 118.066 81.6562C117.422 81.7344 116.943 81.7734 116.631 81.7734C116.475 81.7734 116.152 81.7832 115.664 81.8027C115.195 81.8223 114.756 81.8516 114.346 81.8906C114.111 81.9688 113.936 82.0078 113.818 82.0078C112.061 82.125 109.355 82.6328 105.703 83.5312C102.227 84.4102 98.7695 85.709 95.332 87.4277C94.5312 87.8184 92.0898 89.0586 88.0078 91.1484C83.8477 93.3945 80.9668 95.0938 79.3652 96.2461C79.0918 96.4414 78.6816 96.7539 78.1348 97.1836C77.5879 97.5938 77.1777 97.8965 76.9043 98.0918C76.8652 98.1309 76.7773 98.2383 76.6406 98.4141C76.5039 98.5703 76.3965 98.6973 76.3184 98.7949C76.2402 98.8926 76.1133 98.9902 75.9375 99.0879C75.7812 99.1855 75.6445 99.2344 75.5273 99.2344C75.4102 99.0781 75.3516 98.9609 75.3516 98.8828C75.3516 98.8047 75.5859 98.5215 76.0547 98.0332C76.8945 97.3105 77.5977 96.7539 78.1641 96.3633C80.8008 94.5273 83.6621 92.8086 86.748 91.207C90.1465 89.4102 92.168 88.3457 92.8125 88.0137C95.5664 86.5684 97.8613 85.5332 99.6973 84.9082C102.666 83.7949 105.166 83.0527 107.197 82.6816C108.154 82.4082 109.355 82.1738 110.801 81.9785C112.246 81.7637 113.145 81.6172 113.496 81.5391C113.77 81.4609 114.189 81.4219 114.756 81.4219C115.361 81.4219 115.967 81.3633 116.572 81.2461C116.689 81.2461 116.914 81.2363 117.246 81.2168C117.598 81.1973 117.852 81.1875 118.008 81.1875C118.848 81.1875 120.625 81.041 123.34 80.748C123.379 80.709 123.779 80.709 124.541 80.748H125.684C125.84 80.748 126.582 80.7285 127.91 80.6895C129.238 80.6504 130.439 80.6113 131.514 80.5723H131.865C132.822 80.5332 133.906 80.4551 135.117 80.3379C136.348 80.2207 137.168 80.1426 137.578 80.1035C138.34 80.0645 140.273 79.8008 143.379 79.3125C145.059 79.0781 147.158 78.6387 149.678 77.9941L151.846 77.4668C153.076 77.1934 154.297 76.7148 155.508 76.0312C157.578 74.8789 159.18 74.1953 160.312 73.9805C160.918 74.293 161.172 74.7324 161.074 75.2988C160.879 75.748 160.4 76.207 159.639 76.6758C156.318 79 154.326 80.4844 153.662 81.1289C153.271 81.4414 152.949 81.6562 152.695 81.7734C151.738 82.3398 150.654 83.1406 149.443 84.1758C148.408 85.0938 147.529 85.7383 146.807 86.1094C146.24 86.4219 145.342 87.0371 144.111 87.9551C142.9 88.873 141.943 89.5176 141.24 89.8887L140.977 90.123C139.785 91.1191 138.271 92.1934 136.436 93.3457C134.072 94.9863 132.627 96.0312 132.1 96.4805C131.787 96.7148 130.859 97.3789 129.316 98.4727C127.773 99.5469 126.621 100.406 125.859 101.051C125.41 101.402 124.746 101.891 123.867 102.516C123.008 103.141 122.49 103.512 122.314 103.629C121.963 103.902 121.406 104.322 120.645 104.889C119.883 105.436 119.307 105.855 118.916 106.148C118.115 106.754 116.943 107.652 115.4 108.844C113.857 110.035 112.686 110.914 111.885 111.48C110.479 112.398 108.682 113.756 106.494 115.553C103.252 118.072 101.055 119.811 99.9023 120.768L99.8145 120.826C99.8535 120.787 99.9219 120.758 100.02 120.738C100.137 120.719 100.215 120.709 100.254 120.709C102.012 120.064 103.613 119.752 105.059 119.771C106.172 119.42 106.924 119.176 107.314 119.039C107.725 118.883 108.154 118.746 108.604 118.629C109.072 118.512 109.404 118.443 109.6 118.424C109.814 118.404 110.303 118.326 111.064 118.189C111.846 118.033 112.705 117.857 113.643 117.662C114.248 117.545 114.893 117.389 115.576 117.193C116.279 116.979 116.709 116.852 116.865 116.812C120.107 115.973 121.973 115.475 122.461 115.318C123.418 115.084 125.293 114.596 128.086 113.854C130.879 113.111 133.018 112.564 134.502 112.213C136.787 111.764 138.945 111.217 140.977 110.572C141.426 110.455 142.148 110.25 143.145 109.957C144.141 109.645 144.902 109.43 145.43 109.312C146.27 109.117 148.848 108.336 153.164 106.969C154.395 106.695 155.898 106.236 157.676 105.592C158.027 105.475 158.721 105.27 159.756 104.977C160.811 104.664 161.592 104.41 162.1 104.215C163.213 103.863 164.531 103.365 166.055 102.721C168.848 101.529 170.537 100.787 171.123 100.494L173.643 99.2344C173.877 99.1172 174.18 98.9609 174.551 98.7656C174.941 98.5703 175.215 98.4238 175.371 98.3262C176.562 97.6426 177.246 97.2715 177.422 97.2129C178.906 96.4512 179.961 95.8457 180.586 95.3965C180.781 95.2012 181.084 95.0059 181.494 94.8105C182.139 94.498 182.861 94.0488 183.662 93.4629C184.463 92.877 185.078 92.418 185.508 92.0859C185.957 91.7344 186.748 91.0801 187.881 90.123C189.014 89.166 189.688 88.6094 189.902 88.4531C194.98 84.1758 198.496 79.7324 200.449 75.123L201.123 73.8047C202.197 71.4805 202.852 69.7031 203.086 68.4727C203.125 68.3945 203.154 68.2773 203.174 68.1211C203.193 67.9453 203.223 67.8086 203.262 67.7109C203.301 67.6133 203.34 67.5156 203.379 67.418C203.418 67.3203 203.477 67.2227 203.555 67.125C203.652 67.0078 203.76 66.9297 203.877 66.8906C204.111 66.7344 204.346 66.7734 204.58 67.0078C204.619 67.0859 204.697 67.1543 204.814 67.2129L204.902 67.3887Z" fill="white"/>
</svg>
