<svg width="262" height="185" viewBox="0 0 262 185" fill="none" xmlns="http://www.w3.org/2000/svg">
<path d="M213.268 86.3347C212.33 86.3347 211.437 86.1853 210.587 85.8865C210.218 85.74 209.875 85.4822 209.559 85.113C209.412 84.8611 209.339 84.5916 209.339 84.3044C209.339 84.2341 209.351 84.1257 209.374 83.9792C209.468 83.5808 209.661 83.1794 209.954 82.7751C210.276 82.3181 210.587 81.9285 210.886 81.6062C211.196 81.2839 211.533 80.9822 211.896 80.7009C212.746 80.0916 213.546 79.6052 214.296 79.2419C214.466 79.1599 214.721 79.0457 215.061 78.8992C215.4 78.7585 215.649 78.6443 215.808 78.5564C216.06 78.4509 216.312 78.363 216.563 78.2927C216.698 78.2693 216.927 78.2019 217.249 78.0906C217.571 77.9851 217.826 77.9207 218.014 77.8972C218.107 77.8855 218.251 77.8474 218.444 77.783C218.638 77.7244 218.79 77.6892 218.901 77.6775C219.06 77.6541 219.276 77.613 219.552 77.5544C219.827 77.4958 220.082 77.446 220.316 77.405C220.551 77.3699 220.768 77.3523 220.967 77.3523C221.061 77.3406 221.204 77.3259 221.397 77.3083C221.591 77.2908 221.737 77.2761 221.837 77.2644C222.522 77.1941 222.874 77.1589 222.892 77.1589C223.513 77.1355 224.031 77.1062 224.447 77.071C224.494 77.0593 224.564 77.0505 224.658 77.0447C224.758 77.0447 224.831 77.0447 224.878 77.0447C224.983 77.033 225.209 77.0242 225.555 77.0183C225.906 77.0125 226.185 76.9978 226.39 76.9744C226.437 76.9861 226.513 76.9919 226.618 76.9919C226.688 76.9919 226.812 76.9802 226.987 76.9568C227.163 76.9333 227.298 76.9275 227.392 76.9392C227.427 76.9392 227.479 76.9363 227.55 76.9304C227.626 76.9246 227.682 76.9216 227.717 76.9216C227.969 76.7166 228.757 76.0076 230.081 74.7947C230.251 74.6248 230.503 74.405 230.837 74.1355C231.171 73.8601 231.391 73.6755 231.496 73.5818C231.607 73.4822 231.798 73.3093 232.067 73.0632C232.337 72.8171 232.551 72.6267 232.709 72.4919L234.054 71.2703C234.774 70.6492 235.202 70.2654 235.337 70.1189C235.431 70.0134 235.539 69.908 235.662 69.8025C235.791 69.6912 235.932 69.5681 236.084 69.4333C236.242 69.2927 236.365 69.1843 236.453 69.1082C236.646 68.9617 236.784 68.8474 236.866 68.7654C237.827 67.8865 238.396 67.365 238.571 67.2009C238.718 67.0544 238.888 66.864 239.081 66.6296C238.062 67.2273 237.52 67.5437 237.455 67.5789C237.338 67.6492 237.121 67.7634 236.805 67.9216C236.494 68.0798 236.239 68.2234 236.04 68.3523C236.005 68.3875 235.938 68.4314 235.838 68.4841C235.574 68.6189 235.015 68.906 234.159 69.3455C233.31 69.7791 232.65 70.1042 232.182 70.321C231.004 70.8953 230.213 71.2527 229.809 71.3933C228.871 71.7273 228.156 71.9265 227.664 71.991C227.518 72.0144 227.336 72.0261 227.119 72.0261C226.908 72.0261 226.677 72.0027 226.425 71.9558C226.173 71.9089 225.927 71.8064 225.687 71.6482C225.446 71.49 225.285 71.3113 225.203 71.1121C225.057 70.8132 224.983 70.4822 224.983 70.1189C224.983 69.3865 225.2 68.6892 225.634 68.0271C226.185 67.1248 226.879 66.1843 227.717 65.2058C227.852 65.071 228.042 64.866 228.288 64.5906C228.534 64.3152 228.675 64.1541 228.71 64.1072C228.997 63.7732 229.267 63.5037 229.519 63.2986C229.636 63.1931 229.75 63.0789 229.861 62.9558C230.617 62.1648 231.15 61.6375 231.461 61.3738C231.643 61.2156 231.892 60.9783 232.208 60.6619C232.53 60.3396 232.727 60.1433 232.797 60.073C232.879 60.0027 233.028 59.8738 233.245 59.6863C233.462 59.4988 233.629 59.3523 233.746 59.2468C234.625 58.4324 235.533 57.6355 236.471 56.8562C236.629 56.7214 237.001 56.4255 237.587 55.9685C237.646 55.9333 237.681 55.9099 237.692 55.8982C238.583 55.1775 239.11 54.741 239.274 54.5886C239.503 54.3601 239.778 54.1492 240.101 53.9558C240.329 53.8386 240.587 53.6511 240.874 53.3933C240.815 53.405 240.739 53.4255 240.646 53.4548C240.558 53.4783 240.481 53.4958 240.417 53.5076C240.353 53.5193 240.303 53.5251 240.268 53.5251H240.232C240.174 53.5251 240.086 53.5398 239.969 53.5691C239.857 53.5984 239.781 53.613 239.74 53.613C239.477 53.613 239.245 53.6365 239.046 53.6833C238.976 53.6833 238.867 53.6892 238.721 53.7009C238.574 53.7126 238.472 53.7185 238.413 53.7185C237.991 53.7185 237.391 53.7009 236.611 53.6658C235.832 53.6306 235.281 53.613 234.959 53.613H234.344H233.122C232.905 53.5896 232.727 53.575 232.586 53.5691C232.451 53.5632 232.34 53.5544 232.252 53.5427C232.17 53.5662 231.962 53.5779 231.628 53.5779C231.593 53.5662 231.543 53.5603 231.479 53.5603C230.805 53.5603 229.803 53.5486 228.473 53.5251C227.143 53.5017 226.146 53.49 225.484 53.49C225.402 53.49 225.276 53.5017 225.106 53.5251C224.989 53.5486 224.869 53.5603 224.746 53.5603C224.506 53.5486 224.181 53.575 223.771 53.6394C223.366 53.7039 223.105 53.7419 222.988 53.7537C222.895 53.7537 222.792 53.7625 222.681 53.78C222.569 53.7976 222.449 53.824 222.32 53.8591C222.197 53.8884 222.101 53.9089 222.03 53.9207C221.298 54.0671 220.844 54.1697 220.668 54.2283C220.551 54.2634 220.293 54.3367 219.895 54.448C219.496 54.5535 219.168 54.6501 218.91 54.738C218.652 54.8259 218.403 54.9314 218.163 55.0544L218.014 55.1072C217.75 55.1892 217.489 55.2888 217.231 55.406C216.974 55.5173 216.648 55.6785 216.256 55.8894C215.869 56.1003 215.623 56.2292 215.518 56.2761C215.301 56.3816 214.861 56.657 214.199 57.1023C214.029 57.2195 213.78 57.4128 213.452 57.6824C213.124 57.946 212.875 58.1365 212.705 58.2537C212.008 58.7693 211.258 59.4607 210.455 60.3279C210.01 60.8083 209.585 61.365 209.181 61.9978C208.759 62.6189 208.466 63.1287 208.302 63.5271C208.208 63.7205 208.111 63.8523 208.012 63.9226C208 63.9343 207.982 63.9578 207.959 63.9929C207.936 64.0222 207.912 64.0427 207.889 64.0544C207.871 64.0662 207.851 64.072 207.827 64.072C207.78 64.0134 207.78 63.9402 207.827 63.8523C207.944 63.4949 208.126 63.1843 208.372 62.9207C208.396 62.8972 208.419 62.8562 208.442 62.7976C208.466 62.7332 208.478 62.6951 208.478 62.6833C208.583 62.4666 208.645 62.3523 208.662 62.3406C208.686 62.3171 208.812 62.1267 209.04 61.7693C209.462 61.1072 209.893 60.5535 210.332 60.1082L211.703 58.7458C211.85 58.6287 211.964 58.5378 212.046 58.4734C212.667 57.946 213.139 57.5623 213.461 57.322C214.287 56.7361 214.858 56.364 215.175 56.2058C215.222 56.1824 215.348 56.1121 215.553 55.9949C215.758 55.8718 215.913 55.781 216.019 55.7224C217.097 55.2185 217.92 54.8582 218.488 54.6414C218.787 54.5242 219.669 54.2546 221.134 53.8328C221.479 53.739 221.875 53.6658 222.32 53.613C222.537 53.5896 222.698 53.5662 222.804 53.5427C222.974 53.5076 223.173 53.4812 223.401 53.4636C223.63 53.4402 223.841 53.4167 224.034 53.3933C224.128 53.3933 224.198 53.3875 224.245 53.3757C224.896 53.3171 225.599 53.2878 226.354 53.2878H226.979C227.506 53.2761 228.259 53.2849 229.237 53.3142C230.216 53.3435 230.922 53.3582 231.355 53.3582C231.725 53.3582 232.012 53.364 232.217 53.3757C232.527 53.3875 232.87 53.3933 233.245 53.3933H234.432H235.029C235.135 53.405 235.36 53.4138 235.706 53.4197C236.058 53.4255 236.33 53.4431 236.523 53.4724C236.67 53.4724 236.884 53.4783 237.165 53.49C237.446 53.5017 237.657 53.5017 237.798 53.49C238.062 53.4666 238.472 53.4402 239.028 53.4109C239.45 53.3757 240.168 53.2556 241.182 53.0505L241.234 52.9978C241.352 52.9744 241.442 52.9626 241.507 52.9626C241.601 52.9626 241.668 52.9744 241.709 52.9978C241.732 53.0095 241.788 53.0447 241.876 53.1033C241.964 53.156 242.034 53.2029 242.087 53.2439C242.146 53.2849 242.175 53.3289 242.175 53.3757C242.175 53.3875 242.169 53.405 242.157 53.4285L242.14 53.49C242.046 53.6365 241.823 53.8826 241.472 54.2283C241.378 54.2986 241.24 54.4158 241.059 54.5798C240.877 54.738 240.739 54.8523 240.646 54.9226C240.417 55.116 240.077 55.3972 239.626 55.7664C239.175 56.1296 238.847 56.3962 238.642 56.5662C238.284 56.8533 238.026 57.0818 237.868 57.2517C237.774 57.3689 237.698 57.4451 237.64 57.4802C237.505 57.5505 237.367 57.6443 237.227 57.7615C237.092 57.8728 236.937 58.0105 236.761 58.1746C236.591 58.3386 236.468 58.45 236.392 58.5085C235.683 59.1062 235.313 59.4314 235.284 59.4841C235.167 59.6189 234.936 59.8328 234.59 60.1257C234.244 60.4128 233.995 60.6472 233.843 60.8289C233.749 60.946 233.515 61.1511 233.14 61.4441C232.853 61.6843 232.51 62.0212 232.111 62.4548C231.906 62.6716 231.678 62.8796 231.426 63.0789C231.256 63.2253 231.083 63.3865 230.907 63.5623C230.737 63.7322 230.547 63.9285 230.336 64.1511C230.131 64.3738 229.967 64.5437 229.844 64.6609C229.41 65.0945 229.091 65.4197 228.886 65.6365C228.669 65.8533 228.358 66.1902 227.954 66.6472C227.655 66.9695 227.151 67.5935 226.442 68.5193C226.12 68.9412 225.892 69.3718 225.757 69.8113C225.698 70.0281 225.669 70.2507 225.669 70.4792C225.669 70.7078 225.704 70.8982 225.774 71.0505L225.977 71.3406C226.146 71.5457 226.375 71.6658 226.662 71.7009C226.879 71.7244 227.04 71.7361 227.146 71.7361C227.544 71.7361 228.013 71.6658 228.552 71.5251C229.401 71.2966 230.312 70.948 231.285 70.4792C231.502 70.3738 231.9 70.1863 232.48 69.9167C233.061 69.6414 233.503 69.4275 233.808 69.2751C233.978 69.1814 234.276 69.0291 234.704 68.8181C235.138 68.6072 235.469 68.4343 235.697 68.2996C235.855 68.2175 236.107 68.0857 236.453 67.9041C236.799 67.7224 237.057 67.5789 237.227 67.4734C237.707 67.198 238.085 66.9636 238.36 66.7703C238.431 66.7234 238.568 66.6384 238.773 66.5154C238.979 66.3865 239.116 66.2986 239.187 66.2517C239.356 66.1169 239.605 65.906 239.934 65.6189C240.262 65.3318 240.534 65.1033 240.751 64.9333C242.228 63.7908 243.019 63.1726 243.124 63.0789C243.206 63.0085 243.464 62.783 243.897 62.4021C244.331 62.0154 244.662 61.7136 244.891 61.4968C245.049 61.3503 245.277 61.1541 245.576 60.908C245.875 60.6619 246.086 60.4861 246.209 60.3806C246.379 60.2458 246.534 60.1726 246.675 60.1609C246.757 60.1843 246.81 60.2517 246.833 60.363C246.868 60.5916 246.81 60.8142 246.657 61.031C246.61 61.0779 246.575 61.1189 246.552 61.1541C245.474 62.3318 244.65 63.1843 244.082 63.7117C242.992 64.7312 242.441 65.2468 242.43 65.2585C242.295 65.3757 242.093 65.5574 241.823 65.8035C241.554 66.0496 241.352 66.2283 241.217 66.3396C241.088 66.4451 240.874 66.6472 240.575 66.946C240.282 67.239 240.048 67.45 239.872 67.5789C239.767 67.6726 239.562 67.8601 239.257 68.1414C238.958 68.4167 238.718 68.6189 238.536 68.7478C238.401 68.8416 238.231 68.9968 238.026 69.2136C237.827 69.4304 237.687 69.5769 237.604 69.6531C237.306 69.9167 236.775 70.3767 236.014 71.033L235.908 71.1472C235.85 71.2058 235.653 71.3875 235.319 71.6921C234.991 71.9968 234.733 72.2224 234.546 72.3689C234.44 72.4509 234.25 72.615 233.975 72.8611C233.705 73.1072 233.485 73.2917 233.315 73.4148C233.21 73.4851 233.072 73.6052 232.902 73.7751C232.738 73.9392 232.624 74.0476 232.56 74.1003C232.319 74.3054 231.836 74.7478 231.109 75.4275C230.389 76.1013 229.938 76.5144 229.756 76.6667L229.606 76.8162C229.63 76.8162 229.694 76.8074 229.8 76.7898C229.911 76.7722 229.999 76.7576 230.063 76.7458C230.433 76.6755 230.679 76.6257 230.802 76.5964C230.995 76.5847 231.197 76.5466 231.408 76.4822C231.625 76.4177 231.769 76.3796 231.839 76.3679C233.087 76.0457 233.808 75.8406 234.001 75.7527C234.118 75.7292 234.64 75.574 235.565 75.2869C235.647 75.2751 235.762 75.2312 235.908 75.155C236.148 75.0847 236.447 74.9675 236.805 74.8035C237.168 74.6335 237.435 74.5193 237.604 74.4607C238.155 74.2322 238.724 73.9597 239.31 73.6433C239.896 73.2976 240.341 73.0164 240.646 72.7996C241.378 72.2957 241.809 71.991 241.938 71.8855C242.154 71.7039 242.444 71.4871 242.808 71.2351C242.913 71.1882 242.983 71.1765 243.019 71.2V71.2351C243.019 71.3054 242.942 71.3904 242.79 71.49C242.644 71.5955 242.447 71.739 242.201 71.9207C241.955 72.0964 241.747 72.2517 241.577 72.3865C241.396 72.5037 241.196 72.6414 240.979 72.7996C240.769 72.9578 240.561 73.1013 240.355 73.2302C240.273 73.2888 240.139 73.3738 239.951 73.4851C239.764 73.5906 239.635 73.6697 239.564 73.7224C238.955 74.033 238.469 74.2644 238.105 74.4167C238.082 74.4167 238.038 74.4314 237.974 74.4607C237.915 74.4841 237.874 74.5017 237.851 74.5134C236.972 74.9705 236.318 75.2634 235.891 75.3923C235.797 75.4158 235.571 75.4861 235.214 75.6033C234.862 75.7146 234.602 75.7878 234.432 75.823C234.285 75.8582 234.042 75.9285 233.702 76.0339C233.362 76.1453 233.131 76.2185 233.008 76.2537C232.85 76.2888 232.548 76.3738 232.103 76.5085C231.663 76.6433 231.312 76.7283 231.048 76.7634C230.11 76.9099 229.548 76.9919 229.36 77.0095C229.278 77.0681 229.199 77.1296 229.123 77.1941C229.053 77.2644 228.982 77.3289 228.912 77.3875C228.854 77.4343 228.766 77.5046 228.648 77.5984C228.531 77.698 228.429 77.7859 228.341 77.8621C228.253 77.9441 228.171 78.0203 228.095 78.0906C227.978 78.2078 227.553 78.5681 226.82 79.1716L225.845 80.0154C225.675 80.1619 225.549 80.2644 225.467 80.323C225.25 80.4929 224.934 80.7478 224.518 81.0876C224.107 81.4333 223.8 81.6882 223.595 81.8523C222.815 82.4382 222.18 82.8835 221.688 83.1882C221.641 83.2117 221.57 83.2585 221.477 83.3289C221.008 83.6746 220.448 83.9998 219.798 84.3044C219.763 84.3162 219.607 84.3953 219.332 84.5417C219.057 84.6941 218.846 84.7996 218.699 84.8582C218.605 84.8933 218.415 84.9724 218.128 85.0955C217.841 85.2244 217.598 85.324 217.398 85.3943C217.199 85.4705 216.997 85.532 216.792 85.5789C216.61 85.6257 216.402 85.6931 216.168 85.781C215.617 85.9978 214.885 86.1472 213.971 86.2292C213.924 86.241 213.851 86.2556 213.751 86.2732C213.657 86.2908 213.569 86.3054 213.487 86.3171C213.411 86.3289 213.338 86.3347 213.268 86.3347ZM212.494 85.7986C213.068 85.7986 213.733 85.7195 214.489 85.5613C215.233 85.4148 216.35 85.0193 217.838 84.3748C218.055 84.281 218.38 84.1257 218.813 83.9089C218.884 83.8621 218.986 83.7947 219.121 83.7068C219.262 83.6248 219.388 83.5486 219.499 83.4783C219.616 83.4138 219.728 83.3582 219.833 83.3113C220.337 83.0359 221.113 82.5144 222.162 81.7468C222.332 81.6296 222.578 81.4392 222.9 81.1755C223.223 80.9177 223.396 80.7771 223.419 80.7537C223.454 80.7302 223.592 80.6189 223.832 80.4197C224.072 80.2263 224.251 80.074 224.368 79.9626C224.679 79.699 225.136 79.2917 225.739 78.741C225.763 78.7175 225.795 78.6882 225.836 78.6531C225.883 78.6179 225.918 78.5857 225.941 78.5564C226.674 77.9705 227.213 77.4929 227.559 77.1238C227.137 77.1238 226.519 77.1472 225.704 77.1941C225.61 77.2058 225.461 77.2117 225.256 77.2117C225.039 77.2117 224.734 77.2234 224.342 77.2468C223.955 77.2703 223.694 77.282 223.56 77.282H223.349C223.255 77.282 223.182 77.2878 223.129 77.2996C222.854 77.3113 222.355 77.3611 221.635 77.449C221.072 77.4958 220.46 77.572 219.798 77.6775C218.849 77.824 218.104 77.9792 217.565 78.1433C216.651 78.4304 216.177 78.5828 216.142 78.6003C215.468 78.8406 214.706 79.198 213.856 79.6726C213.487 79.866 212.919 80.2322 212.151 80.7712C211.214 81.4568 210.493 82.239 209.989 83.1179C209.761 83.5164 209.646 83.9001 209.646 84.2693C209.646 84.4392 209.67 84.5886 209.717 84.7175C209.852 85.0515 210.171 85.3093 210.675 85.491C211.062 85.6257 211.524 85.7224 212.063 85.781C212.157 85.7927 212.301 85.7986 212.494 85.7986Z" fill="black"/>
<path d="M35.84 20.7127C35.68 18.1527 35.0667 15.726 34 13.4327C32.9333 11.1393 31.3867 9.27268 29.36 7.83268C27.3333 6.39268 24.7467 5.67268 21.6 5.67268C18.2933 5.67268 15.76 6.60601 14 8.47268C12.24 10.3394 11.36 12.526 11.36 15.0327C11.36 17.2727 12 19.166 13.28 20.7127C14.56 22.206 16.2133 23.5394 18.24 24.7127C20.32 25.8327 22.5067 26.926 24.8 27.9927C26.8267 28.8994 28.8533 29.886 30.88 30.9527C32.9067 31.966 34.7467 33.1394 36.4 34.4727C38.0533 35.806 39.36 37.406 40.32 39.2727C41.3333 41.086 41.84 43.2727 41.84 45.8327C41.84 48.766 41.0933 51.3794 39.6 53.6727C38.16 55.966 36.0533 57.7794 33.28 59.1127C30.5067 60.3927 27.12 61.0327 23.12 61.0327C20.72 61.0327 18.24 60.686 15.68 59.9927C13.12 59.2994 10.8533 58.286 8.88 56.9527L9.28 60.3927H5.12L4.64 43.3527H7.76C8.02667 48.046 9.65333 51.6194 12.64 54.0727C15.6267 56.4727 19.2267 57.6727 23.44 57.6727C25.52 57.6727 27.44 57.2994 29.2 56.5527C30.96 55.7527 32.3467 54.606 33.36 53.1127C34.4267 51.6194 34.96 49.806 34.96 47.6727C34.96 45.2727 34.32 43.2727 33.04 41.6727C31.76 40.0727 30.1067 38.686 28.08 37.5127C26.0533 36.3394 23.8933 35.2194 21.6 34.1527C19.5733 33.246 17.5733 32.286 15.6 31.2727C13.6267 30.2594 11.8133 29.1127 10.16 27.8327C8.56 26.4994 7.25333 24.926 6.24 23.1127C5.28 21.2994 4.8 19.1127 4.8 16.5527C4.8 15.166 5.04 13.6727 5.52 12.0727C6 10.4727 6.82667 8.95268 8 7.51268C9.22667 6.01935 10.88 4.81935 12.96 3.91268C15.0933 2.95268 17.7867 2.47268 21.04 2.47268C23.0667 2.47268 25.3333 2.76602 27.84 3.35268C30.4 3.88601 32.7733 4.95268 34.96 6.55268L34.64 3.11269H38.72V20.7127H35.84ZM57.7106 59.7527V57.1127C59.3106 57.1127 60.5373 56.686 61.3906 55.8327C62.244 54.9794 62.9373 53.806 63.4706 52.3127C64.0573 50.8194 64.724 49.086 65.4706 47.1127L81.9506 2.23268H83.8706L101.711 47.7527C102.137 48.8727 102.617 50.3127 103.151 52.0727C103.684 53.8327 103.897 55.326 103.791 56.5527C104.697 56.4994 105.604 56.446 106.511 56.3927C107.417 56.3394 108.324 56.286 109.231 56.2327V59.7527H90.9106V57.1127C92.9373 57.0594 94.2706 56.606 94.9106 55.7527C95.5506 54.8994 95.7906 53.886 95.6306 52.7127C95.4706 51.5394 95.204 50.4727 94.8306 49.5127L92.0306 41.9927L71.2306 42.4727L68.4306 51.0327C68.0573 52.3127 67.7106 53.326 67.3906 54.0727C67.124 54.8194 66.804 55.646 66.4306 56.5527C67.4973 56.4994 68.5373 56.446 69.5506 56.3927C70.6173 56.3394 71.6573 56.286 72.6706 56.2327V59.7527H57.7106ZM72.4306 39.0327H90.9106L85.2306 23.7527C84.644 22.0993 84.0306 20.4727 83.3906 18.8727C82.804 17.2193 82.2173 15.566 81.6306 13.9127H81.4706C80.9373 15.406 80.3773 16.8994 79.7906 18.3927C79.2573 19.886 78.6973 21.406 78.1106 22.9527L72.4306 39.0327ZM155.629 60.5527C153.282 55.2194 150.909 49.9127 148.509 44.6327C146.109 39.2994 143.762 33.9127 141.469 28.4727C140.722 26.766 139.975 25.0594 139.229 23.3527C138.535 21.5927 137.842 19.8327 137.149 18.0727C136.509 16.3127 135.842 14.5527 135.149 12.7927C135.149 13.3794 135.122 13.966 135.069 14.5527C135.069 15.1394 135.069 15.726 135.069 16.3127C135.015 18.2327 134.935 20.5527 134.829 23.2727C134.775 25.9394 134.695 28.8194 134.589 31.9127C134.482 34.9527 134.402 38.0194 134.349 41.1127C134.295 44.1527 134.242 47.0327 134.189 49.7527C134.135 50.926 134.082 52.0994 134.029 53.2727C134.029 54.446 133.975 55.5394 133.869 56.5527C134.882 56.4994 135.869 56.446 136.829 56.3927C137.842 56.3394 138.855 56.286 139.869 56.2327V59.7527H124.589V57.1127C126.242 57.0594 127.442 56.7127 128.189 56.0727C128.989 55.3794 129.495 54.4727 129.709 53.3527C129.922 52.2327 130.055 51.0327 130.109 49.7527L131.629 13.2727C131.682 12.206 131.709 11.1394 131.709 10.0727C131.762 9.00602 131.815 7.96602 131.869 6.95268C130.909 7.00602 129.949 7.05935 128.989 7.11268C128.029 7.11268 127.069 7.13935 126.109 7.19269V3.75268H138.349L152.109 35.5127C152.802 37.1127 153.469 38.7127 154.109 40.3127C154.802 41.9127 155.495 43.5127 156.189 45.1127C156.935 46.7127 157.655 48.3394 158.349 49.9927H158.509C159.095 48.5527 159.789 46.846 160.589 44.8727C161.389 42.846 162.055 41.1127 162.589 39.6727C164.935 33.806 167.362 27.9394 169.869 22.0727C172.429 16.1527 174.935 10.046 177.389 3.75268H189.229V6.39268C187.895 6.33935 186.802 6.60602 185.949 7.19269C185.095 7.72602 184.482 8.63268 184.109 9.91268C183.735 11.1927 183.602 12.926 183.709 15.1127L185.789 51.5127C185.895 52.4194 185.949 53.2994 185.949 54.1527C185.949 55.006 185.949 55.7794 185.949 56.4727C186.909 56.4194 187.869 56.3927 188.829 56.3927C189.842 56.3394 190.829 56.286 191.789 56.2327V59.7527H173.869V57.1127C175.522 57.0594 176.749 56.6594 177.549 55.9127C178.349 55.166 178.829 54.0994 178.989 52.7127C179.202 51.326 179.255 49.6194 179.149 47.5927L177.549 21.1927C177.495 20.3394 177.442 19.486 177.389 18.6327C177.335 17.7794 177.282 16.926 177.229 16.0727C177.175 15.2194 177.122 14.366 177.069 13.5127C176.909 13.886 176.722 14.286 176.509 14.7127C176.349 15.1394 176.189 15.5927 176.029 16.0727L158.029 60.5527H155.629Z" fill="black"/>
<path d="M7.632 82.9327C7.14 81.8047 6.648 80.6767 6.156 79.5487C5.664 78.4207 5.178 77.2867 4.698 76.1467C4.554 75.8107 4.404 75.4447 4.248 75.0487C4.092 74.6527 3.936 74.2327 3.78 73.7887C3.624 73.3447 3.474 72.8947 3.33 72.4387C3.33 72.7507 3.33 73.0507 3.33 73.3387C3.33 73.6267 3.33 73.9027 3.33 74.1667C3.318 74.5387 3.306 74.9767 3.294 75.4807C3.282 75.9727 3.264 76.4947 3.24 77.0467C3.228 77.5987 3.216 78.1507 3.204 78.7027C3.204 79.2427 3.198 79.7647 3.186 80.2687C3.186 80.5567 3.18 80.8387 3.168 81.1147C3.156 81.3907 3.138 81.6307 3.114 81.8347C3.33 81.8107 3.558 81.7987 3.798 81.7987C4.05 81.7867 4.272 81.7747 4.464 81.7627V82.7527H0.81V81.9607C1.146 81.9487 1.404 81.8827 1.584 81.7627C1.764 81.6427 1.884 81.4627 1.944 81.2227C2.016 80.9827 2.058 80.6887 2.07 80.3407L2.322 72.5647C2.334 72.3007 2.346 72.0367 2.358 71.7727C2.37 71.5087 2.382 71.2747 2.394 71.0707C2.178 71.0827 1.95 71.0947 1.71 71.1067C1.47 71.1067 1.26 71.1127 1.08 71.1247V70.1527H4.23L7.2 77.2447C7.344 77.5687 7.488 77.9167 7.632 78.2887C7.776 78.6487 7.92 79.0087 8.064 79.3687C8.22 79.7167 8.358 80.0467 8.478 80.3587H8.514C8.646 79.9987 8.796 79.6027 8.964 79.1707C9.132 78.7387 9.276 78.3547 9.396 78.0187C9.912 76.7227 10.434 75.4267 10.962 74.1307C11.502 72.8347 12.03 71.5087 12.546 70.1527H15.714V70.9447C15.426 70.9447 15.18 70.9987 14.976 71.1067C14.784 71.2027 14.64 71.3827 14.544 71.6467C14.46 71.9107 14.43 72.2887 14.454 72.7807L14.85 80.5387C14.874 80.7787 14.88 81.0127 14.868 81.2407C14.868 81.4687 14.862 81.6607 14.85 81.8167C15.066 81.8047 15.294 81.7987 15.534 81.7987C15.786 81.7867 16.002 81.7747 16.182 81.7627V82.7527H11.826V81.9607C12.174 81.9487 12.438 81.8767 12.618 81.7447C12.81 81.6127 12.936 81.4087 12.996 81.1327C13.056 80.8447 13.074 80.4727 13.05 80.0167L12.762 74.7787C12.75 74.5987 12.738 74.3887 12.726 74.1487C12.714 73.8967 12.696 73.6387 12.672 73.3747C12.66 73.0987 12.648 72.8347 12.636 72.5827C12.6 72.6667 12.564 72.7567 12.528 72.8527C12.492 72.9367 12.456 73.0327 12.42 73.1407L8.55 82.9327H7.632ZM21.2858 82.7527V81.9427C21.6458 81.9427 21.9218 81.8467 22.1138 81.6547C22.3058 81.4627 22.4678 81.2047 22.5998 80.8807C22.7318 80.5447 22.8758 80.1727 23.0318 79.7647L26.6678 69.8107H27.3878L31.3298 79.9087C31.4258 80.1367 31.5338 80.4487 31.6538 80.8447C31.7738 81.2287 31.8278 81.5587 31.8158 81.8347C32.0198 81.8107 32.2178 81.7987 32.4098 81.7987C32.6138 81.7867 32.8058 81.7747 32.9858 81.7627V82.7527H28.6118V81.9607C29.0318 81.9487 29.3078 81.8587 29.4398 81.6907C29.5838 81.5107 29.6378 81.2947 29.6018 81.0427C29.5778 80.7907 29.5178 80.5387 29.4218 80.2867L28.8818 78.8287L24.4718 78.9367L23.9498 80.5027C23.8778 80.7427 23.7998 80.9707 23.7158 81.1867C23.6318 81.4027 23.5478 81.6127 23.4638 81.8167C23.6798 81.7927 23.9078 81.7807 24.1478 81.7807C24.3998 81.7687 24.6218 81.7567 24.8138 81.7447V82.7527H21.2858ZM24.7958 77.9647H28.5758L27.4418 74.9227C27.2978 74.5267 27.1598 74.1367 27.0278 73.7527C26.8958 73.3567 26.7758 72.9787 26.6678 72.6187H26.6498C26.5538 72.9187 26.4458 73.2487 26.3258 73.6087C26.2058 73.9687 26.0678 74.3587 25.9118 74.7787L24.7958 77.9647ZM38.3075 82.7527V81.9607C38.7035 81.9367 38.9855 81.8527 39.1535 81.7087C39.3335 81.5647 39.4475 81.3487 39.4955 81.0607C39.5435 80.7727 39.5675 80.4067 39.5675 79.9627V72.4747C39.5675 72.2107 39.5735 71.9587 39.5855 71.7187C39.5975 71.4667 39.6095 71.2507 39.6215 71.0707C39.4175 71.0827 39.1955 71.0947 38.9555 71.1067C38.7155 71.1187 38.4995 71.1307 38.3075 71.1427V70.1527C39.0395 70.1407 39.7775 70.1347 40.5215 70.1347C41.2655 70.1227 42.0155 70.1227 42.7715 70.1347C43.8995 70.1347 44.8295 70.2667 45.5615 70.5307C46.2935 70.7827 46.8395 71.1607 47.1995 71.6647C47.5715 72.1687 47.7515 72.8047 47.7395 73.5727C47.7515 74.0527 47.6555 74.5327 47.4515 75.0127C47.2475 75.4807 46.9055 75.9007 46.4255 76.2727C45.9455 76.6447 45.2855 76.9267 44.4455 77.1187C44.6855 77.2627 44.9015 77.4607 45.0935 77.7127C45.2855 77.9647 45.4835 78.2467 45.6875 78.5587L46.7855 80.2507C47.0135 80.6107 47.2235 80.9167 47.4155 81.1687C47.6075 81.4207 47.8235 81.6187 48.0635 81.7627C48.3035 81.8947 48.5915 81.9607 48.9275 81.9607V82.7527H46.4255C46.1135 82.4887 45.8435 82.2067 45.6155 81.9067C45.3995 81.5947 45.1655 81.2467 44.9135 80.8627L43.6715 78.8467C43.5155 78.6067 43.3475 78.3487 43.1675 78.0727C42.9995 77.7967 42.8135 77.5627 42.6095 77.3707C42.4175 77.3707 42.2255 77.3707 42.0335 77.3707C41.8535 77.3707 41.6675 77.3707 41.4755 77.3707V80.3407C41.4755 80.6647 41.4695 80.9587 41.4575 81.2227C41.4575 81.4747 41.4455 81.6787 41.4215 81.8347C41.5655 81.8227 41.7155 81.8167 41.8715 81.8167C42.0395 81.8047 42.2015 81.7927 42.3575 81.7807C42.5255 81.7687 42.6695 81.7627 42.7895 81.7627V82.7527H38.3075ZM42.5195 76.4887C43.1795 76.4767 43.7435 76.3747 44.2115 76.1827C44.6795 75.9787 45.0395 75.6727 45.2915 75.2647C45.5435 74.8447 45.6695 74.3047 45.6695 73.6447C45.6695 73.1527 45.5975 72.7387 45.4535 72.4027C45.3095 72.0667 45.1055 71.7967 44.8415 71.5927C44.5775 71.3767 44.2595 71.2267 43.8875 71.1427C43.5275 71.0467 43.1375 70.9987 42.7175 70.9987C42.3335 70.9987 42.0515 71.0707 41.8715 71.2147C41.7035 71.3587 41.5955 71.5687 41.5475 71.8447C41.4995 72.1207 41.4755 72.4747 41.4755 72.9067V76.4347C41.6555 76.4467 41.8235 76.4647 41.9795 76.4887C42.1475 76.5007 42.3275 76.5007 42.5195 76.4887ZM54.0339 82.7527V81.9427C54.3939 81.9427 54.6699 81.8467 54.8619 81.6547C55.0539 81.4627 55.2159 81.2047 55.3479 80.8807C55.4799 80.5447 55.6239 80.1727 55.7799 79.7647L59.4159 69.8107H60.1359L64.0779 79.9087C64.1739 80.1367 64.2819 80.4487 64.4019 80.8447C64.5219 81.2287 64.5759 81.5587 64.5639 81.8347C64.7679 81.8107 64.9659 81.7987 65.1579 81.7987C65.3619 81.7867 65.5539 81.7747 65.7339 81.7627V82.7527H61.3599V81.9607C61.7799 81.9487 62.0559 81.8587 62.1879 81.6907C62.3319 81.5107 62.3859 81.2947 62.3499 81.0427C62.3259 80.7907 62.2659 80.5387 62.1699 80.2867L61.6299 78.8287L57.2199 78.9367L56.6979 80.5027C56.6259 80.7427 56.5479 80.9707 56.4639 81.1867C56.3799 81.4027 56.2959 81.6127 56.2119 81.8167C56.4279 81.7927 56.6559 81.7807 56.8959 81.7807C57.1479 81.7687 57.3699 81.7567 57.5619 81.7447V82.7527H54.0339ZM57.5439 77.9647H61.3239L60.1899 74.9227C60.0459 74.5267 59.9079 74.1367 59.7759 73.7527C59.6439 73.3567 59.5239 72.9787 59.4159 72.6187H59.3979C59.3019 72.9187 59.1939 73.2487 59.0739 73.6087C58.9539 73.9687 58.8159 74.3587 58.6599 74.7787L57.5439 77.9647ZM80.8116 83.0047L74.1156 74.1127C73.9836 73.9567 73.8576 73.7947 73.7376 73.6267C73.6176 73.4587 73.4916 73.2847 73.3596 73.1047H73.3416L73.3956 80.1067C73.3956 80.4067 73.3896 80.7067 73.3776 81.0067C73.3776 81.3067 73.3656 81.5827 73.3416 81.8347C73.5456 81.8107 73.7676 81.7987 74.0076 81.7987C74.2596 81.7867 74.4756 81.7747 74.6556 81.7627V82.7527H71.0916V81.9607C71.4276 81.9607 71.6796 81.8947 71.8476 81.7627C72.0276 81.6307 72.1476 81.4567 72.2076 81.2407C72.2796 81.0247 72.3156 80.7727 72.3156 80.4847V72.4207C72.3156 72.1807 72.3156 71.9407 72.3156 71.7007C72.3156 71.4607 72.3216 71.2507 72.3336 71.0707C72.1416 71.0827 71.9256 71.0947 71.6856 71.1067C71.4576 71.1187 71.2536 71.1307 71.0736 71.1427V70.1527H73.4496L79.7856 78.4867C79.9896 78.7507 80.1696 78.9967 80.3256 79.2247C80.4936 79.4527 80.6556 79.6687 80.8116 79.8727H80.8296L80.8476 72.4747C80.8476 72.2107 80.8536 71.9587 80.8656 71.7187C80.8776 71.4667 80.8896 71.2507 80.9016 71.0707C80.6856 71.0827 80.4576 71.0947 80.2176 71.1067C79.9776 71.1187 79.7676 71.1307 79.5876 71.1427V70.1527H83.1516V70.9447C82.7676 70.9567 82.4856 71.0407 82.3056 71.1967C82.1376 71.3407 82.0296 71.5567 81.9816 71.8447C81.9456 72.1207 81.9276 72.4867 81.9276 72.9427L81.9096 83.0047H80.8116ZM80.7396 66.5527C80.5476 67.0807 80.3256 67.5007 80.0736 67.8127C79.8336 68.1127 79.5756 68.3287 79.2996 68.4607C79.0356 68.5927 78.7716 68.6587 78.5076 68.6587C78.1836 68.6587 77.8956 68.6047 77.6436 68.4967C77.3916 68.3767 77.1576 68.2387 76.9416 68.0827C76.7376 67.9267 76.5396 67.7947 76.3476 67.6867C76.1556 67.5667 75.9456 67.5067 75.7176 67.5067C75.4656 67.5067 75.2256 67.5907 74.9976 67.7587C74.7816 67.9267 74.5536 68.1847 74.3136 68.5327L73.5756 68.0827C73.8036 67.5067 74.1216 67.0507 74.5296 66.7147C74.9496 66.3787 75.3576 66.2107 75.7536 66.2107C76.0896 66.1987 76.3776 66.2527 76.6176 66.3727C76.8696 66.4807 77.0916 66.6127 77.2836 66.7687C77.4876 66.9127 77.6916 67.0447 77.8956 67.1647C78.0996 67.2847 78.3156 67.3447 78.5436 67.3447C78.8436 67.3447 79.1196 67.2307 79.3716 67.0027C79.6236 66.7627 79.8336 66.4867 80.0016 66.1747L80.7396 66.5527ZM95.3878 83.0407C94.2478 83.0407 93.2698 82.8487 92.4538 82.4647C91.6498 82.0807 90.9958 81.5707 90.4918 80.9347C89.9878 80.2867 89.6158 79.5727 89.3758 78.7927C89.1358 78.0127 89.0158 77.2327 89.0158 76.4527C89.0158 75.6967 89.1418 74.9347 89.3938 74.1667C89.6578 73.3867 90.0478 72.6727 90.5638 72.0247C91.0918 71.3767 91.7458 70.8547 92.5258 70.4587C93.3178 70.0627 94.2418 69.8647 95.2978 69.8647C96.4018 69.8647 97.3498 70.0627 98.1418 70.4587C98.9458 70.8547 99.6058 71.3827 100.122 72.0427C100.638 72.6907 101.022 73.3987 101.274 74.1667C101.538 74.9347 101.67 75.6967 101.67 76.4527C101.67 77.1967 101.538 77.9587 101.274 78.7387C101.022 79.5067 100.632 80.2207 100.104 80.8807C99.5878 81.5287 98.9398 82.0507 98.1598 82.4467C97.3798 82.8427 96.4558 83.0407 95.3878 83.0407ZM95.4778 82.1047C96.1738 82.1047 96.7738 81.9487 97.2778 81.6367C97.7938 81.3247 98.2138 80.9107 98.5378 80.3947C98.8738 79.8667 99.1198 79.2907 99.2758 78.6667C99.4318 78.0307 99.5098 77.4007 99.5098 76.7767C99.5098 76.0087 99.4198 75.2707 99.2398 74.5627C99.0598 73.8427 98.7838 73.2007 98.4118 72.6367C98.0518 72.0607 97.6018 71.6107 97.0618 71.2867C96.5218 70.9507 95.8978 70.7827 95.1898 70.7827C94.4938 70.7827 93.8878 70.9447 93.3718 71.2687C92.8558 71.5927 92.4358 72.0187 92.1118 72.5467C91.7878 73.0627 91.5418 73.6387 91.3738 74.2747C91.2178 74.8987 91.1398 75.5287 91.1398 76.1647C91.1398 76.7887 91.2238 77.4487 91.3918 78.1447C91.5598 78.8407 91.8178 79.4887 92.1658 80.0887C92.5138 80.6887 92.9578 81.1747 93.4978 81.5467C94.0498 81.9187 94.7098 82.1047 95.4778 82.1047ZM117.444 83.0047L110.748 74.1127C110.616 73.9567 110.49 73.7947 110.37 73.6267C110.25 73.4587 110.124 73.2847 109.992 73.1047H109.974L110.028 80.1067C110.028 80.4067 110.022 80.7067 110.01 81.0067C110.01 81.3067 109.998 81.5827 109.974 81.8347C110.178 81.8107 110.4 81.7987 110.64 81.7987C110.892 81.7867 111.108 81.7747 111.288 81.7627V82.7527H107.724V81.9607C108.06 81.9607 108.312 81.8947 108.48 81.7627C108.66 81.6307 108.78 81.4567 108.84 81.2407C108.912 81.0247 108.948 80.7727 108.948 80.4847V72.4207C108.948 72.1807 108.948 71.9407 108.948 71.7007C108.948 71.4607 108.954 71.2507 108.966 71.0707C108.774 71.0827 108.558 71.0947 108.318 71.1067C108.09 71.1187 107.886 71.1307 107.706 71.1427V70.1527H110.082L116.418 78.4867C116.622 78.7507 116.802 78.9967 116.958 79.2247C117.126 79.4527 117.288 79.6687 117.444 79.8727H117.462L117.48 72.4747C117.48 72.2107 117.486 71.9587 117.498 71.7187C117.51 71.4667 117.522 71.2507 117.534 71.0707C117.318 71.0827 117.09 71.0947 116.85 71.1067C116.61 71.1187 116.4 71.1307 116.22 71.1427V70.1527H119.784V70.9447C119.4 70.9567 119.118 71.0407 118.938 71.1967C118.77 71.3407 118.662 71.5567 118.614 71.8447C118.578 72.1207 118.56 72.4867 118.56 72.9427L118.542 83.0047H117.444Z" fill="#797979"/>
<path d="M17.96 158.753V156.113C20.52 155.579 22.52 154.513 23.96 152.913C25.4533 151.259 27.1067 149.126 28.92 146.513L39.32 131.633C35.64 126.459 32.76 122.433 30.68 119.553C28.6 116.619 26.9733 114.326 25.8 112.673C24.7867 111.126 24.0133 109.899 23.48 108.993C23 108.086 22.5467 107.126 22.12 106.113C21.4267 106.166 20.7067 106.193 19.96 106.193C19.2133 106.193 18.4667 106.219 17.72 106.273V102.753H38.44V105.393L34.92 105.553C33 105.606 31.8267 105.979 31.4 106.673C31.0267 107.313 31.0533 108.113 31.48 109.073C31.96 110.033 32.4933 111.019 33.08 112.033C34.04 113.633 35.4 115.713 37.16 118.273C38.9733 120.779 40.92 123.473 43 126.353L50.68 115.233C52.0667 113.313 53.3733 111.473 54.6 109.713C55.88 107.953 56.9467 106.699 57.8 105.953C56.68 106.006 55.56 106.059 54.44 106.113C53.32 106.166 52.2 106.219 51.08 106.273V102.753H66.84V105.393C65.1333 105.606 63.5333 106.299 62.04 107.473C60.5467 108.646 59.16 110.059 57.88 111.713C56.6 113.313 55.4 114.913 54.28 116.513L45.24 129.313C47.16 131.873 49.0267 134.379 50.84 136.833C52.7067 139.233 54.3867 141.419 55.88 143.393C57.3733 145.313 58.52 146.833 59.32 147.953C60.2267 149.179 61.1333 150.433 62.04 151.713C63 152.939 63.9333 154.166 64.84 155.393C65.5867 155.339 66.36 155.313 67.16 155.313C67.96 155.313 68.7333 155.286 69.48 155.233V158.753H49.88V156.113C51.96 156.166 53.32 155.899 53.96 155.313C54.6 154.673 54.7867 153.899 54.52 152.993C54.3067 152.033 53.88 151.126 53.24 150.273C52.0133 148.619 50.36 146.486 48.28 143.873C46.2 141.206 43.9333 138.166 41.48 134.753C40.1467 136.673 38.8133 138.619 37.48 140.593C36.2 142.513 34.8933 144.486 33.56 146.513C32.6 147.953 31.5867 149.446 30.52 150.993C29.5067 152.539 28.3333 154.086 27 155.633C28.12 155.526 29.2133 155.446 30.28 155.393C31.4 155.339 32.52 155.286 33.64 155.233V158.753H17.96ZM104.153 105.393C102.18 105.446 100.793 105.899 99.9931 106.753C99.2465 107.606 98.8198 108.753 98.7131 110.193C98.6598 111.633 98.6331 113.313 98.6331 115.233V149.233C98.6331 150.673 98.6065 151.926 98.5531 152.993C98.5531 154.006 98.4998 154.859 98.3931 155.553C99.3531 155.499 100.313 155.446 101.273 155.393C102.233 155.339 103.193 155.286 104.153 155.233V158.753H86.1531V156.113C88.1798 156.006 89.5665 155.553 90.3131 154.753C91.0598 153.899 91.4598 152.753 91.5131 151.313C91.6198 149.819 91.6731 148.139 91.6731 146.273V111.713C91.6731 110.646 91.6998 109.633 91.7531 108.673C91.8065 107.659 91.8598 106.753 91.9131 105.953C90.9531 106.006 89.9931 106.059 89.0331 106.113C88.0731 106.166 87.1131 106.219 86.1531 106.273V102.753H104.153V105.393ZM155.91 159.553C153.563 154.219 151.19 148.913 148.79 143.633C146.39 138.299 144.043 132.913 141.75 127.473C141.003 125.766 140.257 124.059 139.51 122.353C138.817 120.593 138.123 118.833 137.43 117.073C136.79 115.313 136.123 113.553 135.43 111.793C135.43 112.379 135.403 112.966 135.35 113.553C135.35 114.139 135.35 114.726 135.35 115.313C135.297 117.233 135.217 119.553 135.11 122.273C135.057 124.939 134.977 127.819 134.87 130.913C134.763 133.953 134.683 137.019 134.63 140.113C134.577 143.153 134.523 146.033 134.47 148.753C134.417 149.926 134.363 151.099 134.31 152.273C134.31 153.446 134.257 154.539 134.15 155.553C135.163 155.499 136.15 155.446 137.11 155.393C138.123 155.339 139.137 155.286 140.15 155.233V158.753H124.87V156.113C126.523 156.059 127.723 155.713 128.47 155.073C129.27 154.379 129.777 153.473 129.99 152.353C130.203 151.233 130.337 150.033 130.39 148.753L131.91 112.273C131.963 111.206 131.99 110.139 131.99 109.073C132.043 108.006 132.097 106.966 132.15 105.953C131.19 106.006 130.23 106.059 129.27 106.113C128.31 106.113 127.35 106.139 126.39 106.193V102.753H138.63L152.39 134.513C153.083 136.113 153.75 137.713 154.39 139.313C155.083 140.913 155.777 142.513 156.47 144.113C157.217 145.713 157.937 147.339 158.63 148.993H158.79C159.377 147.553 160.07 145.846 160.87 143.873C161.67 141.846 162.337 140.113 162.87 138.673C165.217 132.806 167.643 126.939 170.15 121.073C172.71 115.153 175.217 109.046 177.67 102.753H189.51V105.393C188.177 105.339 187.083 105.606 186.23 106.193C185.377 106.726 184.763 107.633 184.39 108.913C184.017 110.193 183.883 111.926 183.99 114.113L186.07 150.513C186.177 151.419 186.23 152.299 186.23 153.153C186.23 154.006 186.23 154.779 186.23 155.473C187.19 155.419 188.15 155.393 189.11 155.393C190.123 155.339 191.11 155.286 192.07 155.233V158.753H174.15V156.113C175.803 156.059 177.03 155.659 177.83 154.913C178.63 154.166 179.11 153.099 179.27 151.713C179.483 150.326 179.537 148.619 179.43 146.593L177.83 120.193C177.777 119.339 177.723 118.486 177.67 117.633C177.617 116.779 177.563 115.926 177.51 115.073C177.457 114.219 177.403 113.366 177.35 112.513C177.19 112.886 177.003 113.286 176.79 113.713C176.63 114.139 176.47 114.593 176.31 115.073L158.31 159.553H155.91ZM239.827 138.033C239.827 135.686 239.507 134.006 238.867 132.993C238.227 131.979 237.214 131.366 235.827 131.153C234.441 130.939 232.601 130.886 230.307 130.993L224.467 131.233V149.553C224.467 150.993 224.441 152.219 224.387 153.233C224.387 154.246 224.334 155.099 224.227 155.793L239.507 155.553C241.854 155.499 243.881 155.126 245.587 154.433C247.294 153.686 248.627 152.406 249.587 150.593C250.547 148.779 251.027 146.299 251.027 143.153H253.747L253.267 158.753H211.987V156.113C214.014 156.006 215.401 155.553 216.147 154.753C216.894 153.899 217.294 152.753 217.347 151.313C217.454 149.819 217.507 148.139 217.507 146.273V111.713C217.507 110.646 217.534 109.633 217.587 108.673C217.641 107.659 217.694 106.753 217.747 105.953C216.787 106.006 215.827 106.059 214.867 106.113C213.907 106.166 212.947 106.219 211.987 106.273V102.753H250.467L250.867 116.753H248.227C248.227 113.606 247.747 111.233 246.787 109.633C245.827 107.979 244.521 106.886 242.867 106.353C241.267 105.766 239.454 105.499 237.427 105.553L230.547 105.713C228.574 105.766 227.161 106.139 226.307 106.833C225.454 107.526 224.921 108.566 224.707 109.953C224.547 111.286 224.467 113.046 224.467 115.233V128.033L239.507 128.113L238.947 121.233H242.467V138.033H239.827Z" fill="black"/>
<path d="M178.834 173.041C178.774 172.429 178.618 171.877 178.366 171.385C178.114 170.893 177.766 170.503 177.322 170.215C176.878 169.915 176.326 169.771 175.666 169.783C174.994 169.783 174.46 169.969 174.064 170.341C173.668 170.713 173.47 171.163 173.47 171.691C173.47 172.159 173.602 172.555 173.866 172.879C174.13 173.191 174.484 173.473 174.928 173.725C175.384 173.977 175.894 174.229 176.458 174.481C176.914 174.673 177.376 174.889 177.844 175.129C178.312 175.369 178.738 175.645 179.122 175.957C179.506 176.257 179.812 176.623 180.04 177.055C180.268 177.475 180.382 177.973 180.382 178.549C180.382 179.221 180.208 179.821 179.86 180.349C179.512 180.877 179.014 181.291 178.366 181.591C177.73 181.891 176.956 182.041 176.044 182.041C175.528 182.041 174.982 181.963 174.406 181.807C173.842 181.651 173.326 181.429 172.858 181.141L172.948 181.897H171.85L171.778 177.937H172.642C172.738 178.981 173.11 179.773 173.758 180.313C174.418 180.841 175.204 181.105 176.116 181.105C176.572 181.105 176.986 181.021 177.358 180.853C177.73 180.685 178.024 180.445 178.24 180.133C178.456 179.821 178.564 179.455 178.564 179.035C178.564 178.543 178.414 178.129 178.114 177.793C177.826 177.457 177.454 177.169 176.998 176.929C176.554 176.689 176.086 176.461 175.594 176.245C175.102 176.029 174.622 175.801 174.154 175.561C173.698 175.321 173.284 175.045 172.912 174.733C172.54 174.421 172.246 174.055 172.03 173.635C171.814 173.203 171.706 172.699 171.706 172.123C171.706 171.787 171.766 171.433 171.886 171.061C172.006 170.689 172.21 170.335 172.498 169.999C172.786 169.663 173.176 169.393 173.668 169.189C174.172 168.973 174.802 168.865 175.558 168.865C176.014 168.865 176.524 168.931 177.088 169.063C177.664 169.195 178.186 169.429 178.654 169.765L178.582 169.009H179.662V173.041H178.834ZM190.555 169.945C190.207 169.945 189.943 170.011 189.763 170.143C189.583 170.275 189.463 170.455 189.403 170.683C189.343 170.899 189.313 171.145 189.313 171.421V176.083C189.313 176.791 189.367 177.439 189.475 178.027C189.595 178.603 189.781 179.107 190.033 179.539C190.297 179.959 190.651 180.289 191.095 180.529C191.551 180.769 192.103 180.895 192.751 180.907C193.555 180.907 194.215 180.727 194.731 180.367C195.247 180.007 195.631 179.491 195.883 178.819C196.147 178.147 196.285 177.349 196.297 176.425L196.333 171.475C196.333 171.211 196.339 170.959 196.351 170.719C196.363 170.467 196.375 170.251 196.387 170.071C196.183 170.083 195.961 170.095 195.721 170.107C195.481 170.119 195.265 170.131 195.073 170.143V169.153H198.709V169.945C198.313 169.957 198.025 170.041 197.845 170.197C197.677 170.341 197.569 170.557 197.521 170.845C197.473 171.121 197.443 171.487 197.431 171.943L197.413 176.227C197.413 177.091 197.311 177.883 197.107 178.603C196.915 179.311 196.615 179.923 196.207 180.439C195.811 180.955 195.301 181.351 194.677 181.627C194.065 181.903 193.339 182.041 192.499 182.041C191.527 182.041 190.711 181.909 190.051 181.645C189.391 181.381 188.863 180.991 188.467 180.475C188.083 179.947 187.807 179.305 187.639 178.549C187.471 177.781 187.387 176.899 187.387 175.903V172.015C187.387 171.691 187.393 171.337 187.405 170.953C187.429 170.569 187.447 170.275 187.459 170.071C187.255 170.083 187.033 170.095 186.793 170.107C186.553 170.107 186.337 170.113 186.145 170.125V169.153H190.555V169.945ZM203.112 181.753V180.943C203.472 180.943 203.748 180.847 203.94 180.655C204.132 180.463 204.294 180.205 204.426 179.881C204.558 179.545 204.702 179.173 204.858 178.765L208.494 168.811H209.214L213.156 178.909C213.252 179.137 213.36 179.449 213.48 179.845C213.6 180.229 213.654 180.559 213.642 180.835C213.846 180.811 214.044 180.799 214.236 180.799C214.44 180.787 214.632 180.775 214.812 180.763V181.753H210.438V180.961C210.858 180.949 211.134 180.859 211.266 180.691C211.41 180.511 211.464 180.295 211.428 180.043C211.404 179.791 211.344 179.539 211.248 179.287L210.708 177.829L206.298 177.937L205.776 179.503C205.704 179.743 205.626 179.971 205.542 180.187C205.458 180.403 205.374 180.613 205.29 180.817C205.506 180.793 205.734 180.781 205.974 180.781C206.226 180.769 206.448 180.757 206.64 180.745V181.753H203.112ZM206.622 176.965H210.402L209.268 173.923C209.124 173.527 208.986 173.137 208.854 172.753C208.722 172.357 208.602 171.979 208.494 171.619H208.476C208.38 171.919 208.272 172.249 208.152 172.609C208.032 172.969 207.894 173.359 207.738 173.779L206.622 176.965ZM220.134 181.753V180.961C220.53 180.937 220.812 180.853 220.98 180.709C221.16 180.565 221.274 180.349 221.322 180.061C221.37 179.773 221.394 179.407 221.394 178.963V171.475C221.394 171.211 221.4 170.959 221.412 170.719C221.424 170.467 221.436 170.251 221.448 170.071C221.244 170.083 221.022 170.095 220.782 170.107C220.542 170.119 220.326 170.131 220.134 170.143V169.153C220.866 169.141 221.604 169.135 222.348 169.135C223.092 169.123 223.842 169.123 224.598 169.135C225.726 169.135 226.656 169.267 227.388 169.531C228.12 169.783 228.666 170.161 229.026 170.665C229.398 171.169 229.578 171.805 229.566 172.573C229.578 173.053 229.482 173.533 229.278 174.013C229.074 174.481 228.732 174.901 228.252 175.273C227.772 175.645 227.112 175.927 226.272 176.119C226.512 176.263 226.728 176.461 226.92 176.713C227.112 176.965 227.31 177.247 227.514 177.559L228.612 179.251C228.84 179.611 229.05 179.917 229.242 180.169C229.434 180.421 229.65 180.619 229.89 180.763C230.13 180.895 230.418 180.961 230.754 180.961V181.753H228.252C227.94 181.489 227.67 181.207 227.442 180.907C227.226 180.595 226.992 180.247 226.74 179.863L225.498 177.847C225.342 177.607 225.174 177.349 224.994 177.073C224.826 176.797 224.64 176.563 224.436 176.371C224.244 176.371 224.052 176.371 223.86 176.371C223.68 176.371 223.494 176.371 223.302 176.371V179.341C223.302 179.665 223.296 179.959 223.284 180.223C223.284 180.475 223.272 180.679 223.248 180.835C223.392 180.823 223.542 180.817 223.698 180.817C223.866 180.805 224.028 180.793 224.184 180.781C224.352 180.769 224.496 180.763 224.616 180.763V181.753H220.134ZM224.346 175.489C225.006 175.477 225.57 175.375 226.038 175.183C226.506 174.979 226.866 174.673 227.118 174.265C227.37 173.845 227.496 173.305 227.496 172.645C227.496 172.153 227.424 171.739 227.28 171.403C227.136 171.067 226.932 170.797 226.668 170.593C226.404 170.377 226.086 170.227 225.714 170.143C225.354 170.047 224.964 169.999 224.544 169.999C224.16 169.999 223.878 170.071 223.698 170.215C223.53 170.359 223.422 170.569 223.374 170.845C223.326 171.121 223.302 171.475 223.302 171.907V175.435C223.482 175.447 223.65 175.465 223.806 175.489C223.974 175.501 224.154 175.501 224.346 175.489ZM242.516 177.199C242.516 176.683 242.438 176.311 242.282 176.083C242.138 175.855 241.916 175.717 241.616 175.669C241.316 175.609 240.944 175.591 240.5 175.615L239.456 175.651V179.395C239.456 179.719 239.45 180.007 239.438 180.259C239.438 180.499 239.426 180.697 239.402 180.853L242.498 180.817C242.966 180.805 243.386 180.721 243.758 180.565C244.13 180.397 244.424 180.115 244.64 179.719C244.856 179.323 244.964 178.783 244.964 178.099H245.756L245.648 181.753H236.288V180.961C236.684 180.937 236.966 180.853 237.134 180.709C237.314 180.565 237.428 180.349 237.476 180.061C237.524 179.773 237.548 179.407 237.548 178.963V171.475C237.548 171.211 237.554 170.959 237.566 170.719C237.578 170.467 237.59 170.251 237.602 170.071C237.398 170.083 237.176 170.095 236.936 170.107C236.696 170.119 236.48 170.131 236.288 170.143V169.153H245.072L245.162 172.411H244.37C244.37 171.727 244.256 171.205 244.028 170.845C243.812 170.485 243.524 170.245 243.164 170.125C242.816 170.005 242.438 169.951 242.03 169.963L240.77 169.999C240.398 169.999 240.116 170.065 239.924 170.197C239.732 170.317 239.606 170.521 239.546 170.809C239.486 171.085 239.456 171.463 239.456 171.943V174.769H242.426L242.318 173.221H243.308V177.199H242.516ZM251.805 181.753V180.745C252.549 179.665 253.419 178.393 254.415 176.929C255.423 175.465 256.569 173.719 257.853 171.691C258.045 171.391 258.231 171.103 258.411 170.827C258.603 170.551 258.813 170.281 259.041 170.017L254.955 170.035C254.271 170.047 253.737 170.281 253.353 170.737C252.969 171.181 252.777 171.907 252.777 172.915H251.985L252.093 169.153H261.093V170.017L255.063 179.179C254.799 179.563 254.565 179.893 254.361 180.169C254.157 180.433 253.947 180.673 253.731 180.889L257.745 180.871C258.489 180.859 259.107 180.631 259.599 180.187C260.103 179.731 260.355 179.005 260.355 178.009H261.165L261.057 181.753H251.805Z" fill="#797979"/>
</svg>
