<svg width="50" height="50" viewBox="0 0 50 50" fill="none" xmlns="http://www.w3.org/2000/svg">
<path d="M16.0156 3.90629C16.4267 4.2388 16.6233 4.67222 16.8553 5.13539C16.8974 5.218 16.9395 5.30062 16.9829 5.38574C17.119 5.65312 17.254 5.92104 17.3889 6.18901C17.4816 6.37177 17.5743 6.5545 17.6671 6.7372C17.8915 7.17964 18.1151 7.62253 18.3383 8.06557C18.5019 8.38962 18.6664 8.71314 18.8309 9.03668C18.9281 9.22877 19.0253 9.4209 19.1223 9.61308C19.1656 9.69829 19.2088 9.7835 19.2534 9.87129C19.5313 10.4263 19.5313 10.4263 19.5313 10.6446C19.6149 10.6496 19.6984 10.6547 19.7846 10.66C20.5958 10.713 21.3961 10.7979 22.2008 10.9124C22.3184 10.9289 22.436 10.9454 22.5571 10.9624C22.8032 10.9971 23.0492 11.0321 23.2952 11.0673C23.6704 11.1208 24.0459 11.1728 24.4213 11.2248C24.6618 11.2589 24.9022 11.2931 25.1427 11.3274C25.254 11.3427 25.3653 11.3579 25.48 11.3737C26.9746 11.5915 26.9746 11.5915 27.356 12.085C27.4672 12.498 27.4012 12.6889 27.2461 13.086C27.0539 13.2975 26.8764 13.4717 26.6602 13.6536C26.5447 13.7551 26.4293 13.8569 26.3142 13.9588C26.257 14.0089 26.1998 14.059 26.1408 14.1106C25.9035 14.3233 25.6808 14.5491 25.4578 14.7767C25.1891 15.0488 24.919 15.3103 24.6277 15.5579C24.2011 15.9222 23.812 16.3215 23.4184 16.7207C23.0624 17.08 22.6971 17.4187 22.3038 17.7376C22.1413 17.8771 22.1413 17.8771 22.0703 18.1641C22.0953 18.3723 22.1295 18.5795 22.1684 18.7856C22.1799 18.8482 22.1915 18.9108 22.2034 18.9753C22.2286 19.1112 22.2542 19.2471 22.28 19.3829C22.3209 19.5984 22.3609 19.814 22.4005 20.0297C22.5134 20.643 22.6282 21.2559 22.7435 21.8688C22.814 22.2438 22.8834 22.619 22.9521 22.9943C22.9785 23.1369 23.0053 23.2793 23.0325 23.4217C23.3085 24.8638 23.3085 24.8638 23.1445 25.4883C22.995 25.6804 22.905 25.7681 22.667 25.8268C21.9973 25.8361 21.524 25.6114 20.9412 25.2995C20.8445 25.2496 20.7478 25.1996 20.6482 25.1482C20.3401 24.9886 20.0333 24.8265 19.7266 24.6644C19.5236 24.5587 19.3205 24.4532 19.1174 24.3479C17.5367 23.5261 17.5367 23.5261 16.8835 23.1579C16.8074 23.1156 16.7314 23.0734 16.653 23.0298C16.5134 22.9519 16.3745 22.8726 16.2366 22.7915C15.8691 22.5875 15.8691 22.5875 15.4622 22.6206C15.387 22.6646 15.3118 22.7086 15.2344 22.754C15.1239 22.8061 15.1239 22.8061 15.0112 22.8592C14.9355 22.897 14.8599 22.9348 14.782 22.9737C14.6962 23.0165 14.6104 23.0593 14.522 23.1034C14.4308 23.1492 14.3396 23.195 14.2456 23.2422C14.1502 23.2901 14.0548 23.3379 13.9565 23.3872C13.352 23.6914 12.7506 24.0007 12.1521 24.3165C12.0782 24.3553 12.0042 24.3942 11.928 24.4343C11.5111 24.6542 11.0964 24.8779 10.6831 25.1046C10.5452 25.1792 10.5452 25.1792 10.4046 25.2552C10.2273 25.3512 10.0505 25.4483 9.87453 25.5467C9.39807 25.803 9.0521 25.9526 8.49611 25.879C8.18147 25.6719 8.11687 25.5434 8.04051 25.1742C8.00695 24.7948 8.03736 24.4972 8.10742 24.1237C8.11914 24.0595 8.13087 23.9953 8.14296 23.9291C8.16833 23.7908 8.19419 23.6527 8.2205 23.5146C8.2621 23.296 8.3023 23.0771 8.34215 22.8582C8.44128 22.315 8.54256 21.7722 8.64419 21.2294C8.73025 20.7696 8.8153 20.3095 8.89891 19.8492C8.93848 19.6337 8.97954 19.4185 9.02066 19.2033C9.04477 19.0713 9.0688 18.9392 9.09275 18.8072C9.1143 18.6922 9.13584 18.5771 9.15804 18.4586C9.18085 18.1484 9.15673 18.0265 8.98439 17.7735C8.82834 17.5995 8.82834 17.5995 8.64336 17.4347C8.54091 17.3398 8.54091 17.3398 8.43639 17.243C8.36344 17.1764 8.2905 17.1097 8.21535 17.0411C8.06402 16.901 7.91283 16.7607 7.76178 16.6203C7.6873 16.5511 7.61283 16.4819 7.53609 16.4105C7.24535 16.1367 6.9635 15.8548 6.68336 15.5701C6.39119 15.274 6.09785 14.9845 5.78004 14.7156C5.37274 14.3646 4.98289 13.9962 4.59596 13.6231C4.52996 13.5616 4.46396 13.5001 4.39595 13.4368C4.08631 13.1341 3.9237 12.9515 3.80212 12.5275C3.80864 12.2057 3.8331 12.0802 4.00392 11.8164C4.66745 11.4271 5.56892 11.4039 6.31525 11.3026C6.45272 11.2834 6.59019 11.2641 6.72765 11.2447C7.01411 11.2046 7.30064 11.165 7.58723 11.1259C7.95346 11.0758 8.31952 11.0247 8.68555 10.9732C8.96876 10.9334 9.25203 10.894 9.53532 10.8548C9.67032 10.8361 9.8053 10.8173 9.94027 10.7984C10.129 10.7721 10.3177 10.7463 10.5065 10.7206C10.6136 10.7059 10.7207 10.6911 10.831 10.676C11.1294 10.6449 11.419 10.639 11.7188 10.6446C11.753 10.5285 11.753 10.5285 11.788 10.4101C11.9485 9.96265 12.1556 9.54762 12.3688 9.12327C12.4139 9.0329 12.459 8.94252 12.5054 8.84941C12.6011 8.6579 12.697 8.46649 12.7931 8.27517C12.9368 7.98875 13.0797 7.70193 13.2225 7.41505C13.6702 6.51887 14.126 5.628 14.6088 4.7501C14.6494 4.67565 14.69 4.60119 14.7318 4.52448C15.0526 3.94902 15.3411 3.76757 16.0156 3.90629ZM15.5274 6.64067C15.496 6.70364 15.4646 6.7666 15.4323 6.83148C15.1365 7.42502 14.8405 8.01846 14.5443 8.6118C14.3921 8.91684 14.2399 9.22192 14.0878 9.52708C13.913 9.87794 13.7379 10.2286 13.5628 10.5793C13.5083 10.6889 13.4537 10.7985 13.3975 10.9114C13.3467 11.013 13.2959 11.1147 13.2435 11.2194C13.1989 11.3089 13.1542 11.3985 13.1082 11.4908C12.9883 11.7188 12.9883 11.7188 12.793 12.0118C12.5179 12.0918 12.5179 12.0918 12.1521 12.154C12.0843 12.1658 12.0164 12.1775 11.9465 12.1896C10.8972 12.3672 9.84251 12.514 8.78908 12.6648C8.57036 12.6964 8.35166 12.728 8.13295 12.7596C7.60301 12.8362 7.07302 12.9124 6.54298 12.9883C6.63425 13.0965 6.72577 13.2044 6.81738 13.3123C6.86831 13.3724 6.91925 13.4326 6.97173 13.4945C7.20789 13.761 7.46794 13.9964 7.73317 14.2334C8.15526 14.6163 8.56563 15.006 8.96608 15.4114C9.267 15.7158 9.56985 16.0105 9.89381 16.2903C10.8803 17.1428 10.8803 17.1428 10.9375 17.7735C10.9122 18.059 10.9122 18.059 10.859 18.3599C10.8394 18.4733 10.8198 18.5867 10.7997 18.7034C10.7778 18.8243 10.756 18.9452 10.7334 19.0697C10.7116 19.1946 10.6898 19.3195 10.6673 19.4482C10.6096 19.7787 10.5507 20.1091 10.4915 20.4394C10.4313 20.777 10.3721 21.1149 10.3129 21.4528C10.1966 22.1145 10.0792 22.7761 9.96095 23.4375C10.3116 23.3259 10.6416 23.2068 10.9686 23.038C11.0462 22.9982 11.1237 22.9584 11.2037 22.9174C11.2858 22.8748 11.3679 22.8322 11.4525 22.7883C11.5818 22.7218 11.5818 22.7218 11.7137 22.654C11.9882 22.5127 12.2624 22.3709 12.5366 22.229C12.8102 22.088 13.0839 21.9471 13.3575 21.8062C13.5273 21.7187 13.6971 21.6311 13.8669 21.5434C14.0217 21.4634 14.1766 21.3838 14.3319 21.3046C14.4762 21.23 14.6196 21.1534 14.7618 21.0748C15.1628 20.8583 15.4515 20.7283 15.918 20.8008C16.1692 20.9014 16.3977 21.0053 16.6363 21.1297C16.7042 21.1639 16.7722 21.1982 16.8422 21.2335C17.0616 21.3445 17.2802 21.4572 17.4988 21.5699C17.6489 21.6461 17.7991 21.7223 17.9493 21.7983C18.8343 22.2476 19.7169 22.7026 20.5853 23.1831C20.7519 23.2735 20.9224 23.3565 21.0938 23.4375C21.1582 23.4053 21.2227 23.3731 21.2891 23.3399C21.2762 23.2704 21.2633 23.201 21.25 23.1295C21.1286 22.4733 21.0092 21.8167 20.8919 21.1598C20.8316 20.8221 20.7705 20.4846 20.7076 20.1473C20.6354 19.7591 20.5664 19.3704 20.4975 18.9816C20.4747 18.8612 20.4518 18.7409 20.4282 18.6168C20.317 17.9727 20.255 17.5584 20.6055 16.9922C20.7989 16.7572 20.7989 16.7572 21.0144 16.5528C21.1322 16.44 21.1322 16.44 21.2525 16.325C21.4472 16.1472 21.6441 15.9735 21.8445 15.802C22.2975 15.4144 22.7103 14.9879 23.1291 14.5642C23.493 14.1975 23.8629 13.8465 24.2626 13.5186C24.4372 13.3577 24.5668 13.1793 24.707 12.9883C24.6335 12.9782 24.56 12.968 24.4842 12.9576C23.79 12.8616 23.096 12.764 22.4022 12.6648C22.0456 12.6138 21.6889 12.5634 21.332 12.5144C20.9873 12.467 20.6429 12.4181 20.2986 12.3681C20.1674 12.3494 20.0362 12.3311 19.9049 12.3135C19.7205 12.2886 19.5364 12.2616 19.3523 12.2344C19.2475 12.2197 19.1428 12.205 19.0349 12.1898C18.5989 12.0668 18.3514 11.8574 18.1066 11.479C18.0406 11.345 18.0406 11.345 17.9732 11.2083C17.9224 11.1067 17.8716 11.005 17.8193 10.9003C17.7663 10.7912 17.7133 10.6822 17.6586 10.5698C17.603 10.4576 17.5473 10.3455 17.4899 10.2299C17.3426 9.9331 17.1968 9.63561 17.0512 9.33794C16.9021 9.03377 16.7517 8.73027 16.6014 8.42671C16.3072 7.832 16.0144 7.23657 15.7227 6.64067C15.6582 6.64067 15.5938 6.64067 15.5274 6.64067Z" fill="#5F7D97"/>
<path d="M40.5178 17.9012C40.8496 18.0106 41.0248 18.2723 41.2109 18.5547C41.3365 18.8438 41.4264 19.1421 41.5211 19.4424C42.1219 21.2749 42.1219 21.2749 43.4223 22.599C44.5875 23.0365 45.8973 23.0933 47.1315 23.1068C47.959 23.1183 47.959 23.1183 48.3398 23.4375C48.59 23.8128 48.6009 23.9682 48.5352 24.4141C48.1365 24.9803 47.5971 25.45 47.0886 25.9155C46.5427 26.4205 46.0091 26.9322 45.4903 27.4651C45.3125 27.6367 45.3125 27.6367 45.1172 27.7344C45.238 28.8794 45.43 30.0084 45.637 31.1408C45.6581 31.2585 45.6791 31.3763 45.7008 31.4976C45.7297 31.6553 45.7297 31.6553 45.7591 31.8161C45.8751 32.6859 45.8751 32.6859 45.636 33.0933C45.3797 33.3288 45.262 33.3618 44.9219 33.3985C43.9018 33.1745 42.8852 32.4633 41.9708 31.9722C41.744 31.8507 41.5163 31.7308 41.2884 31.6113C41.1846 31.5547 41.1846 31.5547 41.0787 31.4969C40.7983 31.351 40.5873 31.2474 40.2674 31.2614C40.0133 31.3574 39.7728 31.4635 39.5302 31.5861C39.4334 31.6347 39.3366 31.6833 39.237 31.7334C39.1351 31.7854 39.0332 31.8373 38.9282 31.8909C38.8238 31.9435 38.7193 31.9962 38.6117 32.0505C37.9058 32.4077 37.2073 32.7765 36.5162 33.1616C36.1481 33.3409 35.886 33.4361 35.4858 33.3313C35.2192 33.1839 35.1157 33.0739 34.9609 32.8125C34.8855 31.7473 35.2139 30.5915 35.4069 29.5451C35.4484 29.3189 35.4889 29.0926 35.5293 28.8662C35.5423 28.7974 35.5554 28.7287 35.5688 28.6578C35.6577 28.187 35.6577 28.187 35.5469 27.7344C35.3956 27.5413 35.3956 27.5413 35.2016 27.3571C35.0951 27.2513 35.0951 27.2513 34.9863 27.1433C34.9115 27.0705 34.8366 26.9977 34.7595 26.9226C34.6873 26.8509 34.6151 26.7792 34.5407 26.7054C34.1323 26.3027 33.7133 25.9174 33.2792 25.5426C33.0518 25.3437 32.8365 25.1346 32.6233 24.9207C32.5499 24.8475 32.4765 24.7744 32.4009 24.699C32.1611 24.4414 32.1316 24.3451 32.0984 23.9868C32.1289 23.6328 32.1289 23.6328 32.2834 23.4245C32.5901 23.1877 32.8201 23.1544 33.2031 23.0957C33.2727 23.0847 33.3423 23.0737 33.414 23.0624C33.669 23.0229 33.9243 22.9861 34.1797 22.9492C34.412 22.9143 34.6443 22.8793 34.8766 22.8443C35.1224 22.8079 35.3682 22.7717 35.614 22.7356C35.7329 22.7181 35.8518 22.7006 35.9743 22.6826C36.0874 22.6665 36.2005 22.6504 36.3171 22.6338C36.418 22.6193 36.5189 22.6048 36.6229 22.5898C36.9176 22.5582 37.2038 22.5532 37.5 22.5586C37.5237 22.4796 37.5475 22.4007 37.572 22.3193C37.7209 21.9007 37.9091 21.5116 38.1065 21.114C38.1665 20.9927 38.1665 20.9927 38.2277 20.869C38.312 20.6989 38.3966 20.5289 38.4813 20.3591C38.6107 20.0992 38.7386 19.8386 38.8664 19.578C38.9487 19.4125 39.0311 19.247 39.1136 19.0815C39.1706 18.9648 39.1706 18.9648 39.2286 18.8457C39.5487 18.2109 39.7695 17.9503 40.5178 17.9012ZM40.1367 20.7031C40.1072 20.7661 40.0778 20.829 40.0474 20.8938C39.9109 21.1845 39.7736 21.4748 39.6362 21.7652C39.5899 21.8641 39.5436 21.963 39.4959 22.065C39.3551 22.3617 39.21 22.6558 39.0625 22.9492C39.0166 23.0433 38.9707 23.1374 38.9234 23.2343C38.5794 23.8814 38.5794 23.8814 38.1371 24.0723C37.9903 24.0924 37.8429 24.108 37.6953 24.1211C37.4728 24.1534 37.2502 24.186 37.0277 24.2188C36.6559 24.2687 36.284 24.3174 35.9119 24.3652C35.7927 24.3814 35.6735 24.3975 35.5507 24.4141C35.4421 24.4282 35.3336 24.4423 35.2217 24.4568C34.9473 24.4898 34.9473 24.4898 34.7656 24.707C35.8671 25.8247 35.8671 25.8247 37.0544 26.8494C37.3484 27.2375 37.3231 27.6815 37.2664 28.1458C37.2051 28.5063 37.1375 28.8649 37.0667 29.2236C37.0197 29.4682 36.973 29.7129 36.9267 29.9576C36.9056 30.0651 36.8845 30.1727 36.8628 30.2835C36.8059 30.5829 36.8059 30.5829 36.8164 30.957C37.2275 30.831 37.5874 30.6741 37.9627 30.465C38.067 30.4083 38.1713 30.3517 38.2788 30.2933C38.4955 30.1746 38.7117 30.0548 38.9273 29.9339C40.0738 29.3162 40.0738 29.3162 40.7227 29.4922C41.1901 29.6876 41.6296 29.9239 42.0715 30.1697C42.2494 30.2667 42.4276 30.3632 42.606 30.4592C42.7668 30.5462 42.9269 30.6344 43.0869 30.7228C43.3141 30.8367 43.5021 30.9109 43.75 30.957C43.7352 30.8724 43.7204 30.7877 43.7052 30.7005C43.6501 30.3832 43.5955 30.0658 43.5414 29.7483C43.5179 29.6115 43.4943 29.4747 43.4703 29.338C43.3941 28.902 43.3249 28.4655 43.2617 28.0274C43.2488 27.9477 43.2358 27.868 43.2224 27.7859C43.1953 27.5031 43.2282 27.2982 43.3825 27.0588C43.5599 26.8481 43.7481 26.6571 43.9453 26.4649C44.0183 26.3902 44.0913 26.3156 44.1665 26.2386C44.3979 26.0027 44.632 25.7696 44.8669 25.5371C44.9477 25.4568 45.0285 25.3765 45.1117 25.2937C45.3086 25.098 45.5057 24.9024 45.7031 24.707C45.4306 24.4346 45.1432 24.4436 44.7762 24.3996C44.6272 24.3798 44.4783 24.36 44.3295 24.3401C44.0947 24.3097 43.8598 24.2798 43.6248 24.2508C43.398 24.2225 43.1716 24.1922 42.9451 24.1615C42.8751 24.1535 42.8051 24.1454 42.733 24.1371C42.4293 24.0951 42.2163 24.0445 41.9672 23.8619C41.7542 23.5754 41.5932 23.274 41.4383 22.9538C41.4063 22.8893 41.3744 22.8249 41.3414 22.7584C41.2402 22.5538 41.1401 22.3487 41.04 22.1436C40.9713 22.0042 40.9025 21.8648 40.8337 21.7255C40.6656 21.3851 40.4986 21.0443 40.332 20.7031C40.2676 20.7031 40.2031 20.7031 40.1367 20.7031Z" fill="#5F7D97"/>
<path d="M21.1914 34.375C21.5928 34.7104 21.8099 35.0736 22.0169 35.5449C22.0779 35.676 22.1391 35.8071 22.2004 35.938C22.2948 36.1425 22.3881 36.3473 22.4792 36.5533C22.7907 37.3279 22.7907 37.3279 23.3388 37.92C23.5724 37.9759 23.7833 37.9841 24.0234 37.9883C24.2459 38.0179 24.4682 38.0495 24.6902 38.0825C25.0553 38.1308 25.4204 38.1781 25.7858 38.2238C25.9037 38.2396 26.0215 38.2554 26.1429 38.2717C26.2493 38.2853 26.3557 38.2989 26.4653 38.3129C26.7784 38.3835 26.9862 38.4853 27.2461 38.6718C27.4081 38.9958 27.4139 39.3007 27.3438 39.6484C26.9749 40.2942 26.271 40.8026 25.7246 41.2989C25.6635 41.3547 25.6024 41.4105 25.5394 41.468C25.4849 41.5173 25.4305 41.5665 25.3744 41.6172C25.3153 41.6765 25.2562 41.7358 25.1953 41.7968C25.1059 41.8846 25.0165 41.9723 24.9244 42.0627C24.693 42.4035 24.6688 42.5413 24.7436 42.9404C24.7592 43.0081 24.7748 43.0759 24.791 43.1457C24.8118 43.2529 24.8118 43.2529 24.8332 43.3623C24.8779 43.5898 24.9265 43.8163 24.9756 44.0429C25.0226 44.2696 25.0687 44.4965 25.1138 44.7236C25.142 44.8645 25.1714 45.0051 25.2022 45.1455C25.2868 45.5555 25.3056 45.8835 25.1953 46.289C24.9449 46.561 24.8017 46.6711 24.431 46.7047C24.0883 46.677 23.8799 46.5935 23.5752 46.437C23.4744 46.3859 23.3737 46.3348 23.2698 46.2822C23.1661 46.228 23.0623 46.1739 22.9553 46.1181C22.8519 46.0655 22.7485 46.0129 22.6419 45.9587C22.2174 45.7415 21.8005 45.5249 21.3985 45.2682C21.0258 45.0835 20.9059 45.1155 20.5078 45.2148C20.2752 45.3186 20.0545 45.4254 19.8303 45.5448C19.7014 45.6112 19.5725 45.6777 19.4435 45.7441C19.2427 45.8487 19.0422 45.9537 18.8418 46.0592C18.6469 46.1614 18.4513 46.2621 18.2556 46.3627C18.1668 46.4103 18.1668 46.4103 18.0762 46.4588C17.6993 46.6516 17.4143 46.7295 16.9922 46.6797C16.7114 46.4904 16.7114 46.4904 16.5039 46.1914C16.4494 45.6271 16.5298 45.1765 16.6759 44.6296C17.0623 43.2933 17.0623 43.2933 16.8442 41.9729C16.3727 41.345 15.768 40.8869 15.1367 40.4297C15.0046 40.3257 14.8737 40.2202 14.7446 40.1127C14.6924 40.0698 14.6403 40.0269 14.5865 39.9828C14.4268 39.8163 14.3418 39.6679 14.2578 39.4531C14.2886 38.869 14.2886 38.869 14.4619 38.6112C14.7392 38.411 15.038 38.38 15.3687 38.33C15.4402 38.3182 15.5118 38.3063 15.5856 38.294C16.0107 38.2248 16.4369 38.1659 16.864 38.1103C16.9564 38.098 17.0487 38.0858 17.1439 38.0731C17.3253 38.0494 17.5068 38.0269 17.6885 38.0056C17.7717 37.9948 17.8548 37.9841 17.9405 37.973C18.0143 37.9641 18.0882 37.9552 18.1642 37.9461C18.4142 37.875 18.4928 37.8038 18.6523 37.5976C18.7709 37.3793 18.8812 37.1625 18.9877 36.9384C19.0517 36.8072 19.1157 36.676 19.1797 36.5448C19.2795 36.3386 19.3789 36.1322 19.478 35.9256C19.5741 35.7257 19.6714 35.5264 19.7689 35.3271C19.798 35.2655 19.8271 35.2038 19.8571 35.1403C20.1703 34.5032 20.4687 34.2735 21.1914 34.375ZM20.7031 37.0117C20.6737 37.0752 20.6442 37.1388 20.6138 37.2043C20.4786 37.493 20.3407 37.7803 20.2026 38.0676C20.1563 38.1676 20.11 38.2676 20.0623 38.3707C19.7097 39.0972 19.7097 39.0972 19.3665 39.3646C18.9084 39.4899 18.4518 39.5595 17.981 39.6179C17.8858 39.6305 17.7906 39.6432 17.6926 39.6562C17.4592 39.6871 17.2258 39.717 16.9922 39.7461C17.1241 40.0415 17.2705 40.2422 17.5022 40.467C17.5931 40.5564 17.5931 40.5564 17.6859 40.6475C17.749 40.7085 17.8122 40.7696 17.8772 40.8325C18.0027 40.9546 18.1279 41.0769 18.2529 41.1995C18.3085 41.2532 18.364 41.307 18.4212 41.3624C18.6295 41.5832 18.6519 41.6905 18.668 41.9998C18.6476 42.4995 18.5532 42.9712 18.4549 43.4604C18.3688 43.9011 18.3688 43.9011 18.457 44.3359C18.5102 44.3068 18.5633 44.2778 18.6181 44.2478C18.861 44.1156 19.1045 43.9846 19.3481 43.8537C19.4317 43.808 19.5153 43.7622 19.6014 43.7151C20.4506 43.2611 20.4506 43.2611 20.8984 43.2617C21.1428 43.3483 21.3528 43.4387 21.582 43.5547C21.7252 43.6214 21.8685 43.6879 22.0119 43.7542C22.1596 43.8239 22.3073 43.8937 22.4548 43.9636C22.5309 43.9995 22.607 44.0355 22.6854 44.0725C22.8711 44.1602 23.0566 44.248 23.2422 44.3359C23.2119 44.1019 23.1813 43.868 23.1506 43.634C23.1379 43.5353 23.1379 43.5353 23.1249 43.4347C23.0783 43.0808 23.0224 42.7321 22.9492 42.3828C22.8982 42.0449 22.8774 41.8104 23.0675 41.5161C23.2475 41.3065 23.4364 41.1123 23.6328 40.9179C23.7195 40.8299 23.8063 40.742 23.8956 40.6513C24.132 40.413 24.3699 40.1765 24.6094 39.9414C24.3249 39.7825 24.09 39.7133 23.7671 39.6766C23.682 39.6658 23.5969 39.655 23.5092 39.6438C23.3313 39.6225 23.1533 39.6019 22.9752 39.582C22.8901 39.571 22.805 39.5599 22.7173 39.5485C22.64 39.5395 22.5627 39.5305 22.4831 39.5212C22.1103 39.4044 21.9316 39.1545 21.732 38.8299C21.6891 38.746 21.6461 38.6621 21.6019 38.5757C21.5547 38.4844 21.5075 38.3932 21.4588 38.2991C21.3869 38.1573 21.3869 38.1573 21.3135 38.0127C21.264 37.9166 21.2145 37.8206 21.1636 37.7216C21.042 37.4853 20.9211 37.2487 20.8008 37.0117C20.7686 37.0117 20.7363 37.0117 20.7031 37.0117Z" fill="#5F7D97"/>
<path d="M42.1875 45.2637C42.252 45.2627 42.3164 45.2617 42.3828 45.2606C42.6678 45.3363 42.7825 45.4776 42.9688 45.7031C43.0193 45.9564 43.0193 45.9564 43.0206 46.2402C43.0211 46.343 43.0216 46.4457 43.0222 46.5515C43.0206 46.6583 43.0191 46.765 43.0176 46.875C43.0191 46.9818 43.0206 47.0885 43.0222 47.1985C43.0217 47.3012 43.0211 47.4039 43.0206 47.5098C43.0202 47.6034 43.0197 47.6971 43.0193 47.7936C42.9549 48.1165 42.8309 48.2333 42.5781 48.4375C42.3828 48.4894 42.3828 48.4894 42.1875 48.4863C42.0908 48.4878 42.0908 48.4878 41.9922 48.4894C41.7072 48.4137 41.5925 48.2724 41.4062 48.0469C41.3557 47.7936 41.3557 47.7936 41.3544 47.5098C41.3539 47.407 41.3534 47.3043 41.3528 47.1985C41.3544 47.0917 41.3559 46.985 41.3574 46.875C41.3559 46.7682 41.3544 46.6615 41.3528 46.5515C41.3536 46.3974 41.3536 46.3974 41.3544 46.2402C41.3548 46.1466 41.3553 46.0529 41.3557 45.9564C41.445 45.509 41.731 45.2565 42.1875 45.2637Z" fill="#5F7D97"/>
<path d="M43.8965 43.6981C43.9992 43.6976 44.1019 43.6971 44.2078 43.6965C44.3145 43.698 44.4213 43.6996 44.5312 43.7011C44.6914 43.6988 44.6914 43.6988 44.8547 43.6965C44.9575 43.697 45.0602 43.6975 45.166 43.6981C45.3065 43.6987 45.3065 43.6987 45.4498 43.6994C45.7728 43.7638 45.8896 43.8877 46.0938 44.1406C46.1456 44.3359 46.1456 44.3359 46.1426 44.5312C46.1436 44.5956 46.1446 44.6601 46.1456 44.7265C46.0699 45.0115 45.9286 45.1262 45.7031 45.3124C45.4498 45.363 45.4498 45.363 45.166 45.3643C45.0633 45.3648 44.9606 45.3653 44.8547 45.3658C44.748 45.3643 44.6412 45.3628 44.5312 45.3613C44.3711 45.3635 44.3711 45.3635 44.2078 45.3658C44.105 45.3653 44.0023 45.3648 43.8965 45.3643C43.8028 45.3639 43.7092 45.3634 43.6127 45.363C43.2897 45.2985 43.1729 45.1746 42.9688 44.9218C42.9169 44.7265 42.9169 44.7265 42.9199 44.5312C42.9184 44.4345 42.9184 44.4345 42.9169 44.3359C43.0515 43.8289 43.414 43.7003 43.8965 43.6981Z" fill="#5F7D97"/>
<path d="M39.209 43.6981C39.3117 43.6976 39.4144 43.6971 39.5203 43.6965C39.627 43.698 39.7338 43.6996 39.8438 43.7011C40.0039 43.6988 40.0039 43.6988 40.1672 43.6965C40.27 43.697 40.3727 43.6975 40.4785 43.6981C40.619 43.6987 40.619 43.6987 40.7623 43.6994C41.0853 43.7638 41.2021 43.8877 41.4062 44.1406C41.4581 44.3359 41.4581 44.3359 41.4551 44.5312C41.4561 44.5956 41.4571 44.6601 41.4581 44.7265C41.3824 45.0115 41.2411 45.1262 41.0156 45.3124C40.7623 45.363 40.7623 45.363 40.4785 45.3643C40.3758 45.3648 40.2731 45.3653 40.1672 45.3658C40.0605 45.3643 39.9537 45.3628 39.8438 45.3613C39.6836 45.3635 39.6836 45.3635 39.5203 45.3658C39.4175 45.3653 39.3148 45.3648 39.209 45.3643C39.1153 45.3639 39.0217 45.3634 38.9252 45.363C38.6022 45.2985 38.4854 45.1746 38.2812 44.9218C38.2294 44.7265 38.2294 44.7265 38.2324 44.5312C38.2309 44.4345 38.2309 44.4345 38.2294 44.3359C38.364 43.8289 38.7265 43.7003 39.209 43.6981Z" fill="#5F7D97"/>
<path d="M42.1875 40.5762C42.252 40.5752 42.3164 40.5742 42.3828 40.5731C42.6678 40.6488 42.7825 40.7901 42.9688 41.0156C43.0193 41.2689 43.0193 41.2689 43.0206 41.5527C43.0211 41.6555 43.0216 41.7582 43.0222 41.864C43.0206 41.9708 43.0191 42.0775 43.0176 42.1875C43.0191 42.2943 43.0206 42.401 43.0222 42.511C43.0217 42.6137 43.0211 42.7164 43.0206 42.8223C43.0202 42.9159 43.0197 43.0096 43.0193 43.1061C42.9549 43.429 42.8309 43.5458 42.5781 43.75C42.3828 43.8019 42.3828 43.8019 42.1875 43.7988C42.0908 43.8003 42.0908 43.8003 41.9922 43.8019C41.7072 43.7262 41.5925 43.5849 41.4062 43.3594C41.3557 43.1061 41.3557 43.1061 41.3544 42.8223C41.3539 42.7195 41.3534 42.6168 41.3528 42.511C41.3544 42.4042 41.3559 42.2975 41.3574 42.1875C41.3559 42.0807 41.3544 41.974 41.3528 41.864C41.3536 41.7099 41.3536 41.7099 41.3544 41.5527C41.3548 41.4591 41.3553 41.3654 41.3557 41.2689C41.445 40.8215 41.731 40.569 42.1875 40.5762Z" fill="#5F7D97"/>
<path d="M5.46875 34.3262C5.5332 34.3252 5.59766 34.3242 5.66406 34.3231C5.94902 34.3988 6.06378 34.5401 6.25 34.7656C6.30054 35.0189 6.30054 35.0189 6.30188 35.3027C6.30238 35.4055 6.30289 35.5082 6.30341 35.614C6.3019 35.7208 6.30038 35.8275 6.29883 35.9375C6.30034 36.0443 6.30185 36.151 6.30341 36.261C6.3029 36.3637 6.3024 36.4664 6.30188 36.5723C6.30144 36.6659 6.301 36.7596 6.30054 36.8561C6.23611 37.179 6.11219 37.2958 5.85938 37.5C5.66406 37.5519 5.66406 37.5519 5.46875 37.5488C5.37207 37.5503 5.37207 37.5503 5.27344 37.5519C4.98848 37.4762 4.87372 37.3349 4.6875 37.1094C4.63696 36.8561 4.63696 36.8561 4.63562 36.5723C4.63512 36.4695 4.63461 36.3668 4.63409 36.261C4.6356 36.1542 4.63712 36.0475 4.63867 35.9375C4.63716 35.8307 4.63565 35.724 4.63409 35.614C4.63485 35.4599 4.63485 35.4599 4.63562 35.3027C4.63606 35.2091 4.6365 35.1154 4.63696 35.0189C4.72624 34.5715 5.01227 34.319 5.46875 34.3262Z" fill="#5F7D97"/>
<path d="M7.17773 32.7606C7.28046 32.7601 7.38318 32.7596 7.48901 32.759C7.59576 32.7605 7.70251 32.7621 7.8125 32.7636C7.97263 32.7613 7.97263 32.7613 8.13599 32.759C8.23871 32.7595 8.34143 32.76 8.44727 32.7606C8.58775 32.7612 8.58775 32.7612 8.73108 32.7619C9.054 32.8263 9.17081 32.9502 9.375 33.2031C9.42688 33.3984 9.42688 33.3984 9.42383 33.5937C9.42484 33.6581 9.42584 33.7226 9.42688 33.789C9.35119 34.074 9.20986 34.1887 8.98438 34.3749C8.73108 34.4255 8.73108 34.4255 8.44727 34.4268C8.34454 34.4273 8.24182 34.4278 8.13599 34.4283C8.02924 34.4268 7.92249 34.4253 7.8125 34.4238C7.65237 34.426 7.65237 34.426 7.48901 34.4283C7.38629 34.4278 7.28357 34.4273 7.17773 34.4268C7.08408 34.4264 6.99042 34.4259 6.89392 34.4255C6.571 34.361 6.45419 34.2371 6.25 33.9843C6.19812 33.789 6.19812 33.789 6.20117 33.5937C6.19966 33.497 6.19966 33.497 6.19812 33.3984C6.33277 32.8914 6.69522 32.7628 7.17773 32.7606Z" fill="#5F7D97"/>
<path d="M2.49023 32.7606C2.59296 32.7601 2.69568 32.7596 2.80151 32.759C2.90826 32.7605 3.01501 32.7621 3.125 32.7636C3.28513 32.7613 3.28513 32.7613 3.44849 32.759C3.55121 32.7595 3.65393 32.76 3.75977 32.7606C3.90025 32.7612 3.90025 32.7612 4.04358 32.7619C4.3665 32.8263 4.48331 32.9502 4.6875 33.2031C4.73938 33.3984 4.73938 33.3984 4.73633 33.5937C4.73734 33.6581 4.73834 33.7226 4.73938 33.789C4.66369 34.074 4.52236 34.1887 4.29688 34.3749C4.04358 34.4255 4.04358 34.4255 3.75977 34.4268C3.65704 34.4273 3.55432 34.4278 3.44849 34.4283C3.34174 34.4268 3.23499 34.4253 3.125 34.4238C2.96487 34.426 2.96487 34.426 2.80151 34.4283C2.69879 34.4278 2.59607 34.4273 2.49023 34.4268C2.39658 34.4264 2.30292 34.4259 2.20642 34.4255C1.8835 34.361 1.76669 34.2371 1.5625 33.9843C1.51062 33.789 1.51062 33.789 1.51367 33.5937C1.51216 33.497 1.51216 33.497 1.51062 33.3984C1.64527 32.8914 2.00772 32.7628 2.49023 32.7606Z" fill="#5F7D97"/>
<path d="M5.46875 29.6387C5.5332 29.6377 5.59766 29.6367 5.66406 29.6356C5.94902 29.7113 6.06378 29.8526 6.25 30.0781C6.30054 30.3314 6.30054 30.3314 6.30188 30.6152C6.30238 30.718 6.30289 30.8207 6.30341 30.9265C6.3019 31.0333 6.30038 31.14 6.29883 31.25C6.30034 31.3568 6.30185 31.4635 6.30341 31.5735C6.3029 31.6762 6.3024 31.7789 6.30188 31.8848C6.30144 31.9784 6.301 32.0721 6.30054 32.1686C6.23611 32.4915 6.11219 32.6083 5.85938 32.8125C5.66406 32.8644 5.66406 32.8644 5.46875 32.8613C5.37207 32.8628 5.37207 32.8628 5.27344 32.8644C4.98848 32.7887 4.87372 32.6474 4.6875 32.4219C4.63696 32.1686 4.63696 32.1686 4.63562 31.8848C4.63512 31.782 4.63461 31.6793 4.63409 31.5735C4.6356 31.4667 4.63712 31.36 4.63867 31.25C4.63716 31.1432 4.63565 31.0365 4.63409 30.9265C4.63485 30.7724 4.63485 30.7724 4.63562 30.6152C4.63606 30.5216 4.6365 30.4279 4.63696 30.3314C4.72624 29.884 5.01227 29.6315 5.46875 29.6387Z" fill="#5F7D97"/>
<path d="M35.1562 6.20117C35.2207 6.20016 35.2852 6.19916 35.3516 6.19812C35.6365 6.27381 35.7513 6.41514 35.9375 6.64062C35.988 6.89392 35.988 6.89392 35.9894 7.17773C35.9899 7.28046 35.9904 7.38318 35.9909 7.48901C35.9894 7.59576 35.9879 7.70251 35.9863 7.8125C35.9878 7.91925 35.9893 8.026 35.9909 8.13599C35.9904 8.23871 35.9899 8.34143 35.9894 8.44727C35.9889 8.54092 35.9885 8.63458 35.988 8.73108C35.9236 9.054 35.7997 9.17081 35.5469 9.375C35.3516 9.42688 35.3516 9.42688 35.1562 9.42383C35.0596 9.42534 35.0596 9.42534 34.9609 9.42688C34.676 9.35119 34.5612 9.20986 34.375 8.98438C34.3245 8.73108 34.3245 8.73108 34.3231 8.44727C34.3226 8.34454 34.3221 8.24182 34.3216 8.13599C34.3231 8.02924 34.3246 7.92249 34.3262 7.8125C34.3247 7.70575 34.3232 7.599 34.3216 7.48901C34.3223 7.33493 34.3223 7.33493 34.3231 7.17773C34.3236 7.08408 34.324 6.99042 34.3245 6.89392C34.4137 6.44648 34.6998 6.19404 35.1562 6.20117Z" fill="#5F7D97"/>
<path d="M36.8652 4.63556C36.968 4.63506 37.0707 4.63455 37.1765 4.63403C37.2833 4.63554 37.39 4.63705 37.5 4.63861C37.6601 4.63634 37.6601 4.63634 37.8235 4.63403C37.9262 4.63454 38.0289 4.63504 38.1348 4.63556C38.2753 4.63622 38.2753 4.63622 38.4186 4.63689C38.7415 4.70133 38.8583 4.82525 39.0625 5.07806C39.1144 5.27338 39.1144 5.27338 39.1113 5.46869C39.1123 5.53314 39.1133 5.5976 39.1144 5.664C39.0387 5.94896 38.8974 6.06372 38.6719 6.24994C38.4186 6.30048 38.4186 6.30048 38.1348 6.30182C38.032 6.30232 37.9293 6.30283 37.8235 6.30334C37.7167 6.30183 37.61 6.30032 37.5 6.29877C37.3399 6.30103 37.3399 6.30103 37.1765 6.30334C37.0738 6.30284 36.9711 6.30234 36.8652 6.30182C36.7716 6.30138 36.6779 6.30094 36.5814 6.30048C36.2585 6.23604 36.1417 6.11213 35.9375 5.85931C35.8856 5.664 35.8856 5.664 35.8887 5.46869C35.8872 5.37201 35.8872 5.37201 35.8856 5.27338C36.0203 4.76645 36.3827 4.63783 36.8652 4.63556Z" fill="#5F7D97"/>
<path d="M32.1777 4.63556C32.2805 4.63506 32.3832 4.63455 32.489 4.63403C32.5958 4.63554 32.7025 4.63705 32.8125 4.63861C32.9726 4.63634 32.9726 4.63634 33.136 4.63403C33.2387 4.63454 33.3414 4.63504 33.4473 4.63556C33.5878 4.63622 33.5878 4.63622 33.7311 4.63689C34.054 4.70133 34.1708 4.82525 34.375 5.07806C34.4269 5.27338 34.4269 5.27338 34.4238 5.46869C34.4248 5.53314 34.4258 5.5976 34.4269 5.664C34.3512 5.94896 34.2099 6.06372 33.9844 6.24994C33.7311 6.30048 33.7311 6.30048 33.4473 6.30182C33.3445 6.30232 33.2418 6.30283 33.136 6.30334C33.0292 6.30183 32.9225 6.30032 32.8125 6.29877C32.6524 6.30103 32.6524 6.30103 32.489 6.30334C32.3863 6.30284 32.2836 6.30234 32.1777 6.30182C32.0841 6.30138 31.9904 6.30094 31.8939 6.30048C31.571 6.23604 31.4542 6.11213 31.25 5.85931C31.1981 5.664 31.1981 5.664 31.2012 5.46869C31.1997 5.37201 31.1997 5.37201 31.1981 5.27338C31.3328 4.76645 31.6952 4.63783 32.1777 4.63556Z" fill="#5F7D97"/>
<path d="M35.1562 1.51367C35.2207 1.51266 35.2852 1.51166 35.3516 1.51062C35.6365 1.58631 35.7513 1.72764 35.9375 1.95312C35.988 2.20642 35.988 2.20642 35.9894 2.49023C35.9899 2.59296 35.9904 2.69568 35.9909 2.80151C35.9894 2.90826 35.9879 3.01501 35.9863 3.125C35.9878 3.23175 35.9893 3.3385 35.9909 3.44849C35.9904 3.55121 35.9899 3.65393 35.9894 3.75977C35.9889 3.85342 35.9885 3.94708 35.988 4.04358C35.9236 4.3665 35.7997 4.48331 35.5469 4.6875C35.3516 4.73938 35.3516 4.73938 35.1562 4.73633C35.0596 4.73784 35.0596 4.73784 34.9609 4.73938C34.676 4.66369 34.5612 4.52236 34.375 4.29688C34.3245 4.04358 34.3245 4.04358 34.3231 3.75977C34.3226 3.65704 34.3221 3.55432 34.3216 3.44849C34.3231 3.34174 34.3246 3.23499 34.3262 3.125C34.3247 3.01825 34.3232 2.9115 34.3216 2.80151C34.3223 2.64743 34.3223 2.64743 34.3231 2.49023C34.3236 2.39658 34.324 2.30292 34.3245 2.20642C34.4137 1.75898 34.6998 1.50654 35.1562 1.51367Z" fill="#5F7D97"/>
</svg>
