<svg width="160" height="49" viewBox="0 0 160 49" fill="none" xmlns="http://www.w3.org/2000/svg">
<path d="M21.8405 37.2493L9.20532 32.8961C9.01599 32.8317 8.83043 32.7727 8.64862 32.7192C8.47031 32.6472 8.28649 32.579 8.09716 32.5146L8.08065 32.5258L12.9572 39.5612C13.1451 39.8365 13.3331 40.1118 13.5211 40.3871C13.709 40.6623 13.8822 40.9396 14.0407 41.219C14.2313 41.0726 14.422 40.9263 14.6127 40.7799C14.8034 40.6336 14.9941 40.4872 15.1848 40.3409L15.681 41.0676L12.6584 43.1315L12.2862 42.5864C12.6276 42.3533 12.821 42.1164 12.8664 41.8755C12.9153 41.6161 12.8941 41.3722 12.8028 41.1439C12.704 40.9046 12.5982 40.7024 12.4854 40.5372L7.07719 32.5813C6.94938 32.3942 6.82156 32.207 6.69374 32.0198C6.56592 31.8326 6.44187 31.6509 6.32157 31.4747C6.15291 31.606 5.97874 31.7411 5.79907 31.8799C5.6194 32.0188 5.43972 32.1576 5.26005 32.2964L4.76382 31.5697L6.72933 30.2276L18.5847 34.2898C18.8557 34.3793 19.1211 34.4725 19.3811 34.5694C19.652 34.6589 19.923 34.7483 20.194 34.8378L20.2105 34.8265L15.0617 27.2505C14.9113 27.0303 14.774 26.8173 14.6496 26.6116C14.5178 26.3949 14.401 26.2001 14.2992 26.0275C14.1085 26.1738 13.9179 26.3201 13.7272 26.4665C13.5365 26.6128 13.3458 26.7592 13.1551 26.9055L12.6589 26.1788L15.698 24.1036L16.0702 24.6487C15.6703 24.9379 15.4534 25.2232 15.4195 25.5047C15.3857 25.7861 15.4647 26.0792 15.6567 26.3841C15.8487 26.6889 16.0801 27.0395 16.3507 27.4359L22.6334 36.7079L21.8405 37.2493Z" fill="black"/>
<path d="M36.5465 29.5694C35.3847 30.0742 34.3031 30.3116 33.3015 30.2816C32.2999 30.2516 31.3954 30.0268 30.5879 29.6072C29.7873 29.17 29.0921 28.6071 28.5021 27.9185C27.9122 27.2299 27.4445 26.4882 27.0991 25.6933C26.7643 24.9229 26.5553 24.0906 26.472 23.1963C26.3835 22.2899 26.4586 21.3922 26.6975 20.5034C26.9486 19.6092 27.384 18.7877 28.0035 18.0387C28.6352 17.2845 29.4892 16.6736 30.5653 16.206C31.6903 15.7171 32.7502 15.4964 33.7449 15.544C34.7396 15.5915 35.6459 15.8373 36.464 16.2814C37.289 16.708 38 17.2568 38.5969 17.9278C39.206 18.5936 39.6779 19.3116 40.0127 20.082C40.3421 20.8402 40.5511 21.6725 40.6397 22.579C40.723 23.4732 40.6417 24.3735 40.3959 25.2799C40.157 26.1688 39.7278 26.9876 39.1083 27.7366C38.4888 28.4855 37.6348 29.0965 36.5465 29.5694ZM36.2564 28.8014C37.0145 28.4719 37.6058 28.026 38.0302 27.4636C38.4492 26.889 38.7253 26.253 38.8584 25.5555C38.9983 24.8405 39.0166 24.1129 38.9131 23.3729C38.8165 22.6153 38.622 21.9002 38.3298 21.2276C38.0003 20.4694 37.5696 19.7625 37.0376 19.1069C36.5056 18.4513 35.9049 17.9054 35.2357 17.4693C34.5665 17.0333 33.8525 16.762 33.0939 16.6555C32.3422 16.5314 31.5873 16.6341 30.8291 16.9636C30.0709 17.293 29.4762 17.7477 29.0449 18.3277C28.6258 18.9023 28.3463 19.5471 28.2063 20.2621C28.0733 20.9596 28.055 21.6871 28.1516 22.4447C28.2551 23.1848 28.4557 23.8972 28.7533 24.582C29.0455 25.2546 29.4428 25.9179 29.945 26.5719C30.4595 27.2206 31.0505 27.7779 31.7182 28.2438C32.3858 28.7096 33.1043 29.008 33.8735 29.139C34.6427 29.2699 35.437 29.1574 36.2564 28.8014Z" fill="black"/>
<path d="M54.6461 13.1594C54.4559 12.547 54.1634 11.9938 53.7687 11.4998C53.374 11.0058 52.888 10.6438 52.3106 10.4138C51.7331 10.1838 51.0622 10.1619 50.2979 10.3479C49.4947 10.5434 48.9345 10.9199 48.6173 11.4774C48.3001 12.0348 48.2157 12.618 48.3639 13.2269C48.4963 13.771 48.7637 14.1931 49.166 14.4931C49.5652 14.7802 50.0457 15.0063 50.6073 15.1715C51.1788 15.3206 51.7746 15.4569 52.3947 15.5805C52.9406 15.6809 53.4913 15.8007 54.0466 15.94C54.5988 16.0664 55.1151 16.2426 55.5956 16.4687C56.076 16.6949 56.488 17.0063 56.8316 17.4029C57.1849 17.7835 57.4373 18.2847 57.5886 18.9066C57.762 19.6191 57.7351 20.298 57.508 20.9434C57.2938 21.5856 56.8892 22.1506 56.2944 22.6385C55.6964 23.1133 54.9116 23.469 53.94 23.7055C53.357 23.8474 52.7341 23.9098 52.0712 23.8927C51.4084 23.8756 50.7979 23.7635 50.2397 23.5563L50.5403 24.3682L49.5298 24.6142L48.4058 20.5034L49.1636 20.3189C49.5059 21.4432 50.1123 22.2151 50.9828 22.6344C51.8502 23.0408 52.7956 23.1195 53.819 22.8704C54.3243 22.7474 54.7686 22.5432 55.152 22.2578C55.5322 21.9594 55.8013 21.5989 55.9591 21.1763C56.1299 20.7505 56.1523 20.2785 56.0262 19.7603C55.8843 19.1773 55.6106 18.7293 55.2051 18.4163C54.7996 18.1033 54.316 17.8642 53.7543 17.699C53.1926 17.5338 52.6017 17.3895 51.9816 17.266C51.4357 17.1655 50.8931 17.0506 50.3539 16.9211C49.8146 16.7916 49.3064 16.6203 48.8291 16.4071C48.3616 16.1778 47.9512 15.8729 47.5978 15.4923C47.2574 15.1086 47.0116 14.6058 46.8602 13.984C46.7783 13.6471 46.7483 13.2702 46.7703 12.8532C46.7923 12.4361 46.9032 12.018 47.1031 11.5989C47.3128 11.1636 47.6435 10.7744 48.0951 10.4312C48.5566 10.0719 49.1824 9.79604 49.9727 9.6037C50.465 9.48389 51.0329 9.42114 51.6765 9.41545C52.3299 9.39366 52.9694 9.51245 53.5952 9.77183L53.3141 8.95514L54.3052 8.71393L55.3457 12.9891L54.6461 13.1594Z" fill="black"/>
<path d="M72.5901 20.8111C71.3263 20.8966 70.2277 20.7571 69.2943 20.3926C68.3609 20.0281 67.5844 19.5127 66.9646 18.8464C66.3573 18.1658 65.8913 17.4022 65.5668 16.5555C65.2422 15.7089 65.0507 14.8532 64.9921 13.9885C64.9354 13.1504 65.0179 12.2962 65.2397 11.4259C65.4605 10.5423 65.8327 9.722 66.3561 8.96493C66.8928 8.20696 67.5787 7.57923 68.4136 7.08172C69.2619 6.58331 70.2714 6.29449 71.442 6.21527C72.6659 6.13245 73.7383 6.28038 74.6593 6.65907C75.5804 7.03775 76.3516 7.57356 76.9732 8.26651C77.6071 8.94526 78.0926 9.70088 78.4295 10.5334C78.7798 11.3649 78.9833 12.1998 79.04 13.0379C79.0958 13.8626 79.0133 14.7168 78.7925 15.6004C78.5707 16.4707 78.1919 17.2915 77.6561 18.0628C77.1327 18.8198 76.4535 19.4471 75.6185 19.9446C74.7835 20.4421 73.7741 20.7309 72.5901 20.8111ZM72.5747 19.9902C73.3994 19.9344 74.1061 19.7129 74.6946 19.3256C75.2823 18.925 75.7558 18.4185 76.1153 17.8062C76.4872 17.1797 76.7486 16.5005 76.8995 15.7686C77.0628 15.0225 77.1197 14.2837 77.0702 13.552C77.0144 12.7272 76.846 11.9168 76.5649 11.1206C76.2839 10.3244 75.9013 9.60861 75.4173 8.97317C74.9333 8.33773 74.3519 7.84252 73.673 7.48755C73.0066 7.11837 72.261 6.96168 71.4362 7.0175C70.6114 7.07331 69.8986 7.30196 69.2976 7.70345C68.71 8.10404 68.2302 8.6176 67.8584 9.24414C67.4989 9.85647 67.2375 10.5357 67.0741 11.2817C66.9232 12.0136 66.873 12.752 66.9234 13.497C66.9729 14.2286 67.1244 14.9868 67.378 15.7715C67.6448 16.5552 68.0145 17.2786 68.487 17.9415C68.9595 18.6045 69.5361 19.1268 70.2167 19.5083C70.8974 19.8899 71.6834 20.0506 72.5747 19.9902Z" fill="black"/>
<path d="M97.7893 11.708C97.8609 10.9245 97.8519 10.2663 97.7622 9.73356C97.6725 9.20077 97.4557 8.7883 97.1119 8.49617C96.7828 8.19221 96.2729 8.00946 95.5821 7.94791L93.8921 7.76448L92.6961 18.5987C92.6573 18.9566 92.6168 19.2674 92.5748 19.531C92.5475 19.7829 92.5112 19.9935 92.466 20.163C92.7458 20.1799 93.019 20.1962 93.2855 20.2117C93.5653 20.2287 93.8451 20.2456 94.1249 20.2626L94.03 21.1374L89.3574 20.6303L89.4286 19.9742C89.9352 20.0023 90.2862 19.9197 90.4815 19.7263C90.6901 19.5344 90.8204 19.2602 90.8725 18.9037C90.9393 18.5354 90.9972 18.126 91.0461 17.6753L92.1601 7.59662L90.1099 7.39424C89.2748 7.3036 88.6548 7.51795 88.2497 8.03728C87.8446 8.5566 87.5781 9.40613 87.45 10.5859L86.7144 10.506L87.289 6.32361L98.8809 7.5817L98.5449 11.79L97.7893 11.708Z" fill="black"/>
<path d="M103.853 22.7677L104.029 22.1316C104.525 22.2412 104.889 22.2246 105.122 22.0817C105.359 21.9259 105.532 21.6763 105.641 21.333C105.766 20.9803 105.891 20.5791 106.016 20.1294L108.323 11.803C108.394 11.546 108.468 11.3037 108.545 11.076C108.625 10.8354 108.699 10.6205 108.765 10.4313C108.53 10.3801 108.295 10.3289 108.06 10.2776C107.826 10.2264 107.591 10.1752 107.356 10.124L107.591 9.27589C108.314 9.4624 109.043 9.65068 109.779 9.84075C110.528 10.0344 111.272 10.2473 112.01 10.4794C113.253 10.8376 114.214 11.263 114.894 11.7558C115.59 12.2392 116.047 12.7877 116.264 13.4014C116.485 14.0022 116.496 14.6624 116.297 15.3819C116.171 15.8866 115.932 16.3739 115.58 16.8437C115.245 17.3043 114.757 17.6672 114.116 17.9324C113.489 18.2012 112.658 18.3031 111.624 18.2382C111.832 18.4893 111.992 18.7828 112.107 19.1189C112.221 19.455 112.349 19.8432 112.49 20.2835L113.229 22.7089C113.351 23.1163 113.476 23.4899 113.603 23.8295C113.734 24.1563 113.911 24.4406 114.135 24.6824C114.362 24.9114 114.675 25.081 115.073 25.1914L114.897 25.8274L112.468 25.1546C112.188 24.7173 111.966 24.296 111.802 23.8907C111.65 23.489 111.498 23.0387 111.346 22.5399L110.626 20.1198C110.533 19.8037 110.426 19.4419 110.304 19.0345C110.198 18.6178 110.044 18.2499 109.842 17.931C109.633 17.8869 109.412 17.8328 109.181 17.7688C108.963 17.7082 108.746 17.6413 108.531 17.5679L107.495 21.3071C107.399 21.654 107.309 21.9542 107.225 22.2076C107.157 22.4518 107.087 22.6538 107.015 22.8137C107.173 22.8436 107.329 22.8799 107.483 22.9226C107.641 22.9525 107.799 22.9823 107.957 23.0122C108.114 23.0421 108.27 23.0784 108.425 23.1211L108.19 23.9691L103.853 22.7677ZM109.924 17.1859C110.637 17.356 111.286 17.4112 111.87 17.3516C112.467 17.2955 112.981 17.0853 113.414 16.721C113.847 16.3567 114.165 15.8084 114.368 15.076C114.504 14.5877 114.55 14.1441 114.509 13.7452C114.483 13.3369 114.363 12.9716 114.148 12.6491C113.933 12.3267 113.623 12.0471 113.218 11.8104C112.817 11.5609 112.321 11.3543 111.73 11.1905C111.254 11.0588 110.894 11.0626 110.648 11.2019C110.414 11.3448 110.237 11.5862 110.115 11.926C110.009 12.2565 109.893 12.6531 109.765 13.1157L108.739 16.8163C108.941 16.8861 109.13 16.9523 109.307 17.015C109.496 17.0812 109.702 17.1382 109.924 17.1859Z" fill="black"/>
<path d="M126.899 31.2307C125.756 30.6844 124.867 30.0232 124.233 29.2472C123.6 28.4712 123.176 27.6408 122.964 26.7559C122.769 25.8648 122.738 24.9708 122.872 24.0739C123.005 23.1769 123.258 22.3375 123.632 21.5556C123.994 20.7978 124.486 20.0943 125.107 19.4452C125.733 18.784 126.46 18.2523 127.288 17.85C128.128 17.4535 129.034 17.2436 130.005 17.2204C130.989 17.203 132.01 17.4474 133.069 17.9534C134.175 18.4825 135.037 19.1382 135.653 19.9204C136.269 20.7027 136.678 21.5483 136.879 22.4572C137.098 23.3598 137.149 24.2565 137.034 25.1471C136.93 26.0435 136.697 26.8706 136.335 27.6285C135.979 28.3743 135.487 29.0778 134.861 29.7389C134.24 30.388 133.507 30.9169 132.661 31.3255C131.834 31.7278 130.934 31.9405 129.962 31.9637C128.99 31.9868 127.969 31.7425 126.899 31.2307ZM127.288 30.5081C128.034 30.8647 128.759 31.0188 129.461 30.9706C130.17 30.9104 130.831 30.7019 131.445 30.3451C132.077 29.982 132.638 29.5189 133.129 28.9555C133.638 28.3859 134.051 27.7703 134.367 27.1087C134.723 26.3629 134.975 25.5742 135.121 24.7426C135.267 23.9111 135.286 23.0997 135.176 22.3084C135.067 21.5172 134.804 20.8002 134.387 20.1576C133.988 19.5086 133.415 19.0059 132.67 18.6493C131.924 18.2928 131.19 18.1417 130.47 18.1962C129.761 18.2565 129.091 18.4681 128.459 18.8312C127.845 19.188 127.284 19.6511 126.775 20.2207C126.284 20.7841 125.878 21.4026 125.556 22.0762C125.239 22.7378 124.999 23.4726 124.834 24.2807C124.682 25.0944 124.648 25.9061 124.734 26.7157C124.82 27.5252 125.066 28.2634 125.471 28.9301C125.877 29.5968 126.482 30.1228 127.288 30.5081Z" fill="black"/>
<path d="M151.156 34.1404C151.494 33.5953 151.72 33.0118 151.834 32.3899C151.948 31.768 151.903 31.1636 151.698 30.5768C151.493 29.99 151.07 29.469 150.428 29.0138C149.754 28.5354 149.103 28.3592 148.474 28.4852C147.845 28.6111 147.349 28.9297 146.987 29.4407C146.662 29.8975 146.519 30.3761 146.556 30.8766C146.601 31.3662 146.745 31.8773 146.989 32.4097C147.251 32.939 147.539 33.4783 147.852 34.0275C148.134 34.5056 148.404 34.9999 148.663 35.5106C148.93 36.0104 149.135 36.5159 149.279 37.0269C149.424 37.5379 149.459 38.0532 149.384 38.5727C149.329 39.089 149.116 39.6081 148.745 40.1301C148.321 40.7281 147.79 41.1529 147.154 41.4045C146.529 41.6637 145.837 41.7287 145.079 41.5993C144.328 41.4591 143.545 41.0996 142.729 40.5209C142.24 40.1737 141.785 39.7442 141.363 39.2325C140.941 38.7208 140.626 38.1863 140.416 37.6289L140 38.3882L139.152 37.7863L141.519 34.2426L142.155 34.694C141.531 35.6895 141.346 36.6534 141.6 37.5857C141.861 38.5071 142.422 39.2726 143.281 39.8821C143.705 40.1831 144.15 40.3847 144.617 40.4871C145.092 40.5786 145.54 40.5454 145.963 40.3876C146.397 40.2374 146.768 39.9448 147.076 39.5099C147.423 39.0206 147.582 38.5202 147.553 38.0088C147.523 37.4974 147.387 36.9755 147.143 36.443C146.9 35.9106 146.622 35.3698 146.308 34.8205C146.026 34.3425 145.757 33.8574 145.502 33.3653C145.246 32.8732 145.042 32.3771 144.89 31.8769C144.757 31.3736 144.718 30.8638 144.774 30.3474C144.84 29.8388 145.059 29.3236 145.429 28.8016C145.63 28.5189 145.895 28.2491 146.224 27.9924C146.553 27.7356 146.942 27.5453 147.389 27.4214C147.856 27.2944 148.366 27.2889 148.922 27.405C149.495 27.5179 150.114 27.8097 150.777 28.2803C151.19 28.5735 151.61 28.9613 152.036 29.4435C152.481 29.9226 152.811 30.4835 153.025 31.126L153.458 30.3784L154.289 30.9686L151.743 34.557L151.156 34.1404Z" fill="black"/>
</svg>
