<svg width="100" height="100" viewBox="0 0 100 100" fill="none" xmlns="http://www.w3.org/2000/svg">
<path d="M48.8383 76.5V87H21.9383V84.4C22.4716 84.6 22.8716 84.6 23.1383 84.4C23.4716 84.3333 23.8049 84.1 24.1383 83.7C24.4716 83.2333 24.6383 82.5333 24.6383 81.6V20.9C24.6383 19.9 24.4716 19.2 24.1383 18.8C23.8049 18.3333 23.4716 18.0333 23.1383 17.9C22.8716 17.7667 22.4716 17.7667 21.9383 17.9V15.5H34.0383V17.9C33.5049 17.7667 33.0383 17.7667 32.6383 17.9C32.3716 18.0333 32.1049 18.3333 31.8383 18.8C31.5716 19.2 31.4383 19.9 31.4383 20.9V84.4H40.8383C42.2383 84.4 43.3049 84.0333 44.0383 83.3C44.7716 82.5 45.3049 81.5667 45.6383 80.5C45.9716 79.3667 46.1716 78.0333 46.2383 76.5H48.8383ZM67.393 45.3C71.8596 51.0333 75.093 56.3667 77.093 61.3C79.1596 66.1667 79.7596 70.9667 78.893 75.7C78.493 77.2333 77.9596 78.7333 77.293 80.2C76.693 81.6 75.893 82.8667 74.893 84C73.893 85.1333 72.6596 86.0667 71.193 86.8C69.7263 87.4667 67.9596 87.8333 65.893 87.9C64.5596 87.9667 63.3263 87.7 62.193 87.1C61.1263 86.5667 60.1596 86.1 59.293 85.7C58.4263 85.2333 57.7263 85.0333 57.193 85.1C56.7263 85.1667 56.4596 85.8667 56.393 87.2H53.793V69.4H56.493C56.293 70.8667 56.2263 72.2667 56.293 73.6C56.4263 74.8667 56.6263 76.1 56.893 77.3C57.1596 78.3 57.493 79.3 57.893 80.3C58.293 81.2333 58.8263 82.1 59.493 82.9C60.1596 83.7 60.993 84.3667 61.993 84.9C62.993 85.4333 64.2263 85.7333 65.693 85.8C66.693 85.8667 67.793 85.6 68.993 85C70.193 84.4 71.1596 83.6333 71.893 82.7C73.5596 80.4333 74.2596 78 73.993 75.4C73.7263 72.8 72.9596 70.2667 71.693 67.8C70.4263 65.3333 68.9263 63 67.193 60.8C65.4596 58.5333 63.993 56.6 62.793 55C60.4596 52.2 58.593 49.4333 57.193 46.7C55.8596 43.9667 54.8596 41.3333 54.193 38.8C53.5263 36.2667 53.193 33.8333 53.193 31.5C53.193 29.1 53.4263 26.8333 53.893 24.7C54.7596 21.5 56.1263 19.0333 57.993 17.3C59.9263 15.5 62.793 14.6 66.593 14.6C67.8596 14.6 68.993 14.9333 69.993 15.6C71.0596 16.2 71.9596 16.7333 72.693 17.2C73.493 17.6667 74.093 17.8667 74.493 17.8C74.893 17.7333 75.1596 17 75.293 15.6H78.093V33.1H75.293C75.4263 30.0333 75.193 27.4 74.593 25.2C74.1263 23.2 73.293 21.3667 72.093 19.7C70.893 18.0333 69.093 17.2 66.693 17.2C65.3596 17.2 64.093 17.4667 62.893 18C61.7596 18.5333 60.8263 19.2333 60.093 20.1C58.493 22.3667 57.7263 24.6667 57.793 27C57.9263 29.2667 58.493 31.5 59.493 33.7C60.5596 35.9 61.8596 38 63.393 40C64.9263 41.9333 66.2596 43.7 67.393 45.3Z" fill="#F6F5EF"/>
</svg>
