<svg width="100" height="100" viewBox="0 0 100 100" fill="none" xmlns="http://www.w3.org/2000/svg">
<path d="M21.9048 66.05C21.9048 67.5433 22.0915 68.64 22.4648 69.34C22.8848 69.9933 23.6548 70.46 24.7748 70.74C25.9415 71.02 27.7615 71.16 30.2348 71.16C30.3748 71.16 30.4448 71.3 30.4448 71.58C30.4448 71.86 30.3748 72 30.2348 72C28.3215 72 26.8282 71.9767 25.7548 71.93L19.6648 71.86L14.9748 71.93C14.0882 71.9767 12.8982 72 11.4048 72C11.3115 72 11.2648 71.86 11.2648 71.58C11.2648 71.3 11.3115 71.16 11.4048 71.16C13.1782 71.16 14.4615 71.0433 15.2548 70.81C16.0948 70.5767 16.6548 70.1333 16.9348 69.48C17.2148 68.78 17.3548 67.73 17.3548 66.33V33.92C17.3548 32.52 17.2148 31.4933 16.9348 30.84C16.6548 30.1867 16.0948 29.7433 15.2548 29.51C14.4615 29.23 13.1782 29.09 11.4048 29.09C11.3115 29.09 11.2648 28.95 11.2648 28.67C11.2648 28.39 11.3115 28.25 11.4048 28.25L14.9048 28.32C16.8648 28.4133 18.4282 28.46 19.5948 28.46C20.7615 28.46 22.0682 28.39 23.5148 28.25C24.0748 28.25 24.9615 28.2267 26.1748 28.18C27.3882 28.0867 28.4382 28.04 29.3248 28.04C33.6182 28.04 37.0482 28.9967 39.6148 30.91C42.2282 32.8233 43.5348 35.74 43.5348 39.66C43.5348 42.74 42.7648 45.33 41.2248 47.43C39.7315 49.53 37.7948 51.0933 35.4148 52.12C33.0348 53.1467 30.5848 53.66 28.0648 53.66C26.7115 53.66 25.5915 53.5433 24.7048 53.31C24.5648 53.31 24.4948 53.1933 24.4948 52.96C24.4948 52.82 24.5182 52.68 24.5648 52.54C24.6582 52.4 24.7515 52.3533 24.8448 52.4C25.5915 52.5867 26.4315 52.68 27.3648 52.68C30.4448 52.68 33.0348 51.6767 35.1348 49.67C37.2815 47.6633 38.3548 44.77 38.3548 40.99C38.3548 37.3033 37.3515 34.41 35.3448 32.31C33.3382 30.1633 30.7715 29.09 27.6448 29.09C25.9648 29.09 24.7515 29.1833 24.0048 29.37C23.2582 29.5567 22.7215 30 22.3948 30.7C22.0682 31.3533 21.9048 32.4733 21.9048 34.06V66.05ZM54.9427 33.92C54.9427 32.52 54.8027 31.4933 54.5227 30.84C54.2427 30.1867 53.6827 29.7433 52.8427 29.51C52.0493 29.23 50.766 29.09 48.9927 29.09C48.8993 29.09 48.8527 28.95 48.8527 28.67C48.8527 28.39 48.8993 28.25 48.9927 28.25L52.4927 28.32C54.4527 28.4133 56.016 28.46 57.1827 28.46C58.536 28.46 60.1927 28.4133 62.1527 28.32L65.4427 28.25C65.5827 28.25 65.6527 28.39 65.6527 28.67C65.6527 28.95 65.5827 29.09 65.4427 29.09C63.716 29.09 62.4327 29.23 61.5927 29.51C60.7993 29.79 60.2393 30.28 59.9127 30.98C59.6327 31.6333 59.4927 32.66 59.4927 34.06V66.33C59.4927 67.7767 59.6327 68.8267 59.9127 69.48C60.1927 70.1333 60.7293 70.5767 61.5227 70.81C62.3627 71.0433 63.6693 71.16 65.4427 71.16C65.5827 71.16 65.6527 71.3 65.6527 71.58C65.6527 71.86 65.5827 72 65.4427 72C64.0427 72 62.9227 71.9767 62.0827 71.93L57.1827 71.86L52.4227 71.93C51.5827 71.9767 50.416 72 48.9227 72C48.8293 72 48.7827 71.86 48.7827 71.58C48.7827 71.3 48.8293 71.16 48.9227 71.16C50.696 71.16 51.9793 71.0433 52.7727 70.81C53.6127 70.5767 54.1727 70.1333 54.4527 69.48C54.7793 68.78 54.9427 67.73 54.9427 66.33V33.92ZM61.3827 47.85L64.8827 45.05L75.1027 58.07C78.5093 62.5033 81.0993 65.63 82.8727 67.45C84.6927 69.27 86.0927 70.3433 87.0727 70.67C88.0527 70.9967 89.476 71.16 91.3427 71.16C91.4827 71.16 91.5527 71.3 91.5527 71.58C91.5527 71.86 91.4827 72 91.3427 72H83.5027C83.1293 72 82.4527 72 81.4727 72C80.5393 72.0467 79.2093 70.88 77.4827 68.5C75.756 66.0733 74.0993 63.8567 72.5127 61.85L61.3827 47.85ZM74.4727 33.92C76.0127 32.38 76.7827 31.2367 76.7827 30.49C76.7827 29.5567 75.406 29.09 72.6527 29.09C72.5593 29.09 72.5127 28.95 72.5127 28.67C72.5127 28.39 72.5593 28.25 72.6527 28.25L75.6627 28.32C77.5293 28.4133 79.2327 28.46 80.7727 28.46C82.3127 28.46 83.9227 28.4133 85.6027 28.32L88.1927 28.25C88.3327 28.25 88.4027 28.39 88.4027 28.67C88.4027 28.95 88.3327 29.09 88.1927 29.09C86.2793 29.09 84.2493 29.51 82.1027 30.35C79.956 31.19 77.9493 32.52 76.0827 34.34L58.1627 51.91H56.4127L74.4727 33.92Z" fill="#DCD7B7"/>
</svg>
